<?xml version="1.0" encoding="UTF-8"?>
<svg id="uuid-247daf97-9f54-414f-838a-ee81932e74b6" data-name="Layer 2" xmlns="http://www.w3.org/2000/svg" xmlns:xlink="http://www.w3.org/1999/xlink" viewBox="0 0 1304.95526 315.66607">
  <defs>
    <style>
      .uuid-63ec82c7-6d26-418a-ac22-bdae2cfd791b {
        fill: none;
      }

      .uuid-63ec82c7-6d26-418a-ac22-bdae2cfd791b, .uuid-feee641f-3001-46d8-b77e-91ae5d5cf932 {
        stroke-width: 0px;
      }

      .uuid-e6135440-0bf6-4d5c-9252-bc7d78036495 {
        clip-path: url(#uuid-e557dc30-d851-482d-a614-f4e580f0225b);
      }

      .uuid-feee641f-3001-46d8-b77e-91ae5d5cf932 {
        fill: #4f0a60;
      }
    </style>
    <clipPath id="uuid-e557dc30-d851-482d-a614-f4e580f0225b">
      <rect class="uuid-63ec82c7-6d26-418a-ac22-bdae2cfd791b" width="1304.95526" height="315.66607" transform="translate(1304.95526 315.66607) rotate(180)"/>
    </clipPath>
  </defs>
  <g id="uuid-6c749d25-6992-4923-8170-1663f501ee67" data-name="Layer 1">
    <g class="uuid-e6135440-0bf6-4d5c-9252-bc7d78036495">
      <g>
        <path class="uuid-feee641f-3001-46d8-b77e-91ae5d5cf932" d="m1318.72836,11.08138c4.80354-14.03989,9.04241-18.12499,2.75088-31.4976l-21.01792-.09544v59.4372c8.3338-7.11835,14.70446-17.43082,18.26704-27.84416Z"/>
        <path class="uuid-feee641f-3001-46d8-b77e-91ae5d5cf932" d="m1286.36465-1099.7287l-1293.41666.00052.00037,1090.56999-22.94395.50382c-1.75954,3.73983-2.79069,5.83191-3.26007,7.21431V1.2854c.70308,1.43645,2.54568,3.2699,4.77804,9.79494,4.00001,11.69124,11.54146,23.24799,21.42598,30.30505v2.99549H-2.17358c.44763.23277.89034.47821,1.34558.6921,11.28994,20.04456,30.94114,34.65422,52.66484,39.1534,21.72395,4.49918,43.53022.1707,61.19493-13.87669,10.32674,13.83738,25.12421,23.90932,41.35119,28.14546,16.22673,4.23615,35.74056,3.65914,51.01478-3.49516,2.24772,7.47733,7.09653,14.05566,13.41982,18.20517,4.50981,2.95954,9.18844,4.76686,14.1734,5.14162,0,.04242-.00295.08354-.00295.12595,0,27.85166,21.45338,50.43005,47.91715,50.43005,15.435,0,29.15236-7.68941,37.91271-19.61886,9.42049,4.30494,19.70121,6.53074,29.97149,6.30366,10.99756-.24311,21.54615-3.19386,30.9968-8.46324,4.46637,3.4737,9.98718,5.53086,15.96784,5.53086,7.12319,0,13.59565-2.91764,18.40994-7.6726,3.00953,10.55093,12.3042,18.24034,23.30932,18.24034,11.00408,0,20.29536-7.68838,23.3052-18.2375,1.28752-.23639,2.50716-.66753,3.58414-1.34515,3.14414,12.5318,11.73363,23.42774,22.85585,28.99378,11.12253,5.56552,24.17502,5.17783,35.39504-.1663.09172,3.80061,3.44536,7.79856,7.13782,9.31259.08122.3895.17417.77616.29299,1.1548.17245.54934.39854,1.10772.8187,1.48067.42023.37269,1.08356.49916,1.5184.14509.81735.47304,1.54795.73193,2.24925.7909.40093,5.59294,3.42613,10.98,8.02631,13.8547,5.49961,3.43697,13.9048,3.75225,19.09299-.18544,2.2812,2.01294,5.38485,3.348,8.52812,3.73854-.08386,1.25075-.14167,2.50848-.14167,3.78095,0,1.96044.11206,3.89346.30933,5.80088-.20243,1.69767-.75487,1.84923-.30933,5.15869,4.27358,31.74356,48.20111,40.10025,62.32113,40.10025,30.4867,0,49.31674-7.54949,65.45678-21.70473,3.14708-1.81845,6.85631-8.38591,8.93864-11.37752,4.52891-6.50539,5.9352-14.94588,5.49365-22.99738,4.8952,2.659,11.93269,1.2254,16.15411-2.49943,5.18788,3.93769,13.59319,3.62241,19.09305.18518,5.49961-3.43697,8.76324-10.46351,7.96156-17.14219,4.93894,1.85724,11.94848-4.07786,12.08173-9.59631,11.22033,5.34413,24.27233,5.73182,35.39486.1663,3.72772-1.86552,7.16122-4.34038,10.21019-7.26422,5.459,2.27804,11.40931,3.53293,17.63977,3.53293,16.94732,0,31.82829-9.26759,40.34756-23.24153,7.95676-2.16269,15.21057-7.14447,20.24062-13.98919,12.99437,14.84889,30.81397,23.49162,49.99119,23.91552,19.17704.42416,38.39437-7.6951,51.96969-21.9569,8.6744,7.83528,21.57404,10.04039,32.68059,7.1931,11.10637-2.84755,20.69876-11.57874,24.97732-22.73461,7.36906,1.16618,14.02079-.734,20.34427-4.88351,6.32329-4.14976,11.17241-10.72783,13.41982-18.20543,15.27428,7.15456,34.78787,7.73157,51.01478,3.49516,16.22698-4.23589,31.02445-14.30783,41.35119-28.14521,17.66471,14.04764,39.47105,18.37587,61.19469,13.87669,21.72401-4.49918,41.37515-19.10857,52.66503-39.15314,3.34436-1.57094,6.48038-3.66948,9.38264-6.14848V-20.51166l-14.09636-.06414-.00031-1079.1529Z"/>
        <path class="uuid-feee641f-3001-46d8-b77e-91ae5d5cf932" d="m1286.36465-1099.7287l-1293.41666.00052.00037,1090.56999-22.94395.50382c-1.75954,3.73983-2.79069,5.83191-3.26007,7.21431V1.2854c.70308,1.43645,2.54568,3.2699,4.77804,9.79494,4.00001,11.69124,11.54146,23.24799,21.42598,30.30505v2.99549H-2.17358c.44763.23277.89034.47821,1.34558.6921,11.28994,20.04456,30.94114,34.65422,52.66484,39.1534,21.72395,4.49918,43.53022.1707,61.19493-13.87669,10.32674,13.83738,25.12421,23.90932,41.35119,28.14546,16.22673,4.23615,35.74056,3.65914,51.01478-3.49516,2.24772,7.47733,7.09653,14.05566,13.41982,18.20517,4.50981,2.95954,9.18844,4.76686,14.1734,5.14162,0,.04242-.00295.08354-.00295.12595,0,27.85166,21.45338,50.43005,47.91715,50.43005,15.435,0,29.15236-7.68941,37.91271-19.61886,9.42049,4.30494,19.70121,6.53074,29.97149,6.30366,10.99756-.24311,21.54615-3.19386,30.9968-8.46324,4.46637,3.4737,9.98718,5.53086,15.96784,5.53086,7.12319,0,13.59565-2.91764,18.40994-7.6726,3.00953,10.55093,12.3042,18.24034,23.30932,18.24034,11.00408,0,20.29536-7.68838,23.3052-18.2375,1.28752-.23639,2.50716-.66753,3.58414-1.34515,3.14414,12.5318,11.73363,23.42774,22.85585,28.99378,11.12253,5.56552,24.17502,5.17783,35.39504-.1663.09172,3.80061,3.44536,7.79856,7.13782,9.31259.08122.3895.17417.77616.29299,1.1548.17245.54934.39854,1.10772.8187,1.48067.42023.37269,1.08356.49916,1.5184.14509.81735.47304,1.54795.73193,2.24925.7909.40093,5.59294,3.42613,10.98,8.02631,13.8547,5.49961,3.43697,13.9048,3.75225,19.09299-.18544,2.2812,2.01294,5.38485,3.348,8.52812,3.73854-.08386,1.25075-.14167,2.50848-.14167,3.78095,0,1.96044.11206,3.89346.30933,5.80088-.20243,1.69767-.75487,1.84923-.30933,5.15869,4.27358,31.74356,48.20111,40.10025,62.32113,40.10025,30.4867,0,49.31674-7.54949,65.45678-21.70473,3.14708-1.81845,6.85631-8.38591,8.93864-11.37752,4.52891-6.50539,5.9352-14.94588,5.49365-22.99738,4.8952,2.659,11.93269,1.2254,16.15411-2.49943,5.18788,3.93769,13.59319,3.62241,19.09305.18518,5.49961-3.43697,8.76324-10.46351,7.96156-17.14219,4.93894,1.85724,11.94848-4.07786,12.08173-9.59631,11.22033,5.34413,24.27233,5.73182,35.39486.1663,3.72772-1.86552,7.16122-4.34038,10.21019-7.26422,5.459,2.27804,11.40931,3.53293,17.63977,3.53293,16.94732,0,31.82829-9.26759,40.34756-23.24153,7.95676-2.16269,15.21057-7.14447,20.24062-13.98919,12.99437,14.84889,30.81397,23.49162,49.99119,23.91552,19.17704.42416,38.39437-7.6951,51.96969-21.9569,8.6744,7.83528,21.57404,10.04039,32.68059,7.1931,11.10637-2.84755,20.69876-11.57874,24.97732-22.73461,7.36906,1.16618,14.02079-.734,20.34427-4.88351,6.32329-4.14976,11.17241-10.72783,13.41982-18.20543,15.27428,7.15456,34.78787,7.73157,51.01478,3.49516,16.22698-4.23589,31.02445-14.30783,41.35119-28.14521,17.66471,14.04764,39.47105,18.37587,61.19469,13.87669,21.72401-4.49918,41.37515-19.10857,52.66503-39.15314,3.34436-1.57094,6.48038-3.66948,9.38264-6.14848V-20.51166l-14.09636-.06414-.00031-1079.1529Z"/>
      </g>
    </g>
  </g>
</svg>