<?xml version="1.0" encoding="UTF-8"?>
<svg id="uuid-7dd7674a-8c1c-4486-8c82-e6a827ffb65e" data-name="Layer 2" xmlns="http://www.w3.org/2000/svg" xmlns:xlink="http://www.w3.org/1999/xlink" viewBox="0 0 883.16832 636.14166">
  <defs>
    <style>
      .uuid-8082d42c-7ce8-4e07-b40c-3c89ef25155d {
        stroke: url(#uuid-865f5368-5adc-4449-aae2-9b99c9ee3291);
      }

      .uuid-8082d42c-7ce8-4e07-b40c-3c89ef25155d, .uuid-27c7df3f-2bf1-4698-97fd-64eb97a80919, .uuid-ab9abf34-8cac-4d56-8120-acd02a12f84f, .uuid-d9a0cda5-b633-4881-abfa-3baaba6c5a72, .uuid-3e1e8bf0-0fdd-4c9c-867c-6cd454464a7a {
        fill: none;
        stroke-linecap: round;
        stroke-miterlimit: 10;
        stroke-width: 2px;
      }

      .uuid-27c7df3f-2bf1-4698-97fd-64eb97a80919 {
        stroke: url(#uuid-054e833c-b745-4336-bc5f-d876bcc030cc);
        stroke-dasharray: 0 0 10.01579 10.01579;
      }

      .uuid-ab9abf34-8cac-4d56-8120-acd02a12f84f {
        stroke: url(#uuid-bf0da09e-9467-47ff-9ca8-33dd3afd4331);
      }

      .uuid-d9a0cda5-b633-4881-abfa-3baaba6c5a72 {
        stroke: url(#uuid-db3b0be7-2f49-48b4-abc1-404e562404eb);
      }

      .uuid-3e1e8bf0-0fdd-4c9c-867c-6cd454464a7a {
        stroke: url(#uuid-fcd01a2a-8e0a-48a6-b46a-026752d93713);
        stroke-dasharray: 0 0 10.16367 10.16367;
      }
    </style>
    <linearGradient id="uuid-bf0da09e-9467-47ff-9ca8-33dd3afd4331" data-name="New Gradient Swatch copy 4" x1="-57.98952" y1="493.75391" x2="853.46443" y2="651.0297" gradientUnits="userSpaceOnUse">
      <stop offset="0" stop-color="#00d1d5"/>
      <stop offset=".48096" stop-color="#009bd5"/>
      <stop offset=".58777" stop-color="#068dd3"/>
      <stop offset=".78622" stop-color="#156bce"/>
      <stop offset="1" stop-color="#2a3fc8"/>
    </linearGradient>
    <linearGradient id="uuid-054e833c-b745-4336-bc5f-d876bcc030cc" data-name="New Gradient Swatch copy 4" x1="-9.92652" y1="215.21641" x2="901.52742" y2="372.4922" xlink:href="#uuid-bf0da09e-9467-47ff-9ca8-33dd3afd4331"/>
    <linearGradient id="uuid-865f5368-5adc-4449-aae2-9b99c9ee3291" data-name="New Gradient Swatch copy 4" x1="23.93971" y1="18.95284" x2="935.39365" y2="176.22863" xlink:href="#uuid-bf0da09e-9467-47ff-9ca8-33dd3afd4331"/>
    <linearGradient id="uuid-fcd01a2a-8e0a-48a6-b46a-026752d93713" data-name="New Gradient Swatch copy 4" x1="12.21081" y1="86.92482" x2="923.66476" y2="244.20061" xlink:href="#uuid-bf0da09e-9467-47ff-9ca8-33dd3afd4331"/>
    <linearGradient id="uuid-db3b0be7-2f49-48b4-abc1-404e562404eb" data-name="New Gradient Swatch copy 4" x1="-.0093" y1="157.7436" x2="911.44464" y2="315.01939" xlink:href="#uuid-bf0da09e-9467-47ff-9ca8-33dd3afd4331"/>
  </defs>
  <g id="uuid-ef5696d2-540b-4a97-a309-e00e7e0aab66" data-name="Layer 1">
    <g>
      <path class="uuid-ab9abf34-8cac-4d56-8120-acd02a12f84f" d="m306.90521,559.1098c.78638-1.47974,1.60284-2.93311,2.44836-4.3606"/>
      <path class="uuid-27c7df3f-2bf1-4698-97fd-64eb97a80919" d="m314.85181,546.3786c29.00189-39.98267,82.47821-56.1394,129.72388-49.57861,51.97748,7.21777,98.24506,36.39062,142.49951,65.58569,44.25446,29.19507,89.47522,59.61694,140.94568,69.83423,15.82349,3.14111,32.26428,4.28711,48.15051.71118,28.34363-6.38013,52.58276-27.40649,69.8656-52.4397,33.60571-48.67603,43.51648-113.42383,30.78613-171.33325-12.73047-57.90918-46.77661-108.7771-90.79224-144.75098-37.89087-30.96851-85.17664-51.85962-133.3656-47.55811-48.18896,4.30176-96.13678,37.77539-110.92621,87.12256-8.80597,29.38257-3.98804,64.79834,17.90833,84.11865,15.6355,13.79565,37.20673,17.51245,57.73199,17.26294,22.14294-.26929,44.91455-4.82935,63.80554-17.60547,37.73047-25.51709,51.63733-77.26807,53.7478-124.4104,2.18042-48.70337-5.74536-99.73877-33.44446-137.80103-16.39978-22.5354-38.78418-39.27197-62.09985-53.33008-42.22638-25.46045-88.74188-43.12476-136.27209-56.17749C456.87158,3.32928,417.01208.39007,368.97491,1.09808c-44.33374.65332-87.44647,13.02686-129.92059,25.30103-15.31836,4.42676-26.86267,15.22656-27.09894,30.94751-.23621,15.72095,13.86237,30.38794,29.84454,31.04785,12.56079.5188,24.59412-7.68408,29.6142-18.83789"/>
      <path class="uuid-8082d42c-7ce8-4e07-b40c-3c89ef25155d" d="m273.06171,64.83709c.40533-1.61011.66492-3.26001.76251-4.93555-1.57544-.58154-3.16077-1.09644-4.75439-1.54736"/>
      <path class="uuid-3e1e8bf0-0fdd-4c9c-867c-6cd454464a7a" d="m259.11676,56.35662c-26.66431-3.26343-54.63782,9.30347-76.48621,25.80664-25.91571,19.57544-47.43451,44.8501-75.66452,61.0564-28.63419,16.43823-63.35254,22.35596-96.09805,16.64624"/>
      <path class="uuid-d9a0cda5-b633-4881-abfa-3baaba6c5a72" d="m5.87164,158.90081c-1.63019-.3457-3.25443-.72095-4.87164-1.12549"/>
    </g>
  </g>
</svg>