<?xml version="1.0" encoding="UTF-8"?>
<svg id="uuid-bc70ee66-8bf1-4649-a96b-83914f6c4e67" data-name="Layer 2" xmlns="http://www.w3.org/2000/svg" xmlns:xlink="http://www.w3.org/1999/xlink" viewBox="0 0 1205.8356 957.82415">
  <defs>
    <style>
      .uuid-4b92c6cf-38fc-42cc-b594-75d5a4212062 {
        stroke: url(#uuid-0c47fc8e-bd07-4f1c-83b8-188419a6765f);
      }

      .uuid-4b92c6cf-38fc-42cc-b594-75d5a4212062, .uuid-159aa569-e7c5-45ff-ad63-cb36c95fbe8b, .uuid-6ba4dafd-22b3-4e81-9717-3901fa78d15c, .uuid-4121cb3e-a736-4571-aa6e-cabfdbca748a, .uuid-b8bc2b21-060a-40a4-8c73-027e417bd3ca, .uuid-73c8f3ab-0bef-4f54-ad7c-d248f33727d0, .uuid-1b7918ae-e261-4851-b9c1-e574434dd46b, .uuid-be8bcc8d-90b0-4589-8f34-1bcfb63ddfc2 {
        fill: none;
        stroke-linecap: round;
        stroke-miterlimit: 10;
        stroke-width: 2px;
      }

      .uuid-b1664929-1b76-4b40-97e8-580859217940 {
        fill: url(#uuid-529017b5-f368-4322-bb9a-a31dd9259801);
      }

      .uuid-b1664929-1b76-4b40-97e8-580859217940, .uuid-3ac61205-71b5-4668-bc4f-e4f5e90e1b4c, .uuid-97aca15c-76aa-45af-8f18-0c525c54b510, .uuid-3f10ad93-3dc6-4888-917b-7d5e901735f6, .uuid-ddd2b763-5ade-4fa7-8365-8aafbd77fb49, .uuid-d7aac739-24b4-46da-a5e5-9d34417d9555, .uuid-a65150e6-2f49-4fb6-aa15-80461c11fe13, .uuid-0d7a25e1-e4db-4b31-9577-de96d8c6b021, .uuid-35f69093-63cb-4cd3-a313-315aae77d9ce, .uuid-67a80f3e-13c7-4a6b-aedd-966e934a7fcd, .uuid-fde17610-a514-4046-aea8-4146c10f80fc, .uuid-df1e34ca-3588-44b9-a060-b583251892e7, .uuid-0a77c137-1506-4b1b-8323-6aee7a77fd82, .uuid-4e0cf350-b435-4d87-85a7-4397d47a9a0f, .uuid-297031ef-d40c-425e-857d-24713dae702c, .uuid-c747f306-b1a4-48e8-a5e1-0f2c45bce8fb, .uuid-f892c7a6-560e-4d2a-9be8-f2187bbb1a59, .uuid-6580c40d-4c12-4dcb-905b-d15b8fc5233f, .uuid-0bd92343-d145-45ab-8114-ad5f90a473b4, .uuid-6a5711a1-fef9-4ab3-9c1c-3256fbc85f91, .uuid-410c59a0-d227-43c3-9474-bc4504b132b7, .uuid-c739b608-f697-4d70-b4ee-12699023fd32, .uuid-c0a48830-23be-4a22-9478-0ea72f17f3d6, .uuid-c8d52390-5430-4d1e-8df4-2bec947dbd5d {
        stroke-width: 0px;
      }

      .uuid-159aa569-e7c5-45ff-ad63-cb36c95fbe8b {
        stroke: url(#uuid-e6ebad8a-0d1a-4716-a5d4-3c8e7462f4b9);
        stroke-dasharray: 0 0 10.01579 10.01579;
      }

      .uuid-3ac61205-71b5-4668-bc4f-e4f5e90e1b4c {
        fill: url(#uuid-c5166f57-3bcb-479f-a8b9-149ff3a0939a);
        opacity: .38;
      }

      .uuid-97aca15c-76aa-45af-8f18-0c525c54b510 {
        fill: url(#uuid-2138d362-ff15-40b5-82b4-d7216c5f6789);
      }

      .uuid-3f10ad93-3dc6-4888-917b-7d5e901735f6 {
        fill: url(#uuid-025733d1-1dce-410f-b50a-9bdf66c48d76);
      }

      .uuid-3f10ad93-3dc6-4888-917b-7d5e901735f6, .uuid-a65150e6-2f49-4fb6-aa15-80461c11fe13, .uuid-fde17610-a514-4046-aea8-4146c10f80fc {
        opacity: .24;
      }

      .uuid-ddd2b763-5ade-4fa7-8365-8aafbd77fb49 {
        fill: #2d0d73;
        opacity: .47;
      }

      .uuid-d7aac739-24b4-46da-a5e5-9d34417d9555 {
        opacity: .16;
      }

      .uuid-d7aac739-24b4-46da-a5e5-9d34417d9555, .uuid-6a5711a1-fef9-4ab3-9c1c-3256fbc85f91, .uuid-c8d52390-5430-4d1e-8df4-2bec947dbd5d {
        fill: #fff;
      }

      .uuid-a65150e6-2f49-4fb6-aa15-80461c11fe13 {
        fill: url(#uuid-3647cf2a-b729-40c8-b079-0275eef43c93);
      }

      .uuid-0d7a25e1-e4db-4b31-9577-de96d8c6b021 {
        fill: url(#uuid-9e830abe-4eb1-4812-b841-603d4b3a2050);
      }

      .uuid-6ba4dafd-22b3-4e81-9717-3901fa78d15c {
        stroke: url(#uuid-4191ecca-1103-4d87-a882-5876c5d1e778);
      }

      .uuid-4121cb3e-a736-4571-aa6e-cabfdbca748a {
        stroke: url(#uuid-76d87d23-f2fe-4324-952b-c9757f6c77f3);
      }

      .uuid-35f69093-63cb-4cd3-a313-315aae77d9ce {
        fill: url(#uuid-e04355ee-e9e4-46af-afd5-2e3a0d3f70d7);
      }

      .uuid-b8bc2b21-060a-40a4-8c73-027e417bd3ca {
        stroke: url(#uuid-8bc748ad-9ec5-414d-8417-5f6b6d151166);
        stroke-dasharray: 0 0 10.00064 10.00064;
      }

      .uuid-73c8f3ab-0bef-4f54-ad7c-d248f33727d0 {
        stroke: url(#uuid-56130878-932f-4d5a-8349-338b41a8c35b);
      }

      .uuid-67a80f3e-13c7-4a6b-aedd-966e934a7fcd {
        opacity: .26;
      }

      .uuid-67a80f3e-13c7-4a6b-aedd-966e934a7fcd, .uuid-297031ef-d40c-425e-857d-24713dae702c {
        fill: #2e6ff2;
      }

      .uuid-fde17610-a514-4046-aea8-4146c10f80fc {
        fill: url(#uuid-be37bf2c-8f7f-4458-b2ef-3d1466ad3fbc);
      }

      .uuid-df1e34ca-3588-44b9-a060-b583251892e7 {
        opacity: .62;
      }

      .uuid-df1e34ca-3588-44b9-a060-b583251892e7, .uuid-4e0cf350-b435-4d87-85a7-4397d47a9a0f {
        fill: #f3e0be;
      }

      .uuid-0a77c137-1506-4b1b-8323-6aee7a77fd82 {
        fill: url(#uuid-6bbce0b8-df38-4a6d-89bd-77116e9f3c89);
      }

      .uuid-1b7918ae-e261-4851-b9c1-e574434dd46b {
        stroke: url(#uuid-a7bd4204-86af-4f14-a8c4-08880582ad27);
        stroke-dasharray: 0 0 10.16367 10.16367;
      }

      .uuid-c747f306-b1a4-48e8-a5e1-0f2c45bce8fb {
        fill: #d65af9;
      }

      .uuid-f892c7a6-560e-4d2a-9be8-f2187bbb1a59 {
        fill: #8d5bff;
      }

      .uuid-6580c40d-4c12-4dcb-905b-d15b8fc5233f {
        fill: #30f2df;
      }

      .uuid-0bd92343-d145-45ab-8114-ad5f90a473b4 {
        fill: #f2cece;
      }

      .uuid-410c59a0-d227-43c3-9474-bc4504b132b7 {
        fill: #fbf;
      }

      .uuid-c739b608-f697-4d70-b4ee-12699023fd32 {
        fill: #f5e1c0;
      }

      .uuid-c0a48830-23be-4a22-9478-0ea72f17f3d6 {
        fill: url(#uuid-ec4409a5-2a4d-4ace-8ef5-2962e00869cb);
      }

      .uuid-c8d52390-5430-4d1e-8df4-2bec947dbd5d {
        opacity: .29;
      }

      .uuid-be8bcc8d-90b0-4589-8f34-1bcfb63ddfc2 {
        stroke: url(#uuid-9245d2af-352f-4224-9eb9-a05bcea6f186);
      }
    </style>
    <linearGradient id="uuid-9245d2af-352f-4224-9eb9-a05bcea6f186" data-name="New Gradient Swatch copy 4" x1="264.67776" y1="493.75391" x2="1176.13171" y2="651.0297" gradientUnits="userSpaceOnUse">
      <stop offset="0" stop-color="#00d1d5"/>
      <stop offset=".48096" stop-color="#009bd5"/>
      <stop offset=".58777" stop-color="#068dd3"/>
      <stop offset=".78622" stop-color="#156bce"/>
      <stop offset="1" stop-color="#2a3fc8"/>
    </linearGradient>
    <linearGradient id="uuid-e6ebad8a-0d1a-4716-a5d4-3c8e7462f4b9" data-name="New Gradient Swatch copy 4" x1="312.74076" y1="215.21641" x2="1224.1947" y2="372.4922" xlink:href="#uuid-9245d2af-352f-4224-9eb9-a05bcea6f186"/>
    <linearGradient id="uuid-4191ecca-1103-4d87-a882-5876c5d1e778" data-name="New Gradient Swatch copy 4" x1="346.60699" y1="18.95284" x2="1258.06093" y2="176.22863" xlink:href="#uuid-9245d2af-352f-4224-9eb9-a05bcea6f186"/>
    <linearGradient id="uuid-a7bd4204-86af-4f14-a8c4-08880582ad27" data-name="New Gradient Swatch copy 4" x1="334.87809" y1="86.92482" x2="1246.33204" y2="244.20061" xlink:href="#uuid-9245d2af-352f-4224-9eb9-a05bcea6f186"/>
    <linearGradient id="uuid-56130878-932f-4d5a-8349-338b41a8c35b" data-name="New Gradient Swatch copy 4" x1="322.65798" y1="157.7436" x2="1234.11192" y2="315.01939" xlink:href="#uuid-9245d2af-352f-4224-9eb9-a05bcea6f186"/>
    <linearGradient id="uuid-0c47fc8e-bd07-4f1c-83b8-188419a6765f" data-name="New Gradient Swatch copy 4" x1="580.36313" y1="570.40186" x2="153.0494" y2="215.88368" xlink:href="#uuid-9245d2af-352f-4224-9eb9-a05bcea6f186"/>
    <linearGradient id="uuid-8bc748ad-9ec5-414d-8417-5f6b6d151166" data-name="New Gradient Swatch copy 4" x1="400.35781" y1="787.36882" x2="-26.95592" y2="432.85065" xlink:href="#uuid-9245d2af-352f-4224-9eb9-a05bcea6f186"/>
    <linearGradient id="uuid-76d87d23-f2fe-4324-952b-c9757f6c77f3" data-name="New Gradient Swatch copy 4" x1="214.28047" y1="1011.65465" x2="-213.03326" y2="657.13647" xlink:href="#uuid-9245d2af-352f-4224-9eb9-a05bcea6f186"/>
    <linearGradient id="uuid-2138d362-ff15-40b5-82b4-d7216c5f6789" x1="321.75734" y1="358.43745" x2="322.97706" y2="385.2712" gradientUnits="userSpaceOnUse">
      <stop offset="0" stop-color="#d3c600"/>
      <stop offset=".27048" stop-color="#e78815"/>
      <stop offset=".56524" stop-color="#ff422e"/>
      <stop offset=".97431" stop-color="#d21a00"/>
    </linearGradient>
    <linearGradient id="uuid-e04355ee-e9e4-46af-afd5-2e3a0d3f70d7" x1="332.88736" y1="330.86863" x2="328.00436" y2="353.40554" xlink:href="#uuid-2138d362-ff15-40b5-82b4-d7216c5f6789"/>
    <linearGradient id="uuid-ec4409a5-2a4d-4ace-8ef5-2962e00869cb" x1="318.20169" y1="340.59982" x2="313.21834" y2="363.09411" xlink:href="#uuid-2138d362-ff15-40b5-82b4-d7216c5f6789"/>
    <linearGradient id="uuid-9e830abe-4eb1-4812-b841-603d4b3a2050" x1="538.84859" y1="564.28744" x2="700.05262" y2="564.28744" gradientUnits="userSpaceOnUse">
      <stop offset="0" stop-color="#c73988"/>
      <stop offset=".30653" stop-color="#c73988"/>
      <stop offset=".85555" stop-color="#d2704b"/>
      <stop offset=".99667" stop-color="#d6803b"/>
    </linearGradient>
    <linearGradient id="uuid-025733d1-1dce-410f-b50a-9bdf66c48d76" x1="-1322.39823" y1="610.13945" x2="-1348.27373" y2="432.08731" gradientTransform="translate(1383.96249 -636.80627) rotate(-36.44803)" gradientUnits="userSpaceOnUse">
      <stop offset="0" stop-color="#d6803b" stop-opacity="0"/>
      <stop offset="1" stop-color="#fff"/>
    </linearGradient>
    <linearGradient id="uuid-3647cf2a-b729-40c8-b079-0275eef43c93" x1="-1331.11896" y1="505.9752" x2="-1274.36146" y2="505.9752" gradientTransform="translate(1383.96249 -636.80627) rotate(-36.44803)" gradientUnits="userSpaceOnUse">
      <stop offset="0" stop-color="#fff"/>
      <stop offset=".0885" stop-color="#fff" stop-opacity=".95076"/>
      <stop offset=".25094" stop-color="#fff" stop-opacity=".82006"/>
      <stop offset=".4691" stop-color="#fff" stop-opacity=".60826"/>
      <stop offset=".7329" stop-color="#fff" stop-opacity=".3177"/>
      <stop offset=".99667" stop-color="#fff" stop-opacity="0"/>
    </linearGradient>
    <linearGradient id="uuid-be37bf2c-8f7f-4458-b2ef-3d1466ad3fbc" x1="-989.89603" y1="634.85087" x2="-950.35525" y2="634.85087" gradientTransform="translate(1130.40305 -433.86899) rotate(-28.74076)" gradientUnits="userSpaceOnUse">
      <stop offset="0" stop-color="#fff"/>
      <stop offset=".34771" stop-color="#fff" stop-opacity=".61155"/>
      <stop offset=".66556" stop-color="#fff" stop-opacity=".28279"/>
      <stop offset=".88814" stop-color="#fff" stop-opacity=".07875"/>
      <stop offset=".99667" stop-color="#fff" stop-opacity="0"/>
    </linearGradient>
    <linearGradient id="uuid-529017b5-f368-4322-bb9a-a31dd9259801" data-name="New Gradient Swatch copy" x1="504.35447" y1="576.25805" x2="754.95461" y2="576.25805" gradientUnits="userSpaceOnUse">
      <stop offset="0" stop-color="#de4c7d"/>
      <stop offset=".15626" stop-color="#de547a"/>
      <stop offset=".40783" stop-color="#de6c75"/>
      <stop offset=".72123" stop-color="#df926c"/>
      <stop offset=".99667" stop-color="#e1ba63"/>
    </linearGradient>
    <linearGradient id="uuid-6bbce0b8-df38-4a6d-89bd-77116e9f3c89" data-name="New Gradient Swatch copy" x1="533.18205" y1="505.86484" x2="696.02233" y2="650.30741" xlink:href="#uuid-529017b5-f368-4322-bb9a-a31dd9259801"/>
    <radialGradient id="uuid-c5166f57-3bcb-479f-a8b9-149ff3a0939a" cx="2391.62366" cy="270.21948" fx="2391.62366" fy="270.21948" r="130.92031" gradientTransform="translate(-798.53939 -1364.63989) rotate(47.21708)" gradientUnits="userSpaceOnUse">
      <stop offset="0" stop-color="#fff" stop-opacity=".6"/>
      <stop offset=".12331" stop-color="#fffcf3" stop-opacity=".57042"/>
      <stop offset=".30969" stop-color="#fff5d2" stop-opacity=".4888"/>
      <stop offset=".53605" stop-color="#ffe99d" stop-opacity=".35524"/>
      <stop offset=".79132" stop-color="#ffd954" stop-opacity=".17148"/>
      <stop offset="1" stop-color="#ffca10" stop-opacity="0"/>
    </radialGradient>
  </defs>
  <g id="uuid-b356f046-0136-4a86-85b5-6ab4df6332a4" data-name="Layer 1">
    <g>
      <path class="uuid-be8bcc8d-90b0-4589-8f34-1bcfb63ddfc2" d="m629.57249,559.1098c.78638-1.47974,1.60284-2.93311,2.44836-4.3606"/>
      <path class="uuid-159aa569-e7c5-45ff-ad63-cb36c95fbe8b" d="m637.51909,546.3786c29.00189-39.98267,82.47821-56.1394,129.72388-49.57861,51.97748,7.21777,98.24506,36.39062,142.49951,65.58569,44.25446,29.19507,89.47522,59.61694,140.94568,69.83423,15.82349,3.14111,32.26428,4.28711,48.15051.71118,28.34363-6.38013,52.58276-27.40649,69.8656-52.4397,33.60571-48.67603,43.51648-113.42383,30.78613-171.33325-12.73047-57.90918-46.77661-108.7771-90.79224-144.75098-37.89087-30.96851-85.17664-51.85962-133.3656-47.55811-48.18896,4.30176-96.13678,37.77539-110.92621,87.12256-8.80597,29.38257-3.98804,64.79834,17.90833,84.11865,15.6355,13.79565,37.20673,17.51245,57.73199,17.26294,22.14294-.26929,44.91455-4.82935,63.80554-17.60547,37.73047-25.51709,51.63733-77.26807,53.7478-124.4104,2.18042-48.70337-5.74536-99.73877-33.44446-137.80103-16.39978-22.5354-38.78418-39.27197-62.09985-53.33008-42.22638-25.46045-88.74188-43.12476-136.27209-56.17749C779.53886,3.32928,739.67937.39007,691.6422,1.09808c-44.33374.65332-87.44647,13.02686-129.92059,25.30103-15.31836,4.42676-26.86267,15.22656-27.09894,30.94751-.23621,15.72095,13.86237,30.38794,29.84454,31.04785,12.56079.5188,24.59412-7.68408,29.6142-18.83789"/>
      <path class="uuid-6ba4dafd-22b3-4e81-9717-3901fa78d15c" d="m595.72899,64.83709c.40533-1.61011.66492-3.26001.76251-4.93555-1.57544-.58154-3.16077-1.09644-4.75439-1.54736"/>
      <path class="uuid-1b7918ae-e261-4851-b9c1-e574434dd46b" d="m581.78404,56.35662c-26.66431-3.26343-54.63782,9.30347-76.48621,25.80664-25.91571,19.57544-47.43451,44.8501-75.66452,61.0564-28.63419,16.43823-63.35254,22.35596-96.09805,16.64624"/>
      <path class="uuid-73c8f3ab-0bef-4f54-ad7c-d248f33727d0" d="m328.53893,158.90081c-1.63019-.3457-3.25443-.72095-4.87164-1.12549"/>
    </g>
    <g>
      <path class="uuid-4b92c6cf-38fc-42cc-b594-75d5a4212062" d="m581.09825,567.94964c-1.41913.89087-2.85138,1.74414-4.29572,2.5603"/>
      <path class="uuid-b8bc2b21-060a-40a4-8c73-027e417bd3ca" d="m567.87804,575.02093c-45.07172,20.22021-99.49353,7.57861-137.18896-21.65674-41.46655-32.1604-67.04169-80.50952-90.86029-127.875s-47.86374-96.27588-87.3959-130.78394c-12.15332-10.60889-25.83606-19.79565-41.39119-24.61206-27.75284-8.59351-59.24599-2.44336-86.70499,10.64722-53.39281,25.45386-94.25179,76.65015-112.07338,133.20068-17.82159,56.55029-13.65377,117.61841,6.57957,170.74194,17.41795,45.73145,48.00272,87.4082,91.92537,107.69336,43.92264,20.28516,102.17372,15.15845,139.58763-20.25439,22.27713-21.08569,35.74933-54.19165,26.39355-81.85352-6.6806-19.75269-23.53024-33.72485-41.44962-43.73706-19.3317-10.80151-41.34677-18.1958-64.09172-16.53345-45.42783,3.32031-83.27451,41.25708-108.59719,81.07666-15.80424,24.85205-28.84787,51.97632-35.64054,80.74243-11.61036,49.16895-3.28098,109.53174,49.44037,130.8186,4.5097,1.82104,9.48844,3.26172,14.18919,2.0144,6.27566-1.66528,10.35361-7.58813,13.53598-13.24756,3.13234-5.57031,6.0274-11.625,5.80449-18.01172-.22292-6.38696-4.56958-13.05493-10.9171-13.79688-8.16093-.95386-16.85194-1.85693-21.70631,4.77222s-5.84874,15.25684-6.31557,23.45996c-.34777,6.11108-.47857,12.35229,1.23239,18.22925,4.39228,15.08691,19.34164,24.02783,32.24551,32.99438,16.51532,11.47632,31.43523,25.24487,44.19777,40.7876,7.4743,9.10254,14.46042,19.48413,15.2057,31.23853.52728,8.31592-3.23254,17.25317-9.63309,22.12378"/>
      <path class="uuid-4121cb3e-a736-4571-aa6e-cabfdbca748a" d="m149.92075,955.67181c-1.52402.60986-3.14473,1.00757-4.84792,1.15234"/>
    </g>
    <g>
      <g>
        <path class="uuid-297031ef-d40c-425e-857d-24713dae702c" d="m209.63173,364.3764c-8.12032-8.51758-12.45073-22.72021-15.87018-34.45825,6.60954,7.01636,13.53661,13.84644,20.64342,20.3584-.01396.85962.01364,1.72656.08533,2.59814.06856.83398.18428,1.69678.63535,2.49731.3616.6416.91736,1.2041,1.46918,1.7522,6.28822,6.24585,13.23409,12.12305,21.0912,16.84521,5.77951,3.47363,12.07556,6.30811,18.55975,8.06543,4.31009,2.79663,6.49146,4.16919,10.90549,6.85986,1.7562,1.07056.81342,3.15942-1.19159,2.60522-19.26657-5.3252-42.9386-13.0791-56.32794-27.12354Z"/>
        <path class="uuid-ddd2b763-5ade-4fa7-8365-8aafbd77fb49" d="m237.68602,373.96942c-7.85712-4.72217-14.80298-10.59937-21.0912-16.84521-.55182-.5481-1.10757-1.1106-1.46918-1.7522-.45107-.80054-.56679-1.66333-.63535-2.49731-.07169-.87158-.09929-1.73853-.08533-2.59814,4.54526,4.19458,6.86461,6.26147,11.595,10.32886,9.7834,7.55273,19.87755,14.70215,30.2458,21.42944-6.48419-1.75732-12.78024-4.5918-18.55975-8.06543Z"/>
      </g>
      <g>
        <path class="uuid-297031ef-d40c-425e-857d-24713dae702c" d="m255.07408,281.00311c-10.09387-1.1499-22.6293,3.2002-33.41664,5.57764,9.80821,2.86572,14.714,4.11499,24.49309,6.26099.66745-.50098,1.35486-.97705,2.06076-1.42529.67532-.42871,1.38922-.84058,2.19022-.96533.64209-.09985,1.30209-.00928,1.94962.08276,7.37836,1.04883,14.68192,2.29224,21.707,4.45557,5.16748,1.59106,10.198,3.70044,14.81525,6.50586,4.08792.65503,6.13016.9519,10.20862,1.48633,1.62268.2124,2.28406-1.98242.84534-2.73682-14.0481-7.36572-30.27539-17.58081-44.85324-19.2417Z"/>
        <path class="uuid-ddd2b763-5ade-4fa7-8365-8aafbd77fb49" d="m274.05812,294.98944c-7.02509-2.16333-14.32864-3.40674-21.707-4.45557-.64752-.09204-1.30753-.18262-1.94962-.08276-.80099.12476-1.51489.53662-2.19022.96533-.7059.44824-1.39331.92432-2.06076,1.42529,5.17316,1.1355,7.75677,1.65308,12.91272,2.59082,9.79355,2.46533,19.83109,4.5083,29.81012,6.06274-4.61725-2.80542-9.64777-4.91479-14.81525-6.50586Z"/>
      </g>
      <path class="uuid-97aca15c-76aa-45af-8f18-0c525c54b510" d="m280.79054,359.01556c2.79251-7.42407,19.54639-8.90234,27.26321-6.23584,8.784,3.0354,12.47412,14.14331,23.54208,15.4458,12.89548,1.51733,32.12354,10.57446,32.72595,11.9834,1.20563,2.81958-37.78717,12.96191-50.90662,9.12231-11.82202-3.45996-36.84827-19.08667-32.62463-30.31567Z"/>
      <path class="uuid-35f69093-63cb-4cd3-a313-315aae77d9ce" d="m290.43236,335.86761c-3.01813,8.37817,8.18866,19.65967,17.05753,22.86719,8.64667,3.1272,19.06293-1.39746,27.90927-2.1897,10.3382-.92578,33.22055.62695,33.22055.62695.96512-.76343-25.09644-27.03906-37.99234-30.19336-11.60358-2.83838-36.27621-1.9895-40.19501,8.88892Z"/>
      <path class="uuid-c0a48830-23be-4a22-9478-0ea72f17f3d6" d="m275.54189,341.65765c2.54935-6.5835,18.87585-8.22949,26.61865-5.81665,8.47153,2.63965,9.57776,7.83569,22.16119,15.75635,8.75952,5.51367,31.0368,12.35498,31.14456,12.54712,1.00293,1.78882-37.67804,12.70605-49.47421,8.18042-11.1861-4.29175-34.87357-19.2439-30.4502-30.66724Z"/>
      <path class="uuid-0bd92343-d145-45ab-8114-ad5f90a473b4" d="m297.96794,321.28533c-28.64896-23.3396-68.79236-40.63843-102.29306-54.88916-12.46475-5.30225-26.88046-9.34253-40.75801-9.07422,12.12334,14.11377,28.89618,23.51782,43.99893,33.60229,30.25459,20.2019,66.59291,36.20728,90.9687,64.50415,1.02121,1.18555,3.22894.19092,5.13617-1.11084,2.62918-8.43652,4.35974-17.75879,5.2337-23.98242.12451-.88672-.94601-7.95776-2.28644-9.0498Z"/>
      <path class="uuid-0bd92343-d145-45ab-8114-ad5f90a473b4" d="m289.88451,355.4284c-24.37604-28.29346-60.71405-44.302-90.9687-64.50415-15.10263-10.08472-31.8756-19.48853-43.99893-33.60229-3.84174.30737-7.3098,1.3623-9.24974,3.55591-11.05139,12.49658,6.94664,39.30737,15.29741,49.97021,26.33116,33.62183,75.83922,57.86743,117.54927,65.17334,3.05273.53467,9.21082-6.29199,9.80054-7.07666,2.72-3.61987,4.92749-8.91943,6.70633-14.6272-1.90723,1.30176-4.11478,2.29639-5.13617,1.11084Z"/>
      <path class="uuid-c8d52390-5430-4d1e-8df4-2bec947dbd5d" d="m297.96794,321.28533c-28.64896-23.3396-68.79236-40.63843-102.29306-54.88916-12.46475-5.30225-26.88046-9.34253-40.75801-9.07422,12.12334,14.11377,28.89618,23.51782,43.99893,33.60229,30.25459,20.2019,66.59291,36.20728,90.9687,64.50415,1.02121,1.18555,3.22894.19092,5.13617-1.11084,2.62918-8.43652,4.35974-17.75879,5.2337-23.98242.12451-.88672-.94601-7.95776-2.28644-9.0498Z"/>
      <path class="uuid-6580c40d-4c12-4dcb-905b-d15b8fc5233f" d="m168.5423,279.55975c-8.33495,9.88062-3.23285,24.65259,6.78911,31.82056,10.07634,7.20679,25.7131,7.37329,32.70605-3.51196,6.45793-10.05249,2.01895-23.79297-7.56201-30.64038-9.64639-6.89404-24.1937-6.84277-31.93315,2.33179Zm35.18303,25.54468c-5.81674,8.49243-17.81697,8.33716-25.73982,2.6709-7.87915-5.63501-11.81441-16.9353-5.42296-25.00586,5.65952-7.14624,17.02002-7.84106,25.25882-1.93652,8.2388,5.9043,11.0435,16.76782,5.90396,24.27148Z"/>
      <g>
        <path class="uuid-410c59a0-d227-43c3-9474-bc4504b132b7" d="m198.18497,280.33905c7.87521,5.62891,11.5468,16.92896,6.12918,25.14722-5.78485,8.77515-18.47519,8.65967-26.69225,2.78296-8.17186-5.84448-12.28561-17.83325-5.61226-25.93652,6.28406-7.63062,18.24773-7.65991,26.17532-1.99365Z"/>
        <path class="uuid-6a5711a1-fef9-4ab3-9c1c-3256fbc85f91" d="m198.18497,280.33905c4.04674,2.8916,7.2417,6.94629,9.03958,11.70557,1.76733,4.72485,2.10109,10.30396-.02266,15.29395-1.05637,2.46899-2.6909,4.78979-4.90973,6.64453-2.22118,1.84546-5.01315,3.2146-8.16211,3.87256-3.14467.66235-6.64104.62744-10.12798-.19263-3.48505-.80811-6.94508-2.38867-9.95328-4.54053-3.00522-2.15503-5.61301-4.90869-7.48286-7.93506-1.87906-3.02368-3.02042-6.30273-3.35808-9.46973-.35654-3.16846.09468-6.22388,1.18484-8.88501,1.09361-2.66553,2.83652-4.91699,4.89542-6.67139,4.16772-3.5354,9.67903-4.92407,14.79498-4.71094,5.16023.23096,10.06331,1.98657,14.10187,4.88867Zm0,0c-4.04086-2.92578-9.29716-4.11987-13.79669-3.17188-2.2524.44141-4.29944,1.37915-5.94652,2.65674-1.64673,1.28857-2.87895,2.90967-3.69389,4.65674-1.62149,3.54492-1.32306,7.47046-.02522,10.77905,1.36151,3.34448,3.62468,6.09814,6.47234,8.15625,2.85683,2.04248,6.21198,3.33594,9.86096,3.57446,3.59364.19556,7.47565-.74854,10.38503-3.38062,1.42882-1.31104,2.61255-2.97266,3.33948-4.91992.72108-1.94238.99133-4.15381.71967-6.40088-.47557-4.51123-3.24638-9.06299-7.31514-11.94995Z"/>
      </g>
      <path class="uuid-67a80f3e-13c7-4a6b-aedd-966e934a7fcd" d="m172.83688,282.43011c-5.78166,7.09424-3.96652,18.02319,4.32552,24.00757.47678.34424.96397.6626,1.45897.95801.13519-3.97998.88863-7.86304,2.18797-11.58032,2.39566-6.85376,6.41229-12.96826,11.06168-18.53931-6.73083-2.21118-14.44769-.47363-19.03413,5.15405Z"/>
      <path class="uuid-297031ef-d40c-425e-857d-24713dae702c" d="m262.08031,358.50653c2.45456,2.76343,3.70306,4.13721,6.24243,6.86743,14.17172,3.27856,28.30383,6.01514,42.67636,8.25513,1.44077.16919,1.75552-1.52612.38113-2.0061-13.21777-5.87598-26.07321-12.16284-38.82205-18.99683-3.75751.80957-5.65054,1.19287-9.46384,1.91479-1.93134.4126-2.48279,2.49854-1.01404,3.96558Z"/>
      <path class="uuid-297031ef-d40c-425e-857d-24713dae702c" d="m274.22475,333.86102c2.26141,2.66797,3.41287,3.99463,5.75735,6.63281,13.19986,3.04565,26.55051,5.43579,39.98819,7.15161,1.34885.13647,1.66479-1.55762.38257-2.00488-12.34085-5.35229-24.41159-11.32593-36.14902-17.89673-3.54974.90625-5.33939,1.33911-8.94681,2.16187-1.82797.46338-2.38904,2.5437-1.03229,3.95532Z"/>
      <path class="uuid-6a5711a1-fef9-4ab3-9c1c-3256fbc85f91" d="m197.99254,284.76068c2.15216,1.52271,2.79678,4.31079,1.42097,6.25684-1.37575,1.9458-4.29135,2.28516-6.49284.72754-2.20149-1.55737-2.81508-4.39331-1.38998-6.30444,1.42514-1.91113,4.30971-2.20239,6.46185-.67993Z"/>
      <path class="uuid-6a5711a1-fef9-4ab3-9c1c-3256fbc85f91" d="m199.2876,295.41497c1.11182.75757,1.46941,2.16113.79401,3.14258-.67543.98145-2.13824,1.16235-3.26253.39648-1.1243-.76587-1.4742-2.18164-.78629-3.15479.68788-.9729,2.14299-1.1416,3.25481-.38428Z"/>
      <path class="uuid-6a5711a1-fef9-4ab3-9c1c-3256fbc85f91" d="m228.45268,348.38006c1.74771.90112,2.57846,2.78735,1.84766,4.22827s-2.76654,1.88086-4.53891.96704c-1.77237-.91406-2.59016-2.82568-1.83469-4.25391.75545-1.42822,2.77821-1.84277,4.52594-.94141Z"/>
      <path class="uuid-6a5711a1-fef9-4ab3-9c1c-3256fbc85f91" d="m234.43687,354.67303c.88809.43774,1.32239,1.37769.96811,2.10376-.35431.72607-1.3681.96045-2.26242.51978s-1.32544-1.38721-.96494-2.11011,1.37112-.95093,2.25925-.51343Z"/>
      <g>
        <path class="uuid-c747f306-b1a4-48e8-a5e1-0f2c45bce8fb" d="m235.04787,296.62152c-1.09506-1.62378-1.19904-3.46216-.39261-4.53589-.38333.09326-.75726.2395-1.11002.44385-1.98425,1.14941-2.54987,3.68481-1.21213,5.67261,1.33774,1.98804,4.05963,2.64746,6.02798,1.46313.34998-.21045.65186-.46533.90591-.75146-1.38437.22363-3.12411-.6687-4.21915-2.29224Z"/>
        <path class="uuid-c747f306-b1a4-48e8-a5e1-0f2c45bce8fb" d="m239.49001,293.97674c-1.08685-1.6062-3.06192-2.32227-4.83475-1.89111-.80643,1.07373-.70245,2.91211.39261,4.53589,1.09503,1.62354,2.83478,2.51587,4.21915,2.29224,1.17496-1.32446,1.30984-3.33105.22299-4.93701Z"/>
        <path class="uuid-d7aac739-24b4-46da-a5e5-9d34417d9555" d="m239.49001,293.97674c-1.08685-1.6062-3.06192-2.32227-4.83475-1.89111-.80643,1.07373-.70245,2.91211.39261,4.53589,1.09503,1.62354,2.83478,2.51587,4.21915,2.29224,1.17496-1.32446,1.30984-3.33105.22299-4.93701Z"/>
      </g>
      <g>
        <path class="uuid-c747f306-b1a4-48e8-a5e1-0f2c45bce8fb" d="m238.00871,310.44866c-.47098-1.87427.1051-3.59326,1.28497-4.29346-.40875-.05005-.82758-.04834-1.24716.01392-2.36008.35107-3.85544,2.4624-3.29068,4.74951.56479,2.28687,2.99323,3.86743,5.37436,3.49683.42337-.06592.8158-.1897,1.17261-.35962-1.4465-.29419-2.82312-1.73291-3.2941-3.60718Z"/>
        <path class="uuid-c747f306-b1a4-48e8-a5e1-0f2c45bce8fb" d="m243.34047,309.61224c-.48175-1.86426-2.15637-3.22485-4.04678-3.45703-1.17987.7002-1.75595,2.41919-1.28497,4.29346s1.8476,3.31299,3.2941,3.60718c1.65005-.78662,2.51938-2.5791,2.03766-4.4436Z"/>
        <path class="uuid-d7aac739-24b4-46da-a5e5-9d34417d9555" d="m243.34047,309.61224c-.48175-1.86426-2.15637-3.22485-4.04678-3.45703-1.17987.7002-1.75595,2.41919-1.28497,4.29346s1.8476,3.31299,3.2941,3.60718c1.65005-.78662,2.51938-2.5791,2.03766-4.4436Z"/>
      </g>
      <g>
        <path class="uuid-c747f306-b1a4-48e8-a5e1-0f2c45bce8fb" d="m233.79472,324.9367c.36328-1.83521,1.67258-3.11255,3.12863-3.24829-.37814-.21118-.78833-.38086-1.22534-.49707-2.45825-.6543-4.83487.59082-5.29477,2.81958-.45987,2.22852,1.2099,4.60474,3.71606,5.26807.44559.11792.88666.17261,1.31326.17188-1.29193-.85596-2.00113-2.67871-1.63785-4.51416Z"/>
        <path class="uuid-c747f306-b1a4-48e8-a5e1-0f2c45bce8fb" d="m239.39186,326.39642c.33871-1.83984-.71976-3.73047-2.46851-4.70801-1.45605.13574-2.76535,1.41309-3.12863,3.24829-.36328,1.83545.34592,3.6582,1.63785,4.51416,1.97287-.00293,3.62057-1.21436,3.95929-3.05444Z"/>
        <path class="uuid-d7aac739-24b4-46da-a5e5-9d34417d9555" d="m239.39186,326.39642c.33871-1.83984-.71976-3.73047-2.46851-4.70801-1.45605.13574-2.76535,1.41309-3.12863,3.24829-.36328,1.83545.34592,3.6582,1.63785,4.51416,1.97287-.00293,3.62057-1.21436,3.95929-3.05444Z"/>
      </g>
      <g>
        <path class="uuid-c747f306-b1a4-48e8-a5e1-0f2c45bce8fb" d="m221.19949,334.31268c1.90686-.60547,3.97174-.23096,5.13078.82764-.08119-.39746-.22253-.79883-.4303-1.19409-1.16855-2.22314-3.95052-3.4209-6.26855-2.69629-2.31804.72437-3.29665,3.12183-2.13094,5.37695.20726.40088.46902.76904.77133,1.10034-.13292-1.4043,1.02084-2.80908,2.92767-3.41455Z"/>
        <path class="uuid-c747f306-b1a4-48e8-a5e1-0f2c45bce8fb" d="m223.8582,339.35833c1.90828-.62183,2.84738-2.37988,2.47208-4.21802-1.15904-1.05859-3.22392-1.43311-5.13078-.82764-1.90683.60547-3.06059,2.01025-2.92767,3.41455,1.39793,1.53198,3.67813,2.25269,5.58638,1.6311Z"/>
        <path class="uuid-d7aac739-24b4-46da-a5e5-9d34417d9555" d="m223.8582,339.35833c1.90828-.62183,2.84738-2.37988,2.47208-4.21802-1.15904-1.05859-3.22392-1.43311-5.13078-.82764-1.90683.60547-3.06059,2.01025-2.92767,3.41455,1.39793,1.53198,3.67813,2.25269,5.58638,1.6311Z"/>
      </g>
      <g>
        <path class="uuid-c747f306-b1a4-48e8-a5e1-0f2c45bce8fb" d="m207.43318,338.83538c1.81569-.78076,3.92046-.573,5.21272.4082-.13306-.39844-.32642-.79565-.58505-1.1814-1.45467-2.16846-4.38324-3.15747-6.59476-2.22168-2.21152.93604-2.86153,3.47168-1.3981,5.67676.26016.39209.57011.74585.91521,1.05835-.32262-1.42432.63431-2.95947,2.44998-3.74023Z"/>
        <path class="uuid-c747f306-b1a4-48e8-a5e1-0f2c45bce8fb" d="m210.75012,343.75921c1.81111-.79932,2.511-2.67285,1.89578-4.51562-1.29227-.9812-3.39703-1.18896-5.21272-.4082-1.81567.78076-2.7726,2.31592-2.44998,3.74023,1.5959,1.44531,3.95576,1.98315,5.76692,1.18359Z"/>
        <path class="uuid-d7aac739-24b4-46da-a5e5-9d34417d9555" d="m210.75012,343.75921c1.81111-.79932,2.511-2.67285,1.89578-4.51562-1.29227-.9812-3.39703-1.18896-5.21272-.4082-1.81567.78076-2.7726,2.31592-2.44998,3.74023,1.5959,1.44531,3.95576,1.98315,5.76692,1.18359Z"/>
      </g>
      <path class="uuid-f892c7a6-560e-4d2a-9be8-f2187bbb1a59" d="m236.65471,362.87225c3.33282,1.41235,5.00552,2.10181,8.36258,3.44653,21.02466-12.75195,26.60272-38.69531,27.62332-60.84692,1.11295-24.15601,0,0,0,0-3.11102-1.74976-4.65448-2.64185-7.71646-4.45947.01736,24.38965-11.42639,46.38599-28.26944,61.85986-5.80896,5.33691-12.59509,10.60449-19.06355,15.70776,6.46463-5.10034,12.82158-10.33716,19.06355-15.70776,5.28671,2.1792,7.94498,3.22656,13.28784,5.23511"/>
    </g>
    <g>
      <circle class="uuid-0d7a25e1-e4db-4b31-9577-de96d8c6b021" cx="619.4506" cy="564.28744" r="80.60201"/>
      <path class="uuid-3f10ad93-3dc6-4888-917b-7d5e901735f6" d="m677.95323,600.95912c-17.82352,3.73429-34.82601.75381-47.45633-8.83807-14.63945-11.11791-16.68705-29.94446-24.37974-45.66924-8.00859-16.37068-21.96471-34.14329-40.59372-42.21727-4.69235,4.11617-9.12068,8.53272-13.1592,13.37026-.10986.13158-.22594.24515-.33944.36613-.91085,1.90083-1.85708,3.77611-2.94627,5.56809,9.64098,2.89224,23.293,9.16222,29.43177,16.3197,12.63057,14.72656,10.10767,34.03322,18.92247,50.89977,13.51848,25.86648,44.88226,38.26775,77.82662,32.48886.46817-.81793,1.12255-1.58415,2.01256-2.2544,5.06255-3.81267,8.81122-8.8822,11.72429-14.5448-1.2446-3.98082-4.94118-6.76739-11.04301-5.48904Z"/>
      <path class="uuid-a65150e6-2f49-4fb6-aa15-80461c11fe13" d="m693.27212,578.91275c-8.89673-.95671-38.49839-6.83465-51.21009-15.58827-14.73395-10.14611-25.69406-40.42516-38.61032-52.27795-8.91597-8.1818-16.52539-13.93448-23.67046-17.92673-3.53161,2.49957-6.9887,5.09389-10.32482,7.83015,8.32182,3.11529,18.96747,10.69089,28.14831,17.92926,15.40017,12.14194,19.01682,42.41148,33.21403,55.23303,19.34358,17.46916,47.69249,17.72723,66.04688,18.63241.76674-2.77067,1.45013-5.54503,2.08951-8.26586.21477-.9139.54667-1.71624.96894-2.41336-2.20364-1.67786-4.5809-2.92993-6.65198-3.15267Z"/>
      <path class="uuid-fde17610-a514-4046-aea8-4146c10f80fc" d="m625.53499,625.28768c-4.94251-3.86633-30.41079-17.15843-39.69205-28.256-10.75775-12.86297-10.6665-32.3853-20.98596-45.89353-6.58511-8.61993-21.76611-11.44834-21.76611-11.44834-.54951-.6257-.04507-.83152,0,0,.05485,1.01193-2.71633,7.77066-3.22967,8.26287,5.02376-2.01352,13.50463-.82714,20.48316,7.8792,11.706,14.60432,7.00539,29.91295,18.28615,44.60487,15.36992,20.01755,43.06505,29.38719,52.94062,36.55738-.43128-1.81951-.9073-3.67126-1.39024-5.49818-.16221-.61364-.22962-1.10171-.21813-1.47844-1.65714-2.04482-3.27719-3.82975-4.42777-4.72982Z"/>
      <path class="uuid-b1664929-1b76-4b40-97e8-580859217940" d="m544.54314,593.7597l-7.32214,6.59912c-1.15686,1.08936-2.29474,2.13306-3.32959,3.1897-1.01642,1.06616-1.97968,2.1355-2.57495,3.09424-.29352.46851-.47449.91577-.35956,1.13428.07776.08691.24231.12231.55127-.10913.28735-.23584.84821-.76904,1.26245-2.14478.11035-.37134.16925-.72192.21356-1.14038.04926-.42847.0321-.85132.00336-1.29175-.03564-.4397-.13159-.8811-.22723-1.26489-.05298-.19824-.11676-.39429-.19043-.58569-.06787-.18311-.11969-.33203-.19287-.49609-.58905-1.28784-1.14087-1.85376-1.42651-2.21924-.22272-.32178-.39734-.50903-.34515-.61304.06146-.10815-.38928-.33691-.12042-.33105.19476-.09058.82227-.08325,1.36646-.10132l1.90387-.0603c1.33801-.06494,2.71722-.1084,4.13824-.20459,5.66608-.33887,11.51587-.93188,17.29938-1.58643,5.7951-.65332,11.57434-1.45972,17.31665-2.30713,22.97162-3.5,45.35663-8.30103,66.77588-15.12939,21.42944-6.84302,41.84869-15.68481,61.22437-27.42212,4.85779-2.92285,9.63251-6.05347,14.36871-9.36035,2.38232-1.64062,4.70654-3.37183,7.06793-5.10645,1.15082-.89478,2.32239-1.78027,3.50629-2.66528.10266-.01367.18195.0061.17957.12891.01355.11499-.03314.30542-.15613.74536-.10382.42944-.29077,1.11157-.30688,2.23584-.03149,1.09521.2926,2.69385,1.00793,3.89355.69293,1.20923,1.52356,1.87915,2.05267,2.19849.5437.3252.87909.3833,1.04004.37744.3186-.0354.15826-.29761-.15717-.51538-.65137-.46094-1.83502-.90747-3.07758-1.28491-2.53607-.74219-5.47498-1.30371-8.45245-1.79688-5.99658-.95215-12.28564-1.59375-18.72162-2.49561,5.59442-3.33374,11.4187-6.06519,17.63708-8.26904,3.12854-1.09595,6.32666-2.07373,9.92944-2.67114,1.823-.29297,3.71313-.52515,6.07501-.39209,1.18848.08008,2.51764.22583,4.24127.81055.86145.30591,1.86926.74585,3.01849,1.54199,1.1319.79077,2.49371,2.03857,3.53497,3.93433,1.06195,1.88647,1.513,4.26953,1.42126,6.12769-.07452,1.89038-.49274,3.31567-.90637,4.44507-.43018,1.14355-.87518,1.99438-1.29858,2.73926-.43146.75928-.84186,1.37158-1.23364,1.94409-.85773,1.40649-1.72772,2.81274-2.61847,4.20947-1.80255,2.77466-3.69983,5.50073-5.698,8.16138-3.99835,5.31836-8.40149,10.36377-13.11133,15.13184-9.45276,9.49927-20.18097,17.81787-31.71466,24.69336-11.5296,6.89478-23.81732,12.41577-36.44153,16.62378-12.63,4.20508-25.5943,7.14087-38.64062,8.83228-13.0484,1.69629-26.17847,2.18994-39.2262,1.42456-6.52411-.35986-13.02814-1.07349-19.50403-2.0979-6.48468-1.03027-12.90216-2.4126-19.41235-4.32837-1.62402-.48022-3.27789-.99951-4.96173-1.59912-.84174-.29688-1.71423-.61987-2.60956-.96509-.9483-.37207-1.81671-.71753-3.07611-1.30054-.46252-.22388-1.62842-.73975-2.25244-1.19043-.6416-.43335-1.46399-1.03809-2.30743-1.80933-.88654-.83887-1.99353-1.95703-2.95233-3.91895-.11755-.24902-.22266-.479-.32751-.75024-.10669-.28149-.20361-.56763-.28961-.85571-.17444-.5603-.29626-1.19287-.36853-1.8208-.08014-.6272-.0708-1.24536-.03577-1.8645.04224-.61011.146-1.14966.27539-1.71143.56268-2.13208,1.50275-3.35645,2.24292-4.20752.76562-.84888,1.46423-1.36841,2.10321-1.80396,1.25635-.80811,2.3266-1.25903,3.33173-1.60669,2.00439-.67505,3.79205-.98315,5.56427-1.19531,1.75745-.21729,3.46136-.33691,5.17017-.3457,3.39081-.0625,6.74939.15527,10.12366.71948Z"/>
      <path class="uuid-0a77c137-1506-4b1b-8323-6aee7a77fd82" d="m540.98888,539.47137l-4.39435-.87842-4.35815-.76709c-1.44531-.22681-2.87744-.4436-4.28534-.59644-1.40515-.14038-2.79968-.23901-4.0481-.19897-.62036.021-1.19897.0979-1.61682.22046-.19629.06396-.34967.14404-.38934.20435-.0351.0542.08344.10645.38989-.0481.30383-.13281.74048-.61694.90094-1.01904.17224-.40967.18335-.60181.23621-.63257.03864-.04858.10455.04077.20496.17017.05267.06934.10352.14502.14154.16895.04285.04053.05511.05566.14642.17041.57947.74316,1.49194,1.83716,2.40424,2.80688.92792.99609,1.89801,1.99292,2.90833,2.97217,8.0766,7.88599,17.08307,15.10059,26.2431,21.8606,18.43494,13.44629,38.13257,24.97168,58.92859,33.60913,20.78156,8.64307,42.68756,14.33789,65.21954,16.07446,5.63104.48438,11.29596.6377,16.99042.64331,2.84863.00415,5.69513-.12329,8.55786-.21509l4.29144-.23828c.52936-.01074.88525-.06299,1.01697-.05151.06488.01123.03308.05078-.09509.20361-.12201.14453-.34131.45605-.45905.8374-.12128.37842-.09918.72656-.04999.86768.04919.15039.09979.13647.10425.04785.00757-.19458-.15106-.6394-.39362-1.09741-.5011-.93872-1.29065-2.00098-2.14001-3.03174-1.73694-2.06934-3.80414-4.06665-5.91718-6.02734-4.27704-3.89136-8.86047-7.62305-13.50085-11.33618,5.5752,2.07544,11.04529,4.44873,16.33508,7.37451,2.65417,1.46362,5.24957,3.05981,7.79163,5.01587,1.27399.99292,2.5293,2.05811,3.74353,3.50562.60406.73877,1.21667,1.55786,1.745,2.73853.25745.59961.4967,1.30225.60187,2.18506.10626.87109.04132,1.96729-.35791,3.02661-.38898,1.06616-1.08173,1.96729-1.7594,2.58789-.68604.63086-1.35974,1.04395-1.96692,1.34814-1.21417.60107-2.30133.88818-3.22083,1.09814l-4.42603,1.02417c-2.96271.6438-5.95044,1.19482-8.95728,1.65161-6.0105.95972-12.09839,1.47827-18.20898,1.73413-6.10895.17554-12.24976.10645-18.35999-.41479l-4.58069-.42358-4.57123-.53516-4.54913-.69507-4.5318-.80298c-12.06384-2.2771-23.85516-5.88062-35.17908-10.49731-22.64844-9.28271-43.45624-22.521-61.48456-38.66626-2.25085-2.02417-4.45862-4.09497-6.63757-6.19336-2.17072-2.10864-4.26807-4.29541-6.34393-6.5-2.07843-2.20264-4.09607-4.46704-6.03992-6.80688-1.94464-2.33862-3.8725-4.69702-5.66754-7.20923-.90662-1.24463-1.7887-2.52759-2.65479-3.85547-.86694-1.36255-1.70166-2.64111-2.55054-4.46558-.20337-.44165-.5061-1.16284-.61401-1.66577-.14514-.56152-.27661-1.18408-.3269-1.96143-.04382-.75488-.03094-1.70093.36835-2.81274.37317-1.10791,1.27924-2.2063,2.18097-2.7627.90442-.58325,1.72272-.79614,2.39984-.91235.6767-.10327,1.25562-.09961,1.79211-.07251,1.0498.07422,1.94073.26245,2.77356.48706,1.66052.44824,3.12628,1.04517,4.54584,1.70068,1.41693.64844,2.77563,1.34912,4.09711,2.10449,1.32721.73755,2.61206,1.53833,3.8725,2.36841,1.26215.82422,2.50928,1.66211,3.70483,2.58301Z"/>
      <circle class="uuid-3ac61205-71b5-4668-bc4f-e4f5e90e1b4c" cx="630.01539" cy="571.93776" r="151.42634"/>
      <circle class="uuid-c739b608-f697-4d70-b4ee-12699023fd32" cx="709.51751" cy="504.87376" r="9.37955"/>
      <circle class="uuid-4e0cf350-b435-4d87-85a7-4397d47a9a0f" cx="661.94828" cy="484.22983" r="4.68978"/>
      <circle class="uuid-4e0cf350-b435-4d87-85a7-4397d47a9a0f" cx="503.91718" cy="546.3006" r="2.71055"/>
      <circle class="uuid-df1e34ca-3588-44b9-a060-b583251892e7" cx="512.29923" cy="579.77361" r="5.42109"/>
      <circle class="uuid-4e0cf350-b435-4d87-85a7-4397d47a9a0f" cx="553.43166" cy="510.10256" r="2.71055"/>
      <circle class="uuid-4e0cf350-b435-4d87-85a7-4397d47a9a0f" cx="550.72112" cy="522.33577" r="2.71055"/>
    </g>
  </g>
</svg>