<?xml version="1.0" encoding="UTF-8"?>
<svg id="uuid-15973936-a4ed-4eb9-b6d2-31d2e21835e3" data-name="uuid-4d9b6c01-fe4d-40ab-a1ff-052e40ad0805" xmlns="http://www.w3.org/2000/svg" xmlns:xlink="http://www.w3.org/1999/xlink" viewBox="0 0 1331.4392 315.66608">
  <defs>
    <style>
      .uuid-edd0c85d-8b00-4c70-a3c5-b3691dd12126 {
        fill: none;
      }

      .uuid-edd0c85d-8b00-4c70-a3c5-b3691dd12126, .uuid-feb883d9-22bb-494c-bdde-9cdbef40d583 {
        stroke-width: 0px;
      }

      .uuid-ccf75e8e-2151-4f78-ac85-59ef1bc0b4e8 {
        clip-path: url(#uuid-735b21dd-20ba-43a8-8a38-76c8d95cda59);
      }

      .uuid-feb883d9-22bb-494c-bdde-9cdbef40d583 {
        fill: #4a0950;
      }
    </style>
    <clipPath id="uuid-735b21dd-20ba-43a8-8a38-76c8d95cda59">
      <rect class="uuid-edd0c85d-8b00-4c70-a3c5-b3691dd12126" x="-1.53093" y="0" width="1335.23554" height="315.66608"/>
    </clipPath>
  </defs>
  <g id="uuid-bc53c98b-1605-4c38-88af-f3bda07b057c" data-name="uuid-edaa76e9-6408-4d16-a89e-cd8dddcd0b93">
    <g class="uuid-ccf75e8e-2151-4f78-ac85-59ef1bc0b4e8">
      <g>
        <path class="uuid-feb883d9-22bb-494c-bdde-9cdbef40d583" d="m1347.7974,11.08138c4.91505-14.03989,9.25218-18.12499,2.81469-31.4976l-21.50565-.09544v59.4372c8.52712-7.11835,15.04567-17.43082,18.69096-27.84416Z"/>
        <path class="uuid-feb883d9-22bb-494c-bdde-9cdbef40d583" d="m1314.68266-1099.72876l-1323.42923.00049.00038,1090.56995-23.47634.50382c-1.80037,3.73983-2.85545,5.83191-3.33572,7.21431V1.2854c.71939,1.43645,2.60475,3.2699,4.88891,9.79494,4.09283,11.69124,11.80927,23.24799,21.92315,30.30505v2.99549H-3.75495c.45802.23277.911.47821,1.3768.6921,11.55191,20.04456,31.6591,34.65422,53.88688,39.1534,22.22803,4.49918,44.5403.1707,62.6149-13.87669,10.56636,13.83738,25.70719,23.90932,42.31071,28.14546,16.60326,4.23615,36.56988,3.65914,52.19852-3.49516,2.29988,7.47733,7.2612,14.05566,13.73121,18.20517,4.61446,2.95954,9.40166,4.76686,14.50228,5.14162,0,.04242-.00301.08354-.00301.12595,0,27.85166,21.95119,50.43005,49.02902,50.43005,15.79315,0,29.82883-7.68941,38.79245-19.61887,9.6391,4.30495,20.15835,6.53075,30.66696,6.30367,11.25275-.2431,22.0461-3.19386,31.71605-8.46324,4.57001,3.47369,10.21893,5.53085,16.33835,5.53085,7.28849,0,13.91112-2.91763,18.83713-7.67261,3.07935,10.55093,12.58971,18.24034,23.8502,18.24034,11.25943,0,20.76628-7.68839,23.84598-18.2375,1.31738-.23639,2.56535-.66753,3.6673-1.34515,3.21709,12.5318,12.00591,23.42773,23.38618,28.99377,11.38062,5.56552,24.73598,5.17783,36.21633-.16631.09386,3.80061,3.52532,7.79855,7.30344,9.31259.08312.3895.17824.77615.29977,1.1548.17643.54935.40781,1.10773.83772,1.48067.42998.3727,1.1087.49916,1.5536.1451.83629.47304,1.58389.73193,2.30146.79089.41024,5.59294,3.50565,10.98,8.21255,13.85471,5.62725,3.43697,14.22743,3.75224,19.53605-.18544,2.33412,2.01294,5.50978,3.34801,8.72603,3.73854-.08581,1.25075-.14495,2.50848-.14495,3.78094,0,1.96043.11466,3.89346.3165,5.80087-.20715,1.69766-.7724,1.84923-.3165,5.15869,4.37272,31.74356,49.31958,40.10025,63.76721,40.10025,31.19411,0,50.46106-7.54948,66.97565-21.70473,3.22012-1.81845,7.01542-8.38591,9.14607-11.37752,4.63402-6.50539,6.0729-14.94588,5.62113-22.99738,5.00879,2.659,12.20957,1.2254,16.52896-2.49944,5.30825,3.93768,13.90862,3.62241,19.53612.18518,5.62725-3.43697,8.96659-10.46352,8.14629-17.1422,5.05357,1.85724,12.22574-4.07787,12.36207-9.59631,11.4807,5.34413,24.83556,5.73183,36.21614.16631,3.81422-1.86552,7.32736-4.34038,10.44712-7.26422,5.58566,2.27805,11.67404,3.53293,18.04909,3.53293,17.34057,0,32.56686-9.26759,41.28376-23.24153,8.14142-2.16269,15.56352-7.14447,20.71027-13.9892,13.29591,14.84889,31.52898,23.49162,51.15121,23.91553,19.62205.42416,39.28526-7.6951,53.17558-21.95689,8.87566,7.83528,22.07464,10.04039,33.43887,7.1931,11.36404-2.84755,21.17903-11.57874,25.55687-22.73461,7.54001,1.16618,14.34609-.734,20.81631-4.88351,6.46997-4.14976,11.43161-10.72783,13.73119-18.20543,15.62872,7.15456,35.59506,7.73157,52.19852,3.49516,16.60346-4.23589,31.74431-14.30783,42.31071-28.14521,18.07457,14.04764,40.38696,18.37587,62.61467,13.87669,22.22809-4.49918,42.3352-19.10857,53.88709-39.15314,3.42196-1.57094,6.63072-3.66948,9.60041-6.14848V-20.51166l-14.42341-.06414-.00037-1079.15296h.00012Z"/>
        <path class="uuid-feb883d9-22bb-494c-bdde-9cdbef40d583" d="m1314.68266-1099.72876l-1323.42923.00049.00038,1090.56995-23.47634.50382c-1.80037,3.73983-2.85545,5.83191-3.33572,7.21431V1.2854c.71939,1.43645,2.60475,3.2699,4.88891,9.79494,4.09283,11.69124,11.80927,23.24799,21.92315,30.30505v2.99549H-3.75495c.45802.23277.911.47821,1.3768.6921,11.55191,20.04456,31.6591,34.65422,53.88688,39.1534,22.22803,4.49918,44.5403.1707,62.6149-13.87669,10.56636,13.83738,25.70719,23.90932,42.31071,28.14546,16.60326,4.23615,36.56988,3.65914,52.19852-3.49516,2.29988,7.47733,7.2612,14.05566,13.73121,18.20517,4.61446,2.95954,9.40166,4.76686,14.50228,5.14162,0,.04242-.00301.08354-.00301.12595,0,27.85166,21.95119,50.43005,49.02902,50.43005,15.79315,0,29.82883-7.68941,38.79245-19.61887,9.6391,4.30495,20.15835,6.53075,30.66696,6.30367,11.25275-.2431,22.0461-3.19386,31.71605-8.46324,4.57001,3.47369,10.21893,5.53085,16.33835,5.53085,7.28849,0,13.91112-2.91763,18.83713-7.67261,3.07935,10.55093,12.58971,18.24034,23.8502,18.24034,11.25943,0,20.76628-7.68839,23.84598-18.2375,1.31738-.23639,2.56535-.66753,3.6673-1.34515,3.21709,12.5318,12.00591,23.42773,23.38618,28.99377,11.38062,5.56552,24.73598,5.17783,36.21633-.16631.09386,3.80061,3.52532,7.79855,7.30344,9.31259.08312.3895.17824.77615.29977,1.1548.17643.54935.40781,1.10773.83772,1.48067.42998.3727,1.1087.49916,1.5536.1451.83629.47304,1.58389.73193,2.30146.79089.41024,5.59294,3.50565,10.98,8.21255,13.85471,5.62725,3.43697,14.22743,3.75224,19.53605-.18544,2.33412,2.01294,5.50978,3.34801,8.72603,3.73854-.08581,1.25075-.14495,2.50848-.14495,3.78094,0,1.96043.11466,3.89346.3165,5.80087-.20715,1.69766-.7724,1.84923-.3165,5.15869,4.37272,31.74356,49.31958,40.10025,63.76721,40.10025,31.19411,0,50.46106-7.54948,66.97565-21.70473,3.22012-1.81845,7.01542-8.38591,9.14607-11.37752,4.63402-6.50539,6.0729-14.94588,5.62113-22.99738,5.00879,2.659,12.20957,1.2254,16.52896-2.49944,5.30825,3.93768,13.90862,3.62241,19.53612.18518,5.62725-3.43697,8.96659-10.46352,8.14629-17.1422,5.05357,1.85724,12.22574-4.07787,12.36207-9.59631,11.4807,5.34413,24.83556,5.73183,36.21614.16631,3.81422-1.86552,7.32736-4.34038,10.44712-7.26422,5.58566,2.27805,11.67404,3.53293,18.04909,3.53293,17.34057,0,32.56686-9.26759,41.28376-23.24153,8.14142-2.16269,15.56352-7.14447,20.71027-13.9892,13.29591,14.84889,31.52898,23.49162,51.15121,23.91553,19.62205.42416,39.28526-7.6951,53.17558-21.95689,8.87566,7.83528,22.07464,10.04039,33.43887,7.1931,11.36404-2.84755,21.17903-11.57874,25.55687-22.73461,7.54001,1.16618,14.34609-.734,20.81631-4.88351,6.46997-4.14976,11.43161-10.72783,13.73119-18.20543,15.62872,7.15456,35.59506,7.73157,52.19852,3.49516,16.60346-4.23589,31.74431-14.30783,42.31071-28.14521,18.07457,14.04764,40.38696,18.37587,62.61467,13.87669,22.22809-4.49918,42.3352-19.10857,53.88709-39.15314,3.42196-1.57094,6.63072-3.66948,9.60041-6.14848V-20.51166l-14.42341-.06414-.00037-1079.15296h.00012Z"/>
      </g>
    </g>
  </g>
</svg>