<?xml version="1.0" encoding="UTF-8"?>
<svg id="uuid-82dbdf19-40f0-4858-bcd3-806667f8886b" data-name="Layer 2" xmlns="http://www.w3.org/2000/svg" xmlns:xlink="http://www.w3.org/1999/xlink" viewBox="0 0 302.85409 302.85409">
  <defs>
    <style>
      .uuid-3529b0fb-9b0d-4a3a-8663-37dee086ef60 {
        fill: url(#uuid-efea9b43-005a-4427-8011-a0a635df6b00);
      }

      .uuid-3529b0fb-9b0d-4a3a-8663-37dee086ef60, .uuid-16f6fd1d-01b9-45bd-b53b-c09490f89cbf, .uuid-2bc41199-1483-4aa7-b222-75f219639da8, .uuid-ad65955a-5e8b-4c90-bb82-6f0d732a9adc, .uuid-4bffc29b-394a-4fd8-92c3-28888ae920a3, .uuid-bd1ae254-8db8-47e9-8e28-c4200f57a316, .uuid-253c5344-60bf-4c8c-87b5-320f58118379, .uuid-5089f51d-007c-48ac-bc72-6447481fb01f, .uuid-35759bf9-d0e8-4863-8672-869879ab209d, .uuid-fd031ce2-ff01-4da7-a1e8-51f88a3567be {
        stroke-width: 0px;
      }

      .uuid-3529b0fb-9b0d-4a3a-8663-37dee086ef60, .uuid-2bc41199-1483-4aa7-b222-75f219639da8, .uuid-4bffc29b-394a-4fd8-92c3-28888ae920a3 {
        opacity: .24;
      }

      .uuid-16f6fd1d-01b9-45bd-b53b-c09490f89cbf {
        fill: url(#uuid-8bb6d186-bda8-4700-b403-1dccd2830df5);
        opacity: .38;
      }

      .uuid-2bc41199-1483-4aa7-b222-75f219639da8 {
        fill: url(#uuid-33db0d0e-3526-411e-81e1-2eb872759e1b);
      }

      .uuid-ad65955a-5e8b-4c90-bb82-6f0d732a9adc {
        fill: url(#uuid-9405d544-92af-4564-aaaa-e755d4ca514b);
      }

      .uuid-4bffc29b-394a-4fd8-92c3-28888ae920a3 {
        fill: url(#uuid-50b0cf31-3c8f-40d0-b48e-941e284c48fb);
      }

      .uuid-bd1ae254-8db8-47e9-8e28-c4200f57a316 {
        fill: url(#uuid-6e025eac-09e2-4bb3-95bb-2b36ec96087c);
      }

      .uuid-253c5344-60bf-4c8c-87b5-320f58118379 {
        opacity: .62;
      }

      .uuid-253c5344-60bf-4c8c-87b5-320f58118379, .uuid-35759bf9-d0e8-4863-8672-869879ab209d {
        fill: #f3e0be;
      }

      .uuid-5089f51d-007c-48ac-bc72-6447481fb01f {
        fill: url(#uuid-f4cb1eac-9186-4c4c-bb2b-a9e2cfd8b303);
      }

      .uuid-fd031ce2-ff01-4da7-a1e8-51f88a3567be {
        fill: #f5e1c0;
      }
    </style>
    <linearGradient id="uuid-9405d544-92af-4564-aaaa-e755d4ca514b" x1="60.26025" y1="143.77673" x2="221.46428" y2="143.77673" gradientUnits="userSpaceOnUse">
      <stop offset="0" stop-color="#c73988"/>
      <stop offset=".30653" stop-color="#c73988"/>
      <stop offset=".85555" stop-color="#d2704b"/>
      <stop offset=".99667" stop-color="#d6803b"/>
    </linearGradient>
    <linearGradient id="uuid-50b0cf31-3c8f-40d0-b48e-941e284c48fb" x1="-1800.98657" y1="189.62873" x2="-1826.86207" y2="11.57659" gradientTransform="translate(1540.17137 -1003.38605) rotate(-36.44803)" gradientUnits="userSpaceOnUse">
      <stop offset="0" stop-color="#d6803b" stop-opacity="0"/>
      <stop offset="1" stop-color="#fff"/>
    </linearGradient>
    <linearGradient id="uuid-33db0d0e-3526-411e-81e1-2eb872759e1b" x1="-1809.7073" y1="85.46449" x2="-1752.9498" y2="85.46449" gradientTransform="translate(1540.17137 -1003.38605) rotate(-36.44803)" gradientUnits="userSpaceOnUse">
      <stop offset="0" stop-color="#fff"/>
      <stop offset=".0885" stop-color="#fff" stop-opacity=".95076"/>
      <stop offset=".25094" stop-color="#fff" stop-opacity=".82006"/>
      <stop offset=".4691" stop-color="#fff" stop-opacity=".60826"/>
      <stop offset=".7329" stop-color="#fff" stop-opacity=".3177"/>
      <stop offset=".99667" stop-color="#fff" stop-opacity="0"/>
    </linearGradient>
    <linearGradient id="uuid-efea9b43-005a-4427-8011-a0a635df6b00" x1="-1468.48437" y1="214.34015" x2="-1428.94359" y2="214.34015" gradientTransform="translate(1273.64451 -715.80207) rotate(-28.74076)" gradientUnits="userSpaceOnUse">
      <stop offset="0" stop-color="#fff"/>
      <stop offset=".34771" stop-color="#fff" stop-opacity=".61155"/>
      <stop offset=".66556" stop-color="#fff" stop-opacity=".28279"/>
      <stop offset=".88814" stop-color="#fff" stop-opacity=".07875"/>
      <stop offset=".99667" stop-color="#fff" stop-opacity="0"/>
    </linearGradient>
    <linearGradient id="uuid-f4cb1eac-9186-4c4c-bb2b-a9e2cfd8b303" data-name="New Gradient Swatch copy" x1="25.76612" y1="155.74733" x2="276.36626" y2="155.74733" gradientUnits="userSpaceOnUse">
      <stop offset="0" stop-color="#de4c7d"/>
      <stop offset=".15626" stop-color="#de547a"/>
      <stop offset=".40783" stop-color="#de6c75"/>
      <stop offset=".72123" stop-color="#df926c"/>
      <stop offset=".99667" stop-color="#e1ba63"/>
    </linearGradient>
    <linearGradient id="uuid-6e025eac-09e2-4bb3-95bb-2b36ec96087c" data-name="New Gradient Swatch copy" x1="54.59371" y1="85.35413" x2="217.43399" y2="229.79669" xlink:href="#uuid-f4cb1eac-9186-4c4c-bb2b-a9e2cfd8b303"/>
    <radialGradient id="uuid-8bb6d186-bda8-4700-b403-1dccd2830df5" cx="1913.03532" cy="-150.29123" fx="1913.03532" fy="-150.29123" r="130.92031" gradientTransform="translate(-1260.68619 -1148.27877) rotate(47.21708)" gradientUnits="userSpaceOnUse">
      <stop offset="0" stop-color="#fff" stop-opacity=".6"/>
      <stop offset=".12331" stop-color="#fffcf3" stop-opacity=".57042"/>
      <stop offset=".30969" stop-color="#fff5d2" stop-opacity=".4888"/>
      <stop offset=".53605" stop-color="#ffe99d" stop-opacity=".35524"/>
      <stop offset=".79132" stop-color="#ffd954" stop-opacity=".17148"/>
      <stop offset="1" stop-color="#ffca10" stop-opacity="0"/>
    </radialGradient>
  </defs>
  <g id="uuid-0f167f19-3424-4c94-9139-1841ce6f17d8" data-name="Layer 1">
    <g>
      <circle class="uuid-ad65955a-5e8b-4c90-bb82-6f0d732a9adc" cx="140.86226" cy="143.77673" r="80.60201"/>
      <path class="uuid-4bffc29b-394a-4fd8-92c3-28888ae920a3" d="m199.36489,180.4484c-17.82352,3.73429-34.82601.75381-47.45633-8.83807-14.63945-11.11791-16.68705-29.94446-24.37974-45.66924-8.00859-16.37068-21.96471-34.14329-40.59372-42.21727-4.69235,4.11617-9.12068,8.53272-13.1592,13.37026-.10986.13158-.22594.24515-.33944.36613-.91085,1.90083-1.85708,3.77611-2.94627,5.56809,9.64098,2.89224,23.293,9.16222,29.43177,16.3197,12.63057,14.72656,10.10767,34.03322,18.92247,50.89977,13.51848,25.86648,44.88226,38.26775,77.82662,32.48886.46817-.81793,1.12255-1.58415,2.01256-2.2544,5.06255-3.81267,8.81122-8.8822,11.72429-14.5448-1.2446-3.98082-4.94118-6.76739-11.04301-5.48904Z"/>
      <path class="uuid-2bc41199-1483-4aa7-b222-75f219639da8" d="m214.68378,158.40203c-8.89673-.95671-38.49839-6.83465-51.21009-15.58827-14.73395-10.14611-25.69406-40.42516-38.61032-52.27795-8.91597-8.1818-16.52539-13.93448-23.67046-17.92673-3.53161,2.49957-6.9887,5.09389-10.32482,7.83015,8.32182,3.11529,18.96747,10.69089,28.14831,17.92926,15.40017,12.14194,19.01682,42.41148,33.21403,55.23303,19.34358,17.46916,47.69249,17.72723,66.04688,18.63241.76674-2.77067,1.45013-5.54503,2.08951-8.26586.21477-.9139.54667-1.71624.96894-2.41336-2.20364-1.67786-4.5809-2.92993-6.65198-3.15267Z"/>
      <path class="uuid-3529b0fb-9b0d-4a3a-8663-37dee086ef60" d="m146.94665,204.77696c-4.94251-3.86633-30.41079-17.15843-39.69205-28.256-10.75775-12.86297-10.6665-32.3853-20.98596-45.89353-6.58511-8.61993-21.76611-11.44834-21.76611-11.44834-.54951-.6257-.04507-.83152,0,0,.05485,1.01193-2.71633,7.77066-3.22967,8.26287,5.02376-2.01352,13.50463-.82714,20.48316,7.8792,11.706,14.60432,7.00539,29.91295,18.28615,44.60487,15.36992,20.01755,43.06505,29.38719,52.94062,36.55738-.43128-1.81951-.9073-3.67126-1.39024-5.49818-.16221-.61364-.22962-1.10171-.21813-1.47844-1.65714-2.04482-3.27719-3.82975-4.42777-4.72982Z"/>
      <path class="uuid-5089f51d-007c-48ac-bc72-6447481fb01f" d="m65.9548,173.24899l-7.32214,6.59912c-1.15686,1.08936-2.29474,2.13306-3.32959,3.1897-1.01642,1.06616-1.97968,2.1355-2.57495,3.09424-.29352.46851-.47449.91577-.35956,1.13428.07776.08691.24231.12231.55127-.10913.28735-.23584.84821-.76904,1.26245-2.14478.11035-.37134.16925-.72192.21356-1.14038.04926-.42847.0321-.85132.00336-1.29175-.03564-.4397-.13159-.8811-.22723-1.26489-.05298-.19824-.11676-.39429-.19043-.58569-.06787-.18311-.11969-.33203-.19287-.49609-.58905-1.28784-1.14087-1.85376-1.42651-2.21924-.22272-.32178-.39734-.50903-.34515-.61304.06146-.10815-.38928-.33691-.12042-.33105.19476-.09058.82227-.08325,1.36646-.10132l1.90387-.0603c1.33801-.06494,2.71722-.1084,4.13824-.20459,5.66608-.33887,11.51587-.93188,17.29938-1.58643,5.7951-.65332,11.57434-1.45972,17.31665-2.30713,22.97162-3.5,45.35663-8.30103,66.77588-15.12939,21.42944-6.84302,41.84869-15.68481,61.22437-27.42212,4.85779-2.92285,9.63251-6.05347,14.36871-9.36035,2.38232-1.64062,4.70654-3.37183,7.06793-5.10645,1.15082-.89478,2.32239-1.78027,3.50629-2.66528.10266-.01367.18195.0061.17957.12891.01355.11499-.03314.30542-.15613.74536-.10382.42944-.29077,1.11157-.30688,2.23584-.03149,1.09521.2926,2.69385,1.00793,3.89355.69293,1.20923,1.52356,1.87915,2.05267,2.19849.5437.3252.87909.3833,1.04004.37744.3186-.0354.15826-.29761-.15717-.51538-.65137-.46094-1.83502-.90747-3.07758-1.28491-2.53607-.74219-5.47498-1.30371-8.45245-1.79688-5.99658-.95215-12.28564-1.59375-18.72162-2.49561,5.59442-3.33374,11.4187-6.06519,17.63708-8.26904,3.12854-1.09595,6.32666-2.07373,9.92944-2.67114,1.823-.29297,3.71313-.52515,6.07501-.39209,1.18848.08008,2.51764.22583,4.24127.81055.86145.30591,1.86926.74585,3.01849,1.54199,1.1319.79077,2.49371,2.03857,3.53497,3.93433,1.06195,1.88647,1.513,4.26953,1.42126,6.12769-.07452,1.89038-.49274,3.31567-.90637,4.44507-.43018,1.14355-.87518,1.99438-1.29858,2.73926-.43146.75928-.84186,1.37158-1.23364,1.94409-.85773,1.40649-1.72772,2.81274-2.61847,4.20947-1.80255,2.77466-3.69983,5.50073-5.698,8.16138-3.99835,5.31836-8.40149,10.36377-13.11133,15.13184-9.45276,9.49927-20.18097,17.81787-31.71466,24.69336-11.5296,6.89478-23.81732,12.41577-36.44153,16.62378-12.63,4.20508-25.5943,7.14087-38.64062,8.83228-13.0484,1.69629-26.17847,2.18994-39.2262,1.42456-6.52411-.35986-13.02814-1.07349-19.50403-2.0979-6.48468-1.03027-12.90216-2.4126-19.41235-4.32837-1.62402-.48022-3.27789-.99951-4.96173-1.59912-.84174-.29688-1.71423-.61987-2.60956-.96509-.9483-.37207-1.81671-.71753-3.07611-1.30054-.46252-.22388-1.62842-.73975-2.25244-1.19043-.6416-.43335-1.46399-1.03809-2.30743-1.80933-.88654-.83887-1.99353-1.95703-2.95233-3.91895-.11755-.24902-.22266-.479-.32751-.75024-.10669-.28149-.20361-.56763-.28961-.85571-.17444-.5603-.29626-1.19287-.36853-1.8208-.08014-.6272-.0708-1.24536-.03577-1.8645.04224-.61011.146-1.14966.27539-1.71143.56268-2.13208,1.50275-3.35645,2.24292-4.20752.76562-.84888,1.46423-1.36841,2.10321-1.80396,1.25635-.80811,2.3266-1.25903,3.33173-1.60669,2.00439-.67505,3.79205-.98315,5.56427-1.19531,1.75745-.21729,3.46136-.33691,5.17017-.3457,3.39081-.0625,6.74939.15527,10.12366.71948Z"/>
      <path class="uuid-bd1ae254-8db8-47e9-8e28-c4200f57a316" d="m62.40054,118.96066l-4.39435-.87842-4.35815-.76709c-1.44531-.22681-2.87744-.4436-4.28534-.59644-1.40515-.14038-2.79968-.23901-4.0481-.19897-.62036.021-1.19897.0979-1.61682.22046-.19629.06396-.34967.14404-.38934.20435-.0351.0542.08344.10645.38989-.0481.30383-.13281.74048-.61694.90094-1.01904.17224-.40967.18335-.60181.23621-.63257.03864-.04858.10455.04077.20496.17017.05267.06934.10352.14502.14154.16895.04285.04053.05511.05566.14642.17041.57947.74316,1.49194,1.83716,2.40424,2.80688.92792.99609,1.89801,1.99292,2.90833,2.97217,8.0766,7.88599,17.08307,15.10059,26.2431,21.8606,18.43494,13.44629,38.13257,24.97168,58.92859,33.60913,20.78156,8.64307,42.68756,14.33789,65.21954,16.07446,5.63104.48438,11.29596.6377,16.99042.64331,2.84863.00415,5.69513-.12329,8.55786-.21509l4.29144-.23828c.52936-.01074.88525-.06299,1.01697-.05151.06488.01123.03308.05078-.09509.20361-.12201.14453-.34131.45605-.45905.8374-.12128.37842-.09918.72656-.04999.86768.04919.15039.09979.13647.10425.04785.00757-.19458-.15106-.6394-.39362-1.09741-.5011-.93872-1.29065-2.00098-2.14001-3.03174-1.73694-2.06934-3.80414-4.06665-5.91718-6.02734-4.27704-3.89136-8.86047-7.62305-13.50085-11.33618,5.5752,2.07544,11.04529,4.44873,16.33508,7.37451,2.65417,1.46362,5.24957,3.05981,7.79163,5.01587,1.27399.99292,2.5293,2.05811,3.74353,3.50562.60406.73877,1.21667,1.55786,1.745,2.73853.25745.59961.4967,1.30225.60187,2.18506.10626.87109.04132,1.96729-.35791,3.02661-.38898,1.06616-1.08173,1.96729-1.7594,2.58789-.68604.63086-1.35974,1.04395-1.96692,1.34814-1.21417.60107-2.30133.88818-3.22083,1.09814l-4.42603,1.02417c-2.96271.6438-5.95044,1.19482-8.95728,1.65161-6.0105.95972-12.09839,1.47827-18.20898,1.73413-6.10895.17554-12.24976.10645-18.35999-.41479l-4.58069-.42358-4.57123-.53516-4.54913-.69507-4.5318-.80298c-12.06384-2.2771-23.85516-5.88062-35.17908-10.49731-22.64844-9.28271-43.45624-22.521-61.48456-38.66626-2.25085-2.02417-4.45862-4.09497-6.63757-6.19336-2.17072-2.10864-4.26807-4.29541-6.34393-6.5-2.07843-2.20264-4.09607-4.46704-6.03992-6.80688-1.94464-2.33862-3.8725-4.69702-5.66754-7.20923-.90662-1.24463-1.7887-2.52759-2.65479-3.85547-.86694-1.36255-1.70166-2.64111-2.55054-4.46558-.20337-.44165-.5061-1.16284-.61401-1.66577-.14514-.56152-.27661-1.18408-.3269-1.96143-.04382-.75488-.03094-1.70093.36835-2.81274.37317-1.10791,1.27924-2.2063,2.18097-2.7627.90442-.58325,1.72272-.79614,2.39984-.91235.6767-.10327,1.25562-.09961,1.79211-.07251,1.0498.07422,1.94073.26245,2.77356.48706,1.66052.44824,3.12628,1.04517,4.54584,1.70068,1.41693.64844,2.77563,1.34912,4.09711,2.10449,1.32721.73755,2.61206,1.53833,3.8725,2.36841,1.26215.82422,2.50928,1.66211,3.70483,2.58301Z"/>
      <circle class="uuid-16f6fd1d-01b9-45bd-b53b-c09490f89cbf" cx="151.42704" cy="151.42704" r="151.42634"/>
      <circle class="uuid-fd031ce2-ff01-4da7-a1e8-51f88a3567be" cx="230.92917" cy="84.36304" r="9.37955"/>
      <circle class="uuid-35759bf9-d0e8-4863-8672-869879ab209d" cx="183.35994" cy="63.71912" r="4.68978"/>
      <circle class="uuid-35759bf9-d0e8-4863-8672-869879ab209d" cx="25.32883" cy="125.78989" r="2.71055"/>
      <circle class="uuid-253c5344-60bf-4c8c-87b5-320f58118379" cx="33.71089" cy="159.26289" r="5.42109"/>
      <circle class="uuid-35759bf9-d0e8-4863-8672-869879ab209d" cx="74.84332" cy="89.59185" r="2.71055"/>
      <circle class="uuid-35759bf9-d0e8-4863-8672-869879ab209d" cx="72.13277" cy="101.82505" r="2.71055"/>
    </g>
  </g>
</svg>