<?xml version="1.0" encoding="UTF-8"?>
<svg id="uuid-d95f749e-decf-4619-821f-60a91e0435d2" data-name="Layer 2" xmlns="http://www.w3.org/2000/svg" xmlns:xlink="http://www.w3.org/1999/xlink" viewBox="0 0 582.09825 733.32212">
  <defs>
    <style>
      .uuid-fa471000-6055-4b35-882b-30a933971b15 {
        stroke: url(#uuid-0358097b-b525-40d1-b67c-fd7525c0995f);
      }

      .uuid-fa471000-6055-4b35-882b-30a933971b15, .uuid-91230be3-802b-4494-991d-de2d245283e2, .uuid-da1b26e8-2c18-4dd3-8252-0563512cb5d6 {
        fill: none;
        stroke-linecap: round;
        stroke-miterlimit: 10;
        stroke-width: 2px;
      }

      .uuid-24fa3056-10c5-49e0-bbc6-ea869706861e {
        fill: url(#uuid-c026d370-c5f3-47af-9891-b412f9ba19c7);
      }

      .uuid-24fa3056-10c5-49e0-bbc6-ea869706861e, .uuid-580437db-a566-47b1-a533-b448516068a4, .uuid-c1f2b0bc-3990-4c75-8973-4a81d04f63d6, .uuid-9f76ab6b-b380-4f8d-b182-9277d0588e82, .uuid-045a052e-9408-4c47-8195-25ac2b311ee6, .uuid-7a4f2932-c8c4-46a7-b008-5831bfd052be, .uuid-58ab6f3c-987d-4fa7-b383-5854b198a8fc, .uuid-a2db377e-9f24-434c-a51c-328ea8553f47, .uuid-3eb2392e-a7d4-471c-9b6a-4cf09377511d, .uuid-76c67998-48e8-46d6-b019-dd1b8f64b269, .uuid-6a950f8a-5550-402f-96ec-e54e31a96e31, .uuid-b85932ce-6957-447c-a365-9b65fc9a9c3c, .uuid-35a56888-c549-47d8-a6c7-2440a42fe42d, .uuid-e95fc621-8e8c-4f76-95a4-7ab4e4a94318 {
        stroke-width: 0px;
      }

      .uuid-580437db-a566-47b1-a533-b448516068a4 {
        fill: url(#uuid-1f3be1ce-31ba-4462-b7f6-c803d5f5c486);
      }

      .uuid-c1f2b0bc-3990-4c75-8973-4a81d04f63d6 {
        fill: #2d0d73;
        opacity: .47;
      }

      .uuid-91230be3-802b-4494-991d-de2d245283e2 {
        stroke: url(#uuid-6d4c7299-34c1-4c1b-a1fa-6104fd9ed865);
        stroke-dasharray: 0 0 10.00064 10.00064;
      }

      .uuid-9f76ab6b-b380-4f8d-b182-9277d0588e82 {
        opacity: .16;
      }

      .uuid-9f76ab6b-b380-4f8d-b182-9277d0588e82, .uuid-b85932ce-6957-447c-a365-9b65fc9a9c3c, .uuid-e95fc621-8e8c-4f76-95a4-7ab4e4a94318 {
        fill: #fff;
      }

      .uuid-da1b26e8-2c18-4dd3-8252-0563512cb5d6 {
        stroke: url(#uuid-bf113fbd-010f-4cc1-95bb-b2ded998264d);
      }

      .uuid-045a052e-9408-4c47-8195-25ac2b311ee6 {
        fill: url(#uuid-946b0c08-d358-41b1-8043-ae0505499d1f);
      }

      .uuid-7a4f2932-c8c4-46a7-b008-5831bfd052be {
        opacity: .26;
      }

      .uuid-7a4f2932-c8c4-46a7-b008-5831bfd052be, .uuid-58ab6f3c-987d-4fa7-b383-5854b198a8fc {
        fill: #2e6ff2;
      }

      .uuid-a2db377e-9f24-434c-a51c-328ea8553f47 {
        fill: #d65af9;
      }

      .uuid-3eb2392e-a7d4-471c-9b6a-4cf09377511d {
        fill: #8d5bff;
      }

      .uuid-76c67998-48e8-46d6-b019-dd1b8f64b269 {
        fill: #30f2df;
      }

      .uuid-6a950f8a-5550-402f-96ec-e54e31a96e31 {
        fill: #f2cece;
      }

      .uuid-35a56888-c549-47d8-a6c7-2440a42fe42d {
        fill: #fbf;
      }

      .uuid-e95fc621-8e8c-4f76-95a4-7ab4e4a94318 {
        opacity: .29;
      }
    </style>
    <linearGradient id="uuid-0358097b-b525-40d1-b67c-fd7525c0995f" data-name="New Gradient Swatch copy 4" x1="580.36313" y1="345.89983" x2="153.0494" y2="-8.61835" gradientUnits="userSpaceOnUse">
      <stop offset="0" stop-color="#00d1d5"/>
      <stop offset=".48096" stop-color="#009bd5"/>
      <stop offset=".58777" stop-color="#068dd3"/>
      <stop offset=".78622" stop-color="#156bce"/>
      <stop offset="1" stop-color="#2a3fc8"/>
    </linearGradient>
    <linearGradient id="uuid-6d4c7299-34c1-4c1b-a1fa-6104fd9ed865" data-name="New Gradient Swatch copy 4" x1="400.35781" y1="562.86679" x2="-26.95592" y2="208.34861" xlink:href="#uuid-0358097b-b525-40d1-b67c-fd7525c0995f"/>
    <linearGradient id="uuid-bf113fbd-010f-4cc1-95bb-b2ded998264d" data-name="New Gradient Swatch copy 4" x1="214.28047" y1="787.15261" x2="-213.03326" y2="432.63443" xlink:href="#uuid-0358097b-b525-40d1-b67c-fd7525c0995f"/>
    <linearGradient id="uuid-1f3be1ce-31ba-4462-b7f6-c803d5f5c486" x1="321.75734" y1="133.93542" x2="322.97706" y2="160.76916" gradientUnits="userSpaceOnUse">
      <stop offset="0" stop-color="#d3c600"/>
      <stop offset=".27048" stop-color="#e78815"/>
      <stop offset=".56524" stop-color="#ff422e"/>
      <stop offset=".97431" stop-color="#d21a00"/>
    </linearGradient>
    <linearGradient id="uuid-c026d370-c5f3-47af-9891-b412f9ba19c7" x1="332.88736" y1="106.36659" x2="328.00436" y2="128.90351" xlink:href="#uuid-1f3be1ce-31ba-4462-b7f6-c803d5f5c486"/>
    <linearGradient id="uuid-946b0c08-d358-41b1-8043-ae0505499d1f" x1="318.20169" y1="116.09778" x2="313.21834" y2="138.59208" xlink:href="#uuid-1f3be1ce-31ba-4462-b7f6-c803d5f5c486"/>
  </defs>
  <g id="uuid-3464f7e8-2dea-4b3c-8a91-52c0076f3270" data-name="Layer 1">
    <g>
      <path class="uuid-fa471000-6055-4b35-882b-30a933971b15" d="m581.09825,343.44761c-1.41913.89087-2.85138,1.74414-4.29572,2.5603"/>
      <path class="uuid-91230be3-802b-4494-991d-de2d245283e2" d="m567.87804,350.51889c-45.07172,20.22021-99.49353,7.57861-137.18896-21.65674-41.46655-32.1604-67.04169-80.50952-90.86029-127.875s-47.86374-96.27588-87.3959-130.78394c-12.15332-10.60889-25.83606-19.79565-41.39119-24.61206-27.75284-8.59351-59.24599-2.44336-86.70499,10.64722C70.94389,81.69223,30.08491,132.88852,12.26332,189.43906c-17.82159,56.55029-13.65377,117.61841,6.57957,170.74194,17.41795,45.73145,48.00272,87.4082,91.92537,107.69336,43.92264,20.28516,102.17372,15.15845,139.58763-20.25439,22.27713-21.08569,35.74933-54.19165,26.39355-81.85352-6.6806-19.75269-23.53024-33.72485-41.44962-43.73706-19.3317-10.80151-41.34677-18.1958-64.09172-16.53345-45.42783,3.32031-83.27451,41.25708-108.59719,81.07666-15.80424,24.85205-28.84787,51.97632-35.64054,80.74243-11.61036,49.16895-3.28098,109.53174,49.44037,130.8186,4.5097,1.82104,9.48844,3.26172,14.18919,2.0144,6.27566-1.66528,10.35361-7.58813,13.53598-13.24756,3.13234-5.57031,6.0274-11.625,5.80449-18.01172-.22292-6.38696-4.56958-13.05493-10.9171-13.79688-8.16093-.95386-16.85194-1.85693-21.70631,4.77222s-5.84874,15.25684-6.31557,23.45996c-.34777,6.11108-.47857,12.35229,1.23239,18.22925,4.39228,15.08691,19.34164,24.02783,32.24551,32.99438,16.51532,11.47632,31.43523,25.24487,44.19777,40.7876,7.4743,9.10254,14.46042,19.48413,15.2057,31.23853.52728,8.31592-3.23254,17.25317-9.63309,22.12378"/>
      <path class="uuid-da1b26e8-2c18-4dd3-8252-0563512cb5d6" d="m149.92075,731.16977c-1.52402.60986-3.14473,1.00757-4.84792,1.15234"/>
    </g>
    <g>
      <g>
        <path class="uuid-58ab6f3c-987d-4fa7-b383-5854b198a8fc" d="m209.63173,139.87436c-8.12032-8.51758-12.45073-22.72021-15.87018-34.45825,6.60954,7.01636,13.53661,13.84644,20.64342,20.3584-.01396.85962.01364,1.72656.08533,2.59814.06856.83398.18428,1.69678.63535,2.49731.3616.6416.91736,1.2041,1.46918,1.7522,6.28822,6.24585,13.23409,12.12305,21.0912,16.84521,5.77951,3.47363,12.07556,6.30811,18.55975,8.06543,4.31009,2.79663,6.49146,4.16919,10.90549,6.85986,1.7562,1.07056.81342,3.15942-1.19159,2.60522-19.26657-5.3252-42.9386-13.0791-56.32794-27.12354Z"/>
        <path class="uuid-c1f2b0bc-3990-4c75-8973-4a81d04f63d6" d="m237.68602,149.46738c-7.85712-4.72217-14.80298-10.59937-21.0912-16.84521-.55182-.5481-1.10757-1.1106-1.46918-1.7522-.45107-.80054-.56679-1.66333-.63535-2.49731-.07169-.87158-.09929-1.73853-.08533-2.59814,4.54526,4.19458,6.86461,6.26147,11.595,10.32886,9.7834,7.55273,19.87755,14.70215,30.2458,21.42944-6.48419-1.75732-12.78024-4.5918-18.55975-8.06543Z"/>
      </g>
      <g>
        <path class="uuid-58ab6f3c-987d-4fa7-b383-5854b198a8fc" d="m255.07408,56.50107c-10.09387-1.1499-22.6293,3.2002-33.41664,5.57764,9.80821,2.86572,14.714,4.11499,24.49309,6.26099.66745-.50098,1.35486-.97705,2.06076-1.42529.67532-.42871,1.38922-.84058,2.19022-.96533.64209-.09985,1.30209-.00928,1.94962.08276,7.37836,1.04883,14.68192,2.29224,21.707,4.45557,5.16748,1.59106,10.198,3.70044,14.81525,6.50586,4.08792.65503,6.13016.9519,10.20862,1.48633,1.62268.2124,2.28406-1.98242.84534-2.73682-14.0481-7.36572-30.27539-17.58081-44.85324-19.2417Z"/>
        <path class="uuid-c1f2b0bc-3990-4c75-8973-4a81d04f63d6" d="m274.05812,70.4874c-7.02509-2.16333-14.32864-3.40674-21.707-4.45557-.64752-.09204-1.30753-.18262-1.94962-.08276-.80099.12476-1.51489.53662-2.19022.96533-.7059.44824-1.39331.92432-2.06076,1.42529,5.17316,1.1355,7.75677,1.65308,12.91272,2.59082,9.79355,2.46533,19.83109,4.5083,29.81012,6.06274-4.61725-2.80542-9.64777-4.91479-14.81525-6.50586Z"/>
      </g>
      <path class="uuid-580437db-a566-47b1-a533-b448516068a4" d="m280.79054,134.51352c2.79251-7.42407,19.54639-8.90234,27.26321-6.23584,8.784,3.0354,12.47412,14.14331,23.54208,15.4458,12.89548,1.51733,32.12354,10.57446,32.72595,11.9834,1.20563,2.81958-37.78717,12.96191-50.90662,9.12231-11.82202-3.45996-36.84827-19.08667-32.62463-30.31567Z"/>
      <path class="uuid-24fa3056-10c5-49e0-bbc6-ea869706861e" d="m290.43236,111.36557c-3.01813,8.37817,8.18866,19.65967,17.05753,22.86719,8.64667,3.1272,19.06293-1.39746,27.90927-2.1897,10.3382-.92578,33.22055.62695,33.22055.62695.96512-.76343-25.09644-27.03906-37.99234-30.19336-11.60358-2.83838-36.27621-1.9895-40.19501,8.88892Z"/>
      <path class="uuid-045a052e-9408-4c47-8195-25ac2b311ee6" d="m275.54189,117.15561c2.54935-6.5835,18.87585-8.22949,26.61865-5.81665,8.47153,2.63965,9.57776,7.83569,22.16119,15.75635,8.75952,5.51367,31.0368,12.35498,31.14456,12.54712,1.00293,1.78882-37.67804,12.70605-49.47421,8.18042-11.1861-4.29175-34.87357-19.2439-30.4502-30.66724Z"/>
      <path class="uuid-6a950f8a-5550-402f-96ec-e54e31a96e31" d="m297.96794,96.7833c-28.64896-23.3396-68.79236-40.63843-102.29306-54.88916-12.46475-5.30225-26.88046-9.34253-40.75801-9.07422,12.12334,14.11377,28.89618,23.51782,43.99893,33.60229,30.25459,20.2019,66.59291,36.20728,90.9687,64.50415,1.02121,1.18555,3.22894.19092,5.13617-1.11084,2.62918-8.43652,4.35974-17.75879,5.2337-23.98242.12451-.88672-.94601-7.95776-2.28644-9.0498Z"/>
      <path class="uuid-6a950f8a-5550-402f-96ec-e54e31a96e31" d="m289.88451,130.92637c-24.37604-28.29346-60.71405-44.302-90.9687-64.50415-15.10263-10.08472-31.8756-19.48853-43.99893-33.60229-3.84174.30737-7.3098,1.3623-9.24974,3.55591-11.05139,12.49658,6.94664,39.30737,15.29741,49.97021,26.33116,33.62183,75.83922,57.86743,117.54927,65.17334,3.05273.53467,9.21082-6.29199,9.80054-7.07666,2.72-3.61987,4.92749-8.91943,6.70633-14.6272-1.90723,1.30176-4.11478,2.29639-5.13617,1.11084Z"/>
      <path class="uuid-e95fc621-8e8c-4f76-95a4-7ab4e4a94318" d="m297.96794,96.7833c-28.64896-23.3396-68.79236-40.63843-102.29306-54.88916-12.46475-5.30225-26.88046-9.34253-40.75801-9.07422,12.12334,14.11377,28.89618,23.51782,43.99893,33.60229,30.25459,20.2019,66.59291,36.20728,90.9687,64.50415,1.02121,1.18555,3.22894.19092,5.13617-1.11084,2.62918-8.43652,4.35974-17.75879,5.2337-23.98242.12451-.88672-.94601-7.95776-2.28644-9.0498Z"/>
      <path class="uuid-76c67998-48e8-46d6-b019-dd1b8f64b269" d="m168.5423,55.05771c-8.33495,9.88062-3.23285,24.65259,6.78911,31.82056,10.07634,7.20679,25.7131,7.37329,32.70605-3.51196,6.45793-10.05249,2.01895-23.79297-7.56201-30.64038-9.64639-6.89404-24.1937-6.84277-31.93315,2.33179Zm35.18303,25.54468c-5.81674,8.49243-17.81697,8.33716-25.73982,2.6709-7.87915-5.63501-11.81441-16.9353-5.42296-25.00586,5.65952-7.14624,17.02002-7.84106,25.25882-1.93652,8.2388,5.9043,11.0435,16.76782,5.90396,24.27148Z"/>
      <g>
        <path class="uuid-35a56888-c549-47d8-a6c7-2440a42fe42d" d="m198.18497,55.83701c7.87521,5.62891,11.5468,16.92896,6.12918,25.14722-5.78485,8.77515-18.47519,8.65967-26.69225,2.78296-8.17186-5.84448-12.28561-17.83325-5.61226-25.93652,6.28406-7.63062,18.24773-7.65991,26.17532-1.99365Z"/>
        <path class="uuid-b85932ce-6957-447c-a365-9b65fc9a9c3c" d="m198.18497,55.83701c4.04674,2.8916,7.2417,6.94629,9.03958,11.70557,1.76733,4.72485,2.10109,10.30396-.02266,15.29395-1.05637,2.46899-2.6909,4.78979-4.90973,6.64453-2.22118,1.84546-5.01315,3.2146-8.16211,3.87256-3.14467.66235-6.64104.62744-10.12798-.19263-3.48505-.80811-6.94508-2.38867-9.95328-4.54053-3.00522-2.15503-5.61301-4.90869-7.48286-7.93506-1.87906-3.02368-3.02042-6.30273-3.35808-9.46973-.35654-3.16846.09468-6.22388,1.18484-8.88501,1.09361-2.66553,2.83652-4.91699,4.89542-6.67139,4.16772-3.5354,9.67903-4.92407,14.79498-4.71094,5.16023.23096,10.06331,1.98657,14.10187,4.88867Zm0,0c-4.04086-2.92578-9.29716-4.11987-13.79669-3.17188-2.2524.44141-4.29944,1.37915-5.94652,2.65674-1.64673,1.28857-2.87895,2.90967-3.69389,4.65674-1.62149,3.54492-1.32306,7.47046-.02522,10.77905,1.36151,3.34448,3.62468,6.09814,6.47234,8.15625,2.85683,2.04248,6.21198,3.33594,9.86096,3.57446,3.59364.19556,7.47565-.74854,10.38503-3.38062,1.42882-1.31104,2.61255-2.97266,3.33948-4.91992.72108-1.94238.99133-4.15381.71967-6.40088-.47557-4.51123-3.24638-9.06299-7.31514-11.94995Z"/>
      </g>
      <path class="uuid-7a4f2932-c8c4-46a7-b008-5831bfd052be" d="m172.83688,57.92807c-5.78166,7.09424-3.96652,18.02319,4.32552,24.00757.47678.34424.96397.6626,1.45897.95801.13519-3.97998.88863-7.86304,2.18797-11.58032,2.39566-6.85376,6.41229-12.96826,11.06168-18.53931-6.73083-2.21118-14.44769-.47363-19.03413,5.15405Z"/>
      <path class="uuid-58ab6f3c-987d-4fa7-b383-5854b198a8fc" d="m262.08031,134.00449c2.45456,2.76343,3.70306,4.13721,6.24243,6.86743,14.17172,3.27856,28.30383,6.01514,42.67636,8.25513,1.44077.16919,1.75552-1.52612.38113-2.0061-13.21777-5.87598-26.07321-12.16284-38.82205-18.99683-3.75751.80957-5.65054,1.19287-9.46384,1.91479-1.93134.4126-2.48279,2.49854-1.01404,3.96558Z"/>
      <path class="uuid-58ab6f3c-987d-4fa7-b383-5854b198a8fc" d="m274.22475,109.35898c2.26141,2.66797,3.41287,3.99463,5.75735,6.63281,13.19986,3.04565,26.55051,5.43579,39.98819,7.15161,1.34885.13647,1.66479-1.55762.38257-2.00488-12.34085-5.35229-24.41159-11.32593-36.14902-17.89673-3.54974.90625-5.33939,1.33911-8.94681,2.16187-1.82797.46338-2.38904,2.5437-1.03229,3.95532Z"/>
      <path class="uuid-b85932ce-6957-447c-a365-9b65fc9a9c3c" d="m197.99254,60.25864c2.15216,1.52271,2.79678,4.31079,1.42097,6.25684-1.37575,1.9458-4.29135,2.28516-6.49284.72754-2.20149-1.55737-2.81508-4.39331-1.38998-6.30444,1.42514-1.91113,4.30971-2.20239,6.46185-.67993Z"/>
      <path class="uuid-b85932ce-6957-447c-a365-9b65fc9a9c3c" d="m199.2876,70.91294c1.11182.75757,1.46941,2.16113.79401,3.14258-.67543.98145-2.13824,1.16235-3.26253.39648-1.1243-.76587-1.4742-2.18164-.78629-3.15479.68788-.9729,2.14299-1.1416,3.25481-.38428Z"/>
      <path class="uuid-b85932ce-6957-447c-a365-9b65fc9a9c3c" d="m228.45268,123.87803c1.74771.90112,2.57846,2.78735,1.84766,4.22827s-2.76654,1.88086-4.53891.96704c-1.77237-.91406-2.59016-2.82568-1.83469-4.25391.75545-1.42822,2.77821-1.84277,4.52594-.94141Z"/>
      <path class="uuid-b85932ce-6957-447c-a365-9b65fc9a9c3c" d="m234.43687,130.17099c.88809.43774,1.32239,1.37769.96811,2.10376-.35431.72607-1.3681.96045-2.26242.51978s-1.32544-1.38721-.96494-2.11011,1.37112-.95093,2.25925-.51343Z"/>
      <g>
        <path class="uuid-a2db377e-9f24-434c-a51c-328ea8553f47" d="m235.04787,72.11948c-1.09506-1.62378-1.19904-3.46216-.39261-4.53589-.38333.09326-.75726.2395-1.11002.44385-1.98425,1.14941-2.54987,3.68481-1.21213,5.67261,1.33774,1.98804,4.05963,2.64746,6.02798,1.46313.34998-.21045.65186-.46533.90591-.75146-1.38437.22363-3.12411-.6687-4.21915-2.29224Z"/>
        <path class="uuid-a2db377e-9f24-434c-a51c-328ea8553f47" d="m239.49001,69.47471c-1.08685-1.6062-3.06192-2.32227-4.83475-1.89111-.80643,1.07373-.70245,2.91211.39261,4.53589,1.09503,1.62354,2.83478,2.51587,4.21915,2.29224,1.17496-1.32446,1.30984-3.33105.22299-4.93701Z"/>
        <path class="uuid-9f76ab6b-b380-4f8d-b182-9277d0588e82" d="m239.49001,69.47471c-1.08685-1.6062-3.06192-2.32227-4.83475-1.89111-.80643,1.07373-.70245,2.91211.39261,4.53589,1.09503,1.62354,2.83478,2.51587,4.21915,2.29224,1.17496-1.32446,1.30984-3.33105.22299-4.93701Z"/>
      </g>
      <g>
        <path class="uuid-a2db377e-9f24-434c-a51c-328ea8553f47" d="m238.00871,85.94663c-.47098-1.87427.1051-3.59326,1.28497-4.29346-.40875-.05005-.82758-.04834-1.24716.01392-2.36008.35107-3.85544,2.4624-3.29068,4.74951.56479,2.28687,2.99323,3.86743,5.37436,3.49683.42337-.06592.8158-.1897,1.17261-.35962-1.4465-.29419-2.82312-1.73291-3.2941-3.60718Z"/>
        <path class="uuid-a2db377e-9f24-434c-a51c-328ea8553f47" d="m243.34047,85.1102c-.48175-1.86426-2.15637-3.22485-4.04678-3.45703-1.17987.7002-1.75595,2.41919-1.28497,4.29346s1.8476,3.31299,3.2941,3.60718c1.65005-.78662,2.51938-2.5791,2.03766-4.4436Z"/>
        <path class="uuid-9f76ab6b-b380-4f8d-b182-9277d0588e82" d="m243.34047,85.1102c-.48175-1.86426-2.15637-3.22485-4.04678-3.45703-1.17987.7002-1.75595,2.41919-1.28497,4.29346s1.8476,3.31299,3.2941,3.60718c1.65005-.78662,2.51938-2.5791,2.03766-4.4436Z"/>
      </g>
      <g>
        <path class="uuid-a2db377e-9f24-434c-a51c-328ea8553f47" d="m233.79472,100.43467c.36328-1.83521,1.67258-3.11255,3.12863-3.24829-.37814-.21118-.78833-.38086-1.22534-.49707-2.45825-.6543-4.83487.59082-5.29477,2.81958-.45987,2.22852,1.2099,4.60474,3.71606,5.26807.44559.11792.88666.17261,1.31326.17188-1.29193-.85596-2.00113-2.67871-1.63785-4.51416Z"/>
        <path class="uuid-a2db377e-9f24-434c-a51c-328ea8553f47" d="m239.39186,101.89438c.33871-1.83984-.71976-3.73047-2.46851-4.70801-1.45605.13574-2.76535,1.41309-3.12863,3.24829-.36328,1.83545.34592,3.6582,1.63785,4.51416,1.97287-.00293,3.62057-1.21436,3.95929-3.05444Z"/>
        <path class="uuid-9f76ab6b-b380-4f8d-b182-9277d0588e82" d="m239.39186,101.89438c.33871-1.83984-.71976-3.73047-2.46851-4.70801-1.45605.13574-2.76535,1.41309-3.12863,3.24829-.36328,1.83545.34592,3.6582,1.63785,4.51416,1.97287-.00293,3.62057-1.21436,3.95929-3.05444Z"/>
      </g>
      <g>
        <path class="uuid-a2db377e-9f24-434c-a51c-328ea8553f47" d="m221.19949,109.81064c1.90686-.60547,3.97174-.23096,5.13078.82764-.08119-.39746-.22253-.79883-.4303-1.19409-1.16855-2.22314-3.95052-3.4209-6.26855-2.69629-2.31804.72437-3.29665,3.12183-2.13094,5.37695.20726.40088.46902.76904.77133,1.10034-.13292-1.4043,1.02084-2.80908,2.92767-3.41455Z"/>
        <path class="uuid-a2db377e-9f24-434c-a51c-328ea8553f47" d="m223.8582,114.8563c1.90828-.62183,2.84738-2.37988,2.47208-4.21802-1.15904-1.05859-3.22392-1.43311-5.13078-.82764-1.90683.60547-3.06059,2.01025-2.92767,3.41455,1.39793,1.53198,3.67813,2.25269,5.58638,1.6311Z"/>
        <path class="uuid-9f76ab6b-b380-4f8d-b182-9277d0588e82" d="m223.8582,114.8563c1.90828-.62183,2.84738-2.37988,2.47208-4.21802-1.15904-1.05859-3.22392-1.43311-5.13078-.82764-1.90683.60547-3.06059,2.01025-2.92767,3.41455,1.39793,1.53198,3.67813,2.25269,5.58638,1.6311Z"/>
      </g>
      <g>
        <path class="uuid-a2db377e-9f24-434c-a51c-328ea8553f47" d="m207.43318,114.33335c1.81569-.78076,3.92046-.573,5.21272.4082-.13306-.39844-.32642-.79565-.58505-1.1814-1.45467-2.16846-4.38324-3.15747-6.59476-2.22168-2.21152.93604-2.86153,3.47168-1.3981,5.67676.26016.39209.57011.74585.91521,1.05835-.32262-1.42432.63431-2.95947,2.44998-3.74023Z"/>
        <path class="uuid-a2db377e-9f24-434c-a51c-328ea8553f47" d="m210.75012,119.25718c1.81111-.79932,2.511-2.67285,1.89578-4.51562-1.29227-.9812-3.39703-1.18896-5.21272-.4082-1.81567.78076-2.7726,2.31592-2.44998,3.74023,1.5959,1.44531,3.95576,1.98315,5.76692,1.18359Z"/>
        <path class="uuid-9f76ab6b-b380-4f8d-b182-9277d0588e82" d="m210.75012,119.25718c1.81111-.79932,2.511-2.67285,1.89578-4.51562-1.29227-.9812-3.39703-1.18896-5.21272-.4082-1.81567.78076-2.7726,2.31592-2.44998,3.74023,1.5959,1.44531,3.95576,1.98315,5.76692,1.18359Z"/>
      </g>
      <path class="uuid-3eb2392e-a7d4-471c-9b6a-4cf09377511d" d="m236.65471,138.37021c3.33282,1.41235,5.00552,2.10181,8.36258,3.44653,21.02466-12.75195,26.60272-38.69531,27.62332-60.84692,1.11295-24.15601,0,0,0,0-3.11102-1.74976-4.65448-2.64185-7.71646-4.45947.01736,24.38965-11.42639,46.38599-28.26944,61.85986-5.80896,5.33691-12.59509,10.60449-19.06355,15.70776,6.46463-5.10034,12.82158-10.33716,19.06355-15.70776,5.28671,2.1792,7.94498,3.22656,13.28784,5.23511"/>
    </g>
  </g>
</svg>