<?xml version="1.0" encoding="UTF-8"?>
<svg id="uuid-3acc2fbd-9882-465f-a8de-b2ceab279b6a" data-name="Layer 2" xmlns="http://www.w3.org/2000/svg" xmlns:xlink="http://www.w3.org/1999/xlink" viewBox="0 0 1152.19027 464.49951">
  <defs>
    <style>
      .uuid-899fcec1-9034-42a3-bf6e-cd8c1a214a5a {
        fill: url(#uuid-336acff8-745a-49ee-80e2-a9106e8a649e);
      }

      .uuid-899fcec1-9034-42a3-bf6e-cd8c1a214a5a, .uuid-10477cea-16f2-4311-a2ba-fa9c7b739707, .uuid-11a7092c-2368-4992-b486-728c0c75fcff, .uuid-b7cf3ae0-f9e2-4259-ba50-f03057333db4, .uuid-7e846c50-a9e3-4d1f-98b4-893824bab1b1, .uuid-72891d12-d6fb-420e-b773-d6dc66aee4b8, .uuid-9b8421b9-843b-4599-96f7-866965e93f9b, .uuid-0f13c4e4-2392-4047-8828-afd3e04a9a3a, .uuid-406b63e0-0e84-4034-9a43-8d403fdc06f6, .uuid-15ae7ddc-b57d-489d-8c74-62755910aba1, .uuid-82aa5478-0dcc-485f-93ec-20b942a9ec7e, .uuid-c392b8b8-a2b9-459f-9ce6-f7f373c3b716, .uuid-2cbbff14-66b8-4b9a-a563-057c67d22869, .uuid-675881e2-117b-4e25-a3b9-8a5ccbbebc91, .uuid-72228d45-d520-4546-a8d5-398f3adad10b, .uuid-4fc13a71-b33c-4a51-a995-484411dd8544, .uuid-356dd94b-086b-4f68-8e6c-aadcb8be4137, .uuid-a95511bc-8425-40a5-863b-766469d4d03e, .uuid-c2df0148-387f-4201-9678-02a4a4f194b9, .uuid-c35ec45a-7479-42d6-814b-174ea0b272e3, .uuid-8aac3702-30eb-4f38-8ea8-959e86e9588a, .uuid-5e4afb97-a2e2-453b-bb2b-5ebe36ca338c, .uuid-d4b3fa03-120d-4100-99a8-79ac67f5be76 {
        stroke-width: 0px;
      }

      .uuid-10477cea-16f2-4311-a2ba-fa9c7b739707 {
        fill: url(#uuid-7e2c49fe-00e8-402e-859d-1d6ad10f28b9);
      }

      .uuid-2216acab-8fa2-4507-8739-245bc5637b84 {
        fill: none;
        stroke: url(#uuid-5f513082-fb07-4e1f-ad34-6e9de270d295);
        stroke-dasharray: 0 10;
        stroke-linecap: round;
        stroke-miterlimit: 10;
        stroke-width: 2px;
      }

      .uuid-11a7092c-2368-4992-b486-728c0c75fcff {
        fill: url(#uuid-a2af43f7-00a3-4fca-b18f-96da31eb4179);
      }

      .uuid-11a7092c-2368-4992-b486-728c0c75fcff, .uuid-0f13c4e4-2392-4047-8828-afd3e04a9a3a {
        opacity: .24;
      }

      .uuid-b7cf3ae0-f9e2-4259-ba50-f03057333db4 {
        fill: #2d0d73;
        opacity: .47;
      }

      .uuid-7e846c50-a9e3-4d1f-98b4-893824bab1b1 {
        opacity: .16;
      }

      .uuid-7e846c50-a9e3-4d1f-98b4-893824bab1b1, .uuid-c35ec45a-7479-42d6-814b-174ea0b272e3, .uuid-d4b3fa03-120d-4100-99a8-79ac67f5be76 {
        fill: #fff;
      }

      .uuid-72891d12-d6fb-420e-b773-d6dc66aee4b8 {
        fill: url(#uuid-1c874746-0913-4fe3-9aed-93e15aa8044c);
      }

      .uuid-9b8421b9-843b-4599-96f7-866965e93f9b {
        fill: url(#uuid-906c62fd-5ab8-406e-b4dc-fde96f0b44a4);
      }

      .uuid-9b8421b9-843b-4599-96f7-866965e93f9b, .uuid-82aa5478-0dcc-485f-93ec-20b942a9ec7e {
        opacity: .38;
      }

      .uuid-0f13c4e4-2392-4047-8828-afd3e04a9a3a {
        fill: url(#uuid-ade75a28-cbc6-45b5-87ae-8f0d9253b67c);
      }

      .uuid-406b63e0-0e84-4034-9a43-8d403fdc06f6 {
        fill: url(#uuid-09240859-f7f3-4dd8-8baf-153aa24eb0dc);
      }

      .uuid-15ae7ddc-b57d-489d-8c74-62755910aba1 {
        opacity: .26;
      }

      .uuid-15ae7ddc-b57d-489d-8c74-62755910aba1, .uuid-675881e2-117b-4e25-a3b9-8a5ccbbebc91 {
        fill: #2e6ff2;
      }

      .uuid-82aa5478-0dcc-485f-93ec-20b942a9ec7e {
        fill: url(#uuid-aac60c42-afd5-4927-82c8-e8c902a46120);
      }

      .uuid-c392b8b8-a2b9-459f-9ce6-f7f373c3b716 {
        opacity: .62;
      }

      .uuid-c392b8b8-a2b9-459f-9ce6-f7f373c3b716, .uuid-5e4afb97-a2e2-453b-bb2b-5ebe36ca338c {
        fill: #f1dab2;
      }

      .uuid-2cbbff14-66b8-4b9a-a563-057c67d22869 {
        fill: #534063;
      }

      .uuid-72228d45-d520-4546-a8d5-398f3adad10b {
        fill: #d65af9;
      }

      .uuid-4fc13a71-b33c-4a51-a995-484411dd8544 {
        fill: #8d5bff;
      }

      .uuid-356dd94b-086b-4f68-8e6c-aadcb8be4137 {
        fill: #30f2df;
      }

      .uuid-a95511bc-8425-40a5-863b-766469d4d03e {
        fill: #f2cece;
      }

      .uuid-c2df0148-387f-4201-9678-02a4a4f194b9 {
        fill: #f2dbb3;
      }

      .uuid-8aac3702-30eb-4f38-8ea8-959e86e9588a {
        fill: #fbf;
      }

      .uuid-d4b3fa03-120d-4100-99a8-79ac67f5be76 {
        opacity: .29;
      }
    </style>
    <linearGradient id="uuid-5f513082-fb07-4e1f-ad34-6e9de270d295" data-name="New Gradient Swatch copy 4" x1="222.6919" y1="139.97012" x2="1101.05278" y2="139.97012" gradientUnits="userSpaceOnUse">
      <stop offset="0" stop-color="#00d1d5"/>
      <stop offset=".48096" stop-color="#009bd5"/>
      <stop offset=".58777" stop-color="#068dd3"/>
      <stop offset=".78622" stop-color="#156bce"/>
      <stop offset="1" stop-color="#2a3fc8"/>
    </linearGradient>
    <linearGradient id="uuid-1c874746-0913-4fe3-9aed-93e15aa8044c" data-name="New Gradient Swatch copy 7" x1="3374.74899" y1="901.16399" x2="3557.24205" y2="901.16399" gradientTransform="translate(-1437.46684 -2935.97911) rotate(47.57587)" gradientUnits="userSpaceOnUse">
      <stop offset="0" stop-color="#0089cc"/>
      <stop offset=".03406" stop-color="#0a82c7"/>
      <stop offset=".19314" stop-color="#3566b6"/>
      <stop offset=".35426" stop-color="#5a4fa7"/>
      <stop offset=".5154" stop-color="#763d9c"/>
      <stop offset=".67654" stop-color="#8a3094"/>
      <stop offset=".8379" stop-color="#96288f"/>
      <stop offset="1" stop-color="#9a268e"/>
    </linearGradient>
    <radialGradient id="uuid-906c62fd-5ab8-406e-b4dc-fde96f0b44a4" cx="3542.37078" cy="1002.92781" fx="3542.37078" fy="1002.92781" r="211.6482" gradientTransform="translate(-810.01293 -3201.18349) rotate(58.50717) skewX(.33266)" gradientUnits="userSpaceOnUse">
      <stop offset="0" stop-color="#fff" stop-opacity="0"/>
      <stop offset=".1349" stop-color="#fff" stop-opacity=".15889"/>
      <stop offset=".45395" stop-color="#fff" stop-opacity=".51479"/>
      <stop offset=".71358" stop-color="#fff" stop-opacity=".77631"/>
      <stop offset=".90065" stop-color="#fff" stop-opacity=".9382"/>
      <stop offset=".99667" stop-color="#fff"/>
    </radialGradient>
    <linearGradient id="uuid-a2af43f7-00a3-4fca-b18f-96da31eb4179" x1="-692.68138" y1="-1389.50231" x2="-721.97407" y2="-1591.0685" gradientTransform="translate(1602.8264 1165.06479) rotate(-30.67587)" gradientUnits="userSpaceOnUse">
      <stop offset="0" stop-color="#cc6c2e" stop-opacity="0"/>
      <stop offset="1" stop-color="#fff"/>
    </linearGradient>
    <linearGradient id="uuid-ade75a28-cbc6-45b5-87ae-8f0d9253b67c" x1="-702.55379" y1="-1507.42276" x2="-638.30075" y2="-1507.42276" gradientTransform="translate(1602.8264 1165.06479) rotate(-30.67587)" gradientUnits="userSpaceOnUse">
      <stop offset="0" stop-color="#fff"/>
      <stop offset=".0885" stop-color="#fff" stop-opacity=".95076"/>
      <stop offset=".25094" stop-color="#fff" stop-opacity=".82006"/>
      <stop offset=".4691" stop-color="#fff" stop-opacity=".60826"/>
      <stop offset=".7329" stop-color="#fff" stop-opacity=".3177"/>
      <stop offset=".99667" stop-color="#fff" stop-opacity="0"/>
    </linearGradient>
    <radialGradient id="uuid-aac60c42-afd5-4927-82c8-e8c902a46120" cx="3465.10871" cy="909.8767" fx="3465.10871" fy="909.8767" r="200.79742" gradientTransform="translate(-1437.46684 -2935.97911) rotate(47.57587)" gradientUnits="userSpaceOnUse">
      <stop offset="0" stop-color="#fff" stop-opacity=".6"/>
      <stop offset=".12331" stop-color="#fffbf3" stop-opacity=".57042"/>
      <stop offset=".30969" stop-color="#fff3d2" stop-opacity=".4888"/>
      <stop offset=".53605" stop-color="#ffe69d" stop-opacity=".35524"/>
      <stop offset=".79132" stop-color="#ffd355" stop-opacity=".17148"/>
      <stop offset="1" stop-color="#ffc211" stop-opacity="0"/>
    </radialGradient>
    <linearGradient id="uuid-336acff8-745a-49ee-80e2-a9106e8a649e" x1="-1364.84834" y1="982.46276" x2="-1363.25546" y2="1017.50591" gradientTransform="translate(2474.52434 1010.831) rotate(67.47216)" gradientUnits="userSpaceOnUse">
      <stop offset="0" stop-color="#d3c600"/>
      <stop offset=".27048" stop-color="#e78815"/>
      <stop offset=".56524" stop-color="#ff422e"/>
      <stop offset=".97431" stop-color="#d21a00"/>
    </linearGradient>
    <linearGradient id="uuid-09240859-f7f3-4dd8-8baf-153aa24eb0dc" x1="-1340.52185" y1="978.37323" x2="-1347.42429" y2="1010.23064" xlink:href="#uuid-336acff8-745a-49ee-80e2-a9106e8a649e"/>
    <linearGradient id="uuid-7e2c49fe-00e8-402e-859d-1d6ad10f28b9" x1="-1350.68548" y1="967.49786" x2="-1357.90303" y2="1000.07708" xlink:href="#uuid-336acff8-745a-49ee-80e2-a9106e8a649e"/>
  </defs>
  <g id="uuid-1c7e40d6-6b4b-4b14-980d-c433aa48b1f1" data-name="Layer 1">
    <path class="uuid-2216acab-8fa2-4507-8739-245bc5637b84" d="m224.74914,156.45677c-3.81417-5.23323,3.47977-11.69011,9.34429-13.03217,44.7729-10.24595,89.85151,10.49139,134.44415,21.70512,61.71053,15.51838,126.93342,12.64958,187.40178-8.24278,12.5719-4.3437,27.25907-12.93018,27.26218-27.8514-11.53642-2.24622-23.46623-4.48091-34.83258-1.308-11.36635,3.17291-22.10243,13.24747-23.23672,26.47533-.99912,11.65155,5.72499,22.80848,14.4775,28.9954,8.75201,6.18657,19.22697,8.29023,29.4633,9.68181,32.38811,4.403,63.95734,12.86578,94.60344-4.47562,27.53814-15.58272,38.70864-54.74396,65.42441-73.14908,7.01592-4.83343,14.63751-8.40525,22.22419-11.95722,13.12179-6.14341,26.24359-12.28682,39.36543-18.43025,62.62686-29.32082,145.2552-1.03077,197.30067,45.11269,6.98515,6.19302,14.08523,13.67706,15.53119,23.60505.85481,5.86913-.42229,11.90173-2.4335,17.39478-8.92339,24.37163-33.70677,39.80503-56.6027,35.24831-13.57677-2.70203-27.76283-16.81868-23.31652-31.63302,2.28562-7.6153,8.72871-12.49397,14.97408-16.29401,18.98308-11.55039,41.69602-22.02994,62.81585-26.89206,5.58311-1.28532,11.24039-2.10251,16.89158-2.91857,28.52389-4.11899,55.39968-10.7932,84.20164-10.78038"/>
    <circle class="uuid-72891d12-d6fb-420e-b773-d6dc66aee4b8" cx="235.5264" cy="230.4566" r="91.24653"/>
    <ellipse class="uuid-9b8421b9-843b-4599-96f7-866965e93f9b" cx="235.61652" cy="230.80944" rx="91.07842" ry="91.67393" transform="translate(-38.96349 48.0693) rotate(-10.76472)"/>
    <path class="uuid-11a7092c-2368-4992-b486-728c0c75fcff" d="m297.21948,279.31087c-20.5002,2.17672-39.31116-3.11608-52.44489-15.35765-15.22292-14.18913-15.38568-35.62703-22.25979-54.21405-7.15637-19.35049-20.85198-40.95715-40.91499-52.17206-5.75375,4.10188-11.24432,8.57217-16.34377,13.56098-.13872.1357-.28239.25039-.42401.37373-1.24233,2.03725-2.5216,4.04168-3.95241,5.93603,10.52956,4.35526,18.61122,13.13131,24.71055,21.89187,12.54941,18.02491,14.0907,39.32352,22.09868,59.32432,12.28115,30.67315,46.19494,48.2119,83.95888,45.45388.62044-.86795,1.44472-1.65646,2.52347-2.31004,6.13615-3.7179,10.93556-9.00102,14.86133-15.04728-.94859-4.6254-4.79486-8.18484-11.81305-7.43973Z"/>
    <path class="uuid-0f13c4e4-2392-4047-8828-afd3e04a9a3a" d="m316.98359,256.22367c-9.91167-2.0905-42.58346-12.08124-55.90429-23.38794-15.44001-13.10532-24.33721-48.45718-37.53559-63.27782-9.11072-10.23047-17.02642-17.57622-24.61953-22.88628-4.26232,2.41323-8.4515,4.94167-12.52058,7.64374,9.01837,4.45631,20.14628,14.20093,29.66275,23.39895,15.96314,15.42912,16.59032,49.93418,31.12117,65.99179,19.79816,21.87827,51.69881,25.3966,72.26872,28.50586,1.17905-3.03337,2.26464-6.08039,3.29457-9.07213.34595-1.00489.81113-1.8708,1.36612-2.6079-2.29097-2.1407-4.82598-3.8216-7.13333-4.30828Z"/>
    <path class="uuid-2cbbff14-66b8-4b9a-a563-057c67d22869" d="m127.04361,176.71151c-7.0092-2.83202-23.20593-9.63128-29.84887-6.84994-4.06373,2.33461,3.19947,11.89359,4.80187,14.68249,19.32954,27.88509,45.06763,51.22104,73.17238,70.03682,49.34594,33.24019,109.69094,49.09777,169.06306,44.49257,6.21556-.33762,12.88848-1.16113,19.08248-1.92096,2.45612-.32559,5.54805-.72878,6.30783-3.28994.32748-2.73362-1.44321-5.32452-3.06247-7.63352-2.46562-3.33149-5.50346-6.33784-8.61833-9.227-6.32825-5.74567-13.19959-10.9199-20.20396-15.83792,10.77886,6.52501,29.50082,17.71772,34.51039,29.31423,2.37261,6.30363-2.92184,9.64792-8.36764,10.28475.00017.00017-6.39119,1.06853-6.39119,1.06853-12.8313,1.98969-25.78035,3.16837-38.78199,3.28854-52.21432.84367-104.24287-15.51528-147.28287-44.95968-21.50558-14.66102-41.02559-32.25589-57.57149-52.35424-5.5127-6.69434-10.63232-13.71582-15.17627-21.15918-1.69848-2.82006-3.33181-5.70666-4.64844-8.75634-.92968-2.20896-1.75282-4.75885-.98052-7.35399,3.7004-10.52546,27.73613,2.79136,33.99602,6.17479h0Z"/>
    <circle class="uuid-c2df0148-387f-4201-9678-02a4a4f194b9" cx="335.31422" cy="193.53329" r="6.74172"/>
    <circle class="uuid-5e4afb97-a2e2-453b-bb2b-5ebe36ca338c" cx="323.20149" cy="158.28428" r="3.37086"/>
    <circle class="uuid-c392b8b8-a2b9-459f-9ce6-f7f373c3b716" cx="214.36098" cy="113.98669" r="3.8965"/>
    <circle class="uuid-c392b8b8-a2b9-459f-9ce6-f7f373c3b716" cx="199.94516" cy="125.21269" r="3.8965"/>
    <circle class="uuid-5e4afb97-a2e2-453b-bb2b-5ebe36ca338c" cx="209.22341" cy="123.27009" r="1.94825"/>
    <circle class="uuid-5e4afb97-a2e2-453b-bb2b-5ebe36ca338c" cx="256.85547" cy="113.25367" r="1.94825"/>
    <circle class="uuid-5e4afb97-a2e2-453b-bb2b-5ebe36ca338c" cx="249.05054" cy="117.74728" r="1.94825"/>
    <circle class="uuid-82aa5478-0dcc-485f-93ec-20b942a9ec7e" cx="232.24976" cy="232.24976" r="232.24829"/>
    <g>
      <g>
        <path class="uuid-675881e2-117b-4e25-a3b9-8a5ccbbebc91" d="m1078.31576,88.07613c5.83769-.09596,22.14294,7.42264,22.14294,7.42264l-16.82842,1.58706c-.41806-.40807-.85241-.7994-1.30247-1.17185-.43059-.35633-.88975-.70334-1.42768-.85506-.43121-.12162-.88727-.11028-1.33506-.09561-5.10284.16718-10.22193.64591-15.16083,1.93979-3.63295.95175-7.17426,2.35997-10.36532,4.32532l-7.10598,1.13447c-1.13089.18055-1.66454-1.34423-.66792-1.90839,8.11136-4.59144,24.17676-12.24892,32.05075-12.37838Z"/>
        <path class="uuid-b7cf3ae0-f9e2-4259-ba50-f03057333db4" d="m1064.40423,96.90311c4.9389-1.29388,10.05799-1.77262,15.16083-1.93979.44779-.01467.90385-.02601,1.33506.09561.53793.15172.99709.49873,1.42768.85506.45006.37246.88441.76379,1.30247,1.17185l-8.90231.83954-20.68906,3.30306c3.19106-1.96535,6.73238-3.37357,10.36532-4.32532Z"/>
      </g>
      <g>
        <path class="uuid-675881e2-117b-4e25-a3b9-8a5ccbbebc91" d="m1104.02989,150.01787c4.19178-4.0641,10.38851-20.91612,10.38851-20.91612l-13.01124,10.78992c-.0065.58417-.03635,1.16804-.09066,1.7497-.05197.55648-.13071,1.12661-.40334,1.61453-.21853.39112-.54873.70591-.87544,1.01249-3.72307,3.49366-7.67815,6.77873-12.08288,9.36043-3.24002,1.89904-6.73841,3.41077-10.38369,4.28102l-5.82277,4.22815c-.92668.67289-.22442,2.12774.87891,1.82087,8.97982-2.49769,25.74863-8.45928,31.4026-13.94099Z"/>
        <path class="uuid-b7cf3ae0-f9e2-4259-ba50-f03057333db4" d="m1087.95484,153.62881c4.40473-2.5817,8.35981-5.86677,12.08288-9.36043.32671-.30658.65691-.62136.87544-1.01249.27262-.48792.35137-1.05805.40334-1.61453.05431-.58166.08416-1.16554.09066-1.7497l-6.88298,5.70793-16.95304,12.31024c3.64529-.87025,7.14367-2.38198,10.38369-4.28102Z"/>
      </g>
      <path class="uuid-899fcec1-9034-42a3-bf6e-cd8c1a214a5a" d="m1054.49559,124.27731c1.76732,4.68521-3.22148,12.26848-9.42705,15.16405-5.23927,2.4447-9.23025-4.2129-17.37626.62386-11.78557,6.99777-17.48941,2.46685-20.38693,4.40476-3.16594,2.11743,6.02152-18.2286,20.4995-23.52677,10.13069-3.70729,24.33857-2.90156,26.69074,3.3341Z"/>
      <path class="uuid-406b63e0-0e84-4034-9a43-8d403fdc06f6" d="m1060.6212,140.89164c-2.25879-5.02135-11.34484-7.31615-17.78939-4.99673-5.44104,1.95825-5.44796,5.92751-12.48429,12.41791-9.62557,8.87874-13.04584,11.6608-17.37649,11.66264-4.14748.00176,17.71063,9.95269,31.66323,3.38787,9.76306-4.59361,18.99323-15.78866,15.98694-22.4717Z"/>
      <path class="uuid-10477cea-16f2-4311-a2ba-fa9c7b739707" d="m1064.5793,131.01356c1.76732,4.68521-3.22148,12.26848-9.42705,15.16405-5.23927,2.4447-7.92635-.04766-17.37626.62386-12.92729.91863-17.48941,2.46685-20.38693,4.40476-3.16594,2.11743,6.02152-18.2286,20.4995-23.52677,10.13069-3.70729,24.33857-2.90156,26.69074,3.3341Z"/>
      <path class="uuid-a95511bc-8425-40a5-863b-766469d4d03e" d="m1063.72528,152.05388c18.05279-.54278,54.41091-17.50199,71.22856-30.10364,4.64704-3.48208,14.21586-13.20697,16.65862-21.49971-9.44746,2.18476-27.11037,12.10697-31.79702,14.05092-16.4026,6.80352-43.27154,20.46116-67.65843,15.69934-.97031-.18947-1.50273,1.30251-1.79118,2.83547,2.48071,5.7223,5.77493,11.52462,8.14732,15.25154.33796.53092,4.0492,3.80104,5.21213,3.76608Z"/>
      <path class="uuid-a95511bc-8425-40a5-863b-766469d4d03e" d="m1052.15701,130.2008c24.38689,4.76182,51.25583-8.89583,67.65843-15.69934,4.68666-1.94394,22.34957-11.86616,31.79702-14.05092.7208-2.44697.82142-4.76931-.00832-6.76971-3.76038-9.0659-25.27147-8.97955-31.88976-8.47136-17.60448,1.35172-56.10836,18.01588-71.70356,28.95846-1.46995,1.03141-1.11118,7.35221-1.02535,8.03102.39581,3.13075,1.70196,6.96575,3.38035,10.83732.28845-1.53296.82087-3.02493,1.79118-2.83547Z"/>
      <path class="uuid-d4b3fa03-120d-4100-99a8-79ac67f5be76" d="m1063.72528,152.05388c18.05279-.54278,54.41091-17.50199,71.22856-30.10364,4.64704-3.48208,14.21586-13.20697,16.65862-21.49971-9.44746,2.18476-27.11037,12.10697-31.79702,14.05092-16.4026,6.80352-43.27154,20.46116-67.65843,15.69934-.97031-.18947-1.50273,1.30251-1.79118,2.83547,2.48071,5.7223,5.77493,11.52462,8.14732,15.25154.33796.53092,4.0492,3.80104,5.21213,3.76608Z"/>
      <path class="uuid-356dd94b-086b-4f68-8e6c-aadcb8be4137" d="m1135.17186,101.17707c-3.16573-7.63226-11.91921-11.25309-19.55147-8.08736-7.63225,3.16573-11.25309,11.91921-8.08736,19.55147,3.16573,7.63226,11.91922,11.25309,19.55147,8.08736,7.63226-3.16573,11.25309-11.91921,8.08736-19.55147Zm-24.7214,10.25401c-2.4974-6.02098.35903-12.92653,6.38003-15.42394,6.021-2.49741,12.92654.35904,15.42394,6.38003s-.35903,12.92653-6.38003,15.42394c-6.021,2.49741-12.92654-.35904-15.42394-6.38003Z"/>
      <g>
        <circle class="uuid-8aac3702-30eb-4f38-8ea8-959e86e9588a" cx="1121.35245" cy="106.90912" r="12.23529"/>
        <path class="uuid-c35ec45a-7479-42d6-814b-174ea0b272e3" d="m1126.04019,118.21102c-8.52573,3.72822-19.50543-1.51244-21.1086-11.29559-2.23462-12.738,11.89174-22.40971,23.0858-16.11882,11.29472,6.3395,9.58736,22.70893-1.97721,27.4144h0Zm0,0c5.90815-2.29033,8.0741-10.18352,3.82824-14.83451-5.70765-6.55841-17.70272-1.61974-17.06084,7.07684.3116,6.29193,7.43749,10.32247,13.2326,7.75767h0Z"/>
      </g>
      <path class="uuid-15ae7ddc-b57d-489d-8c74-62755910aba1" d="m1132.37329,102.67096c-2.47212-5.96004-9.0017-8.91449-14.58423-6.59895-.32098.13314-.63133.28146-.93171.44267,2.12425,1.6514,4.0469,3.58847,5.73925,5.76253,3.12024,4.00843,5.42108,8.62741,7.19698,13.42374,3.35901-3.10341,4.54078-8.30204,2.57971-13.02999Z"/>
      <path class="uuid-675881e2-117b-4e25-a3b9-8a5ccbbebc91" d="m1062.38758,116.09079l-5.59286-.73323-21.6729,13.59735c-.71535.47798-.17548,1.56523.63938,1.28765l25.05354-6.29985,2.9886-5.34361c.58381-1.10671-.16249-2.42893-1.41577-2.50832Z"/>
      <path class="uuid-675881e2-117b-4e25-a3b9-8a5ccbbebc91" d="m1068.78274,134.40596l-5.59286-.73323-21.6729,13.59735c-.71535.47798-.17548,1.56523.63938,1.28765l25.05354-6.29985,2.9886-5.34361c.58381-1.10671-.16249-2.42893-1.41577-2.50832Z"/>
      <circle class="uuid-c35ec45a-7479-42d6-814b-174ea0b272e3" cx="1122.41598" cy="113.58038" r="3.04523"/>
      <circle class="uuid-c35ec45a-7479-42d6-814b-174ea0b272e3" cx="1116.61328" cy="111.51302" r="1.52261"/>
      <circle class="uuid-c35ec45a-7479-42d6-814b-174ea0b272e3" cx="1078.9797" cy="103.10328" r="2.0664"/>
      <circle class="uuid-c35ec45a-7479-42d6-814b-174ea0b272e3" cx="1074.21387" cy="103.96151" r="1.0332"/>
      <g>
        <path class="uuid-72228d45-d520-4546-a8d5-398f3adad10b" d="m1103.83034,132.20955c1.30338.11846,2.34503.85793,2.61553,1.76544.09908-.25044.16512-.51871.19074-.80054.14408-1.5852-1.02418-2.98706-2.60938-3.13114s-2.98706,1.02419-3.13114,2.60938c-.02562.28183-.00902.55761.04328.82181.42968-.84388,1.58758-1.38342,2.89096-1.26496Z"/>
        <path class="uuid-72228d45-d520-4546-a8d5-398f3adad10b" d="m1103.50547,135.78384c1.30338.11846,2.48215-.65064,2.9404-1.80884-.2705-.90752-1.31215-1.64698-2.61553-1.76544s-2.46128.42108-2.89096,1.26496c.24193,1.22185,1.26272,2.19086,2.5661,2.30933Z"/>
        <path class="uuid-7e846c50-a9e3-4d1f-98b4-893824bab1b1" d="m1103.50547,135.78384c1.30338.11846,2.48215-.65064,2.9404-1.80884-.2705-.90752-1.31215-1.64698-2.61553-1.76544s-2.46128.42108-2.89096,1.26496c.24193,1.22185,1.26272,2.19086,2.5661,2.30933Z"/>
      </g>
      <g>
        <path class="uuid-72228d45-d520-4546-a8d5-398f3adad10b" d="m1095.34233,127.60732c1.16018.60566,1.84195,1.68596,1.74665,2.62812.18695-.19387.35013-.41681.4811-.66767.73662-1.41103.1899-3.15205-1.22113-3.88867s-3.15205-.1899-3.88867,1.22113c-.13096.25087-.22059.5122-.27279.77642.71855-.6168,1.99466-.67499,3.15484-.06933Z"/>
        <path class="uuid-72228d45-d520-4546-a8d5-398f3adad10b" d="m1093.68141,130.78889c1.16018.60566,2.54296.34314,3.40757-.55345.0953-.94216-.58647-2.02245-1.74665-2.62812s-2.43629-.54747-3.15484.06933c-.24136,1.22196.33374,2.50658,1.49391,3.11225Z"/>
        <path class="uuid-7e846c50-a9e3-4d1f-98b4-893824bab1b1" d="m1093.68141,130.78889c1.16018.60566,2.54296.34314,3.40757-.55345.0953-.94216-.58647-2.02245-1.74665-2.62812s-2.43629-.54747-3.15484.06933c-.24136,1.22196.33374,2.50658,1.49391,3.11225Z"/>
      </g>
      <g>
        <path class="uuid-72228d45-d520-4546-a8d5-398f3adad10b" d="m1089.49104,118.7531c.79638,1.03857.95878,2.30564.47491,3.11966.25129-.09691.49329-.23019.71786-.4024,1.26312-.96857,1.50191-2.77772.53334-4.04085s-2.77772-1.50191-4.04085-.53334c-.22457.1722-.41608.37133-.57487.58887.91168-.2561,2.09323.22949,2.88961,1.26806Z"/>
        <path class="uuid-72228d45-d520-4546-a8d5-398f3adad10b" d="m1086.64297,120.93702c.79638,1.03857,2.16084,1.38389,3.32299.93574.48387-.81402.32147-2.08109-.47491-3.11966s-1.97792-1.52415-2.88961-1.26806c-.73434,1.00608-.75485,2.41341.04153,3.45197Z"/>
        <path class="uuid-7e846c50-a9e3-4d1f-98b4-893824bab1b1" d="m1086.64297,120.93702c.79638,1.03857,2.16084,1.38389,3.32299.93574.48387-.81402.32147-2.08109-.47491-3.11966s-1.97792-1.52415-2.88961-1.26806c-.73434,1.00608-.75485,2.41341.04153,3.45197Z"/>
      </g>
      <g>
        <path class="uuid-72228d45-d520-4546-a8d5-398f3adad10b" d="m1089.27835,107.94158c-.35663,1.25923-1.27538,2.14677-2.2172,2.2454.22789.14354.47939.25788.75168.335,1.5315.43373,3.12464-.45618,3.55837-1.98768s-.45618-3.12464-1.98768-3.55837c-.27229-.07711-.5464-.11163-.81571-.1089.75024.57783,1.06717,1.81533.71054,3.07456Z"/>
        <path class="uuid-72228d45-d520-4546-a8d5-398f3adad10b" d="m1085.82515,106.9636c-.35663,1.25923.18208,2.55954,1.236,3.22338.94182-.09863,1.86058-.98617,2.2172-2.2454s.0397-2.49673-.71054-3.07456c-1.2455.01262-2.38604.83735-2.74266,2.09658Z"/>
        <path class="uuid-7e846c50-a9e3-4d1f-98b4-893824bab1b1" d="m1085.82515,106.9636c-.35663,1.25923.18208,2.55954,1.236,3.22338.94182-.09863,1.86058-.98617,2.2172-2.2454s.0397-2.49673-.71054-3.07456c-1.2455.01262-2.38604.83735-2.74266,2.09658Z"/>
      </g>
      <g>
        <path class="uuid-72228d45-d520-4546-a8d5-398f3adad10b" d="m1091.60835,98.76854c-.19251,1.29452-.9901,2.29236-1.91155,2.51073.24439.11318.50846.1944.78838.23602,1.57442.23413,3.04054-.85239,3.27467-2.42681s-.85239-3.04054-2.42681-3.27467c-.27992-.04163-.55619-.04077-.82294-.00359.81803.47705,1.29075,1.6638,1.09825,2.95832Z"/>
        <path class="uuid-72228d45-d520-4546-a8d5-398f3adad10b" d="m1088.05837,98.24063c-.19251,1.29452.50821,2.51518,1.63843,3.03865.92145-.21837,1.71904-1.21621,1.91155-2.51073s-.28021-2.48127-1.09825-2.95832c-1.23364.17194-2.25923,1.13588-2.45173,2.4304Z"/>
        <path class="uuid-7e846c50-a9e3-4d1f-98b4-893824bab1b1" d="m1088.05837,98.24063c-.19251,1.29452.50821,2.51518,1.63843,3.03865.92145-.21837,1.71904-1.21621,1.91155-2.51073s-.28021-2.48127-1.09825-2.95832c-1.23364.17194-2.25923,1.13588-2.45173,2.4304Z"/>
      </g>
      <path class="uuid-4fc13a71-b33c-4a51-a995-484411dd8544" d="m1069.93033,101.95578l-4.63081,2.22984s-3.78261,21.56522,17.98378,43.64095c12.19453,12.36783,0,0,0,0l5.74759-1.7907s-17.55059-14.74279-19.10056-44.0801c-2.00181-37.88957,0,0,0,0l-7.27369,3.61292"/>
    </g>
  </g>
</svg>