<?xml version="1.0" encoding="UTF-8"?>
<svg id="uuid-bf5530b2-e8c7-4d86-9b2b-c691db709d73" data-name="Layer 2" xmlns="http://www.w3.org/2000/svg" xmlns:xlink="http://www.w3.org/1999/xlink" viewBox="0 0 1230.51888 406.36649">
  <defs>
    <style>
      .uuid-4068d478-666e-4c61-9862-e50b15136dc4 {
        fill: url(#uuid-6bf9d61e-2d8d-47cd-b617-8e921a9f1781);
      }

      .uuid-4068d478-666e-4c61-9862-e50b15136dc4, .uuid-9af5fc8d-09f6-41db-a481-e21f39f47016, .uuid-2dabbc91-d740-49af-836c-bf10c4bb2093, .uuid-fd4bd1c8-1663-4a59-becd-835647d52e41, .uuid-831ebac1-c572-41b1-9a07-2f9459877670, .uuid-0eadbea1-f49e-40e6-8462-ec7f8b79d36b, .uuid-49af766c-90fe-4c12-ad53-b7b494dc5a9e, .uuid-9e398c2f-c6f0-4972-97f7-27eb760b37c9, .uuid-7c45fa3a-3e36-4bf8-899d-b634337ee702, .uuid-121edb3e-4013-4815-809a-349ab3640a23, .uuid-38df2d12-7d96-4b24-bdfc-277446f3dcfb, .uuid-e1b3fd67-9862-4bc4-973c-08e935bc7e18, .uuid-7d9b40a4-d798-487e-aced-7384782cf3cd, .uuid-f954e271-bb44-4c60-91ed-e42faba80ae1, .uuid-9ea4368a-0b79-404b-86f2-3e880334deef, .uuid-7264ccfe-0128-4f61-b475-38ccf905b5cb, .uuid-df8de978-5691-4ce5-b10b-238b9d57fbc0, .uuid-b94003de-ad07-48e6-b803-d9bfc2a02ed7, .uuid-4ee8ad71-1425-4245-82f7-3d059542214e, .uuid-3dadb83c-1fe5-4e7f-8bbe-56e5b8f04b6c, .uuid-e5bf2805-6354-4728-95eb-179d582575fa, .uuid-34aa5f72-60a0-433a-a911-c4597ce63106, .uuid-8e9c7b4a-15df-4bdc-bc02-04b12bd06fa9, .uuid-05a22bd6-1eae-4380-a14a-f3e90ba7d189, .uuid-3fbe7084-c90f-470b-b91c-383c55ea9452 {
        stroke-width: 0px;
      }

      .uuid-4068d478-666e-4c61-9862-e50b15136dc4, .uuid-f954e271-bb44-4c60-91ed-e42faba80ae1, .uuid-9ea4368a-0b79-404b-86f2-3e880334deef {
        opacity: .24;
      }

      .uuid-7eb0a045-f88e-4ffa-9646-8559cf9152f2 {
        fill: none;
        stroke: url(#uuid-46605432-374c-49bf-8a3a-78d5157d3cd0);
        stroke-dasharray: 0 10;
        stroke-linecap: round;
        stroke-miterlimit: 10;
        stroke-width: 2px;
      }

      .uuid-9af5fc8d-09f6-41db-a481-e21f39f47016 {
        fill: url(#uuid-534619cd-3af6-48f3-9474-273c30f9e044);
        opacity: .38;
      }

      .uuid-2dabbc91-d740-49af-836c-bf10c4bb2093 {
        fill: url(#uuid-2a0758c2-ada2-438f-9ed7-3b7c627a5b4a);
      }

      .uuid-fd4bd1c8-1663-4a59-becd-835647d52e41 {
        fill: url(#uuid-4140f7f5-8d61-4f08-bdfd-2e8519568914);
      }

      .uuid-831ebac1-c572-41b1-9a07-2f9459877670 {
        fill: url(#uuid-9d48cea5-fca6-494d-8966-b6aef68c97d4);
      }

      .uuid-0eadbea1-f49e-40e6-8462-ec7f8b79d36b {
        fill: #2d0d73;
        opacity: .47;
      }

      .uuid-49af766c-90fe-4c12-ad53-b7b494dc5a9e {
        opacity: .16;
      }

      .uuid-49af766c-90fe-4c12-ad53-b7b494dc5a9e, .uuid-e5bf2805-6354-4728-95eb-179d582575fa, .uuid-05a22bd6-1eae-4380-a14a-f3e90ba7d189 {
        fill: #fff;
      }

      .uuid-9e398c2f-c6f0-4972-97f7-27eb760b37c9 {
        fill: url(#uuid-afcde54d-7774-4e7b-8500-e8595077d7f8);
      }

      .uuid-7c45fa3a-3e36-4bf8-899d-b634337ee702 {
        fill: url(#uuid-764017d8-5a53-4acb-ae6b-483a9856b720);
      }

      .uuid-7c45fa3a-3e36-4bf8-899d-b634337ee702, .uuid-121edb3e-4013-4815-809a-349ab3640a23, .uuid-7d9b40a4-d798-487e-aced-7384782cf3cd {
        opacity: .18;
      }

      .uuid-121edb3e-4013-4815-809a-349ab3640a23 {
        fill: url(#uuid-42dc0e4c-8d00-44c6-affc-0e19b447a40a);
      }

      .uuid-38df2d12-7d96-4b24-bdfc-277446f3dcfb {
        opacity: .26;
      }

      .uuid-38df2d12-7d96-4b24-bdfc-277446f3dcfb, .uuid-7264ccfe-0128-4f61-b475-38ccf905b5cb {
        fill: #2e6ff2;
      }

      .uuid-e1b3fd67-9862-4bc4-973c-08e935bc7e18 {
        fill: url(#uuid-c0abde23-31f8-46d9-a0c8-f5aa23e12ac9);
      }

      .uuid-7d9b40a4-d798-487e-aced-7384782cf3cd {
        fill: url(#uuid-237441aa-d435-491c-8d9f-0488719e8b33);
      }

      .uuid-f954e271-bb44-4c60-91ed-e42faba80ae1 {
        fill: url(#uuid-05147eec-101f-44df-9512-de0fdd8db893);
      }

      .uuid-9ea4368a-0b79-404b-86f2-3e880334deef {
        fill: url(#uuid-0ce234d1-c7b3-4d93-84d6-d89ac1623a45);
      }

      .uuid-df8de978-5691-4ce5-b10b-238b9d57fbc0 {
        fill: #d65af9;
      }

      .uuid-b94003de-ad07-48e6-b803-d9bfc2a02ed7 {
        fill: #8d5bff;
      }

      .uuid-4ee8ad71-1425-4245-82f7-3d059542214e {
        fill: #30f2df;
      }

      .uuid-3dadb83c-1fe5-4e7f-8bbe-56e5b8f04b6c {
        fill: #f2cece;
      }

      .uuid-34aa5f72-60a0-433a-a911-c4597ce63106 {
        fill: #fbf;
      }

      .uuid-8e9c7b4a-15df-4bdc-bc02-04b12bd06fa9 {
        fill: #f5e1c0;
      }

      .uuid-05a22bd6-1eae-4380-a14a-f3e90ba7d189 {
        opacity: .29;
      }

      .uuid-3fbe7084-c90f-470b-b91c-383c55ea9452 {
        fill: url(#uuid-d47daa4b-075f-4f00-bd7f-41cf4284ee57);
      }
    </style>
    <linearGradient id="uuid-46605432-374c-49bf-8a3a-78d5157d3cd0" data-name="New Gradient Swatch copy 4" x1="102.97655" y1="153.11514" x2="1230.51888" y2="153.11514" gradientUnits="userSpaceOnUse">
      <stop offset="0" stop-color="#00d1d5"/>
      <stop offset=".48096" stop-color="#009bd5"/>
      <stop offset=".58777" stop-color="#068dd3"/>
      <stop offset=".78622" stop-color="#156bce"/>
      <stop offset="1" stop-color="#2a3fc8"/>
    </linearGradient>
    <linearGradient id="uuid-2a0758c2-ada2-438f-9ed7-3b7c627a5b4a" x1="598.55122" y1="1275.72784" x2="600.90956" y2="1327.61127" gradientTransform="translate(-1025.35749 879.62259) rotate(-97.11283)" gradientUnits="userSpaceOnUse">
      <stop offset="0" stop-color="#d3c600"/>
      <stop offset=".27048" stop-color="#e78815"/>
      <stop offset=".56524" stop-color="#ff422e"/>
      <stop offset=".97431" stop-color="#d21a00"/>
    </linearGradient>
    <linearGradient id="uuid-9d48cea5-fca6-494d-8966-b6aef68c97d4" x1="634.56799" y1="1269.67305" x2="624.34853" y2="1316.8398" xlink:href="#uuid-2a0758c2-ada2-438f-9ed7-3b7c627a5b4a"/>
    <linearGradient id="uuid-4140f7f5-8d61-4f08-bdfd-2e8519568914" x1="619.52016" y1="1253.57143" x2="608.83415" y2="1301.80687" xlink:href="#uuid-2a0758c2-ada2-438f-9ed7-3b7c627a5b4a"/>
    <radialGradient id="uuid-237441aa-d435-491c-8d9f-0488719e8b33" cx="738.38397" cy="261.07164" fx="738.38397" fy="261.07164" r="135.92589" gradientUnits="userSpaceOnUse">
      <stop offset="0" stop-color="#8d0dac" stop-opacity=".97998"/>
      <stop offset=".08016" stop-color="#8d0dac" stop-opacity=".91875"/>
      <stop offset=".22581" stop-color="#8d0dac" stop-opacity=".85035"/>
      <stop offset=".43079" stop-color="#8d0dac" stop-opacity=".81089"/>
      <stop offset="1" stop-color="#8d0dac" stop-opacity=".8"/>
    </radialGradient>
    <radialGradient id="uuid-764017d8-5a53-4acb-ae6b-483a9856b720" cx="973.35303" cy="198.81456" fx="973.35303" fy="198.81456" r="67.75283" xlink:href="#uuid-237441aa-d435-491c-8d9f-0488719e8b33"/>
    <radialGradient id="uuid-42dc0e4c-8d00-44c6-affc-0e19b447a40a" cx="1072.1233" cy="72.42283" fx="1072.1233" fy="72.42283" r="67.75283" xlink:href="#uuid-237441aa-d435-491c-8d9f-0488719e8b33"/>
    <linearGradient id="uuid-c0abde23-31f8-46d9-a0c8-f5aa23e12ac9" x1="457.01278" y1="205.69401" x2="659.92944" y2="205.69401" gradientUnits="userSpaceOnUse">
      <stop offset="0" stop-color="#c72da7"/>
      <stop offset=".30653" stop-color="#c72da7"/>
      <stop offset=".75535" stop-color="#a369cd"/>
      <stop offset=".99667" stop-color="#8f8ce3"/>
    </linearGradient>
    <linearGradient id="uuid-0ce234d1-c7b3-4d93-84d6-d89ac1623a45" x1="-2001.05502" y1="-1007.40758" x2="-2033.62598" y2="-1231.53193" gradientTransform="translate(2846.23488 -77.94522) rotate(-36.44803)" gradientUnits="userSpaceOnUse">
      <stop offset="0" stop-color="#8f8ce3" stop-opacity="0"/>
      <stop offset="1" stop-color="#fff"/>
    </linearGradient>
    <linearGradient id="uuid-6bf9d61e-2d8d-47cd-b617-8e921a9f1781" x1="-2012.0323" y1="-1138.52503" x2="-1940.58842" y2="-1138.52503" gradientTransform="translate(2846.23488 -77.94522) rotate(-36.44803)" gradientUnits="userSpaceOnUse">
      <stop offset="0" stop-color="#fff"/>
      <stop offset=".0885" stop-color="#fff" stop-opacity=".95076"/>
      <stop offset=".25094" stop-color="#fff" stop-opacity=".82006"/>
      <stop offset=".4691" stop-color="#fff" stop-opacity=".60826"/>
      <stop offset=".7329" stop-color="#fff" stop-opacity=".3177"/>
      <stop offset=".99667" stop-color="#fff" stop-opacity="0"/>
    </linearGradient>
    <linearGradient id="uuid-05147eec-101f-44df-9512-de0fdd8db893" x1="-1625.74956" y1="-706.30602" x2="-1575.97734" y2="-706.30602" gradientTransform="translate(2258.44996 86.64116) rotate(-28.74076)" gradientUnits="userSpaceOnUse">
      <stop offset="0" stop-color="#fff"/>
      <stop offset=".34771" stop-color="#fff" stop-opacity=".61155"/>
      <stop offset=".66556" stop-color="#fff" stop-opacity=".28279"/>
      <stop offset=".88814" stop-color="#fff" stop-opacity=".07875"/>
      <stop offset=".99667" stop-color="#fff" stop-opacity="0"/>
    </linearGradient>
    <linearGradient id="uuid-afcde54d-7774-4e7b-8500-e8595077d7f8" data-name="New Gradient Swatch copy 12" x1="418.7682" y1="219.57996" x2="723.86256" y2="219.57996" gradientUnits="userSpaceOnUse">
      <stop offset="0" stop-color="#7a79ce"/>
      <stop offset=".19352" stop-color="#7981d0"/>
      <stop offset=".50506" stop-color="#7799d5"/>
      <stop offset=".89357" stop-color="#74bfde"/>
      <stop offset=".99667" stop-color="#74cbe1"/>
    </linearGradient>
    <linearGradient id="uuid-d47daa4b-075f-4f00-bd7f-41cf4284ee57" data-name="New Gradient Swatch copy 12" x1="451.95198" y1="133.3277" x2="653.44391" y2="312.05505" xlink:href="#uuid-afcde54d-7774-4e7b-8500-e8595077d7f8"/>
    <radialGradient id="uuid-534619cd-3af6-48f3-9474-273c30f9e044" cx="4021.81119" cy="608.40213" fx="4021.81119" fy="608.40213" r="164.79682" gradientTransform="translate(-1716.4716 -3146.81986) rotate(47.21708)" gradientUnits="userSpaceOnUse">
      <stop offset="0" stop-color="#fff" stop-opacity=".6"/>
      <stop offset=".12331" stop-color="#f7fdff" stop-opacity=".57042"/>
      <stop offset=".30969" stop-color="#e1f8ff" stop-opacity=".4888"/>
      <stop offset=".53605" stop-color="#bdf1ff" stop-opacity=".35524"/>
      <stop offset=".79132" stop-color="#8ce7ff" stop-opacity=".17148"/>
      <stop offset="1" stop-color="#5fdeff" stop-opacity="0"/>
    </radialGradient>
  </defs>
  <g id="uuid-dca11400-8425-4f8f-9805-13b1de8bebc8" data-name="Layer 1">
    <path class="uuid-7eb0a045-f88e-4ffa-9646-8559cf9152f2" d="m1229.51888,129.76821c-69.05416-27.47993-138.54515-55.09271-211.33411-70.10575-31.23443-6.44224-64.8515-10.29713-94.09278,2.43234-31.77162,13.83098-53.71231,47.69917-53.3477,82.34882.07981,7.58427,1.2738,15.51118,5.76166,21.62563,3.67512,5.00715,9.22461,8.32367,14.94361,10.74669,36.65837,15.53133,84.40139-7.2285,95.41736-45.48693,3.24596-11.27322,3.09562-24.79861-5.14947-33.14369-4.40252-4.45591-10.49294-6.79066-16.51613-8.5107-63.38673-18.10137-127.98053,18.86605-184.34258,53.0546-65.87978,39.96189-133.88292,78.56236-208.48996,97.82082-74.60704,19.25846-157.51523,17.37553-224.51794-20.67359-40.4244-22.95596-72.98189-57.62912-112.135-82.69189-39.15311-25.06277-90.66168-39.70147-131.7393-17.93596"/>
    <g>
      <g>
        <path class="uuid-7264ccfe-0128-4f61-b475-38ccf905b5cb" d="m102.48121,169.15482c-8.36988-2.16044-28.6834-19.30855-28.6834-19.30855l24.64373,4.35753c.4361.74696.90205,1.47644,1.39784,2.18517.47434.67804.99314,1.35403,1.70122,1.78228.5676.34329,1.223.50658,1.8679.66187,7.34906,1.76959,14.84393,3.10088,22.4024,3.19781,5.55985.0713,11.16855-.54498,16.49659-2.09429l10.5888,1.1773c1.68518.18735,1.84677,2.57369.20228,2.98669-13.38426,3.36116-39.3279,7.96819-50.61737,5.0542Z"/>
        <path class="uuid-0eadbea1-f49e-40e6-8462-ec7f8b79d36b" d="m125.81091,162.03092c-7.55848-.09693-15.05334-1.42822-22.4024-3.19781-.6449-.15529-1.3003-.31858-1.8679-.66187-.70808-.42825-1.22687-1.10423-1.70122-1.78228-.49579-.70873-.96173-1.43821-1.39784-2.18517l13.03663,2.30519,30.82933,3.42764c-5.32804,1.54931-10.93675,2.16559-16.49659,2.09429Z"/>
      </g>
      <g>
        <path class="uuid-7264ccfe-0128-4f61-b475-38ccf905b5cb" d="m90.15639,70.62594c-7.58232,4.15102-23.05892,25.76516-23.05892,25.76516l22.81721-10.2799c.23917-.83122.51156-1.65284.81799-2.46167.29317-.77382.62994-1.55656,1.21107-2.14568.46584-.47225,1.06101-.79159,1.64798-1.10059,6.68884-3.52129,13.62673-6.65356,20.92961-8.60495,5.37183-1.4354,10.95999-2.21631,16.50538-2.02383l9.97479-3.7433c1.58746-.59573,1.15768-2.9486-.53788-2.94481-13.79981.03098-40.08004,1.94065-50.30723,7.53958Z"/>
        <path class="uuid-0eadbea1-f49e-40e6-8462-ec7f8b79d36b" d="m114.52133,71.7983c-7.30288,1.95139-14.24076,5.08366-20.92961,8.60495-.58697.30901-1.18214.62834-1.64798,1.10059-.58113.58912-.9179,1.37187-1.21107,2.14568-.30642.80883-.57882,1.63045-.81799,2.46167l12.07038-5.43815,29.04164-10.89858c-5.54539-.19247-11.13355.58843-16.50538,2.02383Z"/>
      </g>
      <path class="uuid-2dabbc91-d740-49af-836c-bf10c4bb2093" d="m150.72645,126.85933c-.67865-7.3827,9.4262-16.24296,19.42293-17.93363,8.4401-1.42742,11.51634,9.64557,25.0466,5.94791,19.57544-5.34974,25.93339,3.36195,30.83167,1.73628,5.35204-1.77626-15.76827,23.64787-38.51771,25.51219-15.91849,1.30452-35.88026-5.43693-36.78349-15.26276Z"/>
      <path class="uuid-831ebac1-c572-41b1-9a07-2f9459877670" d="m148.52188,100.73504c1.24784,8.05589,13.31322,14.90702,23.4243,14.13274,8.53664-.65371,10.10859-6.31629,22.7058-12.81092,17.23272-8.8845,23.20933-11.50929,29.39118-9.80761,5.92037,1.62971-21.3615-21.17537-43.85954-17.29641-15.74258,2.71423-33.32251,15.06041-31.66173,25.7822Z"/>
      <path class="uuid-fd4bd1c8-1663-4a59-becd-835647d52e41" d="m138.98504,113.2763c-.67865-7.3827,9.4262-16.24296,19.42293-17.93363,8.4401-1.42742,11.2945,3.1874,25.0466,5.94791,18.81259,3.77631,25.93339,3.36195,30.83167,1.73628,5.35204-1.77626-15.76827,23.64787-38.51771,25.51219-15.91849,1.30452-35.88026-5.43693-36.78349-15.26276Z"/>
      <path class="uuid-3dadb83c-1fe5-4e7f-8bbe-56e5b8f04b6c" d="m148.48428,83.58161c-25.98029-6.32988-84.54832,3.56738-113.51141,14.93517-8.00306,3.14115-25.48778,13.25569-32.2379,24.13055,14.34412.5997,43.45917-6.61109,50.91345-7.54126,26.08886-3.25547,69.81372-12.17485,102.74704,4.21902,1.31036.65228,2.65744-1.26768,3.67243-3.34215-1.28872-9.1437-3.70709-18.72175-5.62648-24.97481-.27343-.89078-4.28353-7.01876-5.95713-7.42652Z"/>
      <path class="uuid-3dadb83c-1fe5-4e7f-8bbe-56e5b8f04b6c" d="m156.39546,119.32508c-32.93333-16.39387-76.65818-7.4745-102.74704-4.21902-7.45428.93018-36.56933,8.14097-50.91345,7.54126-1.99179,3.20889-3.04934,6.48396-2.65232,9.66566,1.79934,14.41961,32.53602,22.76194,42.18228,24.6412,25.65877,4.99885,87.17333-3.63283,113.7387-13.11373,2.50397-.89364,4.47941-10.05648,4.62404-11.05913.66716-4.62428.31214-10.612-.55978-16.79839-1.01499,2.07447-2.36207,3.99443-3.67243,3.34215Z"/>
      <path class="uuid-05a22bd6-1eae-4380-a14a-f3e90ba7d189" d="m148.48428,83.58161c-25.98029-6.32988-84.54832,3.56738-113.51141,14.93517-8.00306,3.14115-25.48778,13.25569-32.2379,24.13055,14.34412.5997,43.45917-6.61109,50.91345-7.54126,26.08886-3.25547,69.81372-12.17485,102.74704,4.21902,1.31036.65228,2.65744-1.26768,3.67243-3.34215-1.28872-9.1437-3.70709-18.72175-5.62648-24.97481-.27343-.89078-4.28353-7.01876-5.95713-7.42652Z"/>
      <path class="uuid-4ee8ad71-1425-4245-82f7-3d059542214e" d="m26.48651,128.08047c1.5148,12.13935,12.58366,20.75224,24.72301,19.23744,12.13934-1.5148,20.75224-12.58366,19.23744-24.72301-1.5148-12.13935-12.58367-20.75224-24.72301-19.23744-12.13935,1.5148-20.75224,12.58366-19.23744,24.72301Zm39.32018-4.90653c1.195,9.57657-5.59962,18.3087-15.17621,19.50371-9.57659,1.19501-18.3087-5.59964-19.50371-15.17621-1.195-9.57657,5.59962-18.3087,15.17621-19.50371s18.3087,5.59964,19.50371,15.17621Z"/>
      <g>
        <circle class="uuid-34aa5f72-60a0-433a-a911-c4597ce63106" cx="48.46673" cy="125.33769" r="18.11506"/>
        <path class="uuid-e5bf2805-6354-4728-95eb-179d582575fa" d="m46.22363,107.36214c13.33703-1.82635,25.7993,10.01827,23.7435,23.89467-3.30936,21.25089-32.48384,24.90488-40.91747,5.11885-5.41378-12.95768,3.79365-27.51074,17.17397-29.01352h0Zm0,0c-9.46283,1.01911-15.93426,10.97209-12.73991,19.84532,5.6983,15.48194,28.30051,12.68611,29.99712-3.74336.89899-9.39141-7.83235-17.44079-17.2572-16.10196h0Z"/>
      </g>
      <path class="uuid-38df2d12-7d96-4b24-bdfc-277446f3dcfb" d="m31.06882,127.0496c1.18291,9.47964,9.33984,16.2662,18.21903,15.15822.51053-.06371,1.01187-.15328,1.50403-.26515-2.38203-3.19303-4.36391-6.71445-5.92379-10.4835-2.87601-6.94918-4.34221-14.44731-4.98937-21.992-6.01563,3.10756-9.74827,10.06247-8.8099,17.58243Z"/>
      <path class="uuid-7264ccfe-0128-4f61-b475-38ccf905b5cb" d="m136.24049,135.43807l7.69411,3.24758,36.28482-10.87819c1.20912-.4007.86644-2.16498-.40584-2.08949l-38.23811-.86795-6.36857,6.45077c-1.26881,1.34985-.72397,3.53074,1.03359,4.13728Z"/>
      <path class="uuid-7264ccfe-0128-4f61-b475-38ccf905b5cb" d="m134.32054,106.7801l7.69411,3.24758,36.28482-10.87819c1.20912-.4007.86644-2.16498-.40584-2.08949l-38.23811-.86795-6.36857,6.45077c-1.26881,1.34985-.72397,3.53074,1.03359,4.13728Z"/>
      <circle class="uuid-e5bf2805-6354-4728-95eb-179d582575fa" cx="49.5742" cy="115.39728" r="4.50864"/>
      <circle class="uuid-e5bf2805-6354-4728-95eb-179d582575fa" cx="57.04277" cy="120.63164" r="2.25432"/>
      <circle class="uuid-e5bf2805-6354-4728-95eb-179d582575fa" cx="107.44744" cy="147.44534" r="3.05943"/>
      <circle class="uuid-e5bf2805-6354-4728-95eb-179d582575fa" cx="114.58744" cy="148.09596" r="1.52972"/>
      <g>
        <path class="uuid-df8de978-5691-4ce5-b10b-238b9d57fbc0" d="m83.43284,96.12221c-1.81369-.68202-3.00943-2.14739-3.03836-3.54914-.23998.31846-.43981.67536-.58729,1.06754-.82949,2.20584.28627,4.66648,2.49212,5.49597,2.20585.82949,4.66648-.28628,5.49597-2.49212.14747-.39218.23232-.79232.26164-1.19-.94539,1.03536-2.81039,1.34977-4.62408.66775Z"/>
        <path class="uuid-df8de978-5691-4ce5-b10b-238b9d57fbc0" d="m85.30316,91.14849c-1.81369-.68202-3.79881-.04819-4.90868,1.42458.02893,1.40175,1.22467,2.86712,3.03836,3.54914,1.81369.68202,3.6787.36762,4.62408-.66775.13555-1.83915-.94007-3.62395-2.75376-4.30597Z"/>
        <path class="uuid-49af766c-90fe-4c12-ad53-b7b494dc5a9e" d="m85.30316,91.14849c-1.81369-.68202-3.79881-.04819-4.90868,1.42458.02893,1.40175,1.22467,2.86712,3.03836,3.54914,1.81369.68202,3.6787.36762,4.62408-.66775.13555-1.83915-.94007-3.62395-2.75376-4.30597Z"/>
      </g>
      <g>
        <path class="uuid-df8de978-5691-4ce5-b10b-238b9d57fbc0" d="m93.73655,106.03138c-1.41756-1.32104-1.96551-3.13125-1.4587-4.43849-.34313.20314-.66378.45712-.94943.76364-1.60668,1.72406-1.51152,4.42417.21255,6.03085,1.72407,1.60668,4.42418,1.51152,6.03085-.21255.28565-.30652.51642-.64425.6949-1.00083-1.26832.59757-3.11261.17842-4.53017-1.14262Z"/>
        <path class="uuid-df8de978-5691-4ce5-b10b-238b9d57fbc0" d="m97.35927,102.14398c-1.41756-1.32104-3.49451-1.49053-5.08142-.55109-.5068,1.30724.04114,3.11745,1.4587,4.43849,1.41756,1.32104,3.26185,1.7402,4.53017,1.14262.82539-1.64911.51011-3.70898-.90745-5.03002Z"/>
        <path class="uuid-49af766c-90fe-4c12-ad53-b7b494dc5a9e" d="m97.35927,102.14398c-1.41756-1.32104-3.49451-1.49053-5.08142-.55109-.5068,1.30724.04114,3.11745,1.4587,4.43849,1.41756,1.32104,3.26185,1.7402,4.53017,1.14262.82539-1.64911.51011-3.70898-.90745-5.03002Z"/>
      </g>
      <g>
        <path class="uuid-df8de978-5691-4ce5-b10b-238b9d57fbc0" d="m98.60354,120.97172c-.72794-1.79575-.46109-3.66815.54989-4.63957-.3968.03943-.79466.13442-1.18296.29183-2.18403.88534-3.23683,3.37356-2.35149,5.55759s3.37357,3.23683,5.55759,2.35149c.3883-.1574.74001-.36626,1.05226-.61426-1.40203.00674-2.89734-1.15133-3.62529-2.94708Z"/>
        <path class="uuid-df8de978-5691-4ce5-b10b-238b9d57fbc0" d="m103.52806,118.97547c-.72794-1.79575-2.53953-2.82562-4.37463-2.64332-1.01098.97142-1.27783,2.84382-.54989,4.63957s2.22326,2.95382,3.62529,2.94708c1.44405-1.14697,2.02718-3.14758,1.29924-4.94333Z"/>
        <path class="uuid-49af766c-90fe-4c12-ad53-b7b494dc5a9e" d="m103.52806,118.97547c-.72794-1.79575-2.53953-2.82562-4.37463-2.64332-1.01098.97142-1.27783,2.84382-.54989,4.63957s2.22326,2.95382,3.62529,2.94708c1.44405-1.14697,2.02718-3.14758,1.29924-4.94333Z"/>
      </g>
      <g>
        <path class="uuid-df8de978-5691-4ce5-b10b-238b9d57fbc0" d="m94.65229,136.48667c1.00457-1.65694,2.6652-2.56216,4.04827-2.33228-.26878-.29455-.58275-.55674-.94103-.77396-2.0152-1.22178-4.63931-.57859-5.8611,1.43663-1.22178,2.01521-.57858,4.63932,1.43663,5.8611.35828.21722.73594.37435,1.1214.47645-.84341-1.11999-.80875-3.01099.19583-4.66794Z"/>
        <path class="uuid-df8de978-5691-4ce5-b10b-238b9d57fbc0" d="m99.19616,139.24152c1.00457-1.65694.74742-3.72487-.49559-5.08714-1.38307-.22988-3.0437.67533-4.04827,2.33228s-1.03924,3.54795-.19583,4.66794c1.78267.47215,3.73512-.25614,4.73969-1.91308Z"/>
        <path class="uuid-49af766c-90fe-4c12-ad53-b7b494dc5a9e" d="m99.19616,139.24152c1.00457-1.65694.74742-3.72487-.49559-5.08714-1.38307-.22988-3.0437.67533-4.04827,2.33228s-1.03924,3.54795-.19583,4.66794c1.78267.47215,3.73512-.25614,4.73969-1.91308Z"/>
      </g>
      <g>
        <path class="uuid-df8de978-5691-4ce5-b10b-238b9d57fbc0" d="m87.7167,148.66235c.78422-1.7719,2.31531-2.88224,3.71643-2.83128-.30427-.25773-.64922-.47757-1.03236-.64714-2.15502-.95378-4.67521.02002-5.62899,2.17505-.95378,2.15503.02003,4.67521,2.17505,5.62899.38314.16957.77781.27707,1.17317.32899-.97984-1.00282-1.18751-2.8827-.40329-4.65461Z"/>
        <path class="uuid-df8de978-5691-4ce5-b10b-238b9d57fbc0" d="m92.57582,150.81292c.78422-1.7719.26447-3.7899-1.14269-4.98185-1.40112-.05095-2.93221,1.05938-3.71643,2.83128-.78422,1.7719-.57654,3.65179.40329,4.65461,1.82844.24008,3.67161-.73214,4.45582-2.50404Z"/>
        <path class="uuid-49af766c-90fe-4c12-ad53-b7b494dc5a9e" d="m92.57582,150.81292c.78422-1.7719.26447-3.7899-1.14269-4.98185-1.40112-.05095-2.93221,1.05938-3.71643,2.83128-.78422,1.7719-.57654,3.65179.40329,4.65461,1.82844.24008,3.67161-.73214,4.45582-2.50404Z"/>
      </g>
      <path class="uuid-b94003de-ad07-48e6-b803-d9bfc2a02ed7" d="m119.91198,152.6445l7.48709-1.36022s13.8858-29.29133-8.4935-69.36601c-12.5379-22.45166,0,0,0,0l-8.90824.29392s19.24794,27.94927,9.91465,70.4323c-12.05408,54.86745,0,0,0,0l11.80356-2.29418"/>
    </g>
    <polygon class="uuid-7d9b40a4-d798-487e-aced-7384782cf3cd" points="738.31917 406.36649 612.52253 333.66294 612.58734 188.36808 738.44878 115.77678 864.24541 188.48033 864.1806 333.77519 738.31917 406.36649"/>
    <polygon class="uuid-7c45fa3a-3e36-4bf8-899d-b634337ee702" points="973.32073 271.23738 910.61688 234.99799 910.64918 162.57517 973.38534 126.39173 1036.08919 162.63112 1036.05689 235.05394 973.32073 271.23738"/>
    <polygon class="uuid-121edb3e-4013-4815-809a-349ab3640a23" points="1072.09099 144.84565 1009.38714 108.60626 1009.41944 36.18344 1072.1556 0 1134.85946 36.23939 1134.82715 108.66222 1072.09099 144.84565"/>
    <g>
      <circle class="uuid-e1b3fd67-9862-4bc4-973c-08e935bc7e18" cx="558.47111" cy="205.69401" r="101.45833"/>
      <path class="uuid-9ea4368a-0b79-404b-86f2-3e880334deef" d="m632.11169,251.85472c-22.43547,4.70056-43.83748.94886-59.73598-11.12498-18.42751-13.99475-21.00493-37.6928-30.68816-57.48646-10.08086-20.60671-27.64823-42.97809-51.09762-53.14127-5.90653,5.18125-11.48071,10.74063-16.56423,16.8299-.13828.16563-.2844.30858-.42727.46087-1.14654,2.39269-2.33762,4.7532-3.70864,7.00888,12.13565,3.64062,29.32022,11.53301,37.04744,20.54253,15.89882,18.53716,12.72309,42.83955,23.81879,64.07044,17.01648,32.5596,56.49585,48.1698,97.96478,40.89557.58931-1.02958,1.41302-1.99406,2.53332-2.83774,6.37252-4.79922,11.09118-11.18052,14.75802-18.30837-1.56665-5.01089-6.21974-8.51849-13.90047-6.90936Z"/>
      <path class="uuid-4068d478-666e-4c61-9862-e50b15136dc4" d="m651.39445,224.10371c-11.19882-1.20426-48.46012-8.60316-64.46104-19.62185-18.54647-12.77148-32.34257-50.88545-48.60101-65.80523-11.22303-10.2989-20.80145-17.54012-29.79535-22.5654-4.44544,3.14635-8.79708,6.41197-12.99644,9.85625,10.47515,3.9214,23.87543,13.45723,35.43188,22.56857,19.38506,15.28375,23.93755,53.38574,41.80839,69.52495,24.34886,21.98942,60.03325,22.31427,83.13696,23.45368.96514-3.4876,1.82536-6.97984,2.63018-10.40471.27034-1.15038.68812-2.16033,1.21967-3.03783-2.77384-2.11201-5.76623-3.68807-8.37322-3.96844Z"/>
      <path class="uuid-f954e271-bb44-4c60-91ed-e42faba80ae1" d="m566.12987,282.47846c-6.22141-4.86677-38.27979-21.59829-49.96263-35.56744-13.54139-16.19135-13.42653-40.76521-26.41622-57.7688-8.28905-10.85039-27.39824-14.41068-27.39824-14.41068-.6917-.7876-.05674-1.04668,0,0,.06904,1.27377-3.4192,9.78138-4.06537,10.40094,6.32369-2.53453,16.99904-1.04116,25.78332,9.918,14.735,18.38329,8.81808,37.65313,23.01782,56.14668,19.34699,25.19722,54.20842,36.99132,66.63937,46.01685-.54288-2.29032-1.14206-4.62123-1.74998-6.92087-.20419-.77243-.28904-1.38678-.27457-1.861-2.08593-2.57393-4.12519-4.82073-5.57349-5.95369Z"/>
      <path class="uuid-9e398c2f-c6f0-4972-97f7-27eb760b37c9" d="m464.18078,242.79232l-9.57922,7.35986c-1.52759,1.23145-3.0332,2.42529-4.42932,3.64697-1.37524,1.23584-2.69788,2.47461-3.63904,3.63184-.4635.57275-.80054,1.14648-.83081,1.50098.00623.15674.10583.26758.35522.11572.22876-.15625.74048-.6001,1.1355-1.87793.10791-.34668.16101-.67285.20569-1.06641.05103-.40381.03052-.80176.0083-1.21777-.03088-.41553-.12354-.83203-.20898-1.19287-.04858-.18652-.10815-.37109-.17749-.55078-.06311-.17188-.10803-.31006-.17554-.46338-.54114-1.20068-1.02112-1.69531-1.229-1.99902-.14246-.26367-.23328-.39697-.09131-.4585.15015-.06396-.20801-.25537.15552-.21973.38281-.02686,1.20398.02588,1.94116.05371.79749.02686,1.62341.04883,2.48792.05664,1.72888.00439,3.50049.02246,5.31555-.02393,7.24133-.13525,14.67834-.62598,22.04907-1.23193,7.38269-.60498,14.7511-1.42334,22.08044-2.33398,29.31689-3.75879,58.02783-9.6167,85.4895-18.41406,27.46448-8.81006,53.63477-20.58887,77.96338-36.31543,6.09564-3.91797,12.05774-8.10645,17.92407-12.5293,2.94904-2.19678,5.81946-4.50488,8.71954-6.82275,1.41498-1.19141,2.85071-2.37305,4.29871-3.55469.16669-.08984.30927-.14648.36243-.10596.07007.03369.07489.13867-.0083.4873-.06372.33887-.22083.9248-.22931,1.9502-.0238.99658.28387,2.49316.95441,3.604.64789,1.12109,1.40979,1.71582,1.8609,1.97412.46533.26416.71375.27295.78406.22705.13684-.11572-.21619-.43066-.7262-.68701-1.04156-.53467-2.62213-1.01367-4.26141-1.41309-3.33197-.78271-7.06311-1.23926-10.83099-1.67139-7.57697-.79004-15.43323-1.16113-23.42566-1.74854,7.15088-3.64844,14.54242-6.6499,22.34113-9.01611,3.91809-1.19043,7.91199-2.1709,12.30731-2.771,2.21954-.29395,4.50812-.50244,7.25952-.28955,1.38306.11865,2.90491.31689,4.8103.98193.95215.34619,2.04688.83594,3.27448,1.69287,1.2099.85156,2.64044,2.17432,3.72681,4.15869,1.10675,1.97559,1.57422,4.45996,1.47473,6.41699-.08209,1.98926-.53021,3.51074-.98395,4.73096-.46997,1.23438-.96649,2.17041-1.44635,2.99707-.48706.84131-.96075,1.53076-1.41656,2.17871-1.12183,1.70312-2.25598,3.40576-3.41083,5.09912-2.34131,3.35791-4.78479,6.66113-7.34967,9.87793-5.12842,6.43457-10.71893,12.5376-16.66663,18.30078-11.92828,11.48975-25.33374,21.54541-39.67871,29.89893-14.34131,8.37402-29.57336,15.1167-45.21655,20.31152-15.6499,5.19043-31.70776,8.8833-47.88416,11.11475-16.17871,2.23779-32.47449,3.06494-48.69629,2.42627-8.11121-.29688-16.20435-.99805-24.26782-2.0708-8.0719-1.0791-16.07654-2.56348-24.16211-4.68311-2.01794-.52979-4.06421-1.11084-6.13904-1.7793-1.03723-.33203-2.10425-.69434-3.19348-1.08252-1.14136-.41748-2.20337-.80908-3.65088-1.45557-.55713-.25342-1.81555-.80664-2.5282-1.30176-.73132-.47559-1.63757-1.13428-2.56128-1.96387-.96436-.90039-2.14319-2.08984-3.14978-4.13916-.12329-.25977-.23523-.5-.34497-.78271-.11096-.29297-.21216-.59082-.30237-.89062-.18469-.5835-.30981-1.24072-.38684-1.89307-.08679-.65137-.0741-1.29443-.04077-1.93848.04187-.63477.15149-1.19873.28333-1.78516.58191-2.22998,1.57104-3.54395,2.36975-4.47461.82422-.9292,1.59607-1.5166,2.30872-2.01758,1.40649-.93799,2.64441-1.49463,3.81555-1.94971,2.3313-.89893,4.47144-1.39404,6.60632-1.76758,2.11865-.38184,4.19031-.65186,6.26978-.80273,4.13293-.34521,8.245-.38037,12.38074-.0415Z"/>
      <path class="uuid-3fbe7084-c90f-470b-b91c-383c55ea9452" d="m459.70691,174.45638c-1.82422-.44922-3.63098-.90527-5.44226-1.32617-1.81372-.4126-3.62573-.79932-5.42297-1.17236-3.57935-.7085-7.24231-1.3457-10.52979-1.39062-.80847-.00586-1.57715.05713-2.18494.18555-.29102.06885-.53918.15869-.67151.24023-.1272.07617-.09937.1626.12976.06396.22656-.07812.60242-.48291.73535-.79346.14282-.31885.15381-.41357.21912-.35059.05017.0459.1416.22705.2738.4458.06897.11426.13525.23486.19482.30127l.20984.29785c.76416,1.0752,1.90283,2.47607,3.04529,3.74756,1.16003,1.29688,2.36975,2.58838,3.62805,3.85547,4.98926,5.10645,10.40027,9.93555,15.87964,14.63525,5.51746,4.66895,11.16846,9.18408,16.953,13.50928,23.15247,17.2749,48.09058,32.00391,74.50745,42.95996,26.39514,10.96143,54.32874,18.03711,82.94324,19.88379,7.15015.51416,14.33557.62012,21.54443.50244,3.6062-.05469,7.20752-.27002,10.82397-.45703l5.41931-.40137c.71686-.03955,1.2594-.13525,1.56525-.2002.15186-.02686.20306-.03564.14703.05518-.05005.08301-.20813.31836-.29077.61133-.08533.29004-.05194.5415-.01019.58838.04199.05566.06818-.05127.03992-.22852-.05981-.37256-.31818-.98096-.67029-1.59375-.72302-1.24756-1.77716-2.58496-2.90125-3.87744-2.29053-2.59033-4.961-5.05273-7.69086-7.45654-5.51477-4.77344-11.3988-9.29492-17.36084-13.75684,6.89685,2.82422,13.6676,5.98779,20.19507,9.79541,3.27106,1.90625,6.4696,3.96777,9.56531,6.44434,1.54871,1.25488,3.0686,2.59521,4.50476,4.35156.71362.89355,1.42596,1.87646,2.02167,3.23486.29016.68896.55383,1.48389.66626,2.46143.11365.96582.03741,2.15869-.39777,3.30615-.42407,1.15479-1.17804,2.13232-1.92761,2.81445-.75818.69287-1.51495,1.15381-2.20911,1.49609-1.38831.67725-2.66211,1.0083-3.7691,1.24707l-5.55389,1.18701c-3.71631.73926-7.45898,1.37793-11.22339,1.89355-7.52478,1.08301-15.1333,1.64893-22.76294,1.875-7.62805.146-15.2865-.0293-22.90552-.73096l-5.71045-.57275-5.69702-.71191-5.67041-.89893-5.64783-1.0332c-15.0332-2.92578-29.73083-7.45703-43.8645-13.23047-28.26917-11.60107-54.3175-28.04346-77.06335-48.01709-2.8407-2.50293-5.62817-5.06494-8.38037-7.66211-2.74231-2.60889-5.40173-5.30713-8.03027-8.0332-2.6311-2.72363-5.19067-5.521-7.66272-8.40674-2.47314-2.88477-4.91663-5.80127-7.20508-8.89111-1.15466-1.53271-2.27637-3.11035-3.37451-4.73926-1.09717-1.66406-2.15796-3.24951-3.19165-5.40625-.12305-.24072-.27319-.60742-.40698-.94238-.14978-.34619-.23425-.6626-.32373-.98291-.17688-.65088-.33386-1.36523-.39575-2.2373-.05627-.84814-.04309-1.89209.3855-3.09473.40063-1.19922,1.36743-2.37695,2.34656-2.98828.98181-.63867,1.89062-.88574,2.65991-1.02393.76929-.12451,1.44299-.13086,2.07434-.1084,1.23962.06787,2.32068.27051,3.34155.52148,2.03687.50098,3.87268,1.18799,5.65771,1.94629,1.78247.75244,3.5022,1.57129,5.18164,2.4541,1.68506.86475,3.32471,1.80176,4.93726,2.77393,1.61426.9668,3.2113,1.95312,4.75281,3.03076Z"/>
      <circle class="uuid-9af5fc8d-09f6-41db-a481-e21f39f47016" cx="571.7696" cy="215.32389" r="190.60893"/>
      <circle class="uuid-8e9c7b4a-15df-4bdc-bc02-04b12bd06fa9" cx="671.84344" cy="130.90662" r="11.80657"/>
      <circle class="uuid-8e9c7b4a-15df-4bdc-bc02-04b12bd06fa9" cx="611.96535" cy="104.92094" r="5.90329"/>
      <circle class="uuid-8e9c7b4a-15df-4bdc-bc02-04b12bd06fa9" cx="413.04262" cy="183.05295" r="3.41192"/>
      <circle class="uuid-8e9c7b4a-15df-4bdc-bc02-04b12bd06fa9" cx="423.59359" cy="225.18732" r="6.82384"/>
      <circle class="uuid-8e9c7b4a-15df-4bdc-bc02-04b12bd06fa9" cx="475.36932" cy="137.48842" r="3.41192"/>
      <circle class="uuid-8e9c7b4a-15df-4bdc-bc02-04b12bd06fa9" cx="471.9574" cy="152.88705" r="3.41192"/>
    </g>
  </g>
</svg>