<?xml version="1.0" encoding="UTF-8"?>
<svg id="uuid-7e63e1a7-2ced-4d31-9b77-603e6f4ce320" data-name="Layer 2" xmlns="http://www.w3.org/2000/svg" xmlns:xlink="http://www.w3.org/1999/xlink" viewBox="0 0 1131.38099 414.86464">
  <defs>
    <style>
      .uuid-325b8f8b-3094-42d1-8d48-b4c1b83c2708 {
        fill: url(#uuid-15e950e2-9811-45c4-905e-c47d5ca477b3);
      }

      .uuid-325b8f8b-3094-42d1-8d48-b4c1b83c2708, .uuid-40387b04-f5f3-4d08-958a-d621ad111246, .uuid-0e8dee34-399d-418a-b03a-d6b48f8f33b5, .uuid-f268f325-f01e-44e3-b950-1ecf56118590, .uuid-2c614a45-8a06-4c50-bcae-c8401e2882ff, .uuid-5ee1ab47-d31a-45e9-ae64-d92f0e3bdf3e, .uuid-5284ce5d-f577-4730-bf6b-a8fb8e30c3f2, .uuid-77f4e653-0ab6-4cc0-8159-4a96a0c78ef0, .uuid-002b733c-d65a-45fe-bea5-74ee1b581517, .uuid-68bb3a67-8094-47f6-84ca-99351d6cc71e, .uuid-e64d2626-60e2-412d-8bcb-877ba2e78f7c, .uuid-a589c3cf-93be-47f9-9d8a-de993fe4c722, .uuid-3c943ca8-4104-4e91-8d02-ae3c1b8e2b84, .uuid-52e22bf8-12ea-499d-b8d8-dab1e8c07c3b, .uuid-d6dfbd55-fc33-412a-abb8-45080d022271, .uuid-c61ad44c-c712-4383-bf46-e4e15d2fcb66, .uuid-6de1d23a-322a-40dd-82ff-9d0ca0d8a999, .uuid-bf8ee30c-7b0f-4359-ba48-b1b48a4abfa9, .uuid-30f2e80c-cf0d-4966-8555-2e340ea2e191, .uuid-5ee0931b-45de-4f7a-ad98-53e9eceaae04, .uuid-bbfa6687-5fc8-43ee-8c05-352f35b16f4e, .uuid-b012d4f1-db6d-4823-99e0-0f81de8d3267, .uuid-c93bb6a0-90d6-4590-a990-d7745feccb52, .uuid-6fe32a93-cc77-41c7-a2d9-58f317023a87, .uuid-63158ce7-f8b6-450c-bcb5-f553b239fbaa, .uuid-74363f6c-fc2e-4f2d-ac27-bc6b537f4ba9 {
        stroke-width: 0px;
      }

      .uuid-40387b04-f5f3-4d08-958a-d621ad111246 {
        fill: url(#uuid-7fb9f3c5-47bf-4bc2-b0b5-22c8558a492d);
      }

      .uuid-40387b04-f5f3-4d08-958a-d621ad111246, .uuid-f268f325-f01e-44e3-b950-1ecf56118590, .uuid-e64d2626-60e2-412d-8bcb-877ba2e78f7c {
        opacity: .24;
      }

      .uuid-0e8dee34-399d-418a-b03a-d6b48f8f33b5 {
        fill: url(#uuid-516ec110-5d70-4d6a-b9dc-2865c1c111ba);
      }

      .uuid-cf857a88-32e4-48a7-bce6-da704b6f9077 {
        fill: none;
        stroke: url(#uuid-2ddbaf3f-fe16-4afd-9603-6e01f4947497);
        stroke-dasharray: 0 10;
        stroke-linecap: round;
        stroke-miterlimit: 10;
        stroke-width: 2px;
      }

      .uuid-f268f325-f01e-44e3-b950-1ecf56118590 {
        fill: url(#uuid-8f5b9911-21bb-4dde-a7d8-4fa9736da2df);
      }

      .uuid-2c614a45-8a06-4c50-bcae-c8401e2882ff {
        fill: #2d0d73;
        opacity: .47;
      }

      .uuid-5ee1ab47-d31a-45e9-ae64-d92f0e3bdf3e {
        opacity: .16;
      }

      .uuid-5ee1ab47-d31a-45e9-ae64-d92f0e3bdf3e, .uuid-52e22bf8-12ea-499d-b8d8-dab1e8c07c3b, .uuid-c93bb6a0-90d6-4590-a990-d7745feccb52, .uuid-74363f6c-fc2e-4f2d-ac27-bc6b537f4ba9 {
        fill: #fff;
      }

      .uuid-5284ce5d-f577-4730-bf6b-a8fb8e30c3f2 {
        fill: url(#uuid-58a2d0ec-63e4-4373-9271-6479d0a67c9a);
      }

      .uuid-5284ce5d-f577-4730-bf6b-a8fb8e30c3f2, .uuid-002b733c-d65a-45fe-bea5-74ee1b581517, .uuid-a589c3cf-93be-47f9-9d8a-de993fe4c722 {
        opacity: .18;
      }

      .uuid-77f4e653-0ab6-4cc0-8159-4a96a0c78ef0 {
        fill: url(#uuid-0c63fa8c-0bca-464e-b97a-3228b7cecf42);
      }

      .uuid-002b733c-d65a-45fe-bea5-74ee1b581517 {
        fill: url(#uuid-24c64347-7608-49e5-94eb-d7271cae4635);
      }

      .uuid-68bb3a67-8094-47f6-84ca-99351d6cc71e {
        fill: url(#uuid-9e20bde4-fa1f-4bed-a918-b8708c338883);
      }

      .uuid-e64d2626-60e2-412d-8bcb-877ba2e78f7c {
        fill: url(#uuid-5e0f58e8-2a06-4465-a68c-36179f6ac8f1);
      }

      .uuid-a589c3cf-93be-47f9-9d8a-de993fe4c722 {
        fill: url(#uuid-46c2c50e-a236-4806-9d68-f0e69fe808f7);
      }

      .uuid-3c943ca8-4104-4e91-8d02-ae3c1b8e2b84 {
        fill: url(#uuid-19e88218-dbe2-4c8e-a8ee-e30eada91fa6);
      }

      .uuid-52e22bf8-12ea-499d-b8d8-dab1e8c07c3b {
        opacity: .52;
      }

      .uuid-d6dfbd55-fc33-412a-abb8-45080d022271 {
        opacity: .26;
      }

      .uuid-d6dfbd55-fc33-412a-abb8-45080d022271, .uuid-bf8ee30c-7b0f-4359-ba48-b1b48a4abfa9 {
        fill: #2e6ff2;
      }

      .uuid-c61ad44c-c712-4383-bf46-e4e15d2fcb66 {
        fill: url(#uuid-0e85e72d-a97f-41b2-834b-621c830034d2);
        opacity: .38;
      }

      .uuid-6de1d23a-322a-40dd-82ff-9d0ca0d8a999 {
        fill: url(#uuid-f22fbf4c-636f-4fa9-89e5-5b54535f4506);
      }

      .uuid-30f2e80c-cf0d-4966-8555-2e340ea2e191 {
        fill: #d65af9;
      }

      .uuid-5ee0931b-45de-4f7a-ad98-53e9eceaae04 {
        fill: #8d5bff;
      }

      .uuid-bbfa6687-5fc8-43ee-8c05-352f35b16f4e {
        fill: #30f2df;
      }

      .uuid-b012d4f1-db6d-4823-99e0-0f81de8d3267 {
        fill: #f2cece;
      }

      .uuid-6fe32a93-cc77-41c7-a2d9-58f317023a87 {
        fill: #fbf;
      }

      .uuid-63158ce7-f8b6-450c-bcb5-f553b239fbaa {
        fill: #f5e1c0;
      }

      .uuid-74363f6c-fc2e-4f2d-ac27-bc6b537f4ba9 {
        opacity: .29;
      }
    </style>
    <linearGradient id="uuid-2ddbaf3f-fe16-4afd-9603-6e01f4947497" data-name="New Gradient Swatch copy 4" x1="3.83865" y1="196.13804" x2="1131.38099" y2="196.13804" gradientUnits="userSpaceOnUse">
      <stop offset="0" stop-color="#00d1d5"/>
      <stop offset=".48096" stop-color="#009bd5"/>
      <stop offset=".58777" stop-color="#068dd3"/>
      <stop offset=".78622" stop-color="#156bce"/>
      <stop offset="1" stop-color="#2a3fc8"/>
    </linearGradient>
    <linearGradient id="uuid-15e950e2-9811-45c4-905e-c47d5ca477b3" x1="75.853" y1="180.97994" x2="278.76966" y2="180.97994" gradientUnits="userSpaceOnUse">
      <stop offset="0" stop-color="#c72da7"/>
      <stop offset=".30653" stop-color="#c72da7"/>
      <stop offset=".75535" stop-color="#a369cd"/>
      <stop offset=".99667" stop-color="#8f8ce3"/>
    </linearGradient>
    <linearGradient id="uuid-8f5b9911-21bb-4dde-a7d8-4fa9736da2df" x1="-2786.86274" y1="-1409.70456" x2="-2819.4337" y2="-1633.82891" gradientTransform="translate(3336.1777 -245.89644) rotate(-36.44803)" gradientUnits="userSpaceOnUse">
      <stop offset="0" stop-color="#8f8ce3" stop-opacity="0"/>
      <stop offset="1" stop-color="#fff"/>
    </linearGradient>
    <linearGradient id="uuid-5e0f58e8-2a06-4465-a68c-36179f6ac8f1" x1="-2797.84002" y1="-1540.82201" x2="-2726.39613" y2="-1540.82201" gradientTransform="translate(3336.1777 -245.89644) rotate(-36.44803)" gradientUnits="userSpaceOnUse">
      <stop offset="0" stop-color="#fff"/>
      <stop offset=".0885" stop-color="#fff" stop-opacity=".95076"/>
      <stop offset=".25094" stop-color="#fff" stop-opacity=".82006"/>
      <stop offset=".4691" stop-color="#fff" stop-opacity=".60826"/>
      <stop offset=".7329" stop-color="#fff" stop-opacity=".3177"/>
      <stop offset=".99667" stop-color="#fff" stop-opacity="0"/>
    </linearGradient>
    <linearGradient id="uuid-7fb9f3c5-47bf-4bc2-b0b5-22c8558a492d" x1="-2347.45641" y1="-1008.41463" x2="-2297.68419" y2="-1008.41463" gradientTransform="translate(2655.35399 -20.21365) rotate(-28.74076)" gradientUnits="userSpaceOnUse">
      <stop offset="0" stop-color="#fff"/>
      <stop offset=".34771" stop-color="#fff" stop-opacity=".61155"/>
      <stop offset=".66556" stop-color="#fff" stop-opacity=".28279"/>
      <stop offset=".88814" stop-color="#fff" stop-opacity=".07875"/>
      <stop offset=".99667" stop-color="#fff" stop-opacity="0"/>
    </linearGradient>
    <linearGradient id="uuid-19e88218-dbe2-4c8e-a8ee-e30eada91fa6" data-name="New Gradient Swatch copy 12" x1="37.60842" y1="194.86589" x2="342.70278" y2="194.86589" gradientUnits="userSpaceOnUse">
      <stop offset="0" stop-color="#7a79ce"/>
      <stop offset=".19352" stop-color="#7981d0"/>
      <stop offset=".50506" stop-color="#7799d5"/>
      <stop offset=".89357" stop-color="#74bfde"/>
      <stop offset=".99667" stop-color="#74cbe1"/>
    </linearGradient>
    <linearGradient id="uuid-9e20bde4-fa1f-4bed-a918-b8708c338883" data-name="New Gradient Swatch copy 12" x1="70.7922" y1="108.61363" x2="272.28413" y2="287.34098" xlink:href="#uuid-19e88218-dbe2-4c8e-a8ee-e30eada91fa6"/>
    <radialGradient id="uuid-0e85e72d-a97f-41b2-834b-621c830034d2" cx="4349.24922" cy="598.35549" fx="4349.24922" fy="598.35549" r="164.79682" gradientTransform="translate(-2327.40821 -3405.02741) rotate(47.21708)" gradientUnits="userSpaceOnUse">
      <stop offset="0" stop-color="#fff" stop-opacity=".6"/>
      <stop offset=".12331" stop-color="#f7fdff" stop-opacity=".57042"/>
      <stop offset=".30969" stop-color="#e1f8ff" stop-opacity=".4888"/>
      <stop offset=".53605" stop-color="#bdf1ff" stop-opacity=".35524"/>
      <stop offset=".79132" stop-color="#8ce7ff" stop-opacity=".17148"/>
      <stop offset="1" stop-color="#5fdeff" stop-opacity="0"/>
    </radialGradient>
    <linearGradient id="uuid-0c63fa8c-0bca-464e-b97a-3228b7cecf42" x1="1509.17439" y1="-1158.77817" x2="1510.76727" y2="-1123.73502" gradientTransform="translate(942.79899 -1771.86028) rotate(124.90022)" gradientUnits="userSpaceOnUse">
      <stop offset="0" stop-color="#d3c600"/>
      <stop offset=".27048" stop-color="#e78815"/>
      <stop offset=".56524" stop-color="#ff422e"/>
      <stop offset=".97431" stop-color="#d21a00"/>
    </linearGradient>
    <linearGradient id="uuid-516ec110-5d70-4d6a-b9dc-2865c1c111ba" x1="1533.50088" y1="-1162.8677" x2="1526.59844" y2="-1131.01029" xlink:href="#uuid-0c63fa8c-0bca-464e-b97a-3228b7cecf42"/>
    <linearGradient id="uuid-f22fbf4c-636f-4fa9-89e5-5b54535f4506" x1="1523.33725" y1="-1173.74307" x2="1516.1197" y2="-1141.16385" xlink:href="#uuid-0c63fa8c-0bca-464e-b97a-3228b7cecf42"/>
    <radialGradient id="uuid-58a2d0ec-63e4-4373-9271-6479d0a67c9a" cx="491.662" cy="269.56979" fx="491.662" fy="269.56979" r="135.92589" gradientUnits="userSpaceOnUse">
      <stop offset="0" stop-color="#8d0dac" stop-opacity=".97998"/>
      <stop offset=".08016" stop-color="#8d0dac" stop-opacity=".91875"/>
      <stop offset=".22581" stop-color="#8d0dac" stop-opacity=".85035"/>
      <stop offset=".43079" stop-color="#8d0dac" stop-opacity=".81089"/>
      <stop offset="1" stop-color="#8d0dac" stop-opacity=".8"/>
    </radialGradient>
    <radialGradient id="uuid-46c2c50e-a236-4806-9d68-f0e69fe808f7" cx="726.63107" cy="207.31271" fx="726.63107" fy="207.31271" r="67.75283" xlink:href="#uuid-58a2d0ec-63e4-4373-9271-6479d0a67c9a"/>
    <radialGradient id="uuid-24c64347-7608-49e5-94eb-d7271cae4635" cx="626.93175" cy="105.01256" fx="626.93175" fy="105.01256" r="50.93842" xlink:href="#uuid-58a2d0ec-63e4-4373-9271-6479d0a67c9a"/>
  </defs>
  <g id="uuid-beb49bce-1d9e-44d8-9bf8-0e2855107838" data-name="Layer 1">
    <path class="uuid-cf857a88-32e4-48a7-bce6-da704b6f9077" d="m1130.38099,172.79111c-69.05416-27.47993-138.54515-55.09271-211.33411-70.10575-31.23443-6.44224-64.8515-10.29713-94.09278,2.43234-31.77162,13.83098-53.71231,47.69917-53.3477,82.34882.07981,7.58427,1.2738,15.51118,5.76166,21.62563,3.67512,5.00715,9.22461,8.32367,14.94361,10.74669,36.65837,15.53133,84.40139-7.2285,95.41736-45.48693,3.24596-11.27322,3.09562-24.79861-5.14947-33.14369-4.40252-4.45591-10.49294-6.79066-16.51613-8.5107-63.38673-18.10137-127.98053,18.86605-184.34258,53.0546-65.87978,39.96189-133.88292,78.56236-208.48996,97.82082-74.60704,19.25846-157.51523,17.37553-224.51794-20.67359-40.4244-22.95596-72.98189-57.62912-112.135-82.69189-39.15311-25.06277-90.66168-39.70147-131.7393-17.93596"/>
    <g>
      <circle class="uuid-325b8f8b-3094-42d1-8d48-b4c1b83c2708" cx="177.31133" cy="180.97994" r="101.45833"/>
      <path class="uuid-f268f325-f01e-44e3-b950-1ecf56118590" d="m250.95191,227.14065c-22.43547,4.70056-43.83748.94886-59.73598-11.12498-18.42751-13.99475-21.00493-37.6928-30.68816-57.48646-10.08086-20.60671-27.64823-42.97809-51.09762-53.14127-5.90653,5.18125-11.48071,10.74063-16.56423,16.8299-.13828.16563-.2844.30858-.42727.46087-1.14654,2.39269-2.33762,4.7532-3.70864,7.00888,12.13565,3.64062,29.32022,11.53301,37.04744,20.54253,15.89882,18.53716,12.72309,42.83955,23.81879,64.07044,17.01648,32.5596,56.49585,48.1698,97.96478,40.89557.58931-1.02958,1.41302-1.99406,2.53332-2.83774,6.37252-4.79922,11.09118-11.18052,14.75802-18.30837-1.56665-5.01089-6.21974-8.51849-13.90047-6.90936Z"/>
      <path class="uuid-e64d2626-60e2-412d-8bcb-877ba2e78f7c" d="m270.23467,199.38964c-11.19882-1.20426-48.46012-8.60316-64.46104-19.62185-18.54647-12.77148-32.34257-50.88545-48.60101-65.80523-11.22303-10.2989-20.80145-17.54012-29.79535-22.5654-4.44544,3.14635-8.79708,6.41197-12.99644,9.85625,10.47515,3.9214,23.87543,13.45723,35.43188,22.56857,19.38506,15.28375,23.93755,53.38574,41.80839,69.52495,24.34886,21.98942,60.03325,22.31427,83.13696,23.45368.96514-3.4876,1.82536-6.97984,2.63018-10.40471.27034-1.15038.68812-2.16033,1.21967-3.03783-2.77384-2.11201-5.76623-3.68807-8.37322-3.96844Z"/>
      <path class="uuid-40387b04-f5f3-4d08-958a-d621ad111246" d="m184.97009,257.76439c-6.22141-4.86677-38.27979-21.59829-49.96263-35.56744-13.54139-16.19135-13.42653-40.76521-26.41622-57.7688-8.28905-10.85039-27.39824-14.41068-27.39824-14.41068-.6917-.7876-.05674-1.04668,0,0,.06904,1.27377-3.4192,9.78138-4.06537,10.40094,6.32369-2.53453,16.99904-1.04116,25.78332,9.918,14.735,18.38329,8.81808,37.65313,23.01782,56.14668,19.34699,25.19722,54.20842,36.99132,66.63937,46.01685-.54288-2.29032-1.14206-4.62123-1.74998-6.92087-.20419-.77243-.28904-1.38678-.27457-1.861-2.08593-2.57393-4.12519-4.82073-5.57349-5.95369Z"/>
      <path class="uuid-3c943ca8-4104-4e91-8d02-ae3c1b8e2b84" d="m83.021,218.07825l-9.57922,7.35986c-1.52759,1.23145-3.0332,2.42529-4.42932,3.64697-1.37524,1.23584-2.69788,2.47461-3.63904,3.63184-.4635.57275-.80054,1.14648-.83081,1.50098.00623.15674.10583.26758.35522.11572.22876-.15625.74048-.6001,1.1355-1.87793.10791-.34668.16101-.67285.20569-1.06641.05103-.40381.03052-.80176.0083-1.21777-.03088-.41553-.12354-.83203-.20898-1.19287-.04858-.18652-.10815-.37109-.17749-.55078-.06311-.17188-.10803-.31006-.17554-.46338-.54114-1.20068-1.02112-1.69531-1.229-1.99902-.14246-.26367-.23328-.39697-.09131-.4585.15015-.06396-.20801-.25537.15552-.21973.38281-.02686,1.20398.02588,1.94116.05371.79749.02686,1.62341.04883,2.48792.05664,1.72888.00439,3.50049.02246,5.31555-.02393,7.24133-.13525,14.67834-.62598,22.04907-1.23193,7.38269-.60498,14.7511-1.42334,22.08044-2.33398,29.31689-3.75879,58.02783-9.6167,85.4895-18.41406,27.46448-8.81006,53.63477-20.58887,77.96338-36.31543,6.09564-3.91797,12.05774-8.10645,17.92407-12.5293,2.94904-2.19678,5.81946-4.50488,8.71954-6.82275,1.41498-1.19141,2.85071-2.37305,4.29871-3.55469.16669-.08984.30927-.14648.36243-.10596.07007.03369.07489.13867-.0083.4873-.06372.33887-.22083.9248-.22931,1.9502-.0238.99658.28387,2.49316.95441,3.604.64789,1.12109,1.40979,1.71582,1.8609,1.97412.46533.26416.71375.27295.78406.22705.13684-.11572-.21619-.43066-.7262-.68701-1.04156-.53467-2.62213-1.01367-4.26141-1.41309-3.33197-.78271-7.06311-1.23926-10.83099-1.67139-7.57697-.79004-15.43323-1.16113-23.42566-1.74854,7.15088-3.64844,14.54242-6.6499,22.34113-9.01611,3.91809-1.19043,7.91199-2.1709,12.30731-2.771,2.21954-.29395,4.50812-.50244,7.25952-.28955,1.38306.11865,2.90491.31689,4.8103.98193.95215.34619,2.04688.83594,3.27448,1.69287,1.2099.85156,2.64044,2.17432,3.72681,4.15869,1.10675,1.97559,1.57422,4.45996,1.47473,6.41699-.08209,1.98926-.53021,3.51074-.98395,4.73096-.46997,1.23438-.96649,2.17041-1.44635,2.99707-.48706.84131-.96075,1.53076-1.41656,2.17871-1.12183,1.70312-2.25598,3.40576-3.41083,5.09912-2.34131,3.35791-4.78479,6.66113-7.34967,9.87793-5.12842,6.43457-10.71893,12.5376-16.66663,18.30078-11.92828,11.48975-25.33374,21.54541-39.67871,29.89893-14.34131,8.37402-29.57336,15.1167-45.21655,20.31152-15.6499,5.19043-31.70776,8.8833-47.88416,11.11475-16.17871,2.23779-32.47449,3.06494-48.69629,2.42627-8.11121-.29688-16.20435-.99805-24.26782-2.0708-8.0719-1.0791-16.07654-2.56348-24.16211-4.68311-2.01794-.52979-4.06421-1.11084-6.13904-1.7793-1.03723-.33203-2.10425-.69434-3.19348-1.08252-1.14136-.41748-2.20337-.80908-3.65088-1.45557-.55713-.25342-1.81555-.80664-2.5282-1.30176-.73132-.47559-1.63757-1.13428-2.56128-1.96387-.96436-.90039-2.14319-2.08984-3.14978-4.13916-.12329-.25977-.23523-.5-.34497-.78271-.11096-.29297-.21216-.59082-.30237-.89062-.18469-.5835-.30981-1.24072-.38684-1.89307-.08679-.65137-.0741-1.29443-.04077-1.93848.04187-.63477.15149-1.19873.28333-1.78516.58191-2.22998,1.57104-3.54395,2.36975-4.47461.82422-.9292,1.59607-1.5166,2.30872-2.01758,1.40649-.93799,2.64441-1.49463,3.81555-1.94971,2.3313-.89893,4.47144-1.39404,6.60632-1.76758,2.11865-.38184,4.19031-.65186,6.26978-.80273,4.13293-.34521,8.245-.38037,12.38074-.0415Z"/>
      <path class="uuid-68bb3a67-8094-47f6-84ca-99351d6cc71e" d="m78.54713,149.74231c-1.82422-.44922-3.63098-.90527-5.44226-1.32617-1.81372-.4126-3.62573-.79932-5.42297-1.17236-3.57935-.7085-7.24231-1.3457-10.52979-1.39062-.80847-.00586-1.57715.05713-2.18494.18555-.29102.06885-.53918.15869-.67151.24023-.1272.07617-.09937.1626.12976.06396.22656-.07812.60242-.48291.73535-.79346.14282-.31885.15381-.41357.21912-.35059.05017.0459.1416.22705.2738.4458.06897.11426.13525.23486.19482.30127l.20984.29785c.76416,1.0752,1.90283,2.47607,3.04529,3.74756,1.16003,1.29688,2.36975,2.58838,3.62805,3.85547,4.98926,5.10645,10.40027,9.93555,15.87964,14.63525,5.51746,4.66895,11.16846,9.18408,16.953,13.50928,23.15247,17.2749,48.09058,32.00391,74.50745,42.95996,26.39514,10.96143,54.32874,18.03711,82.94324,19.88379,7.15015.51416,14.33557.62012,21.54443.50244,3.6062-.05469,7.20752-.27002,10.82397-.45703l5.41931-.40137c.71686-.03955,1.2594-.13525,1.56525-.2002.15186-.02686.20306-.03564.14703.05518-.05005.08301-.20813.31836-.29077.61133-.08533.29004-.05194.5415-.01019.58838.04199.05566.06818-.05127.03992-.22852-.05981-.37256-.31818-.98096-.67029-1.59375-.72302-1.24756-1.77716-2.58496-2.90125-3.87744-2.29053-2.59033-4.961-5.05273-7.69086-7.45654-5.51477-4.77344-11.3988-9.29492-17.36084-13.75684,6.89685,2.82422,13.6676,5.98779,20.19507,9.79541,3.27106,1.90625,6.4696,3.96777,9.56531,6.44434,1.54871,1.25488,3.0686,2.59521,4.50476,4.35156.71362.89355,1.42596,1.87646,2.02167,3.23486.29016.68896.55383,1.48389.66626,2.46143.11365.96582.03741,2.15869-.39777,3.30615-.42407,1.15479-1.17804,2.13232-1.92761,2.81445-.75818.69287-1.51495,1.15381-2.20911,1.49609-1.38831.67725-2.66211,1.0083-3.7691,1.24707l-5.55389,1.18701c-3.71631.73926-7.45898,1.37793-11.22339,1.89355-7.52478,1.08301-15.1333,1.64893-22.76294,1.875-7.62805.146-15.2865-.0293-22.90552-.73096l-5.71045-.57275-5.69702-.71191-5.67041-.89893-5.64783-1.0332c-15.0332-2.92578-29.73083-7.45703-43.8645-13.23047-28.26917-11.60107-54.3175-28.04346-77.06335-48.01709-2.8407-2.50293-5.62817-5.06494-8.38037-7.66211-2.74231-2.60889-5.40173-5.30713-8.03027-8.0332-2.6311-2.72363-5.19067-5.521-7.66272-8.40674-2.47314-2.88477-4.91663-5.80127-7.20508-8.89111-1.15466-1.53271-2.27637-3.11035-3.37451-4.73926-1.09717-1.66406-2.15796-3.24951-3.19165-5.40625-.12305-.24072-.27319-.60742-.40698-.94238-.14978-.34619-.23425-.6626-.32373-.98291-.17688-.65088-.33386-1.36523-.39575-2.2373-.05627-.84814-.04309-1.89209.3855-3.09473.40063-1.19922,1.36743-2.37695,2.34656-2.98828.98181-.63867,1.89062-.88574,2.65991-1.02393.76929-.12451,1.44299-.13086,2.07434-.1084,1.23962.06787,2.32068.27051,3.34155.52148,2.03687.50098,3.87268,1.18799,5.65771,1.94629,1.78247.75244,3.5022,1.57129,5.18164,2.4541,1.68506.86475,3.32471,1.80176,4.93726,2.77393,1.61426.9668,3.2113,1.95312,4.75281,3.03076Z"/>
      <circle class="uuid-c61ad44c-c712-4383-bf46-e4e15d2fcb66" cx="190.60982" cy="190.60982" r="190.60893"/>
      <circle class="uuid-63158ce7-f8b6-450c-bcb5-f553b239fbaa" cx="290.68366" cy="106.19255" r="11.80657"/>
      <circle class="uuid-63158ce7-f8b6-450c-bcb5-f553b239fbaa" cx="230.80557" cy="80.20687" r="5.90329"/>
      <circle class="uuid-63158ce7-f8b6-450c-bcb5-f553b239fbaa" cx="31.88284" cy="158.33888" r="3.41192"/>
      <circle class="uuid-63158ce7-f8b6-450c-bcb5-f553b239fbaa" cx="42.43381" cy="200.47325" r="6.82384"/>
      <circle class="uuid-63158ce7-f8b6-450c-bcb5-f553b239fbaa" cx="94.20954" cy="112.77435" r="3.41192"/>
      <circle class="uuid-63158ce7-f8b6-450c-bcb5-f553b239fbaa" cx="90.79762" cy="128.17298" r="3.41192"/>
    </g>
    <g>
      <g>
        <path class="uuid-bf8ee30c-7b0f-4359-ba48-b1b48a4abfa9" d="m1080.52785,136.99734c3.22364,4.86786,5.66566,22.65625,5.66566,22.65625l-10.39716-13.32718c.11882-.57199.21476-1.1487.28634-1.72849.06848-.5547.11371-1.12845-.04803-1.66345-.12966-.42886-.38474-.80709-.63817-1.17655-2.88804-4.21025-6.04738-8.26645-9.79666-11.73197-2.75788-2.54916-5.8511-4.77536-9.22527-6.40645l-4.7816-5.37757c-.76098-.85582.23669-2.12641,1.24865-1.59026,8.2361,4.36374,23.33811,13.77984,27.68624,20.34568Z"/>
        <path class="uuid-2c614a45-8a06-4c50-bcae-c8401e2882ff" d="m1065.59983,130.02594c3.74927,3.46552,6.90862,7.52173,9.79666,11.73197.25343.36946.50852.74768.63817,1.17655.16174.535.11651,1.10876.04803,1.66345-.07158.57979-.16753,1.1565-.28634,1.72849l-5.50012-7.05015-13.92166-15.65678c3.37416,1.6311,6.46739,3.85729,9.22527,6.40645Z"/>
      </g>
      <g>
        <path class="uuid-bf8ee30c-7b0f-4359-ba48-b1b48a4abfa9" d="m1042.17197,192.01388c5.68156,1.34454,23.21909-2.5058,23.21909-2.5058l-16.09754-5.15594c-.49578.30901-1.0039.59819-1.52331.86556-.49693.2558-1.01978.49636-1.57773.5293-.44726.0264-.89029-.0824-1.32454-.19267-4.94851-1.25665-9.84614-2.82111-14.3931-5.14317-3.34465-1.70805-6.50198-3.84235-9.19783-6.44578l-6.69787-2.63068c-1.06594-.41867-1.9139.95636-1.0613,1.72095,6.9392,6.22278,20.99076,17.14467,28.65414,18.95823Z"/>
        <path class="uuid-2c614a45-8a06-4c50-bcae-c8401e2882ff" d="m1030.47483,180.41116c4.54697,2.32206,9.44459,3.88652,14.3931,5.14317.43425.11027.87728.21907,1.32454.19267.55795-.03294,1.08079-.2735,1.57773-.5293.51941-.26737,1.02753-.55655,1.52331-.86556l-8.51567-2.72749-19.50084-7.65928c2.69585,2.60343,5.85318,4.73773,9.19783,6.44578Z"/>
      </g>
      <path class="uuid-77f4e653-0ab6-4cc0-8159-4a96a0c78ef0" d="m1037.19676,136.41289c-2.99685,4.01167-12.07315,3.89004-17.85412.21937-4.88079-3.0991-1.41891-10.04653-9.88039-14.3074-12.24199-6.16458-11.49442-13.41056-14.68743-14.80906-3.4888-1.52805,18.60327-4.73908,30.86246,4.60943,8.57813,6.54145,15.54806,18.94843,11.55948,24.28766Z"/>
      <path class="uuid-0e8dee34-399d-418a-b03a-d6b48f8f33b5" d="m1026.49336,150.5195c3.01553-4.60681.05785-13.49919-5.36624-17.68143-4.57948-3.53101-7.92816-1.39996-17.1858-3.83543-12.66426-3.33168-16.85008-4.71625-19.18307-8.36477-2.23431-3.4942,1.14738,20.28315,14.19115,28.50701,9.12713,5.75448,23.53052,7.50594,27.54396,1.37463Z"/>
      <path class="uuid-6de1d23a-322a-40dd-82ff-9d0ca0d8a999" d="m1036.94865,148.53711c-2.99685,4.01167-12.07315,3.89004-17.85412.21937-4.88079-3.0991-4.22705-6.70532-9.88039-14.3074-7.73366-10.39948-11.49442-13.41056-14.68743-14.80906-3.4888-1.52805,18.60327-4.73908,30.86246,4.60943,8.57813,6.54145,15.54806,18.94843,11.55948,24.28766Z"/>
      <path class="uuid-b012d4f1-db6d-4823-99e0-0f81de8d3267" d="m1018.75787,159.14465c10.17628,14.92117,44.04176,36.43061,63.7153,43.81892,5.43618,2.04153,18.78295,4.86985,27.08646,2.46395-6.92725-6.78534-24.79783-16.32846-28.95912-19.23144-14.56391-10.16-40.53854-25.45019-49.65456-48.56498-.36271-.9197-1.90666-.56516-3.35379.01704-3.48677,5.17118-6.603,11.071-8.46654,15.07667-.26547.57063-1.02328,5.45865-.36774,6.41984Z"/>
      <path class="uuid-b012d4f1-db6d-4823-99e0-0f81de8d3267" d="m1030.94594,137.63109c9.11602,23.11479,35.09066,38.40498,49.65456,48.56498,4.16129,2.90298,22.03188,12.44609,28.95912,19.23144,2.45015-.70992,4.46139-1.87538,5.70047-3.65154,5.61555-8.04964-6.03789-26.13089-10.02916-31.43464-10.61663-14.10787-45.38866-37.58442-63.00596-44.83572-1.66055-.68349-6.79404,3.02171-7.31988,3.45949-2.42525,2.01902-4.95389,5.18434-7.31295,8.68303,1.44714-.5822,2.99108-.93674,3.35379-.01704Z"/>
      <path class="uuid-74363f6c-fc2e-4f2d-ac27-bc6b537f4ba9" d="m1018.75787,159.14465c10.17628,14.92117,44.04176,36.43061,63.7153,43.81892,5.43618,2.04153,18.78295,4.86985,27.08646,2.46395-6.92725-6.78534-24.79783-16.32846-28.95912-19.23144-14.56391-10.16-40.53854-25.45019-49.65456-48.56498-.36271-.9197-1.90666-.56516-3.35379.01704-3.48677,5.17118-6.603,11.071-8.46654,15.07667-.26547.57063-1.02328,5.45865-.36774,6.41984Z"/>
      <path class="uuid-bbfa6687-5fc8-43ee-8c05-352f35b16f4e" d="m1100.09643,191.96388c4.72753-6.7767,3.06635-16.10271-3.71035-20.83024-6.77669-4.72753-16.10271-3.06635-20.83024,3.71035-4.72753,6.7767-3.06635,16.10271,3.71035,20.83024,6.7767,4.72753,16.10271,3.06635,20.83024-3.71035Zm-21.95019-15.31279c3.72948-5.34604,11.08668-6.65654,16.43274-2.92705,5.34606,3.72949,6.65654,11.0867,2.92705,16.43274-3.72948,5.34604-11.08668,6.65654-16.43274,2.92705-5.34606-3.72949-6.65654-11.0867-2.92705-16.43274Z"/>
      <g>
        <circle class="uuid-6fe32a93-cc77-41c7-a2d9-58f317023a87" cx="1087.82614" cy="183.40394" r="12.23529"/>
        <path class="uuid-c93bb6a0-90d6-4590-a990-d7745feccb52" d="m1080.82572,193.43851c-7.73257-5.17697-9.22616-17.25177-1.84501-23.86963,9.53137-8.74019,25.28727-2.04258,26.01168,10.77751.73885,12.93064-13.97556,20.30525-24.16667,13.09213h0Zm0,0c5.11044,3.74621,12.92881,1.32223,14.56188-4.75995,2.45449-8.34092-8.16517-15.79006-15.14857-10.56756-5.13389,3.65053-4.69516,11.8247.58669,15.32751h0Z"/>
      </g>
      <path class="uuid-d6dfbd55-fc33-412a-abb8-45080d022271" d="m1097.33087,190.40973c3.69174-5.29194,2.66625-12.38507-2.29049-15.84297-.285-.19882-.57708-.38051-.87464-.54685-.24806,2.67918-.84537,5.34227-1.76641,7.93886-1.69816,4.78745-4.35198,9.21306-7.43785,13.29179,4.42364,1.15995,9.44083-.64288,12.36939-4.84084Z"/>
      <path class="uuid-bf8ee30c-7b0f-4359-ba48-b1b48a4abfa9" d="m1048.34439,138.65631l-2.39306-5.10793-23.12649-10.94385c-.78791-.34551-1.41351.69478-.74091,1.23204l18.79676,17.72145,6.11208-.35824c1.24694-.10382,1.95942-1.44456,1.35161-2.54346Z"/>
      <path class="uuid-bf8ee30c-7b0f-4359-ba48-b1b48a4abfa9" d="m1036.35278,153.90574l-2.39306-5.10793-23.12649-10.94385c-.78791-.34551-1.41351.69478-.74091,1.23204l18.79676,17.72145,6.11208-.35824c1.24694-.10382,1.95942-1.44456,1.35161-2.54346Z"/>
      <circle class="uuid-c93bb6a0-90d6-4590-a990-d7745feccb52" cx="1082.77673" cy="187.89172" r="3.04523"/>
      <circle class="uuid-c93bb6a0-90d6-4590-a990-d7745feccb52" cx="1081.39499" cy="181.88871" r="1.52261"/>
      <circle class="uuid-c93bb6a0-90d6-4590-a990-d7745feccb52" cx="1068.22167" cy="145.64683" r="2.0664"/>
      <circle class="uuid-c93bb6a0-90d6-4590-a990-d7745feccb52" cx="1064.9327" cy="142.09263" r="1.0332"/>
      <g>
        <path class="uuid-30f2e80c-cf0d-4966-8555-2e340ea2e191" d="m1057.07189,182.25847c.60186,1.16216.53948,2.43807-.07967,3.15459.26439-.05133.52602-.1401.77731-.27024,1.41343-.73199,1.96587-2.4712,1.23388-3.88464s-2.47121-1.96586-3.88464-1.23388c-.2513.13014-.47476.29259-.66925.4789.94247-.09221,2.02052.5931,2.62238,1.75526Z"/>
        <path class="uuid-30f2e80c-cf0d-4966-8555-2e340ea2e191" d="m1053.88489,183.90894c.60186,1.16216,1.88459,1.74147,3.10733,1.50411.61915-.71652.68153-1.99243.07967-3.15459s-1.6799-1.84747-2.62238-1.75526c-.89943.86167-1.16648,2.24358-.56463,3.40574Z"/>
        <path class="uuid-5ee1ab47-d31a-45e9-ae64-d92f0e3bdf3e" d="m1053.88489,183.90894c.60186,1.16216,1.88459,1.74147,3.10733,1.50411.61915-.71652.68153-1.99243.07967-3.15459s-1.6799-1.84747-2.62238-1.75526c-.89943.86167-1.16648,2.24358-.56463,3.40574Z"/>
      </g>
      <g>
        <path class="uuid-30f2e80c-cf0d-4966-8555-2e340ea2e191" d="m1056.38068,172.62783c.11419,1.30376-.42915,2.45989-1.27443,2.8868.26403.05317.53975.07067.82166.04598,1.58566-.13888,2.75852-1.53689,2.61964-3.12256s-1.5369-2.75852-3.12256-2.61964c-.28191.02469-.5504.08985-.80116.18811.90662.27347,1.64266,1.31754,1.75685,2.62131Z"/>
        <path class="uuid-30f2e80c-cf0d-4966-8555-2e340ea2e191" d="m1052.80535,172.94097c.11419,1.30376,1.07985,2.32772,2.3009,2.57366.84528-.42691,1.38862-1.58303,1.27443-2.8868s-.85023-2.34784-1.75685-2.62131c-1.1597.45445-1.93267,1.63068-1.81848,2.93445Z"/>
        <path class="uuid-5ee1ab47-d31a-45e9-ae64-d92f0e3bdf3e" d="m1052.80535,172.94097c.11419,1.30376,1.07985,2.32772,2.3009,2.57366.84528-.42691,1.38862-1.58303,1.27443-2.8868s-.85023-2.34784-1.75685-2.62131c-1.1597.45445-1.93267,1.63068-1.81848,2.93445Z"/>
      </g>
      <g>
        <path class="uuid-30f2e80c-cf0d-4966-8555-2e340ea2e191" d="m1060.69219,162.93012c-.44648,1.23024-1.42683,2.04924-2.37331,2.0797.21695.15959.45955.29177.72557.38832,1.49624.54302,3.14939-.22972,3.69242-1.72597s-.22973-3.1494-1.72597-3.69242c-.26602-.09654-.53693-.15073-.80574-.16743.70663.63042.93351,1.88754.48703,3.11779Z"/>
        <path class="uuid-30f2e80c-cf0d-4966-8555-2e340ea2e191" d="m1057.31848,161.70573c-.44648,1.23024-.00293,2.566,1.0004,3.3041.94648-.03047,1.92683-.84946,2.37331-2.0797s.2196-2.48737-.48703-3.11779c-1.24317-.07721-2.4402.66315-2.88668,1.89339Z"/>
        <path class="uuid-5ee1ab47-d31a-45e9-ae64-d92f0e3bdf3e" d="m1057.31848,161.70573c-.44648,1.23024-.00293,2.566,1.0004,3.3041.94648-.03047,1.92683-.84946,2.37331-2.0797s.2196-2.48737-.48703-3.11779c-1.24317-.07721-2.4402.66315-2.88668,1.89339Z"/>
      </g>
      <g>
        <path class="uuid-30f2e80c-cf0d-4966-8555-2e340ea2e191" d="m1069.68872,156.93041c-1.25317.37738-2.49573.08095-3.08588-.65964.00173.26932.04076.54283.12236.8138.45898,1.52412,2.0666,2.3876,3.59073,1.92862,1.52413-.45898,2.38759-2.06661,1.92862-3.59073-.0816-.27097-.20009-.52055-.34737-.74604-.08305.94332-.95529,1.87662-2.20846,2.254Z"/>
        <path class="uuid-30f2e80c-cf0d-4966-8555-2e340ea2e191" d="m1068.65382,153.49384c-1.25317.37738-2.05894,1.53139-2.05098,2.77693.59015.74059,1.83272,1.03703,3.08588.65964,1.25317-.37738,2.12541-1.31068,2.20846-2.254-.68116-1.04281-1.99019-1.55996-3.24336-1.18258Z"/>
        <path class="uuid-5ee1ab47-d31a-45e9-ae64-d92f0e3bdf3e" d="m1068.65382,153.49384c-1.25317.37738-2.05894,1.53139-2.05098,2.77693.59015.74059,1.83272,1.03703,3.08588.65964,1.25317-.37738,2.12541-1.31068,2.20846-2.254-.68116-1.04281-1.99019-1.55996-3.24336-1.18258Z"/>
      </g>
      <g>
        <path class="uuid-30f2e80c-cf0d-4966-8555-2e340ea2e191" d="m1078.67336,153.95556c-1.19455.53469-2.46484.39974-3.14493-.25922.03619.26689.10991.53314.22553.79144.65029,1.45283,2.35522,2.10342,3.80806,1.45313,1.45284-.6503,2.10342-2.35523,1.45313-3.80806-.11562-.2583-.26508-.49066-.44001-.69544.03838.94619-.70722,1.98346-1.90177,2.51815Z"/>
        <path class="uuid-30f2e80c-cf0d-4966-8555-2e340ea2e191" d="m1077.20708,150.67972c-1.19455.53469-1.84598,1.78234-1.67865,3.01662.68009.65896,1.95038.7939,3.14493.25922s1.94015-1.57195,1.90177-2.51815c-.80904-.94704-2.1735-1.29237-3.36805-.75769Z"/>
        <path class="uuid-5ee1ab47-d31a-45e9-ae64-d92f0e3bdf3e" d="m1077.20708,150.67972c-1.19455.53469-1.84598,1.78234-1.67865,3.01662.68009.65896,1.95038.7939,3.14493.25922s1.94015-1.57195,1.90177-2.51815c-.80904-.94704-2.1735-1.29237-3.36805-.75769Z"/>
      </g>
      <path class="uuid-5ee0931b-45de-4f7a-ad98-53e9eceaae04" d="m1064.31688,137.40301l-4.37216-2.702s-20.20976,8.42214-27.09522,38.64968c-3.85755,16.93485,0,0,0,0l4.60331,3.87955s2.97548-22.72706,26.86407-39.82723c30.85246-22.08511,0,0,0,0l-6.96051-4.18461"/>
    </g>
    <polygon class="uuid-5284ce5d-f577-4730-bf6b-a8fb8e30c3f2" points="491.5972 414.86464 365.80056 342.16109 365.86537 196.86624 491.72681 124.27493 617.52344 196.97849 617.45864 342.27334 491.5972 414.86464"/>
    <polygon class="uuid-a589c3cf-93be-47f9-9d8a-de993fe4c722" points="726.59876 279.73553 663.89491 243.49614 663.92721 171.07332 726.66337 134.88988 789.36723 171.12927 789.33492 243.5521 726.59876 279.73553"/>
    <polygon class="uuid-002b733c-d65a-45fe-bea5-74ee1b581517" points="626.90746 159.46201 579.765 132.21625 579.78928 77.7668 626.95604 50.5631 674.0985 77.80886 674.07422 132.25832 626.90746 159.46201"/>
    <polygon class="uuid-74363f6c-fc2e-4f2d-ac27-bc6b537f4ba9" points="481.00207 86.73293 482.30359 89.1127 484.68322 90.41408 482.30359 91.71559 481.00207 94.09523 479.7007 91.71559 477.32106 90.41408 479.7007 89.1127 481.00207 86.73293"/>
    <polygon class="uuid-52e22bf8-12ea-499d-b8d8-dab1e8c07c3b" points="596.4202 99.48444 598.46038 103.2148 602.19074 105.25498 598.46038 107.29515 596.4202 111.02551 594.38003 107.29515 590.64966 105.25498 594.38003 103.2148 596.4202 99.48444"/>
    <polygon class="uuid-74363f6c-fc2e-4f2d-ac27-bc6b537f4ba9" points="535.713 124.27216 537.01451 126.65193 539.39415 127.95331 537.01451 129.25482 535.713 131.63446 534.41162 129.25482 532.03198 127.95331 534.41162 126.65193 535.713 124.27216"/>
    <polygon class="uuid-74363f6c-fc2e-4f2d-ac27-bc6b537f4ba9" points="969.81667 72.85402 971.11818 75.23379 973.49782 76.53517 971.11818 77.83668 969.81667 80.21632 968.51529 77.83668 966.13565 76.53517 968.51529 75.23379 969.81667 72.85402"/>
    <polygon class="uuid-52e22bf8-12ea-499d-b8d8-dab1e8c07c3b" points="1024.2348 64.60553 1026.27497 68.33589 1030.00533 70.37607 1026.27497 72.41624 1024.2348 76.1466 1022.19462 72.41624 1018.46426 70.37607 1022.19462 68.33589 1024.2348 64.60553"/>
    <polygon class="uuid-74363f6c-fc2e-4f2d-ac27-bc6b537f4ba9" points="243.81667 297.85402 245.11818 300.23379 247.49782 301.53517 245.11818 302.83668 243.81667 305.21632 242.51529 302.83668 240.13565 301.53517 242.51529 300.23379 243.81667 297.85402"/>
    <polygon class="uuid-52e22bf8-12ea-499d-b8d8-dab1e8c07c3b" points="359.2348 310.60553 361.27497 314.33589 365.00533 316.37607 361.27497 318.41624 359.2348 322.1466 357.19462 318.41624 353.46426 316.37607 357.19462 314.33589 359.2348 310.60553"/>
    <polygon class="uuid-74363f6c-fc2e-4f2d-ac27-bc6b537f4ba9" points="302.52759 294.39325 303.82911 296.77302 306.20875 298.0744 303.82911 299.37591 302.52759 301.75555 301.22622 299.37591 298.84658 298.0744 301.22622 296.77302 302.52759 294.39325"/>
    <polygon class="uuid-52e22bf8-12ea-499d-b8d8-dab1e8c07c3b" points="367.57049 253.53425 369.61067 257.26461 373.34103 259.30478 369.61067 261.34496 367.57049 265.07532 365.53032 261.34496 361.79996 259.30478 365.53032 257.26461 367.57049 253.53425"/>
  </g>
</svg>