<?xml version="1.0" encoding="UTF-8"?>
<svg id="uuid-3f692a80-48da-4644-84de-3a1443ebe935" data-name="Layer 2" xmlns="http://www.w3.org/2000/svg" xmlns:xlink="http://www.w3.org/1999/xlink" viewBox="0 0 1230.37249 637.14562">
  <defs>
    <style>
      .uuid-fad97174-43ee-4709-a959-745d3029aa48 {
        fill: url(#uuid-78d623ce-f154-454f-aebf-8bcd311e0dd3);
      }

      .uuid-fad97174-43ee-4709-a959-745d3029aa48, .uuid-7f75547a-bcb4-4080-a7c0-bcfbde672b6d, .uuid-e9638d80-9afd-4104-a69b-1f30dd2129bd, .uuid-ac572fac-784e-44c4-9d15-fa5d65c927b2, .uuid-8d2fbcde-0282-43e4-93b7-83a0bdb90289, .uuid-f19c96bd-481b-4766-9d93-038c5662bae4, .uuid-5abdb2fb-5713-416b-9112-2b245935a2d1, .uuid-0b9ef3fd-9f00-488a-9b31-693fea53a26a, .uuid-b50d40ab-f162-42ab-a020-2a8c0ff9c465, .uuid-c6247e83-4b07-4dd5-b6cd-5dda38b26743, .uuid-965ead04-3c4b-45c2-8200-2c97b57d3257, .uuid-dabc0482-f24e-4b0a-aef2-1463349845ce, .uuid-5301883d-8eb8-4b20-8671-6a4a77ed290e, .uuid-2fd16880-0611-4d75-9b44-badd362f277f, .uuid-a162d905-c16b-4670-a0cf-b229531498f8, .uuid-4d13280f-2a45-4fd6-9dfd-771e1383812b, .uuid-bd2176a4-59c7-4b24-9f11-51f6ee2de4bb, .uuid-d768caef-afa9-4f6a-ac75-47212436a8b7, .uuid-6e0e9cd2-6376-41ce-845a-0d94dd7e54a2, .uuid-ec321d17-32aa-4859-86bb-2fbabb60e05d, .uuid-244c55fb-462c-42e9-a2bc-d28a3565d5c3, .uuid-eea68f82-ac69-41bf-baeb-7407b7d18439, .uuid-1045819d-d9e2-4158-a20c-93f18bc4123f, .uuid-6ce5a19c-690c-41bf-9de2-bfb8df870401, .uuid-bb607363-c118-4877-8b98-d05433c800ec, .uuid-d7880aef-191e-4686-920a-9651d77dd6f5, .uuid-68004340-419c-4db8-875d-0da4504bcc25, .uuid-4e80d27a-7d86-4e7b-b6df-edfda404f2a7, .uuid-747aeebf-565a-492b-8cec-2ccd174bef68, .uuid-009d8594-e4c6-4e39-bc47-d2dd27265fd2, .uuid-5a513883-ce97-4a96-bc20-8d82814dde75, .uuid-d81226c5-8797-4252-8cec-c9426b479047, .uuid-1ac7a820-9ed9-44ed-a7f7-697a82a6d754, .uuid-05c935c8-3e0f-4617-b36d-1e3e26702e44, .uuid-1bb33b78-0794-40ca-bde6-440dc1bdb0f1 {
        stroke-width: 0px;
      }

      .uuid-fad97174-43ee-4709-a959-745d3029aa48, .uuid-8d2fbcde-0282-43e4-93b7-83a0bdb90289, .uuid-0b9ef3fd-9f00-488a-9b31-693fea53a26a, .uuid-dabc0482-f24e-4b0a-aef2-1463349845ce, .uuid-2fd16880-0611-4d75-9b44-badd362f277f, .uuid-244c55fb-462c-42e9-a2bc-d28a3565d5c3 {
        opacity: .24;
      }

      .uuid-7f75547a-bcb4-4080-a7c0-bcfbde672b6d {
        fill: url(#uuid-2b115391-5c94-421e-994b-515c90fcecc4);
      }

      .uuid-e9638d80-9afd-4104-a69b-1f30dd2129bd {
        fill: url(#uuid-838cb497-91e9-458d-a55b-611a028da401);
      }

      .uuid-e9638d80-9afd-4104-a69b-1f30dd2129bd, .uuid-f19c96bd-481b-4766-9d93-038c5662bae4 {
        opacity: .38;
      }

      .uuid-ac572fac-784e-44c4-9d15-fa5d65c927b2 {
        fill: url(#uuid-b3109c41-a1c3-4190-9423-4bce0bc56327);
      }

      .uuid-8d2fbcde-0282-43e4-93b7-83a0bdb90289 {
        fill: url(#uuid-fcac94bd-691e-4370-aecf-e163e00ad5f7);
      }

      .uuid-f19c96bd-481b-4766-9d93-038c5662bae4 {
        fill: url(#uuid-fa4b2d7d-ab34-4d05-9dc2-ecc8b99b8049);
      }

      .uuid-5abdb2fb-5713-416b-9112-2b245935a2d1 {
        fill: url(#uuid-85da77cc-93b8-4ce4-8a9c-99866af91e5c);
      }

      .uuid-0b9ef3fd-9f00-488a-9b31-693fea53a26a {
        fill: url(#uuid-7590dc6e-7101-4489-bb1d-55da59229066);
      }

      .uuid-b50d40ab-f162-42ab-a020-2a8c0ff9c465 {
        fill: #2d0d73;
        opacity: .47;
      }

      .uuid-c6247e83-4b07-4dd5-b6cd-5dda38b26743 {
        opacity: .16;
      }

      .uuid-c6247e83-4b07-4dd5-b6cd-5dda38b26743, .uuid-5a513883-ce97-4a96-bc20-8d82814dde75, .uuid-05c935c8-3e0f-4617-b36d-1e3e26702e44 {
        fill: #fff;
      }

      .uuid-5d531fad-9012-4168-9a28-25d404f884e3 {
        fill: none;
        stroke: url(#uuid-dbc8451b-e659-4302-bbcd-ed45a7377cc1);
        stroke-dasharray: 0 10;
        stroke-linecap: round;
        stroke-miterlimit: 10;
        stroke-width: 2px;
      }

      .uuid-965ead04-3c4b-45c2-8200-2c97b57d3257 {
        fill: url(#uuid-9ec15ab9-9cc1-4da1-8047-3138165944d4);
      }

      .uuid-dabc0482-f24e-4b0a-aef2-1463349845ce {
        fill: url(#uuid-cb73341d-5436-4d09-a415-fff74cf6af10);
      }

      .uuid-5301883d-8eb8-4b20-8671-6a4a77ed290e {
        fill: url(#uuid-bd4026f7-7e2f-433b-a7ec-67825b6dbd64);
      }

      .uuid-2fd16880-0611-4d75-9b44-badd362f277f {
        fill: url(#uuid-fe244f4d-777e-4d68-aff1-844790ebb640);
      }

      .uuid-a162d905-c16b-4670-a0cf-b229531498f8 {
        fill: url(#uuid-6f7df9b9-86ab-4a52-9ad4-49434c8ea58f);
      }

      .uuid-4d13280f-2a45-4fd6-9dfd-771e1383812b {
        opacity: .26;
      }

      .uuid-4d13280f-2a45-4fd6-9dfd-771e1383812b, .uuid-6ce5a19c-690c-41bf-9de2-bfb8df870401 {
        fill: #2e6ff2;
      }

      .uuid-bd2176a4-59c7-4b24-9f11-51f6ee2de4bb {
        fill: url(#uuid-55d27d81-bac3-4fa9-b467-e8910851ee55);
      }

      .uuid-d768caef-afa9-4f6a-ac75-47212436a8b7, .uuid-6e0e9cd2-6376-41ce-845a-0d94dd7e54a2 {
        opacity: .62;
      }

      .uuid-d768caef-afa9-4f6a-ac75-47212436a8b7, .uuid-1045819d-d9e2-4158-a20c-93f18bc4123f {
        fill: #f3e0be;
      }

      .uuid-6e0e9cd2-6376-41ce-845a-0d94dd7e54a2, .uuid-d7880aef-191e-4686-920a-9651d77dd6f5 {
        fill: #bc7ca5;
      }

      .uuid-ec321d17-32aa-4859-86bb-2fbabb60e05d {
        fill: url(#uuid-5821a485-adfb-48cd-b9e6-be988b7a9363);
      }

      .uuid-244c55fb-462c-42e9-a2bc-d28a3565d5c3 {
        fill: url(#uuid-4a7dcaee-2b74-432d-9600-37db96f1c947);
      }

      .uuid-eea68f82-ac69-41bf-baeb-7407b7d18439 {
        fill: url(#uuid-a89b7824-46d9-43ae-aec4-2eb588bcbcb8);
      }

      .uuid-bb607363-c118-4877-8b98-d05433c800ec {
        fill: #d65af9;
      }

      .uuid-68004340-419c-4db8-875d-0da4504bcc25 {
        fill: #8d5bff;
      }

      .uuid-4e80d27a-7d86-4e7b-b6df-edfda404f2a7 {
        fill: #c37bab;
      }

      .uuid-747aeebf-565a-492b-8cec-2ccd174bef68 {
        fill: #30f2df;
      }

      .uuid-009d8594-e4c6-4e39-bc47-d2dd27265fd2 {
        fill: #f2cece;
      }

      .uuid-d81226c5-8797-4252-8cec-c9426b479047 {
        fill: #fbf;
      }

      .uuid-1ac7a820-9ed9-44ed-a7f7-697a82a6d754 {
        fill: #f5e1c0;
      }

      .uuid-05c935c8-3e0f-4617-b36d-1e3e26702e44 {
        opacity: .29;
      }

      .uuid-1bb33b78-0794-40ca-bde6-440dc1bdb0f1 {
        fill: url(#uuid-7fafb75b-a560-4e31-a4b0-a8bfbe4ec2f6);
      }
    </style>
    <radialGradient id="uuid-55d27d81-bac3-4fa9-b467-e8910851ee55" cx="796.40972" cy="-7328.67838" fx="796.40972" fy="-7328.67838" r="948.94332" gradientTransform="translate(-116 -7494.34143) scale(1 -1)" gradientUnits="userSpaceOnUse">
      <stop offset="0" stop-color="#9c3acc" stop-opacity=".9"/>
      <stop offset=".24702" stop-color="#9b3ccc" stop-opacity=".90117"/>
      <stop offset=".40016" stop-color="#9b45ce" stop-opacity=".90502"/>
      <stop offset=".5277" stop-color="#9a53d1" stop-opacity=".91158"/>
      <stop offset=".64129" stop-color="#9a67d6" stop-opacity=".92088"/>
      <stop offset=".74555" stop-color="#9982dc" stop-opacity=".93292"/>
      <stop offset=".84293" stop-color="#97a2e3" stop-opacity=".94772"/>
      <stop offset=".93331" stop-color="#96c8eb" stop-opacity=".96493"/>
      <stop offset="1" stop-color="#95eaf3" stop-opacity=".98"/>
    </radialGradient>
    <linearGradient id="uuid-b3109c41-a1c3-4190-9423-4bce0bc56327" x1="829.84573" y1="263.72447" x2="1032.76239" y2="263.72447" gradientUnits="userSpaceOnUse">
      <stop offset="0" stop-color="#c73988"/>
      <stop offset=".30653" stop-color="#c73988"/>
      <stop offset=".85555" stop-color="#d2704b"/>
      <stop offset=".99667" stop-color="#d6803b"/>
    </linearGradient>
    <linearGradient id="uuid-78d623ce-f154-454f-aebf-8bcd311e0dd3" x1="-2092.68192" y1="-871.89663" x2="-2125.25288" y2="-1096.02097" gradientTransform="translate(3212.26596 -183.35417) rotate(-36.44803)" gradientUnits="userSpaceOnUse">
      <stop offset="0" stop-color="#d6803b" stop-opacity="0"/>
      <stop offset="1" stop-color="#fff"/>
    </linearGradient>
    <linearGradient id="uuid-7590dc6e-7101-4489-bb1d-55da59229066" x1="-2103.6592" y1="-1003.01408" x2="-2032.21531" y2="-1003.01408" gradientTransform="translate(3212.26596 -183.35417) rotate(-36.44803)" gradientUnits="userSpaceOnUse">
      <stop offset="0" stop-color="#fff"/>
      <stop offset=".0885" stop-color="#fff" stop-opacity=".95076"/>
      <stop offset=".25094" stop-color="#fff" stop-opacity=".82006"/>
      <stop offset=".4691" stop-color="#fff" stop-opacity=".60826"/>
      <stop offset=".7329" stop-color="#fff" stop-opacity=".3177"/>
      <stop offset=".99667" stop-color="#fff" stop-opacity="0"/>
    </linearGradient>
    <linearGradient id="uuid-fcac94bd-691e-4370-aecf-e163e00ad5f7" x1="-1616.55212" y1="-562.15209" x2="-1566.7799" y2="-562.15209" gradientTransform="translate(2553.9025 22.69941) rotate(-28.74076)" gradientUnits="userSpaceOnUse">
      <stop offset="0" stop-color="#fff"/>
      <stop offset=".34771" stop-color="#fff" stop-opacity=".61155"/>
      <stop offset=".66556" stop-color="#fff" stop-opacity=".28279"/>
      <stop offset=".88814" stop-color="#fff" stop-opacity=".07875"/>
      <stop offset=".99667" stop-color="#fff" stop-opacity="0"/>
    </linearGradient>
    <linearGradient id="uuid-6f7df9b9-86ab-4a52-9ad4-49434c8ea58f" data-name="New Gradient Swatch copy" x1="791.60115" y1="277.61049" x2="1096.6955" y2="277.61049" gradientUnits="userSpaceOnUse">
      <stop offset="0" stop-color="#de4c7d"/>
      <stop offset=".15626" stop-color="#de547a"/>
      <stop offset=".40783" stop-color="#de6c75"/>
      <stop offset=".72123" stop-color="#df926c"/>
      <stop offset=".99667" stop-color="#e1ba63"/>
    </linearGradient>
    <linearGradient id="uuid-a89b7824-46d9-43ae-aec4-2eb588bcbcb8" data-name="New Gradient Swatch copy" x1="824.78486" y1="191.35823" x2="1026.2768" y2="370.08558" xlink:href="#uuid-6f7df9b9-86ab-4a52-9ad4-49434c8ea58f"/>
    <radialGradient id="uuid-fa4b2d7d-ab34-4d05-9dc2-ecc8b99b8049" cx="4771.64168" cy="195.80644" fx="4771.64168" fy="195.80644" r="164.79682" gradientTransform="translate(-2155.75774 -3358.87001) rotate(47.21708)" gradientUnits="userSpaceOnUse">
      <stop offset="0" stop-color="#fff" stop-opacity=".6"/>
      <stop offset=".12331" stop-color="#fffcf3" stop-opacity=".57042"/>
      <stop offset=".30969" stop-color="#fff5d2" stop-opacity=".4888"/>
      <stop offset=".53605" stop-color="#ffe99d" stop-opacity=".35524"/>
      <stop offset=".79132" stop-color="#ffd954" stop-opacity=".17148"/>
      <stop offset="1" stop-color="#ffca10" stop-opacity="0"/>
    </radialGradient>
    <linearGradient id="uuid-5821a485-adfb-48cd-b9e6-be988b7a9363" x1="1172.58493" y1="50.72303" x2="1174.1778" y2="85.76618" gradientTransform="translate(253.62039 863.70541) rotate(-43.6563)" gradientUnits="userSpaceOnUse">
      <stop offset="0" stop-color="#d3c600"/>
      <stop offset=".27048" stop-color="#e78815"/>
      <stop offset=".56524" stop-color="#ff422e"/>
      <stop offset=".97431" stop-color="#d21a00"/>
    </linearGradient>
    <linearGradient id="uuid-bd4026f7-7e2f-433b-a7ec-67825b6dbd64" x1="1196.91141" y1="46.63349" x2="1190.00898" y2="78.4909" xlink:href="#uuid-5821a485-adfb-48cd-b9e6-be988b7a9363"/>
    <linearGradient id="uuid-7fafb75b-a560-4e31-a4b0-a8bfbe4ec2f6" x1="1186.74779" y1="35.75813" x2="1179.53024" y2="68.33735" xlink:href="#uuid-5821a485-adfb-48cd-b9e6-be988b7a9363"/>
    <linearGradient id="uuid-dbc8451b-e659-4302-bbcd-ed45a7377cc1" data-name="New Gradient Swatch copy 4" x1="82.90235" y1="174.89895" x2="1137.40277" y2="174.89895" gradientUnits="userSpaceOnUse">
      <stop offset="0" stop-color="#00d1d5"/>
      <stop offset=".48096" stop-color="#009bd5"/>
      <stop offset=".58777" stop-color="#068dd3"/>
      <stop offset=".78622" stop-color="#156bce"/>
      <stop offset="1" stop-color="#2a3fc8"/>
    </linearGradient>
    <linearGradient id="uuid-9ec15ab9-9cc1-4da1-8047-3138165944d4" x1="177.10876" y1="377.66682" x2="440.05647" y2="377.66682" gradientUnits="userSpaceOnUse">
      <stop offset="0" stop-color="#a045dd"/>
      <stop offset=".30653" stop-color="#a045dd"/>
      <stop offset=".55774" stop-color="#bd529f"/>
      <stop offset=".99667" stop-color="#f46b2d"/>
    </linearGradient>
    <linearGradient id="uuid-4a7dcaee-2b74-432d-9600-37db96f1c947" x1="-2659.00472" y1="-1113.63667" x2="-2701.2115" y2="-1404.06617" gradientTransform="translate(3212.26596 -183.35417) rotate(-36.44803)" gradientUnits="userSpaceOnUse">
      <stop offset="0" stop-color="#f46b2d" stop-opacity="0"/>
      <stop offset="1" stop-color="#fff"/>
    </linearGradient>
    <linearGradient id="uuid-fe244f4d-777e-4d68-aff1-844790ebb640" x1="-2673.22952" y1="-1283.54403" x2="-2580.64961" y2="-1283.54403" xlink:href="#uuid-7590dc6e-7101-4489-bb1d-55da59229066"/>
    <linearGradient id="uuid-cb73341d-5436-4d09-a415-fff74cf6af10" x1="-2240.40798" y1="-759.68745" x2="-2175.9111" y2="-759.68745" xlink:href="#uuid-fcac94bd-691e-4370-aecf-e163e00ad5f7"/>
    <linearGradient id="uuid-2b115391-5c94-421e-994b-515c90fcecc4" data-name="New Gradient Swatch copy 9" x1="133.46669" y1="394.34325" x2="516.9868" y2="394.34325" gradientUnits="userSpaceOnUse">
      <stop offset="0" stop-color="#bf56cd"/>
      <stop offset=".15422" stop-color="#c35cc4"/>
      <stop offset=".40245" stop-color="#d06fac"/>
      <stop offset=".71177" stop-color="#e68d86"/>
      <stop offset=".99667" stop-color="#fdae5d"/>
    </linearGradient>
    <linearGradient id="uuid-85da77cc-93b8-4ce4-8a9c-99866af91e5c" data-name="New Gradient Swatch copy 9" x1="172.91454" y1="285.23918" x2="430.03227" y2="513.30771" xlink:href="#uuid-2b115391-5c94-421e-994b-515c90fcecc4"/>
    <radialGradient id="uuid-838cb497-91e9-458d-a55b-611a028da401" cx="4437.06437" cy="730.51615" fx="4437.06437" fy="730.51615" r="213.55046" gradientTransform="translate(-2155.75774 -3358.87001) rotate(47.21708)" gradientUnits="userSpaceOnUse">
      <stop offset="0" stop-color="#fff" stop-opacity=".6"/>
      <stop offset=".12331" stop-color="#fffbf5" stop-opacity=".57042"/>
      <stop offset=".30969" stop-color="#fff2db" stop-opacity=".4888"/>
      <stop offset=".53605" stop-color="#ffe2b0" stop-opacity=".35524"/>
      <stop offset=".79132" stop-color="#ffcd75" stop-opacity=".17148"/>
      <stop offset="1" stop-color="#ffba3f" stop-opacity="0"/>
    </radialGradient>
  </defs>
  <g id="uuid-07ea036c-1551-4d47-b707-1b45c9c14695" data-name="Layer 1">
    <path class="uuid-bd2176a4-59c7-4b24-9f11-51f6ee2de4bb" d="m1227.30526,249.26038c-4.10318-5.57768-12.77693-7.62847-18.37942-3.55723,1.15035-5.86191-5.79044-11.55611-11.30554-9.28785,1.5849-9.82827-3.98465-20.37873-12.98998-24.60441-9.00574-4.24185-20.68103-1.79348-27.2373,5.69652-8.5732-7.02873-22.94186-5.20044-29.48677,3.75954-.20632-.36519-.42671-.71957-.66016-1.06306-1.63472-2.40462-3.91413-4.27877-6.5186-5.63745-.85212-.44449-1.7416-.82731-2.65208-1.16195-.46438-.17071-.93479-.32591-1.41002-.46825-.52837-.15826-1.06135-.30105-1.59926-.42435-.1796-.04118-.35931-.08141-.53982-.11878-.75217-.15555-1.50946-.28226-2.26786-.37071-.41928-.04892-.83866-.08754-1.25723-.11607-2.92992-.19603-5.84578.02978-8.74286.49135-3.72488.59346-7.41883,1.57656-11.07199,2.55379-.05665.01532-.11522.03325-.17217.04887-.08096-.20095-.1571-.40285-.24229-.603-7.37584-17.34529-27.42102-25.4291-44.77877-18.04804-4.12277,1.75305-7.72289,4.2197-10.72203,7.20547-1.69841-1.00289-3.5724-1.697-5.50817-1.88263-6.40358-.65413-15.90343,2.85911-17.52359,7.33455-2.47247-9.66469-26.30663-23.46159-45.91104-5.54946-4.20011-4.03256-10.54704-5.41234-16.24215-2.9906-6.56169,2.7904-10.09321,9.71582-8.86852,16.44631-7.78005-3.06573-16.89186-3.6939-26.55765,1.62965-9.99125,5.52053-14.71451,12.22184-16.50664,18.80252-4.49855-4.08113-10.95346-7.22787-19.94956-6.31162-21.93344,2.25907-27.15433,16.38856-25.78891,28.96313-5.12325-.59316-10.61876.29788-12.69145,2.86217.81706-9.94238-17.20958-30.76219-41.58627-20.22871-2.65409-5.18246-8.20324-8.55803-14.3768-8.1275-7.11306.49612-12.71154,5.88988-13.75029,12.65157-6.35356-5.43695-14.76152-9.00433-25.63542-7.12667-11.24587,1.95762-17.89746,6.75059-21.73907,12.38608-2.92048-5.3258-7.99501-10.40681-16.79744-12.47663-21.71647-5.08031-31.23862,6.8988-33.92817,19.38578-.11974.6017-.19949,1.20073-.26459,1.81202-2.93133-1.03619-6.48605-1.34121-10.60611-.08297-2.73324.838-5.00863,2.43973-6.93084,4.46184-5.3365-4.9684-13.55712-9.33099-26.09739-9.49498-15.59013-.19392-20.58209,10.02621-21.82134,19.7148-2.13677.10869-4.47645.59552-6.99051,1.67435-4.00574,1.73588-5.34574,5.147-5.55659,8.5063-6.36049.4571-13.74587,1.49806-22.20054,3.4497-14.86488,3.4373-28.27937,7.94679-24.29371,10.75713.08518.06148.17036.12295.269.18352,16.03784,9.31984,31.5455,11.99166,47.22513,5.73298,1.50916,5.38321,11.80668,9.52692,19.69361,2.77608.12396-.1569.24791-.31386.35841-.46995,8.15824,6.1741,23.13492,13.81478,38.87603,4.57128-1.25241,7.18122,4.35722,11.61804,11.36912,9.67257-.61254,1.81443-.89019,3.8741-.87542,6.02674-5.36131-1.16572-11.43944-1.78344-17.76698-1.75416-1.04006.00482-2.08695.02757-3.13806.0676-1.99021.07584-3.9965.21617-6.0051.42259-.09794.01004-.19608.02044-.29412.03084-.98561.10452-1.97163.2239-2.95624.36097-.51852.07217-1.03684.14892-1.55436.23028-1.03524.16273-2.06786.34384-3.09617.54379-.5141.1-1.0271.20467-1.53879.31411-1.02318.21888-2.04094.45685-3.05127.71415s-2.01342.53404-3.00687.83057-1.97746.6129-2.95021.9494c-6.32252,2.18745-12.16408,5.22802-16.98297,9.22909-8.18978-12.47242-34.56964-15.78189-49.15166-12.67969-5.34303,1.13172-10.2256,2.96654-14.59347,5.14273-15.59957,7.77206-24.63424,19.89793-24.63424,19.89793,0,0-6.82336-1.62136-10.18231-2.65891-1.25713-.38834-2.68312-.76578-4.22402-1.09048.0445-.09593.09422-.18885.13621-.28608,8.50489,2.15249,16.21523-1.49269,19.66599-7.31416.17107-.29241.34203-.58487.513-.87728.0006-.00105.0011-.00226.00171-.00331.27011-.47573.51501-.97487.74253-1.48611.06238-.13877.12134-.27794.18031-.41807.15329-.368.29472-.74263.42711-1.12172.08639-.24671.16876-.49276.2455-.74182.12054-.38934.23003-.78115.32978-1.17451.02632-.10668.05716-.21225.08177-.31903.75187-3.14373.8481-6.3074.37719-8.35291,3.60896.98707,6.29439.726,8.24774-.23807.1794-.0885.35298-.18222.51993-.28221.50125-.30024.95347-.64544,1.34894-1.03473.30195-.29718.57407-.61706.81827-.95473.61023-.84408,1.04508-1.79901,1.33046-2.78713.11421-.39527.20452-.79581.27252-1.19676s.11381-.80224.13912-1.19892c.10095-1.58671-.12707-3.09963-.57719-4.22106-.14163-.35288-.3126-.70315-.51189-1.0504-3.98425-6.94466-19.23395-12.65724-34.67933-12.88858-3.08904-.04626-6.18591.12672-9.20212.55293-3.01611.42621-5.95156,1.1057-8.71775,2.07238-2.07449.725-4.05396,1.61157-5.90073,2.67408-4.38514-10.08512-23.1301-15.7949-34.10978-15.36929-4.59709.17413-8.87254,1.09064-12.69973,2.3674-11.48168,3.83036-18.92964,10.90339-18.92964,10.90339,0,0-4.75259-2.0327-7.06218-3.20727-4.90427-2.49422-13.67746-5.4359-21.51703-1.72151-5.18176-1.42252-10.98008-2.29915-16.81431-2.38654-3.08904-.04626-6.18596.12672-9.20212.55293-3.01611.42621-5.95156,1.1057-8.7177,2.07238-2.07459.725-4.05401,1.61157-5.90078,2.67408-4.38514-10.08512-23.1301-15.7949-34.10978-15.36929-4.59709.17413-8.87254,1.09064-12.69973,2.3674-11.48168,3.83036-18.92964,10.90339-18.92964,10.90339,0,0-4.75259-2.0327-7.06218-3.20727-4.9794-2.53244-13.94697-5.52465-21.87639-1.54432-3.77506-3.98304-9.12226-8.60981-16.54807-11.22332-4.5534-1.61272-9.89798-2.45791-16.12909-1.93251-.35147.02963-.68698.06353-1.02233.09739-1.69238-3.23911-3.68767-4.83692-5.47517-5.57306-1.63658-.68853-3.09064-.65082-3.97395-.52611,1.82206-1.73105,4.55651-10.0016-5.23866-15.99228-2.16083-1.32237-5.71942-2.02512-9.80673-1.41122-1.60745-6.53582-6.13021-12.83484-16.34566-16.59533-10.34042-3.81002-18.63416-1.22017-24.32169,2.26525-.3451-2.76272-1.82407-6.99573-7.33952-9.5787-7.35665-3.44458-13.92362,1.81729-13.92362,1.81729-5.69526-16.75495-23.85691-25.34156-38.6453-22.90474-4.69618.77492-16.94204,6.15442-15.92377,17.27553-5.44916-5.27407-12.37809-9.2102-19.89034-10.18447-7.52234-.96834-15.59154,1.2839-20.87149,6.72296-4.03969-3.6382-9.78412-5.30004-15.14584-4.37861-5.35569.93162-10.20928,4.41724-12.80099,9.19966-1.39821,2.58829-2.14782,5.66201-1.3956,8.51263.6482,2.45404,2.60477,4.63511,5.01727,5.24861-.46463.83454-.87115,1.74411-1.20952,2.72295-.79034,2.29809-1.20771,4.95017-1.02675,7.78246.88225,14.21552,15.84346,20.60981,25.88956,20.26015.68155,2.02412,1.72573,3.90971,3.10491,5.52927.5686.66237,1.1839,1.27677,1.86425,1.83909,6.54255,5.40124,17.2469,4.7656,23.1522-1.39761-3.8614,12.10673,3.35292,26.60527,15.27396,30.71965,11.94144,4.10243,26.55941-2.87473,30.9887-14.78342,6.11936,6.10881,18.58665,2.17082,20.18848-6.37465-2.65052,14.37916,8.61815,29.72549,23.05507,31.38498,14.43099,1.64944,28.97805-10.75382,29.73212-25.34693,6.363,8.66496,21.477,8.33242,27.52996-.60411,4.92144,5.86135,11.97589,9.18529,18.82798,10.73383-.00402.00191-.00834.00387-.01236.00578-3.77712,2.01538-5.36784,6.18375-4.20313,10.24182,1.4633,5.12094,10.07422,8.5514,15.42253,5.11938,0,0-.14771,5.84598,7.93414,13.53553,7.67091,7.29874,23.40704,10.32334,30.98714,3.29114,0,0,10.11737,22.22254,31.94649,26.69849,21.90954,4.49242,35.94761-8.44106,42.60543-16.70794,1.62181.77613,3.43107,1.22353,5.34906,1.22353,5.11155,0,9.49819-3.08899,11.40524-7.50009,5.22229,1.32172,10.14017.45132,13.96108-1.76049,8.03313,6.46044,22.51108,8.81724,29.68597,2.16093,0,0,10.11737,22.22254,31.94649,26.69849,4.6777.95915,8.99348,1.11871,12.95834.7042-1.35979.61747-2.82254,1.42393-4.36882,2.48136-.2689.18392-.54032.37528-.8141.57447-.27157.19397-.5701.38975-.84167.58371-4.58514,3.56602-5.75031,9.50628-3.25679,14.66338,3.13791,6.50921,15.44247,9.10925,21.80155,3.28657,0,0,1.15116,7.85036,13.7309,16.26696,11.94018,7.98888,33.67765,8.40234,42.19007-2.74876,0,0,18.65425,27.37808,48.87301,28.32633,30.33025.95171,46.11566-19.57945,53.11009-32.16859,2.34751.66357,4.86981.84433,7.4342.4018,6.83421-1.17928,11.98669-6.32141,13.51875-12.65915,11.86776.9158,21.33587-5.73675,24.60652-14.31642.16112-.43043.32234-.86081.48357-1.29123.87974-2.44174,1.33769-5.02139,1.47581-7.56323.27051-4.35516-.33128-8.58018-1.42759-11.19429,5.84619.56357,9.6668-.81279,12.02366-3.08873.01185-.01135.0217-.02386.03335-.03526.36885-.35981.69752-.74373.99616-1.14382.23475-.31466.45022-.63921.64398-.97426,2.91666.24349,6.16903-.18372,9.72014-1.65416,2.95815,10.31299,12.7929,17.51666,23.91894,16.74063,9.24702-.64484,16.85439-6.62392,20.01204-14.71998,4.41156,3.69771,10.68164,5.22942,16.21513,3.54875,3.9733-1.23458,7.3223-4.07103,9.4888-7.62058,1.8091.41325,3.92237.54906,6.37978.20236,2.53676-.36569,4.75992-1.16803,6.68092-2.24611,4.78453,13.30093,17.94719,22.38984,32.75049,21.35741,14.17268-.98833,25.57475-10.95422,29.06539-23.94219,1.68424-.023,3.30541-.17654,4.83666-.45865,13.40042-2.39106,20.27461-10.18,23.50428-15.50309.71661.28588,1.44849.53967,2.1872.77778,2.13999,6.09525,7.05189,12.12918,12.32219,14.5783,5.50265,2.55751,13.84994,3.65688,21.75022-3.34282,6.1618,8.78304,17.80917,12.38266,28.07264,8.01816,8.53031-3.62735,13.76988-11.76173,14.11251-20.44503,5.37678,2.05551,11.80337,1.45713,16.48544-1.93738,3.35292-2.46369,5.59285-6.23779,6.48223-10.30004,1.84496-.19979,3.88691-.76106,6.09651-1.89077,2.27861-1.17351,4.11825-2.6575,5.5822-4.30348,8.8633,11.01127,24.27151,15.30691,37.92738,9.4999,13.07406-5.5595,20.59957-18.70081,19.66036-32.11686,1.5846-.57141,3.06684-1.24558,4.42221-2.01201,7.87407-4.39423,12.25549-10.08929,14.70707-15.20495,2.58337,4.86338,6.57947,8.98329,11.49308,11.48384,8.96325,4.5657,20.50354,3.53368,28.51593-2.55384-2.96769,4.15114-2.04757,10.572,1.93768,13.74471,4.00142,3.16427,10.46096,2.58277,13.83045-1.24468-.31571,8.08386,6.53658,17.02601,18.69343,18.72075,12.16509,1.70268,21.23471-4.13306,24.02983-12.75212,1.1831.63218,6.0943,5.35453,12.94518,1.5184,2.92591-1.63809,5.88938-3.85045,6.60398-7.09503-1.22338,7.13154,4.86459,14.73997,12.15354,14.87809,7.53143.14153,14.10448-7.74454,12.60084-15.13198,5.45694,2.8139,12.75744,1.4169,16.77393-3.23052,1.0279-1.19053,1.81804-2.56248,2.36389-4.03477.54564-1.48852.84719-3.0694.89029-4.65349,4.01006-2.40964,7.49547-5.64961,9.75379-9.72295,3.35181-6.05668,3.5488-14.08172-.54625-19.65961Zm-765.15763,121.50709c-.23174-.03265-.55087-.06665-.94805-.08468.55187-.19005,1.0931-.39246,1.62669-.60315-.07453.25936-.1572.50325-.22872.76839,0,0-.05575-.01406-.16414-.03425-.07222-.01351-.16785-.02968-.28578-.04631Z"/>
    <g>
      <circle class="uuid-ac572fac-784e-44c4-9d15-fa5d65c927b2" cx="931.30406" cy="263.72447" r="101.45833"/>
      <path class="uuid-fad97174-43ee-4709-a959-745d3029aa48" d="m1004.94463,309.88519c-22.43547,4.70056-43.83748.94886-59.73598-11.12498-18.42751-13.99475-21.00493-37.6928-30.68816-57.48646-10.08086-20.60671-27.64823-42.97809-51.09762-53.14127-5.90653,5.18125-11.48071,10.74063-16.56423,16.8299-.13828.16563-.2844.30858-.42727.46087-1.14654,2.39269-2.33762,4.7532-3.70864,7.00888,12.13565,3.64062,29.32022,11.53301,37.04744,20.54253,15.89882,18.53716,12.72309,42.83955,23.81879,64.07044,17.01648,32.5596,56.49585,48.1698,97.96478,40.89557.58931-1.02958,1.41302-1.99406,2.53332-2.83774,6.37252-4.79922,11.09118-11.18052,14.75802-18.30837-1.56665-5.01089-6.21974-8.51849-13.90047-6.90936Z"/>
      <path class="uuid-0b9ef3fd-9f00-488a-9b31-693fea53a26a" d="m1024.2274,282.13417c-11.19882-1.20426-48.46012-8.60316-64.46104-19.62185-18.54647-12.77148-32.34257-50.88545-48.60101-65.80523-11.22303-10.2989-20.80145-17.54012-29.79535-22.5654-4.44544,3.14635-8.79708,6.41197-12.99644,9.85625,10.47515,3.9214,23.87543,13.45723,35.43188,22.56857,19.38506,15.28375,23.93755,53.38574,41.80839,69.52495,24.34886,21.98942,60.03325,22.31427,83.13696,23.45368.96514-3.4876,1.82536-6.97984,2.63018-10.40471.27034-1.15038.68812-2.16033,1.21967-3.03783-2.77384-2.11201-5.76623-3.68807-8.37322-3.96844Z"/>
      <path class="uuid-8d2fbcde-0282-43e4-93b7-83a0bdb90289" d="m938.96282,340.50893c-6.22141-4.86677-38.27979-21.59829-49.96263-35.56744-13.54139-16.19135-13.42653-40.76521-26.41622-57.7688-8.28905-10.85039-27.39824-14.41068-27.39824-14.41068-.6917-.7876-.05674-1.04668,0,0,.06904,1.27377-3.4192,9.78138-4.06537,10.40094,6.32369-2.53453,16.99904-1.04116,25.78332,9.918,14.735,18.38329,8.81808,37.65313,23.01782,56.14668,19.34699,25.19722,54.20842,36.99132,66.63937,46.01685-.54288-2.29032-1.14206-4.62123-1.74998-6.92087-.20419-.77243-.28904-1.38678-.27457-1.861-2.08593-2.57393-4.12519-4.82073-5.57349-5.95369Z"/>
      <path class="uuid-a162d905-c16b-4670-a0cf-b229531498f8" d="m837.01376,300.82306l-9.57922,7.35938c-1.52765,1.23145-3.0332,2.42578-4.42932,3.64697-1.37531,1.23584-2.69794,2.47461-3.63904,3.63184-.4635.57275-.8006,1.14697-.83087,1.50146.00629.15625.1059.26758.35522.11523.22876-.15625.74048-.6001,1.13556-1.87793.10785-.34668.16101-.67285.20563-1.06641.05103-.40381.03052-.80127.00836-1.21777-.03094-.41504-.12354-.83154-.20898-1.19287-.04865-.18652-.10822-.37061-.17755-.55078-.06311-.17139-.10803-.31006-.17548-.46338-.5412-1.2002-1.02118-1.69482-1.22906-1.99902-.1424-.26367-.23322-.39697-.09125-.45801.15015-.06396-.20807-.25586.15546-.22021.38287-.02686,1.20398.02637,1.94122.05371.79742.02686,1.62341.04883,2.48785.05713,1.72888.00391,3.50055.02197,5.31555-.02441,7.24139-.13477,14.67834-.62549,22.04907-1.23145,7.38275-.60547,14.75116-1.42383,22.08044-2.33447,29.31696-3.7583,58.02783-9.61621,85.48956-18.41357,27.46442-8.81006,53.63477-20.58887,77.96338-36.31592,6.09558-3.91748,12.05774-8.10596,17.92401-12.52881,2.94904-2.19727,5.81946-4.50488,8.71954-6.82324,1.41504-1.19141,2.85071-2.37305,4.29871-3.55469.16669-.08936.30927-.146.36249-.10596.07007.03369.07489.13867-.00836.4873-.06372.33887-.22076.92529-.22931,1.9502-.02374.99658.28394,2.49365.95447,3.60449.64783,1.12061,1.40973,1.71533,1.86084,1.97412.46539.26416.71381.27295.78412.22656.13678-.11523-.21619-.43066-.72626-.68701-1.04156-.53467-2.62207-1.01318-4.26135-1.41309-3.33197-.78271-7.06311-1.23877-10.83105-1.6709-7.5769-.79053-15.43317-1.16162-23.4256-1.74902,7.15088-3.64795,14.54236-6.6499,22.34106-9.01562,3.91809-1.19043,7.91199-2.1709,12.30737-2.77148,2.21954-.29346,4.50812-.50195,7.25952-.28955,1.38306.11865,2.90491.31738,4.8103.98193.95209.34668,2.04688.83594,3.27441,1.69287,1.2099.85156,2.6405,2.17432,3.72681,4.15869,1.10681,1.97559,1.57428,4.45996,1.47473,6.41699-.08203,1.98975-.53021,3.51123-.98389,4.73096-.46997,1.23438-.96649,2.1709-1.44641,2.99707-.487.8418-.96069,1.53076-1.4165,2.1792-1.12189,1.70312-2.25604,3.40576-3.41089,5.09863-2.34131,3.3584-4.78473,6.66113-7.34967,9.87793-5.12842,6.43457-10.71893,12.5376-16.66656,18.30078-11.92834,11.49023-25.33374,21.5459-39.67877,29.89941-14.34125,8.37354-29.5733,15.1167-45.21649,20.31104-15.6499,5.19092-31.70782,8.8833-47.88422,11.11523-16.17865,2.2373-32.47449,3.06445-48.69629,2.42627-8.11115-.29736-16.20435-.99854-24.26776-2.0708-8.07196-1.0791-16.0766-2.56348-24.16211-4.68359-2.01801-.52979-4.06421-1.11035-6.13904-1.7793-1.03723-.33203-2.10431-.69434-3.19348-1.08203-1.14142-.41797-2.20337-.80908-3.65094-1.45557-.55707-.25391-1.81555-.80664-2.5282-1.30176-.73132-.47607-1.63757-1.13477-2.56128-1.96436-.96429-.8999-2.14313-2.08936-3.14972-4.13867-.12329-.26025-.23529-.50049-.34497-.7832-.11096-.29297-.21216-.59082-.30243-.89062-.18463-.58301-.30981-1.24072-.38684-1.89258-.08673-.65137-.07404-1.29492-.04077-1.93848.04193-.63525.15149-1.19922.28333-1.78564.58191-2.22998,1.57104-3.54346,2.36981-4.47412.82416-.9292,1.59601-1.5166,2.30865-2.01807,1.40649-.9375,2.64447-1.49463,3.81555-1.94922,2.3313-.89893,4.47144-1.39404,6.60632-1.76758,2.11871-.38232,4.19031-.65234,6.26984-.80322,4.13287-.34521,8.24493-.38037,12.38074-.04102Z"/>
      <path class="uuid-eea68f82-ac69-41bf-baeb-7407b7d18439" d="m832.53982,232.48712c-1.82422-.44922-3.63092-.90576-5.4422-1.32617-1.81378-.4126-3.62579-.79932-5.42303-1.17285-3.57928-.70801-7.24231-1.34521-10.52979-1.39062-.80841-.00537-1.57715.05713-2.18488.18604-.29108.06836-.53925.15869-.67157.24023-.1272.07617-.0993.1626.12982.06348.2265-.07812.60242-.48291.73535-.79346.14282-.31885.15375-.41357.21912-.35059.05011.0459.1416.22754.27374.4458.06897.11426.13531.23486.19489.30127l.20984.29785c.76416,1.0752,1.90277,2.47607,3.04523,3.74756,1.16003,1.29688,2.36975,2.58887,3.62811,3.85596,4.98926,5.10645,10.40027,9.93506,15.87964,14.63525,5.5174,4.66846,11.16846,9.18359,16.95294,13.50928,23.15253,17.27441,48.09064,32.00391,74.50751,42.95947,26.39514,10.96143,54.32874,18.03711,82.94318,19.88428,7.15021.51367,14.33563.61963,21.54449.50195,3.6062-.0542,7.20752-.26953,10.82391-.45654l5.41937-.40186c.7168-.03906,1.2594-.13525,1.56525-.19971.15179-.02686.20306-.03564.14703.05518-.05005.08301-.20813.31836-.29083.61084-.08527.29053-.05188.54199-.01013.58838.04193.05566.06812-.05078.03992-.22852-.05988-.37256-.31824-.98096-.67029-1.59375-.72302-1.24756-1.77716-2.58496-2.90125-3.87744-2.29053-2.59033-4.961-5.05273-7.69086-7.45605-5.51477-4.77344-11.39886-9.29492-17.3609-13.75732,6.89685,2.82471,13.6676,5.98779,20.19513,9.79541,3.271,1.90674,6.4696,3.96777,9.56531,6.44482,1.54871,1.25439,3.06854,2.59521,4.50476,4.35156.71356.89355,1.4259,1.87598,2.02167,3.23438.2901.68896.55377,1.48389.6662,2.46191.11365.96533.03748,2.15869-.39771,3.30566-.42407,1.15479-1.1781,2.13232-1.92761,2.81445-.75824.69287-1.51501,1.1543-2.20911,1.49658-1.38837.67676-2.66217,1.00781-3.76917,1.24658l-5.55383,1.1875c-3.71637.73926-7.45898,1.37793-11.22339,1.89307-7.52484,1.08301-15.1333,1.64893-22.763,1.87549-7.62805.146-15.2865-.0293-22.90546-.73145l-5.71045-.57275-5.69702-.71191-5.67041-.89893-5.64789-1.03271c-15.0332-2.92578-29.73077-7.45703-43.86444-13.23047-28.26923-11.60156-54.31757-28.04346-77.06342-48.01709-2.8407-2.50342-5.62817-5.06543-8.38031-7.66211-2.74237-2.60938-5.40179-5.30762-8.03033-8.0332-2.63104-2.72412-5.19061-5.521-7.66272-8.40723-2.47308-2.88428-4.91656-5.80127-7.20508-8.89111-1.15466-1.53223-2.27637-3.11035-3.37451-4.73877-1.09717-1.66455-2.15796-3.25-3.19165-5.40625-.12305-.24121-.27313-.60791-.40692-.94238-.14984-.34668-.23425-.66309-.32379-.98291-.17682-.65137-.33386-1.36572-.39569-2.2373-.05634-.84863-.04315-1.89209.38544-3.09473.4007-1.19971,1.36749-2.37744,2.34662-2.98828.98175-.63867,1.89062-.88623,2.65991-1.02441.76929-.12402,1.44299-.13037,2.07428-.1084,1.23969.06836,2.32074.27051,3.34161.52148,2.03687.50146,3.87268,1.18848,5.65771,1.94678,1.78241.75195,3.5022,1.57129,5.18158,2.45361,1.68512.86475,3.32477,1.80176,4.93732,2.77441,1.61426.9668,3.21124,1.95264,4.75275,3.03076Z"/>
      <circle class="uuid-f19c96bd-481b-4766-9d93-038c5662bae4" cx="944.60255" cy="273.35436" r="190.60893"/>
      <circle class="uuid-1ac7a820-9ed9-44ed-a7f7-697a82a6d754" cx="1044.67638" cy="188.93709" r="11.80657"/>
      <circle class="uuid-1045819d-d9e2-4158-a20c-93f18bc4123f" cx="984.79829" cy="162.95141" r="5.90329"/>
      <circle class="uuid-1045819d-d9e2-4158-a20c-93f18bc4123f" cx="785.87557" cy="241.08341" r="3.41192"/>
      <circle class="uuid-d768caef-afa9-4f6a-ac75-47212436a8b7" cx="796.42654" cy="283.21778" r="6.82384"/>
      <circle class="uuid-1045819d-d9e2-4158-a20c-93f18bc4123f" cx="848.20226" cy="195.51888" r="3.41192"/>
      <circle class="uuid-1045819d-d9e2-4158-a20c-93f18bc4123f" cx="844.79035" cy="210.91751" r="3.41192"/>
    </g>
    <g>
      <g>
        <path class="uuid-6ce5a19c-690c-41bf-9de2-bfb8df870401" d="m1088.78451,72.89332c-2.19376-5.41066-1.058-23.32994-1.058-23.32994l7.54635,15.12505c-.22994.53705-.4384,1.08326-.62359,1.63732-.17717.53008-.33534,1.08346-.28295,1.63992.04199.44606.21696.86738.39206,1.27977,1.99531,4.69954,4.28709,9.30193,7.27427,13.44242,2.1973,3.04565,4.78735,5.84129,7.77083,8.1094l3.61963,6.21934c.57606.98979-.65387,2.03718-1.53934,1.31091-7.2066-5.91104-20.14024-18.13622-23.09926-25.43421Z"/>
        <path class="uuid-b50d40ab-f162-42ab-a020-2a8c0ff9c465" d="m1102.03264,82.68787c-2.98718-4.14049-5.27896-8.74288-7.27427-13.44242-.17509-.4124-.35007-.83371-.39206-1.27977-.05238-.55646.10579-1.10983.28295-1.63992.18519-.55406.39365-1.10027.62359-1.63732l3.99203,8.00123,10.53859,18.10761c-2.98348-2.26811-5.57353-5.06375-7.77083-8.1094Z"/>
      </g>
      <g>
        <path class="uuid-6ce5a19c-690c-41bf-9de2-bfb8df870401" d="m1137.29326,26.5803c-5.30185-2.44504-23.25467-2.1507-23.25467-2.1507l14.7546,8.24721c.54724-.20451,1.10262-.38712,1.66476-.54613.53781-.15212,1.09799-.28417,1.65138-.20575.4436.06286.85625.25739,1.25998.45163,4.60082,2.21346,9.0907,4.71852,13.08657,7.89654,2.93928,2.33768,5.6104,5.05597,7.73614,8.14251l6.04279,3.90725c.96169.62183,2.0656-.55763,1.38164-1.47618-5.56665-7.47583-17.17196-20.96843-24.32319-24.26638Z"/>
        <path class="uuid-b50d40ab-f162-42ab-a020-2a8c0ff9c465" d="m1146.45588,40.2731c-3.99588-3.17802-8.48575-5.68308-13.08657-7.89654-.40374-.19424-.81638-.38877-1.25998-.45163-.55339-.07842-1.11357.05364-1.65138.20575-.56213.15901-1.11752.34163-1.66476.54613l7.80525,4.36279,17.59358,11.37601c-2.12573-3.08654-4.79686-5.80483-7.73614-8.14251Z"/>
      </g>
      <path class="uuid-ec321d17-32aa-4859-86bb-2fbabb60e05d" d="m1131.13827,82.06308c3.73319-3.33734,12.60494-1.41739,17.54272,3.32727,4.1689,4.00584-.60254,10.12832,6.84537,15.98326,10.77557,8.47086,8.60525,15.42448,11.45732,17.42867,3.11628,2.18986-19.17369.95396-29.33442-10.64095-7.10978-8.11332-11.47959-21.6565-6.51099-26.09826Z"/>
      <path class="uuid-5301883d-8eb8-4b20-8671-6a4a77ed290e" d="m1144.42766,70.36046c-3.86958,3.91694-2.73495,13.21936,1.75155,18.39461,3.78789,4.3694,7.4928,2.94509,16.08321,7.16886,11.7515,5.77805,15.5794,7.96557,17.14214,12.00443,1.49664,3.86803,2.89963-20.10758-8.25322-30.75585-7.80399-7.45092-21.57357-12.02521-26.72369-6.81206Z"/>
      <path class="uuid-1bb33b78-0794-40ca-bde6-440dc1bdb0f1" d="m1133.7869,70.22911c3.73319-3.33734,12.60494-1.41739,17.54272,3.32727,4.1689,4.00584,2.81268,7.41068,6.84537,15.98326,5.51665,11.72711,8.60525,15.42448,11.45732,17.42867,3.11628,2.18986-19.17369.95396-29.33442-10.64095-7.10978-8.11332-11.47959-21.6565-6.51099-26.09826Z"/>
      <path class="uuid-009d8594-e4c6-4e39-bc47-d2dd27265fd2" d="m1153.72062,63.44151c-7.0136-16.64353-35.93838-44.44434-53.75497-55.58902-4.92307-3.07949-17.44338-8.4996-26.05916-7.78895,5.44332,8.02483,21.06529,20.92378,24.5679,24.59466,12.25863,12.84753,34.68333,32.98716,39.03213,57.45107.17303.97337,1.75662.93221,3.2905.64869,4.44342-4.3766,8.66824-9.54088,11.28946-13.09719.37341-.50661,2.08594-5.14712,1.63414-6.21926Z"/>
      <path class="uuid-009d8594-e4c6-4e39-bc47-d2dd27265fd2" d="m1137.50652,82.10927c-4.3488-24.46392-26.7735-44.60355-39.03213-57.45107-3.50262-3.67088-19.12458-16.56983-24.5679-24.59466-2.54229.20969-4.74478.95295-6.31162,2.44797-7.10097,6.77548.73347,26.80935,3.59312,32.79954,7.60656,15.93377,37.02959,45.84244,52.858,56.44488,1.49194.99935,7.25849-1.6137,7.86073-1.93845,2.77761-1.49771,5.88399-4.09842,8.8903-7.05952-1.53388.28351-3.11747.32468-3.2905-.64869Z"/>
      <path class="uuid-05c935c8-3e0f-4617-b36d-1e3e26702e44" d="m1153.72062,63.44151c-7.0136-16.64353-35.93838-44.44434-53.75497-55.58902-4.92307-3.07949-17.44338-8.4996-26.05916-7.78895,5.44332,8.02483,21.06529,20.92378,24.5679,24.59466,12.25863,12.84753,34.68333,32.98716,39.03213,57.45107.17303.97337,1.75662.93221,3.2905.64869,4.44342-4.3766,8.66824-9.54088,11.28946-13.09719.37341-.50661,2.08594-5.14712,1.63414-6.21926Z"/>
      <path class="uuid-747aeebf-565a-492b-8cec-2ccd174bef68" d="m1080.51036,15.13703c-5.97806,5.70404-6.20019,15.17423-.49615,21.15229,5.70403,5.97805,15.17423,6.20019,21.15229.49615,5.97806-5.70404,6.20019-15.17424.49615-21.15229-5.70404-5.97806-15.17423-6.20019-21.15229-.49615Zm18.47577,19.36333c-4.71601,4.49984-12.18696,4.32461-16.6868-.39141s-4.3246-12.18697.39141-16.6868c4.71601-4.49984,12.18696-4.32461,16.6868.39141,4.49985,4.71602,4.3246,12.18697-.39141,16.6868Z"/>
      <g>
        <circle class="uuid-d81226c5-8797-4252-8cec-c9426b479047" cx="1090.83843" cy="25.96125" r="12.23529"/>
        <path class="uuid-5a513883-ce97-4a96-bc20-8d82814dde75" d="m1099.69058,17.51496c6.55183,6.60862,5.61979,18.7392-2.92739,23.7612-11.07603,6.67567-25.18959-3.01486-23.35638-15.72374,1.84127-12.82021,17.72644-17.12897,26.28377-8.03746h0Zm0,0c-4.26543-4.68528-12.40929-3.86072-15.21676,1.77607-4.06065,7.68775,4.87032,17.09727,12.75081,13.36298,5.75653-2.55877,6.94755-10.65833,2.46596-15.13905h0Z"/>
      </g>
      <path class="uuid-4d13280f-2a45-4fd6-9dfd-771e1383812b" d="m1082.9126,17.20898c-4.66827,4.45429-5.07046,11.60988-.8983,15.98246.23989.25141.49011.48743.74875.70951.77468-2.57671,1.88848-5.06835,3.30637-7.43059,2.61424-4.35536,6.09335-8.16648,9.9271-11.55189-4.10557-2.01454-9.3807-1.24297-13.08393,2.29051Z"/>
      <path class="uuid-6ce5a19c-690c-41bf-9de2-bfb8df870401" d="m1120.65734,77.65256l1.33207,5.48118,20.49548,15.31462c.7037.49496,1.52325-.40052.97062-1.06055l-14.90714-21.09846-6.06166-.86153c-1.24275-.14564-2.20707,1.02709-1.82937,2.22474Z"/>
      <path class="uuid-6ce5a19c-690c-41bf-9de2-bfb8df870401" d="m1135.43607,65.08542l1.33207,5.48118,20.49548,15.31462c.7037.49496,1.52325-.40052.97062-1.06055l-14.90714-21.09846-6.06166-.86153c-1.24275-.14564-2.20707,1.02709-1.82937,2.22474Z"/>
      <circle class="uuid-5a513883-ce97-4a96-bc20-8d82814dde75" cx="1096.67785" cy="22.56449" r="3.04523"/>
      <circle class="uuid-5a513883-ce97-4a96-bc20-8d82814dde75" cx="1096.84111" cy="28.7223" r="1.52261"/>
      <circle class="uuid-5a513883-ce97-4a96-bc20-8d82814dde75" cx="1102.56213" cy="66.85733" r="2.0664"/>
      <circle class="uuid-5a513883-ce97-4a96-bc20-8d82814dde75" cx="1105.08056" cy="70.99341" r="1.0332"/>
      <g>
        <path class="uuid-bb607363-c118-4877-8b98-d05433c800ec" d="m1120.75405,33.18563c-.35932-1.25846-.04504-2.49664.70396-3.07607-.26932-.00215-.54336.03295-.81548.11065-1.53056.43701-2.41707,2.03205-1.98006,3.56262s2.03205,2.41707,3.56262,1.98006c.27212-.0777.52338-.19258.75096-.3366-.94203-.09661-1.86268-.98219-2.222-2.24065Z"/>
        <path class="uuid-bb607363-c118-4877-8b98-d05433c800ec" d="m1124.20516,32.20027c-.35932-1.25846-1.50161-2.08075-2.74714-2.09071-.749.57944-1.06328,1.81761-.70396,3.07607s1.27997,2.14404,2.222,2.24065c1.0525-.66609,1.58842-1.96755,1.2291-3.22601Z"/>
        <path class="uuid-c6247e83-4b07-4dd5-b6cd-5dda38b26743" d="m1124.20516,32.20027c-.35932-1.25846-1.50161-2.08075-2.74714-2.09071-.749.57944-1.06328,1.81761-.70396,3.07607s1.27997,2.14404,2.222,2.24065c1.0525-.66609,1.58842-1.96755,1.2291-3.22601Z"/>
      </g>
      <g>
        <path class="uuid-bb607363-c118-4877-8b98-d05433c800ec" d="m1119.52079,42.76195c.14675-1.3005.90867-2.32584,1.82184-2.57656-.24823-.1045-.515-.17635-.79621-.20808-1.58169-.17848-3.0086.95905-3.18708,2.54075s.95906,3.0086,2.54075,3.18708c.28121.03173.55728.02113.82256-.02542-.83434-.44791-1.34861-1.61726-1.20186-2.91776Z"/>
        <path class="uuid-bb607363-c118-4877-8b98-d05433c800ec" d="m1123.08718,43.16438c.14675-1.3005-.59656-2.4957-1.74454-2.979-.91318.25072-1.67509,1.27606-1.82184,2.57656s.36751,2.46985,1.20186,2.91776c1.22681-.21533,2.21778-1.21482,2.36453-2.51533Z"/>
        <path class="uuid-c6247e83-4b07-4dd5-b6cd-5dda38b26743" d="m1123.08718,43.16438c.14675-1.3005-.59656-2.4957-1.74454-2.979-.91318.25072-1.67509,1.27606-1.82184,2.57656s.36751,2.46985,1.20186,2.91776c1.22681-.21533,2.21778-1.21482,2.36453-2.51533Z"/>
      </g>
      <g>
        <path class="uuid-bb607363-c118-4877-8b98-d05433c800ec" d="m1113.37096,51.41147c.68169-1.1172,1.80504-1.72541,2.73875-1.56749-.18097-.19946-.39253-.37715-.6341-.52455-1.35876-.82908-3.13236-.39969-3.96145.95908s-.39968,3.13237.95908,3.96145c.24157.1474.49635.25426.7565.32396-.56751-.75808-.54046-2.03523.14122-3.15244Z"/>
        <path class="uuid-bb607363-c118-4877-8b98-d05433c800ec" d="m1116.43468,53.28087c.68169-1.1172.51197-2.51441-.32497-3.43689-.93371-.15792-2.05706.45029-2.73875,1.56749s-.70873,2.39435-.14122,3.15244c1.20314.32232,2.52326-.16583,3.20495-1.28303Z"/>
        <path class="uuid-c6247e83-4b07-4dd5-b6cd-5dda38b26743" d="m1116.43468,53.28087c.68169-1.1172.51197-2.51441-.32497-3.43689-.93371-.15792-2.05706.45029-2.73875,1.56749s-.70873,2.39435-.14122,3.15244c1.20314.32232,2.52326-.16583,3.20495-1.28303Z"/>
      </g>
      <g>
        <path class="uuid-bb607363-c118-4877-8b98-d05433c800ec" d="m1103.36292,55.50699c1.30313-.12125,2.46218.41582,2.89366,1.25877.05174-.26431.06775-.54012.04153-.8219-.14747-1.58488-1.55182-2.75015-3.13671-2.60268-1.58489.14747-2.75015,1.55182-2.60268,3.13671.02622.28178.09283.5499.19245.80013.26856-.90809,1.30862-1.64978,2.61175-1.77103Z"/>
        <path class="uuid-bb607363-c118-4877-8b98-d05433c800ec" d="m1103.69542,59.08057c1.30313-.12125,2.32184-1.09245,2.56115-2.31481-.43148-.84296-1.59054-1.38002-2.89366-1.25877-1.30313.12125-2.34319.86294-2.61175,1.77103.46073,1.15722,1.64113,1.9238,2.94426,1.80255Z"/>
        <path class="uuid-c6247e83-4b07-4dd5-b6cd-5dda38b26743" d="m1103.69542,59.08057c1.30313-.12125,2.32184-1.09245,2.56115-2.31481-.43148-.84296-1.59054-1.38002-2.89366-1.25877-1.30313.12125-2.34319.86294-2.61175,1.77103.46073,1.15722,1.64113,1.9238,2.94426,1.80255Z"/>
      </g>
      <g>
        <path class="uuid-bb607363-c118-4877-8b98-d05433c800ec" d="m1093.96667,56.64015c1.27689-.28706,2.49515.09723,3.03098.87802.01748-.26876-.00195-.54435-.06402-.82045-.34912-1.55297-1.89108-2.52889-3.44406-2.17976-1.55298.34913-2.52889,1.89109-2.17976,3.44406.06207.2761.16246.5335.29329.76891.15011-.935,1.08668-1.80372,2.36357-2.09077Z"/>
        <path class="uuid-bb607363-c118-4877-8b98-d05433c800ec" d="m1094.75387,60.14177c1.27689-.28706,2.1629-1.38066,2.24378-2.6236-.53584-.78079-1.7541-1.16508-3.03098-.87802s-2.21346,1.15578-2.36357,2.09077c.60506,1.08873,1.87388,1.69791,3.15077,1.41085Z"/>
        <path class="uuid-c6247e83-4b07-4dd5-b6cd-5dda38b26743" d="m1094.75387,60.14177c1.27689-.28706,2.1629-1.38066,2.24378-2.6236-.53584-.78079-1.7541-1.16508-3.03098-.87802s-2.21346,1.15578-2.36357,2.09077c.60506,1.08873,1.87388,1.69791,3.15077,1.41085Z"/>
      </g>
      <path class="uuid-68004340-419c-4db8-875d-0da4504bcc25" d="m1104.75371,75.71198l3.74917,3.51573s21.47897-4.24508,34.22473-32.50564c7.14076-15.83286,0,0,0,0l-3.7421-4.71573s-7.4254,21.68493-34.2318,33.70564c-34.62085,15.52492,0,0,0,0l5.99191,5.4824"/>
    </g>
    <path class="uuid-5d531fad-9012-4168-9a28-25d404f884e3" d="m1122.49055,87.19764c30.78328,49.3007,7.36129,119.21459-39.68861,153.33902-47.0499,34.12442-110.04593,38.40627-167.29641,28.37872-57.25048-10.02755-111.39587-32.765-167.35451-48.47486-40.33529-11.32375-80.75958-15.70515-121.80542-22.74207-34.65576-5.9414-68.65759-15.99469-103.80454-20.79425-27.69887-3.78247-58.75397-1.33521-79.03187,17.90904-10.88116,10.32648-17.25874,28.40642-7.94584,40.16677,3.17819,4.01343,7.72451,6.68054,12.25762,9.05947,9.8503,5.16935,21.18358,9.5129,31.89581,6.51311,10.71223-2.9998,18.70123-16.55638,12.3914-25.71807-4.15464-6.03242-12.23712-7.65053-19.515-8.47726-56.27014-6.39199-112.95078,4.85863-169.57906,5.50986-48.2959.55541-97.86233-7.0832-139.7425-31.14258-41.88017-24.05939-75.02538-66.48059-79.36925-114.58395"/>
    <g>
      <circle class="uuid-965ead04-3c4b-45c2-8200-2c97b57d3257" cx="308.58262" cy="377.66682" r="131.47385"/>
      <path class="uuid-244c55fb-462c-42e9-a2bc-d28a3565d5c3" d="m404.00908,437.48377c-29.0728,6.09118-56.8064,1.22957-77.40832-14.4162-23.87912-18.13497-27.21905-48.84387-39.76697-74.49331-13.06319-26.70301-35.82771-55.69277-66.21438-68.86263-7.65393,6.71408-14.87718,13.91814-21.46461,21.80887-.17919.21463-.36854.39987-.55368.59721-1.48574,3.10054-3.02918,6.15939-4.8058,9.08239,15.72587,4.71767,37.99434,14.94495,48.00759,26.61986,20.60233,24.02121,16.4871,55.51324,30.86536,83.02509,22.05065,42.19207,73.20963,62.42039,126.94677,52.99415.76366-1.33417,1.83105-2.58399,3.28279-3.67726,8.25777-6.21903,14.37241-14.48818,19.12405-23.72473-2.03013-6.49332-8.0598-11.03861-18.0128-8.95343Z"/>
      <path class="uuid-2fd16880-0611-4d75-9b44-badd362f277f" d="m428.99648,401.52287c-14.51189-1.56054-62.7966-11.14832-83.53126-25.42679-24.03327-16.54981-41.91083-65.93945-62.97917-85.2731-14.54326-13.34573-26.95537-22.72921-38.61004-29.24116-5.76058,4.07717-11.39961,8.3089-16.84132,12.77213,13.57413,5.08151,30.93876,17.43842,45.91407,29.24528,25.11996,19.8053,31.01925,69.17943,54.17702,90.09327,31.55225,28.49479,77.79354,28.91574,107.73227,30.39223,1.25067-4.51937,2.36537-9.04477,3.4083-13.48285.35032-1.49071.8917-2.79944,1.58049-3.93654-3.59446-2.73683-7.47212-4.77915-10.85037-5.14247Z"/>
      <path class="uuid-dabc0482-f24e-4b0a-aef2-1463349845ce" d="m318.50715,477.16726c-8.06196-6.30656-49.60451-27.98794-64.74362-46.08974-17.54749-20.98142-17.39865-52.82523-34.23122-74.85917-10.74129-14.06038-35.50376-18.67394-35.50376-18.67394-.89633-1.0206-.07352-1.35633,0,0,.08947,1.6506-4.43074,12.67511-5.26807,13.47797,8.1945-3.28435,22.02805-1.34918,33.41108,12.85215,19.09422,23.82181,11.42683,48.79247,29.82743,72.75717,25.07062,32.65159,70.24549,47.93487,86.35402,59.63051-.70349-2.96788-1.47993-5.98838-2.26769-8.96835-.2646-1.00094-.37455-1.79705-.3558-2.41156-2.70304-3.33541-5.34559-6.24689-7.22235-7.71504Z"/>
      <path class="uuid-7f75547a-bcb4-4080-a7c0-bcfbde672b6d" d="m186.39721,425.74035c-4.36963,2.85205-8.67236,5.64209-12.82715,8.45459-2.06152,1.43604-4.09619,2.84668-6.01221,4.30518-1.89453,1.47412-3.72949,2.96924-5.1543,4.43066-.70557.72461-1.27539,1.46582-1.51855,2.01172-.09863.25293-.09619.46924.06494.42969.1416-.04346.57959-.35986.94287-1.49512.10352-.31055.14746-.60107.19189-.95801.05273-.36768.02637-.72803.01318-1.1084-.02441-.37891-.11279-.75879-.18408-1.08545-.04297-.16943-.09619-.33643-.15967-.49854-.05615-.15479-.09131-.27734-.15088-.41406-.47412-1.06885-.84863-1.45654-.93945-1.67529-.02393-.18115.0083-.23877.28125-.24121.27979-.00293.05615-.14209.55664-.06592l2.77051.271c1.07617.08838,2.18213.16699,3.32812.22559,2.2915.10352,4.62793.21045,7.00977.23535,9.50879.15869,19.22998-.18506,28.88477-.72119,9.66748-.53613,19.32324-1.37207,28.93652-2.37305,38.44873-4.13086,76.26367-11.50977,112.42139-23.14062,36.14941-11.64111,70.59668-27.64673,102.05322-49.11475,7.87695-5.34961,15.54834-11.06055,23.04102-17.0896,3.76465-2.99756,7.4209-6.1355,11.09619-9.29321l5.43945-4.83472c.2583-.19873.49219-.36572.62549-.44385.15137-.08374.23047-.10181.2041.11597-.00586.20874-.11621.65747-.11182,1.53931-.01025.85376.27588,2.20239.88232,3.18237.58398.98999,1.24707,1.47388,1.58594,1.64185.35205.17334.4751.1084.41455.00146-.12744-.23267-.76172-.61597-1.55273-.92432-1.60596-.63354-3.7583-1.14746-5.96826-1.56592-4.4751-.80957-9.34912-1.18848-14.25391-1.5083-9.85107-.55737-19.96289-.53906-30.19531-.67383,9.39062-4.10083,19.0376-7.49194,29.11084-10.09082,5.05518-1.30249,10.19141-2.36084,15.72998-2.93408,2.79053-.28125,5.65186-.44507,8.96094-.10962,1.66211.17725,3.45752.45947,5.62158,1.23804,1.08203.40186,2.30176.95947,3.6416,1.90137,1.32227.93652,2.85156,2.36353,4.00342,4.4729,1.17236,2.10034,1.66553,4.72876,1.55713,6.8269-.09131,2.13135-.57861,3.79224-1.08984,5.14282-.52734,1.36548-1.09814,2.42456-1.65918,3.36841-.56689.95996-1.13184,1.75952-1.67969,2.51685l-4.55127,6.37891c-3.1167,4.19775-6.34619,8.33057-9.72656,12.34814-6.75488,8.04077-14.0542,15.66602-21.7832,22.86133-15.49121,14.35547-32.74951,26.91064-51.14062,37.39111-18.3877,10.50244-37.85693,19.00391-57.84473,25.61816-19.99609,6.60889-40.50635,11.39111-61.1875,14.40039-10.33984,1.5166-20.72803,2.56641-31.12207,3.2417-10.40088.61035-20.80664.86816-31.20312.62646-10.39502-.20654-20.77539-.89062-31.12354-2.03223-10.35645-1.14893-20.64502-2.78027-30.99756-5.19385-2.58496-.60107-5.1958-1.27051-7.8335-2.03906-1.31836-.38232-2.66553-.80127-4.03369-1.25049-1.41992-.48242-2.76025-.94141-4.47607-1.68506-.69287-.29834-2.08301-.90625-2.92139-1.46729l-.67041-.43896-.72607-.521c-.45361-.32129-1.02539-.79932-1.52246-1.23291-1.07129-.99121-2.35156-2.2793-3.42871-4.44775-.13184-.27539-.25391-.52979-.37061-.82861-.11719-.30908-.22461-.62305-.32129-.93896-.19971-.61475-.33008-1.30615-.41455-1.99268-.09717-.68506-.08008-1.36377-.05029-2.04199.04053-.66992.15771-1.26855.29199-1.89014.60596-2.36865,1.66211-3.8125,2.54248-4.85938.90625-1.04639,1.77979-1.73535,2.59619-2.33447,1.61914-1.12891,3.08984-1.85303,4.50293-2.45996,2.81543-1.20312,5.46777-1.95459,8.12158-2.56592,2.63867-.61963,5.23926-1.10596,7.85254-1.46143,5.20068-.75244,10.39746-1.15137,15.62891-1.13623Z"/>
      <path class="uuid-5abdb2fb-5713-416b-9112-2b245935a2d1" d="m180.59985,337.18786c-2.32178-.67505-4.63232-1.34448-6.9502-1.97046-2.3208-.61743-4.64307-1.19995-6.95557-1.75659-4.60986-1.0686-9.31982-2.04248-13.69043-2.24707-1.0791-.0437-2.12158-.00146-3.00244.13623-.42773.07544-.81201.17969-1.07812.2915-.25977.10815-.36182.2439-.24414.22461.11523.00098.40381-.28931.49707-.46875.10059-.18774.11084-.14209.19434.05542.06689.18164.19482.49561.37256.84277.09277.17847.18115.36353.27197.49121.0918.14502.14941.26709.30078.4812,1.03027,1.55347,2.49414,3.396,3.96777,5.10181,1.49414,1.72949,3.04883,3.4458,4.66406,5.12695,6.4126,6.76685,13.36035,13.15674,20.42773,19.35889,7.10693,6.1709,14.40771,12.12354,21.88818,17.8291,29.94189,22.78418,62.42188,42.12451,96.92773,56.41748,34.47412,14.29736,71.08252,23.35986,108.45068,25.36572,9.33643.55664,18.71045.59473,28.09863.29932,4.69629-.13867,9.38379-.48047,14.08496-.8042l7.04248-.63672c.98682-.08057,1.79785-.23975,2.35449-.41406.27686-.08154.44775-.15967.49561-.15771.05322-.00586-.0166.11963-.04883.28467-.03369.16357.01611.27588.04736.18652.03125-.08057.02246-.3208-.05273-.62646-.15723-.62891-.55908-1.47217-1.06885-2.30811-1.04248-1.69189-2.47705-3.42529-3.99658-5.09473-3.0874-3.33984-6.62598-6.47119-10.24316-9.51221-7.29639-6.04297-15.05225-11.70117-22.9165-17.24072,8.79883,3.90186,17.44189,8.20215,25.75049,13.2793,4.15869,2.54395,8.22559,5.27441,12.11768,8.50049,1.94434,1.63135,3.84473,3.36816,5.60059,5.56885.87109,1.11621,1.72705,2.33398,2.41992,3.94873.33691.81689.63574,1.74561.75879,2.85938.12402,1.10156.03174,2.43408-.45508,3.70801-.47461,1.28271-1.31689,2.36963-2.16992,3.14062-.86182.78174-1.73828,1.3125-2.55762,1.70947-1.63867.78662-3.18115,1.18115-4.55811,1.46094l-7.17725,1.42236c-4.80078.87598-9.62988,1.64111-14.48438,2.24072-9.7041,1.26074-19.50098,1.89453-29.31689,2.07812-9.81445.104-19.65674-.22412-29.44727-1.18604-2.44385-.26367-4.89404-.49609-7.33643-.7876l-7.31689-.96631-7.28418-1.19189-7.25439-1.36426c-19.30664-3.85986-38.18652-9.72559-56.36377-17.16406-36.3584-14.93799-69.94873-35.99121-99.48389-61.47461-3.68945-3.19214-7.31152-6.46118-10.88818-9.77588-3.56543-3.32935-7.03369-6.76318-10.45752-10.23926-3.42627-3.47412-6.76611-7.03809-9.99805-10.70996-3.23389-3.67017-6.41943-7.39062-9.41797-11.31201-1.51172-1.94653-2.97803-3.94873-4.41064-6.01001-1.42822-2.09863-2.81445-4.12573-4.11377-6.7605-.15869-.29956-.33545-.72925-.49854-1.12573-.18066-.40747-.28711-.78882-.40039-1.17285-.22266-.77979-.4165-1.62671-.49463-2.63428-.07422-.98315-.06104-2.16724.41016-3.50073.43994-1.33057,1.49414-2.6228,2.58496-3.31274,1.09277-.71851,2.13184-1.01514,3.03418-1.1853.90234-.15454,1.7124-.17505,2.47998-.15967,1.51318.05908,2.86768.28223,4.15918.57104,2.57861.57715,4.94678,1.39355,7.25781,2.30029,2.30859.90137,4.54785,1.89136,6.74268,2.95679,2.2002,1.04785,4.3501,2.18042,6.46973,3.35791,2.12109,1.17212,4.22119,2.37158,6.26074,3.67505Z"/>
      <circle class="uuid-e9638d80-9afd-4104-a69b-1f30dd2129bd" cx="325.81534" cy="390.14562" r="246.99884"/>
      <circle class="uuid-4e80d27a-7d86-4e7b-b6df-edfda404f2a7" cx="455.49511" cy="280.75427" r="15.29944"/>
      <circle class="uuid-d7880aef-191e-4686-920a-9651d77dd6f5" cx="377.90264" cy="247.08097" r="7.64972"/>
      <circle class="uuid-d7880aef-191e-4686-920a-9651d77dd6f5" cx="120.13043" cy="348.32761" r="4.4213"/>
      <circle class="uuid-6e0e9cd2-6376-41ce-845a-0d94dd7e54a2" cx="133.80281" cy="402.92706" r="8.8426"/>
      <circle class="uuid-d7880aef-191e-4686-920a-9651d77dd6f5" cx="200.89591" cy="289.28323" r="4.4213"/>
      <circle class="uuid-d7880aef-191e-4686-920a-9651d77dd6f5" cx="196.47461" cy="309.23741" r="4.4213"/>
    </g>
  </g>
</svg>