<svg width="226" height="160" viewBox="0 0 226 160" fill="none" xmlns="http://www.w3.org/2000/svg">
<path d="M48 39.53L113 2L178 39.53V114.58L113 152.11L48 114.58V39.53Z" fill="url(#paint0_linear_271_67)" stroke="url(#paint1_linear_271_67)" stroke-width="3" stroke-miterlimit="10"/>
<path d="M94.7827 72H88.5952V54.5455H94.8338C96.5895 54.5455 98.1009 54.8949 99.3679 55.5938C100.635 56.2869 101.609 57.2841 102.291 58.5852C102.979 59.8864 103.322 61.4432 103.322 63.2557C103.322 65.0739 102.979 66.6364 102.291 67.9432C101.609 69.25 100.629 70.2528 99.3509 70.9517C98.0781 71.6506 96.5554 72 94.7827 72ZM92.2855 68.8381H94.6293C95.7202 68.8381 96.6378 68.6449 97.3821 68.2585C98.1321 67.8665 98.6946 67.2614 99.0696 66.4432C99.4503 65.6193 99.6406 64.5568 99.6406 63.2557C99.6406 61.9659 99.4503 60.9119 99.0696 60.0938C98.6946 59.2756 98.1349 58.6733 97.3906 58.2869C96.6463 57.9006 95.7287 57.7074 94.6378 57.7074H92.2855V68.8381ZM111.954 72.2557C110.607 72.2557 109.448 71.983 108.477 71.4375C107.511 70.8864 106.766 70.108 106.244 69.1023C105.721 68.0909 105.46 66.8949 105.46 65.5142C105.46 64.1676 105.721 62.9858 106.244 61.9688C106.766 60.9517 107.502 60.1591 108.451 59.5909C109.406 59.0227 110.525 58.7386 111.809 58.7386C112.673 58.7386 113.477 58.8778 114.221 59.1562C114.971 59.429 115.624 59.8409 116.181 60.392C116.744 60.9432 117.181 61.6364 117.494 62.4716C117.806 63.3011 117.962 64.2727 117.962 65.3864V66.3835H106.908V64.1335H114.545C114.545 63.6108 114.431 63.1477 114.204 62.7443C113.977 62.3409 113.661 62.0256 113.258 61.7983C112.86 61.5653 112.397 61.4489 111.869 61.4489C111.317 61.4489 110.829 61.5767 110.403 61.8324C109.982 62.0824 109.653 62.4205 109.414 62.8466C109.175 63.267 109.053 63.7358 109.048 64.2528V66.392C109.048 67.0398 109.167 67.5994 109.406 68.071C109.65 68.5426 109.994 68.9062 110.437 69.1619C110.88 69.4176 111.406 69.5455 112.013 69.5455C112.417 69.5455 112.786 69.4886 113.121 69.375C113.457 69.2614 113.744 69.0909 113.982 68.8636C114.221 68.6364 114.403 68.358 114.528 68.0284L117.886 68.25C117.715 69.0568 117.366 69.7614 116.837 70.3636C116.315 70.9602 115.638 71.4261 114.809 71.7614C113.985 72.0909 113.033 72.2557 111.954 72.2557ZM132.185 58.9091L127.608 72H123.517L118.94 58.9091H122.776L125.494 68.2756H125.631L128.341 58.9091H132.185ZM135.344 72.2216C134.782 72.2216 134.299 72.0227 133.896 71.625C133.498 71.2216 133.299 70.7386 133.299 70.1761C133.299 69.6193 133.498 69.142 133.896 68.7443C134.299 68.3466 134.782 68.1477 135.344 68.1477C135.89 68.1477 136.367 68.3466 136.776 68.7443C137.185 69.142 137.39 69.6193 137.39 70.1761C137.39 70.5511 137.293 70.8949 137.1 71.2074C136.913 71.5142 136.665 71.7614 136.359 71.9489C136.052 72.1307 135.714 72.2216 135.344 72.2216ZM92.6935 101.247C91.8583 101.247 91.114 101.102 90.4606 100.812C89.8072 100.517 89.2901 100.082 88.9094 99.5085C88.5344 98.929 88.3469 98.2074 88.3469 97.3438C88.3469 96.6165 88.4805 96.0057 88.7475 95.5114C89.0146 95.017 89.3782 94.6193 89.8384 94.3182C90.2987 94.017 90.8214 93.7898 91.4066 93.6364C91.9975 93.483 92.6168 93.375 93.2646 93.3125C94.0259 93.233 94.6396 93.1591 95.1055 93.0909C95.5714 93.017 95.9094 92.9091 96.1197 92.767C96.3299 92.625 96.435 92.4148 96.435 92.1364V92.0852C96.435 91.5455 96.2646 91.1278 95.9237 90.8324C95.5884 90.5369 95.1112 90.3892 94.4918 90.3892C93.8384 90.3892 93.3185 90.5341 92.9322 90.8239C92.5458 91.108 92.2901 91.4659 92.1651 91.8977L88.8072 91.625C88.9776 90.8295 89.3129 90.142 89.8129 89.5625C90.3129 88.9773 90.9577 88.5284 91.7475 88.2159C92.543 87.8977 93.4634 87.7386 94.5089 87.7386C95.2362 87.7386 95.9322 87.8239 96.5969 87.9943C97.2674 88.1648 97.8612 88.429 98.3782 88.7869C98.9009 89.1449 99.3129 89.6051 99.614 90.1676C99.9151 90.7244 100.066 91.392 100.066 92.1705V101H96.6225V99.1847H96.5202C96.31 99.5938 96.0288 99.9545 95.6765 100.267C95.3242 100.574 94.9009 100.815 94.4066 100.991C93.9123 101.162 93.3413 101.247 92.6935 101.247ZM93.7333 98.7415C94.2674 98.7415 94.739 98.6364 95.1481 98.4261C95.5572 98.2102 95.8782 97.9205 96.1112 97.5568C96.3441 97.1932 96.4606 96.7812 96.4606 96.321V94.9318C96.3469 95.0057 96.1907 95.0739 95.9918 95.1364C95.7987 95.1932 95.5799 95.2472 95.3356 95.2983C95.0913 95.3437 94.8469 95.3864 94.6026 95.4261C94.3583 95.4602 94.1367 95.4915 93.9379 95.5199C93.5117 95.5824 93.1396 95.6818 92.8214 95.8182C92.5032 95.9545 92.256 96.1392 92.0799 96.3722C91.9038 96.5994 91.8157 96.8835 91.8157 97.2244C91.8157 97.7188 91.9947 98.0966 92.3526 98.358C92.7163 98.6136 93.1765 98.7415 93.7333 98.7415ZM108.78 106.182C107.604 106.182 106.596 106.02 105.755 105.696C104.919 105.378 104.255 104.943 103.76 104.392C103.266 103.841 102.945 103.222 102.797 102.534L106.155 102.082C106.257 102.344 106.419 102.588 106.641 102.815C106.863 103.043 107.155 103.224 107.519 103.361C107.888 103.503 108.337 103.574 108.865 103.574C109.655 103.574 110.306 103.381 110.817 102.994C111.334 102.614 111.593 101.974 111.593 101.077V98.6818H111.439C111.28 99.0455 111.042 99.3892 110.723 99.7131C110.405 100.037 109.996 100.301 109.496 100.506C108.996 100.71 108.4 100.812 107.706 100.812C106.723 100.812 105.828 100.585 105.022 100.131C104.221 99.6705 103.581 98.9687 103.104 98.0256C102.632 97.0767 102.397 95.8778 102.397 94.429C102.397 92.946 102.638 91.7074 103.121 90.7131C103.604 89.7187 104.246 88.9744 105.047 88.4801C105.854 87.9858 106.738 87.7386 107.698 87.7386C108.431 87.7386 109.044 87.8636 109.539 88.1136C110.033 88.358 110.431 88.6648 110.732 89.0341C111.039 89.3977 111.275 89.7557 111.439 90.108H111.576V87.9091H115.181V101.128C115.181 102.241 114.908 103.173 114.363 103.923C113.817 104.673 113.061 105.236 112.096 105.611C111.135 105.991 110.03 106.182 108.78 106.182ZM108.857 98.0852C109.442 98.0852 109.936 97.9403 110.34 97.6506C110.749 97.3551 111.061 96.9347 111.277 96.3892C111.499 95.8381 111.61 95.179 111.61 94.4119C111.61 93.6449 111.502 92.9801 111.286 92.4176C111.07 91.8494 110.757 91.4091 110.348 91.0966C109.939 90.7841 109.442 90.6278 108.857 90.6278C108.26 90.6278 107.757 90.7898 107.348 91.1136C106.939 91.4318 106.63 91.875 106.419 92.4432C106.209 93.0114 106.104 93.6676 106.104 94.4119C106.104 95.1676 106.209 95.821 106.419 96.3722C106.635 96.9176 106.945 97.3409 107.348 97.642C107.757 97.9375 108.26 98.0852 108.857 98.0852ZM118.07 101V87.9091H121.701V101H118.07ZM119.894 86.2216C119.354 86.2216 118.891 86.0426 118.505 85.6847C118.124 85.321 117.934 84.8864 117.934 84.3807C117.934 83.8807 118.124 83.4517 118.505 83.0938C118.891 82.7301 119.354 82.5483 119.894 82.5483C120.434 82.5483 120.894 82.7301 121.275 83.0938C121.661 83.4517 121.854 83.8807 121.854 84.3807C121.854 84.8864 121.661 85.321 121.275 85.6847C120.894 86.0426 120.434 86.2216 119.894 86.2216ZM128.24 83.5455V101H124.609V83.5455H128.24ZM137.114 101.256C135.767 101.256 134.608 100.983 133.637 100.438C132.671 99.8864 131.926 99.108 131.404 98.1023C130.881 97.0909 130.62 95.8949 130.62 94.5142C130.62 93.1676 130.881 91.9858 131.404 90.9688C131.926 89.9517 132.662 89.1591 133.611 88.5909C134.566 88.0227 135.685 87.7386 136.969 87.7386C137.833 87.7386 138.637 87.8778 139.381 88.1562C140.131 88.429 140.784 88.8409 141.341 89.392C141.904 89.9432 142.341 90.6364 142.654 91.4716C142.966 92.3011 143.123 93.2727 143.123 94.3864V95.3835H132.069V93.1335H139.705C139.705 92.6108 139.591 92.1477 139.364 91.7443C139.137 91.3409 138.821 91.0256 138.418 90.7983C138.02 90.5653 137.557 90.4489 137.029 90.4489C136.478 90.4489 135.989 90.5767 135.563 90.8324C135.142 91.0824 134.813 91.4205 134.574 91.8466C134.336 92.267 134.213 92.7358 134.208 93.2528V95.392C134.208 96.0398 134.327 96.5994 134.566 97.071C134.81 97.5426 135.154 97.9062 135.597 98.1619C136.04 98.4176 136.566 98.5455 137.174 98.5455C137.577 98.5455 137.946 98.4886 138.282 98.375C138.617 98.2614 138.904 98.0909 139.142 97.8636C139.381 97.6364 139.563 97.358 139.688 97.0284L143.046 97.25C142.875 98.0568 142.526 98.7614 141.998 99.3636C141.475 99.9602 140.799 100.426 139.969 100.761C139.145 101.091 138.194 101.256 137.114 101.256Z" fill="#00CACC"/>
<defs>
<linearGradient id="paint0_linear_271_67" x1="147.765" y1="20.8974" x2="78.054" y2="133.33" gradientUnits="userSpaceOnUse">
<stop stop-color="#00CACC" stop-opacity="0.2"/>
<stop offset="0.48" stop-color="#0089CC" stop-opacity="0.1"/>
<stop offset="1" stop-color="#1F26BD" stop-opacity="0.1"/>
</linearGradient>
<linearGradient id="paint1_linear_271_67" x1="148.571" y1="19.5971" x2="77.253" y2="134.622" gradientUnits="userSpaceOnUse">
<stop stop-color="#00CACC"/>
<stop offset="0.48" stop-color="#0089CC"/>
<stop offset="0.58" stop-color="#047BCA"/>
<stop offset="0.77" stop-color="#0E59C4"/>
<stop offset="1" stop-color="#1F26BD"/>
</linearGradient>
</defs>
</svg>
