<svg width="134" height="154" viewBox="0 0 134 154" fill="none" xmlns="http://www.w3.org/2000/svg">
<path d="M2 39.53L67 2L132 39.53V114.58L67 152.11L2 114.58V39.53Z" fill="url(#paint0_linear_271_70)" stroke="url(#paint1_linear_271_70)" stroke-width="3" stroke-miterlimit="10"/>
<path d="M47.7646 73H41.0614V54.0909H47.82C49.7219 54.0909 51.3593 54.4695 52.7319 55.2266C54.1045 55.9775 55.1602 57.0578 55.8988 58.4673C56.6436 59.8769 57.016 61.5634 57.016 63.527C57.016 65.4967 56.6436 67.1894 55.8988 68.6051C55.1602 70.0208 54.0984 71.1072 52.7134 71.8643C51.3346 72.6214 49.685 73 47.7646 73ZM45.0593 69.5746H47.5984C48.7802 69.5746 49.7743 69.3653 50.5806 68.9467C51.3931 68.522 52.0025 67.8665 52.4087 66.9801C52.8211 66.0876 53.0273 64.9366 53.0273 63.527C53.0273 62.1297 52.8211 60.9879 52.4087 60.1016C52.0025 59.2152 51.3962 58.5627 50.5898 58.1442C49.7835 57.7256 48.7894 57.5163 47.6076 57.5163H45.0593V69.5746ZM66.3667 73.277C64.9078 73.277 63.6522 72.9815 62.5996 72.3906C61.5532 71.7936 60.7469 70.9503 60.1806 69.8608C59.6143 68.7652 59.3311 67.4695 59.3311 65.9737C59.3311 64.5149 59.6143 63.2346 60.1806 62.1328C60.7469 61.031 61.544 60.1723 62.5719 59.5568C63.606 58.9413 64.8186 58.6335 66.2097 58.6335C67.1453 58.6335 68.0163 58.7843 68.8226 59.0859C69.6351 59.3814 70.343 59.8277 70.9462 60.4247C71.5556 61.0218 72.0295 61.7727 72.3681 62.6776C72.7066 63.5762 72.8759 64.6288 72.8759 65.8352V66.9155H60.9007V64.478H69.1735C69.1735 63.9117 69.0504 63.41 68.8042 62.973C68.5579 62.536 68.2163 62.1944 67.7793 61.9482C67.3484 61.6958 66.8468 61.5696 66.2743 61.5696C65.6773 61.5696 65.1479 61.7081 64.6863 61.9851C64.2308 62.2559 63.8738 62.6222 63.6152 63.0838C63.3567 63.5393 63.2244 64.0471 63.2182 64.6072V66.9247C63.2182 67.6264 63.3475 68.2327 63.606 68.7436C63.8707 69.2545 64.2431 69.6484 64.7232 69.9254C65.2033 70.2024 65.7727 70.3409 66.4313 70.3409C66.8683 70.3409 67.2684 70.2794 67.6316 70.1562C67.9947 70.0331 68.3056 69.8485 68.5641 69.6023C68.8226 69.3561 69.0196 69.0545 69.155 68.6974L72.7928 68.9375C72.6081 69.8116 72.2296 70.5748 71.6571 71.2273C71.0909 71.8736 70.3584 72.3783 69.4597 72.7415C68.5672 73.0985 67.5362 73.277 66.3667 73.277ZM88.2834 58.8182L83.3253 73H78.8935L73.9354 58.8182H78.0902L81.0355 68.9652H81.1832L84.1193 58.8182H88.2834ZM91.7065 73.2401C91.0971 73.2401 90.5739 73.0246 90.1369 72.5938C89.706 72.1567 89.4906 71.6335 89.4906 71.0241C89.4906 70.4209 89.706 69.9039 90.1369 69.473C90.5739 69.0421 91.0971 68.8267 91.7065 68.8267C92.2974 68.8267 92.8145 69.0421 93.2576 69.473C93.7008 69.9039 93.9224 70.4209 93.9224 71.0241C93.9224 71.4304 93.8178 71.8028 93.6085 72.1413C93.4054 72.4737 93.1376 72.7415 92.8052 72.9446C92.4728 73.1416 92.1066 73.2401 91.7065 73.2401ZM39.9281 104H35.644L42.1717 85.0909H47.3237L53.8422 104H49.5581L44.8216 89.4119H44.6738L39.9281 104ZM39.6603 96.5675H49.7797V99.6882H39.6603V96.5675ZM61.7733 109.614C60.4991 109.614 59.4065 109.438 58.4956 109.087C57.5907 108.743 56.8706 108.272 56.335 107.675C55.7995 107.078 55.4518 106.407 55.2917 105.662L58.9295 105.173C59.0403 105.456 59.2157 105.72 59.4558 105.967C59.6958 106.213 60.0128 106.41 60.4068 106.558C60.8069 106.711 61.2931 106.788 61.8656 106.788C62.7212 106.788 63.426 106.579 63.9799 106.161C64.5401 105.748 64.8201 105.056 64.8201 104.083V101.489H64.6539C64.4816 101.883 64.2231 102.255 63.8784 102.606C63.5337 102.957 63.0905 103.243 62.5488 103.464C62.0072 103.686 61.3609 103.797 60.6099 103.797C59.545 103.797 58.5756 103.551 57.7015 103.058C56.8336 102.56 56.1412 101.799 55.6241 100.778C55.1132 99.7498 54.8578 98.451 54.8578 96.8814C54.8578 95.2749 55.1194 93.933 55.6426 92.8558C56.1658 91.7786 56.8613 90.9723 57.7292 90.4368C58.6033 89.9013 59.5604 89.6335 60.6007 89.6335C61.3947 89.6335 62.0595 89.7689 62.595 90.0398C63.1305 90.3045 63.5614 90.6368 63.8876 91.0369C64.22 91.4309 64.4754 91.8187 64.6539 92.2003H64.8017V89.8182H68.7072V104.138C68.7072 105.345 68.4118 106.354 67.8208 107.167C67.2299 107.979 66.4113 108.589 65.3649 108.995C64.3246 109.407 63.1274 109.614 61.7733 109.614ZM61.8564 100.842C62.4904 100.842 63.0259 100.685 63.4629 100.371C63.9061 100.051 64.2446 99.5959 64.4785 99.005C64.7186 98.4079 64.8386 97.6939 64.8386 96.8629C64.8386 96.032 64.7217 95.3118 64.4877 94.7024C64.2538 94.0869 63.9153 93.6098 63.4721 93.2713C63.0289 92.9328 62.4904 92.7635 61.8564 92.7635C61.2101 92.7635 60.6653 92.9389 60.2221 93.2898C59.7789 93.6345 59.4435 94.1146 59.2157 94.7301C58.988 95.3456 58.8741 96.0566 58.8741 96.8629C58.8741 97.6816 58.988 98.3894 59.2157 98.9865C59.4496 99.5774 59.7851 100.036 60.2221 100.362C60.6653 100.682 61.2101 100.842 61.8564 100.842ZM71.8372 104V89.8182H75.7704V104H71.8372ZM73.813 87.9901C73.2283 87.9901 72.7266 87.7962 72.3081 87.4084C71.8957 87.0144 71.6895 86.5436 71.6895 85.9957C71.6895 85.4541 71.8957 84.9893 72.3081 84.6016C72.7266 84.2076 73.2283 84.0107 73.813 84.0107C74.3978 84.0107 74.8964 84.2076 75.3088 84.6016C75.7273 84.9893 75.9366 85.4541 75.9366 85.9957C75.9366 86.5436 75.7273 87.0144 75.3088 87.4084C74.8964 87.7962 74.3978 87.9901 73.813 87.9901ZM82.8544 85.0909V104H78.9212V85.0909H82.8544ZM92.4682 104.277C91.0094 104.277 89.7537 103.982 88.7012 103.391C87.6548 102.794 86.8484 101.95 86.2821 100.861C85.7158 99.7652 85.4327 98.4695 85.4327 96.9737C85.4327 95.5149 85.7158 94.2346 86.2821 93.1328C86.8484 92.031 87.6455 91.1723 88.6735 90.5568C89.7076 89.9413 90.9202 89.6335 92.3113 89.6335C93.2469 89.6335 94.1178 89.7843 94.9242 90.0859C95.7367 90.3814 96.4445 90.8277 97.0478 91.4247C97.6571 92.0218 98.1311 92.7727 98.4696 93.6776C98.8082 94.5762 98.9775 95.6288 98.9775 96.8352V97.9155H87.0023V95.478H95.275C95.275 94.9117 95.1519 94.41 94.9057 93.973C94.6595 93.536 94.3179 93.1944 93.8809 92.9482C93.45 92.6958 92.9483 92.5696 92.3759 92.5696C91.7788 92.5696 91.2495 92.7081 90.7878 92.9851C90.3323 93.2559 89.9753 93.6222 89.7168 94.0838C89.4583 94.5393 89.3259 95.0471 89.3198 95.6072V97.9247C89.3198 98.6264 89.449 99.2327 89.7076 99.7436C89.9722 100.254 90.3446 100.648 90.8248 100.925C91.3049 101.202 91.8742 101.341 92.5328 101.341C92.9699 101.341 93.37 101.279 93.7331 101.156C94.0963 101.033 94.4071 100.848 94.6657 100.602C94.9242 100.356 95.1212 100.054 95.2566 99.6974L98.8944 99.9375C98.7097 100.812 98.3311 101.575 97.7587 102.227C97.1924 102.874 96.4599 103.378 95.5613 103.741C94.6687 104.098 93.6377 104.277 92.4682 104.277Z" fill="#00CACC"/>
<defs>
<linearGradient id="paint0_linear_271_70" x1="101.765" y1="20.8974" x2="32.054" y2="133.33" gradientUnits="userSpaceOnUse">
<stop stop-color="#00CACC" stop-opacity="0.2"/>
<stop offset="0.48" stop-color="#0089CC" stop-opacity="0.1"/>
<stop offset="1" stop-color="#1F26BD" stop-opacity="0.1"/>
</linearGradient>
<linearGradient id="paint1_linear_271_70" x1="102.571" y1="19.5971" x2="31.253" y2="134.622" gradientUnits="userSpaceOnUse">
<stop stop-color="#00CACC"/>
<stop offset="0.48" stop-color="#0089CC"/>
<stop offset="0.58" stop-color="#047BCA"/>
<stop offset="0.77" stop-color="#0E59C4"/>
<stop offset="1" stop-color="#1F26BD"/>
</linearGradient>
</defs>
</svg>
