<svg width="135" height="154" viewBox="0 0 135 154" fill="none" xmlns="http://www.w3.org/2000/svg">
<path d="M2 39.53L67 2L132 39.53V114.58L67 152.11L2 114.58V39.53Z" fill="url(#paint0_linear_271_69)" stroke="url(#paint1_linear_271_69)" stroke-width="3" stroke-miterlimit="10"/>
<path d="M31.2391 50.1559C31.1851 49.6116 30.9535 49.1888 30.5441 48.8874C30.1348 48.5861 29.5793 48.4354 28.8776 48.4354C28.4008 48.4354 27.9982 48.5028 27.6698 48.6378C27.3415 48.7682 27.0896 48.9504 26.9142 49.1843C26.7432 49.4182 26.6578 49.6836 26.6578 49.9805C26.6488 50.2279 26.7005 50.4438 26.8129 50.6282C26.9299 50.8126 27.0896 50.9723 27.292 51.1072C27.4944 51.2377 27.7283 51.3524 27.9937 51.4513C28.2591 51.5458 28.5425 51.6268 28.8438 51.6942L30.0853 51.9911C30.6881 52.1261 31.2413 52.306 31.7451 52.5309C32.2489 52.7558 32.6852 53.0324 33.0541 53.3608C33.4229 53.6892 33.7085 54.076 33.911 54.5213C34.1179 54.9666 34.2236 55.4772 34.2281 56.0529C34.2236 56.8986 34.0077 57.6317 33.5803 58.2525C33.1575 58.8687 32.5458 59.3478 31.7451 59.6896C30.949 60.027 29.9886 60.1957 28.8641 60.1957C27.7486 60.1957 26.777 60.0247 25.9493 59.6829C25.1262 59.341 24.4829 58.835 24.0196 58.1648C23.5608 57.4901 23.3202 56.6557 23.2977 55.6616H26.1247C26.1562 56.1249 26.2889 56.5117 26.5228 56.8221C26.7612 57.128 27.0783 57.3596 27.4742 57.517C27.8745 57.67 28.3266 57.7464 28.8303 57.7464C29.3251 57.7464 29.7547 57.6745 30.1191 57.5305C30.4879 57.3866 30.7735 57.1864 30.9759 56.93C31.1784 56.6737 31.2796 56.379 31.2796 56.0462C31.2796 55.7358 31.1874 55.4749 31.0029 55.2635C30.823 55.0521 30.5576 54.8722 30.2068 54.7237C29.8604 54.5753 29.4353 54.4403 28.9316 54.3189L27.4269 53.9411C26.2619 53.6577 25.3421 53.2146 24.6673 52.6119C23.9926 52.0091 23.6575 51.1972 23.662 50.1761C23.6575 49.3395 23.8802 48.6085 24.33 47.9833C24.7843 47.3581 25.4073 46.87 26.199 46.5192C26.9906 46.1683 27.8902 45.9929 28.8978 45.9929C29.9234 45.9929 30.8185 46.1683 31.5832 46.5192C32.3524 46.87 32.9506 47.3581 33.3779 47.9833C33.8052 48.6085 34.0257 49.3327 34.0392 50.1559H31.2391ZM41.6516 49.6364V51.7955H35.4105V49.6364H41.6516ZM36.8274 47.1534H39.7017V56.8153C39.7017 57.0807 39.7422 57.2876 39.8232 57.4361C39.9041 57.58 40.0166 57.6812 40.1605 57.7397C40.3089 57.7982 40.4799 57.8274 40.6733 57.8274C40.8082 57.8274 40.9432 57.8162 41.0781 57.7937C41.2131 57.7667 41.3165 57.7464 41.3885 57.733L41.8406 59.8718C41.6966 59.9168 41.4942 59.9685 41.2333 60.027C40.9724 60.09 40.6553 60.1282 40.282 60.1417C39.5893 60.1687 38.982 60.0765 38.4602 59.8651C37.9429 59.6536 37.5404 59.3253 37.2525 58.88C36.9646 58.4347 36.8229 57.8724 36.8274 57.1932V47.1534ZM43.524 60V49.6364H46.3105V51.4446H46.4185C46.6074 50.8014 46.9245 50.3156 47.3699 49.9872C47.8152 49.6544 48.3279 49.4879 48.9082 49.4879C49.0521 49.4879 49.2073 49.4969 49.3738 49.5149C49.5402 49.5329 49.6864 49.5576 49.8123 49.5891V52.1396C49.6774 52.0991 49.4907 52.0631 49.2523 52.0316C49.0139 52.0001 48.7958 51.9844 48.5978 51.9844C48.175 51.9844 47.7972 52.0766 47.4643 52.261C47.1359 52.4409 46.8751 52.6928 46.6816 53.0167C46.4927 53.3406 46.3983 53.7139 46.3983 54.1367V60H43.524ZM53.9568 60.1957C53.2955 60.1957 52.7063 60.081 52.189 59.8516C51.6717 59.6177 51.2624 59.2736 50.961 58.8192C50.6642 58.3604 50.5157 57.7892 50.5157 57.1055C50.5157 56.5297 50.6214 56.0462 50.8328 55.6548C51.0442 55.2635 51.3321 54.9486 51.6965 54.7102C52.0608 54.4718 52.4746 54.2919 52.9379 54.1705C53.4057 54.049 53.896 53.9635 54.4088 53.9141C55.0116 53.8511 55.4974 53.7926 55.8662 53.7386C56.2351 53.6802 56.5027 53.5947 56.6691 53.4822C56.8356 53.3698 56.9188 53.2034 56.9188 52.983V52.9425C56.9188 52.5152 56.7838 52.1845 56.5139 51.9506C56.2486 51.7167 55.8707 51.5998 55.3804 51.5998C54.8631 51.5998 54.4516 51.7145 54.1457 51.9439C53.8398 52.1688 53.6374 52.4522 53.5384 52.794L50.8801 52.5781C51.015 51.9484 51.2804 51.4041 51.6762 50.9453C52.0721 50.482 52.5826 50.1267 53.2078 49.8793C53.8376 49.6274 54.5663 49.5014 55.3939 49.5014C55.9697 49.5014 56.5207 49.5689 57.047 49.7038C57.5777 49.8388 58.0478 50.0479 58.4571 50.3313C58.8709 50.6147 59.1971 50.979 59.4355 51.4244C59.6739 51.8652 59.7931 52.3937 59.7931 53.0099V60H57.0672V58.5629H56.9862C56.8198 58.8867 56.5972 59.1723 56.3183 59.4197C56.0394 59.6626 55.7043 59.8538 55.3129 59.9933C54.9216 60.1282 54.4695 60.1957 53.9568 60.1957ZM54.7799 58.212C55.2027 58.212 55.5761 58.1288 55.8999 57.9624C56.2238 57.7914 56.478 57.562 56.6624 57.2741C56.8468 56.9863 56.939 56.6602 56.939 56.2958V55.196C56.849 55.2545 56.7253 55.3085 56.5679 55.358C56.415 55.4029 56.2418 55.4457 56.0484 55.4862C55.855 55.5221 55.6615 55.5559 55.4681 55.5874C55.2747 55.6143 55.0993 55.6391 54.9419 55.6616C54.6045 55.7111 54.3099 55.7898 54.058 55.8977C53.8061 56.0057 53.6104 56.1519 53.471 56.3363C53.3315 56.5162 53.2618 56.7411 53.2618 57.011C53.2618 57.4023 53.4035 57.7015 53.6869 57.9084C53.9748 58.1108 54.3391 58.212 54.7799 58.212ZM67.5354 49.6364V51.7955H61.2943V49.6364H67.5354ZM62.7112 47.1534H65.5855V56.8153C65.5855 57.0807 65.626 57.2876 65.7069 57.4361C65.7879 57.58 65.9004 57.6812 66.0443 57.7397C66.1927 57.7982 66.3637 57.8274 66.5571 57.8274C66.692 57.8274 66.827 57.8162 66.9619 57.7937C67.0969 57.7667 67.2003 57.7464 67.2723 57.733L67.7243 59.8718C67.5804 59.9168 67.378 59.9685 67.1171 60.027C66.8562 60.09 66.5391 60.1282 66.1657 60.1417C65.473 60.1687 64.8658 60.0765 64.344 59.8651C63.8267 59.6536 63.4242 59.3253 63.1363 58.88C62.8484 58.4347 62.7067 57.8724 62.7112 57.1932V47.1534ZM74.0194 60.2024C72.9534 60.2024 72.0358 59.9865 71.2666 59.5547C70.5019 59.1184 69.9127 58.5021 69.4988 57.706C69.085 56.9053 68.8781 55.9585 68.8781 54.8654C68.8781 53.7994 69.085 52.8638 69.4988 52.0586C69.9127 51.2534 70.4952 50.6259 71.2464 50.1761C72.002 49.7263 72.8882 49.5014 73.9047 49.5014C74.5885 49.5014 75.2249 49.6116 75.8142 49.832C76.4079 50.0479 76.9252 50.3741 77.366 50.8104C77.8113 51.2467 78.1577 51.7955 78.4051 52.4567C78.6525 53.1134 78.7762 53.8826 78.7762 54.7642V55.5536H70.0251V53.7724H76.0706C76.0706 53.3585 75.9806 52.992 75.8007 52.6726C75.6208 52.3532 75.3711 52.1036 75.0518 51.9237C74.7369 51.7392 74.3703 51.647 73.952 51.647C73.5157 51.647 73.1288 51.7482 72.7915 51.9506C72.4586 52.1486 72.1977 52.4162 72.0088 52.7536C71.8199 53.0864 71.7232 53.4575 71.7187 53.8668V55.5604C71.7187 56.0732 71.8131 56.5162 72.002 56.8896C72.1955 57.2629 72.4676 57.5508 72.8184 57.7532C73.1693 57.9556 73.5854 58.0568 74.0667 58.0568C74.386 58.0568 74.6784 58.0118 74.9438 57.9219C75.2092 57.8319 75.4363 57.697 75.6253 57.517C75.8142 57.3371 75.9581 57.1167 76.0571 56.8558L78.7155 57.0312C78.5805 57.67 78.3039 58.2277 77.8856 58.7045C77.4717 59.1768 76.9365 59.5457 76.2797 59.8111C75.6275 60.072 74.8741 60.2024 74.0194 60.2024ZM72.805 48.3004L74.2354 45.2305H76.8937L74.8358 48.3004H72.805ZM85.3209 64.1023C84.3898 64.1023 83.5914 63.9741 82.9257 63.7177C82.2645 63.4658 81.7382 63.1217 81.3469 62.6854C80.9555 62.2491 80.7014 61.7588 80.5844 61.2145L83.2428 60.8569C83.3238 61.0638 83.452 61.2572 83.6274 61.4371C83.8028 61.6171 84.0345 61.761 84.3224 61.869C84.6147 61.9814 84.9701 62.0376 85.3884 62.0376C86.0136 62.0376 86.5287 61.8847 86.9335 61.5788C87.3428 61.2775 87.5475 60.7714 87.5475 60.0607V58.1648H87.426C87.3001 58.4527 87.1112 58.7248 86.8593 58.9812C86.6074 59.2376 86.2835 59.4467 85.8877 59.6087C85.4919 59.7706 85.0196 59.8516 84.4708 59.8516C83.6926 59.8516 82.9842 59.6716 82.3454 59.3118C81.7112 58.9474 81.2052 58.3919 80.8273 57.6452C80.454 56.8941 80.2673 55.945 80.2673 54.7979C80.2673 53.6239 80.4585 52.6433 80.8408 51.8562C81.2232 51.069 81.7314 50.4798 82.3657 50.0884C83.0044 49.6971 83.7039 49.5014 84.464 49.5014C85.0443 49.5014 85.5301 49.6004 85.9214 49.7983C86.3128 49.9917 86.6276 50.2346 86.866 50.527C87.1089 50.8149 87.2956 51.0982 87.426 51.3771H87.534V49.6364H90.3881V60.1012C90.3881 60.9828 90.1721 61.7205 89.7403 62.3143C89.3085 62.908 88.7103 63.3533 87.9456 63.6502C87.1854 63.9516 86.3105 64.1023 85.3209 64.1023ZM85.3817 57.6925C85.845 57.6925 86.2363 57.5778 86.5557 57.3484C86.8795 57.1145 87.1269 56.7816 87.2979 56.3498C87.4733 55.9135 87.561 55.3917 87.561 54.7844C87.561 54.1772 87.4755 53.6509 87.3046 53.2056C87.1337 52.7558 86.8863 52.4072 86.5624 52.1598C86.2385 51.9124 85.845 51.7887 85.3817 51.7887C84.9094 51.7887 84.5113 51.9169 84.1874 52.1733C83.8635 52.4252 83.6184 52.776 83.452 53.2259C83.2855 53.6757 83.2023 54.1952 83.2023 54.7844C83.2023 55.3827 83.2855 55.9 83.452 56.3363C83.6229 56.7681 83.868 57.1032 84.1874 57.3416C84.5113 57.5755 84.9094 57.6925 85.3817 57.6925ZM92.6753 60V49.6364H95.5496V60H92.6753ZM94.1192 48.3004C93.6919 48.3004 93.3253 48.1587 93.0194 47.8754C92.7181 47.5875 92.5674 47.2434 92.5674 46.843C92.5674 46.4472 92.7181 46.1076 93.0194 45.8242C93.3253 45.5363 93.6919 45.3924 94.1192 45.3924C94.5465 45.3924 94.9109 45.5363 95.2123 45.8242C95.5181 46.1076 95.6711 46.4472 95.6711 46.843C95.6711 47.2434 95.5181 47.5875 95.2123 47.8754C94.9109 48.1587 94.5465 48.3004 94.1192 48.3004ZM102.575 60.2024C101.509 60.2024 100.591 59.9865 99.8223 59.5547C99.0576 59.1184 98.4683 58.5021 98.0545 57.706C97.6407 56.9053 97.4338 55.9585 97.4338 54.8654C97.4338 53.7994 97.6407 52.8638 98.0545 52.0586C98.4683 51.2534 99.0508 50.6259 99.802 50.1761C100.558 49.7263 101.444 49.5014 102.46 49.5014C103.144 49.5014 103.781 49.6116 104.37 49.832C104.964 50.0479 105.481 50.3741 105.922 50.8104C106.367 51.2467 106.713 51.7955 106.961 52.4567C107.208 53.1134 107.332 53.8826 107.332 54.7642V55.5536H98.5808V53.7724H104.626C104.626 53.3585 104.536 52.992 104.356 52.6726C104.176 52.3532 103.927 52.1036 103.607 51.9237C103.293 51.7392 102.926 51.647 102.508 51.647C102.071 51.647 101.684 51.7482 101.347 51.9506C101.014 52.1486 100.753 52.4162 100.564 52.7536C100.376 53.0864 100.279 53.4575 100.274 53.8668V55.5604C100.274 56.0732 100.369 56.5162 100.558 56.8896C100.751 57.2629 101.023 57.5508 101.374 57.7532C101.725 57.9556 102.141 58.0568 102.622 58.0568C102.942 58.0568 103.234 58.0118 103.499 57.9219C103.765 57.8319 103.992 57.697 104.181 57.517C104.37 57.3371 104.514 57.1167 104.613 56.8558L107.271 57.0312C107.136 57.67 106.86 58.2277 106.441 58.7045C106.027 59.1768 105.492 59.5457 104.835 59.8111C104.183 60.072 103.43 60.2024 102.575 60.2024ZM24.8681 83.2024C23.802 83.2024 22.8844 82.9865 22.1152 82.5547C21.3506 82.1184 20.7613 81.5021 20.3475 80.706C19.9337 79.9053 19.7267 78.9585 19.7267 77.8654C19.7267 76.7994 19.9337 75.8638 20.3475 75.0586C20.7613 74.2534 21.3438 73.6259 22.095 73.1761C22.8507 72.7263 23.7368 72.5014 24.7534 72.5014C25.4371 72.5014 26.0736 72.6116 26.6628 72.832C27.2566 73.0479 27.7739 73.3741 28.2147 73.8104C28.66 74.2467 29.0063 74.7955 29.2537 75.4567C29.5011 76.1134 29.6248 76.8826 29.6248 77.7642V78.5536H20.8738V76.7724H26.9192C26.9192 76.3585 26.8292 75.992 26.6493 75.6726C26.4694 75.3532 26.2198 75.1036 25.9004 74.9237C25.5855 74.7392 25.2189 74.647 24.8006 74.647C24.3643 74.647 23.9775 74.7482 23.6401 74.9506C23.3072 75.1486 23.0463 75.4162 22.8574 75.7536C22.6685 76.0864 22.5718 76.4575 22.5673 76.8668V78.5604C22.5673 79.0732 22.6618 79.5162 22.8507 79.8896C23.0441 80.2629 23.3162 80.5508 23.6671 80.7532C24.0179 80.9556 24.434 81.0568 24.9153 81.0568C25.2347 81.0568 25.527 81.0118 25.7924 80.9219C26.0578 80.8319 26.285 80.697 26.4739 80.517C26.6628 80.3371 26.8068 80.1167 26.9057 79.8558L29.5641 80.0312C29.4292 80.67 29.1525 81.2277 28.7342 81.7045C28.3204 82.1768 27.7851 82.5457 27.1284 82.8111C26.4761 83.072 25.7227 83.2024 24.8681 83.2024ZM37.013 72.6364V74.7955H30.7718V72.6364H37.013ZM32.1887 70.1534H35.063V79.8153C35.063 80.0807 35.1035 80.2876 35.1845 80.4361C35.2654 80.58 35.3779 80.6812 35.5218 80.7397C35.6703 80.7982 35.8412 80.8274 36.0346 80.8274C36.1696 80.8274 36.3045 80.8162 36.4395 80.7937C36.5744 80.7667 36.6779 80.7464 36.7498 80.733L37.2019 82.8718C37.0579 82.9168 36.8555 82.9685 36.5946 83.027C36.3337 83.09 36.0166 83.1282 35.6433 83.1417C34.9506 83.1687 34.3433 83.0765 33.8216 82.8651C33.3043 82.6536 32.9017 82.3253 32.6138 81.88C32.3259 81.4347 32.1842 80.8724 32.1887 80.1932V70.1534ZM51.9056 75.5916L49.2742 75.7536C49.2293 75.5286 49.1325 75.3262 48.9841 75.1463C48.8357 74.9619 48.64 74.8157 48.3971 74.7077C48.1587 74.5953 47.8731 74.5391 47.5402 74.5391C47.0949 74.5391 46.7193 74.6335 46.4134 74.8224C46.1076 75.0069 45.9546 75.2543 45.9546 75.5646C45.9546 75.812 46.0536 76.0212 46.2515 76.1921C46.4494 76.363 46.789 76.5002 47.2703 76.6037L49.146 76.9815C50.1536 77.1884 50.9048 77.5213 51.3996 77.9801C51.8944 78.4389 52.1418 79.0417 52.1418 79.7884C52.1418 80.4676 51.9416 81.0636 51.5413 81.5763C51.1454 82.0891 50.6012 82.4895 49.9085 82.7773C49.2203 83.0607 48.4263 83.2024 47.5267 83.2024C46.1548 83.2024 45.0618 82.9168 44.2476 82.3455C43.4379 81.7698 42.9634 80.9871 42.824 79.9975L45.651 79.8491C45.7365 80.2674 45.9434 80.5868 46.2718 80.8072C46.6001 81.0231 47.0207 81.131 47.5335 81.131C48.0373 81.131 48.4421 81.0343 48.748 80.8409C49.0583 80.643 49.2158 80.3888 49.2203 80.0785C49.2158 79.8176 49.1056 79.6039 48.8896 79.4375C48.6737 79.2666 48.3409 79.1361 47.8911 79.0462L46.0963 78.6886C45.0843 78.4862 44.3308 78.1353 43.836 77.636C43.3457 77.1367 43.1006 76.5002 43.1006 75.7266C43.1006 75.0608 43.2805 74.4873 43.6404 74.006C44.0047 73.5247 44.5152 73.1536 45.172 72.8928C45.8332 72.6319 46.6069 72.5014 47.493 72.5014C48.8019 72.5014 49.832 72.7781 50.5832 73.3313C51.3389 73.8846 51.7797 74.638 51.9056 75.5916ZM60.5977 78.5874V72.6364H63.4719V83H60.7124V81.1175H60.6044C60.3705 81.7248 59.9814 82.2128 59.4371 82.5817C58.8974 82.9505 58.2384 83.1349 57.4602 83.1349C56.7675 83.1349 56.158 82.9775 55.6317 82.6626C55.1055 82.3478 54.6939 81.9002 54.397 81.32C54.1046 80.7397 53.9562 80.0447 53.9517 79.2351V72.6364H56.826V78.7223C56.8305 79.334 56.9947 79.8176 57.3185 80.1729C57.6424 80.5283 58.0765 80.706 58.6207 80.706C58.9671 80.706 59.291 80.6272 59.5923 80.4698C59.8937 80.3079 60.1366 80.0695 60.321 79.7546C60.5099 79.4397 60.6022 79.0507 60.5977 78.5874ZM65.771 86.8864V72.6364H68.6048V74.3771H68.733C68.859 74.0982 69.0412 73.8149 69.2796 73.527C69.5225 73.2346 69.8373 72.9917 70.2242 72.7983C70.6155 72.6004 71.1013 72.5014 71.6816 72.5014C72.4372 72.5014 73.1344 72.6993 73.7732 73.0952C74.4119 73.4865 74.9224 74.078 75.3048 74.8697C75.6871 75.6568 75.8783 76.6442 75.8783 77.8317C75.8783 78.9877 75.6916 79.9638 75.3183 80.7599C74.9494 81.5516 74.4456 82.1521 73.8069 82.5614C73.1727 82.9663 72.462 83.1687 71.6748 83.1687C71.117 83.1687 70.6425 83.0765 70.2512 82.892C69.8643 82.7076 69.5472 82.476 69.2998 82.1971C69.0524 81.9137 68.8635 81.6281 68.733 81.3402H68.6453V86.8864H65.771ZM68.5846 77.8182C68.5846 78.4344 68.6701 78.9719 68.841 79.4308C69.0119 79.8896 69.2593 80.2472 69.5832 80.5036C69.907 80.7554 70.3006 80.8814 70.7639 80.8814C71.2317 80.8814 71.6276 80.7532 71.9514 80.4968C72.2753 80.2359 72.5204 79.8761 72.6869 79.4173C72.8578 78.954 72.9433 78.4209 72.9433 77.8182C72.9433 77.2199 72.8601 76.6937 72.6936 76.2393C72.5272 75.785 72.282 75.4297 71.9582 75.1733C71.6343 74.9169 71.2362 74.7887 70.7639 74.7887C70.2961 74.7887 69.9003 74.9124 69.5764 75.1598C69.2571 75.4072 69.0119 75.758 68.841 76.2124C68.6701 76.6667 68.5846 77.2019 68.5846 77.8182ZM77.7945 86.8864V72.6364H80.6283V74.3771H80.7565C80.8824 74.0982 81.0646 73.8149 81.303 73.527C81.5459 73.2346 81.8608 72.9917 82.2476 72.7983C82.6389 72.6004 83.1247 72.5014 83.705 72.5014C84.4607 72.5014 85.1579 72.6993 85.7966 73.0952C86.4353 73.4865 86.9459 74.078 87.3282 74.8697C87.7106 75.6568 87.9017 76.6442 87.9017 77.8317C87.9017 78.9877 87.7151 79.9638 87.3417 80.7599C86.9729 81.5516 86.4691 82.1521 85.8303 82.5614C85.1961 82.9663 84.4854 83.1687 83.6982 83.1687C83.1405 83.1687 82.6659 83.0765 82.2746 82.892C81.8878 82.7076 81.5706 82.476 81.3232 82.1971C81.0758 81.9137 80.8869 81.6281 80.7565 81.3402H80.6688V86.8864H77.7945ZM80.608 77.8182C80.608 78.4344 80.6935 78.9719 80.8644 79.4308C81.0354 79.8896 81.2828 80.2472 81.6066 80.5036C81.9305 80.7554 82.3241 80.8814 82.7874 80.8814C83.2552 80.8814 83.651 80.7532 83.9749 80.4968C84.2987 80.2359 84.5439 79.8761 84.7103 79.4173C84.8812 78.954 84.9667 78.4209 84.9667 77.8182C84.9667 77.2199 84.8835 76.6937 84.7171 76.2393C84.5506 75.785 84.3055 75.4297 83.9816 75.1733C83.6578 74.9169 83.2597 74.7887 82.7874 74.7887C82.3196 74.7887 81.9237 74.9124 81.5999 75.1598C81.2805 75.4072 81.0354 75.758 80.8644 76.2124C80.6935 76.6667 80.608 77.2019 80.608 77.8182ZM94.5004 83.2024C93.4524 83.2024 92.546 82.9798 91.7813 82.5344C91.0212 82.0846 90.4342 81.4594 90.0203 80.6587C89.6065 79.8536 89.3996 78.9202 89.3996 77.8587C89.3996 76.7881 89.6065 75.8525 90.0203 75.0518C90.4342 74.2467 91.0212 73.6214 91.7813 73.1761C92.546 72.7263 93.4524 72.5014 94.5004 72.5014C95.5485 72.5014 96.4526 72.7263 97.2128 73.1761C97.9775 73.6214 98.5667 74.2467 98.9806 75.0518C99.3944 75.8525 99.6013 76.7881 99.6013 77.8587C99.6013 78.9202 99.3944 79.8536 98.9806 80.6587C98.5667 81.4594 97.9775 82.0846 97.2128 82.5344C96.4526 82.9798 95.5485 83.2024 94.5004 83.2024ZM94.5139 80.9759C94.9907 80.9759 95.3888 80.8409 95.7082 80.571C96.0276 80.2966 96.2682 79.9233 96.4301 79.451C96.5966 78.9787 96.6798 78.4412 96.6798 77.8384C96.6798 77.2357 96.5966 76.6982 96.4301 76.2259C96.2682 75.7536 96.0276 75.3802 95.7082 75.1058C95.3888 74.8314 94.9907 74.6942 94.5139 74.6942C94.0326 74.6942 93.6278 74.8314 93.2994 75.1058C92.9756 75.3802 92.7304 75.7536 92.564 76.2259C92.4021 76.6982 92.3211 77.2357 92.3211 77.8384C92.3211 78.4412 92.4021 78.9787 92.564 79.451C92.7304 79.9233 92.9756 80.2966 93.2994 80.571C93.6278 80.8409 94.0326 80.9759 94.5139 80.9759ZM101.47 83V72.6364H104.257V74.4446H104.365C104.554 73.8014 104.871 73.3156 105.316 72.9872C105.761 72.6544 106.274 72.4879 106.854 72.4879C106.998 72.4879 107.154 72.4969 107.32 72.5149C107.486 72.5329 107.633 72.5576 107.759 72.5891V75.1396C107.624 75.0991 107.437 75.0631 107.199 75.0316C106.96 75.0001 106.742 74.9844 106.544 74.9844C106.121 74.9844 105.743 75.0766 105.411 75.261C105.082 75.4409 104.821 75.6928 104.628 76.0167C104.439 76.3406 104.345 76.7139 104.345 77.1367V83H101.47ZM115.277 72.6364V74.7955H109.036V72.6364H115.277ZM110.452 70.1534H113.327V79.8153C113.327 80.0807 113.367 80.2876 113.448 80.4361C113.529 80.58 113.642 80.6812 113.786 80.7397C113.934 80.7982 114.105 80.8274 114.298 80.8274C114.433 80.8274 114.568 80.8162 114.703 80.7937C114.838 80.7667 114.942 80.7464 115.013 80.733L115.466 82.8718C115.322 82.9168 115.119 82.9685 114.858 83.027C114.597 83.09 114.28 83.1282 113.907 83.1417C113.214 83.1687 112.607 83.0765 112.085 82.8651C111.568 82.6536 111.165 82.3253 110.877 81.88C110.59 81.4347 110.448 80.8724 110.452 80.1932V70.1534ZM27.2439 95.6364V97.7955H21.0028V95.6364H27.2439ZM22.4197 93.1534H25.294V102.815C25.294 103.081 25.3345 103.288 25.4154 103.436C25.4964 103.58 25.6089 103.681 25.7528 103.74C25.9012 103.798 26.0722 103.827 26.2656 103.827C26.4005 103.827 26.5355 103.816 26.6704 103.794C26.8054 103.767 26.9088 103.746 26.9808 103.733L27.4328 105.872C27.2889 105.917 27.0865 105.969 26.8256 106.027C26.5647 106.09 26.2476 106.128 25.8742 106.142C25.1815 106.169 24.5743 106.076 24.0525 105.865C23.5352 105.654 23.1326 105.325 22.8448 104.88C22.5569 104.435 22.4152 103.872 22.4197 103.193V93.1534ZM33.7279 106.202C32.6619 106.202 31.7443 105.987 30.9751 105.555C30.2104 105.118 29.6212 104.502 29.2073 103.706C28.7935 102.905 28.5866 101.958 28.5866 100.865C28.5866 99.7994 28.7935 98.8638 29.2073 98.0586C29.6212 97.2534 30.2037 96.6259 30.9549 96.1761C31.7105 95.7263 32.5967 95.5014 33.6132 95.5014C34.2969 95.5014 34.9334 95.6116 35.5227 95.832C36.1164 96.0479 36.6337 96.3741 37.0745 96.8104C37.5198 97.2467 37.8662 97.7955 38.1136 98.4567C38.361 99.1134 38.4847 99.8826 38.4847 100.764V101.554H29.7336V99.7724H35.7791C35.7791 99.3585 35.6891 98.992 35.5092 98.6726C35.3293 98.3532 35.0796 98.1036 34.7603 97.9237C34.4454 97.7392 34.0788 97.647 33.6605 97.647C33.2242 97.647 32.8373 97.7482 32.5 97.9506C32.1671 98.1486 31.9062 98.4162 31.7173 98.7536C31.5284 99.0864 31.4317 99.4575 31.4272 99.8668V101.56C31.4272 102.073 31.5216 102.516 31.7105 102.89C31.904 103.263 32.1761 103.551 32.5269 103.753C32.8778 103.956 33.2939 104.057 33.7752 104.057C34.0945 104.057 34.3869 104.012 34.6523 103.922C34.9177 103.832 35.1448 103.697 35.3338 103.517C35.5227 103.337 35.6666 103.117 35.7656 102.856L38.424 103.031C38.289 103.67 38.0124 104.228 37.5941 104.705C37.1802 105.177 36.645 105.546 35.9882 105.811C35.336 106.072 34.5826 106.202 33.7279 106.202ZM45.0429 106.202C43.9814 106.202 43.0683 105.978 42.3036 105.528C41.5434 105.073 40.9586 104.444 40.5493 103.638C40.1445 102.833 39.9421 101.907 39.9421 100.859C39.9421 99.7971 40.1467 98.866 40.5561 98.0653C40.9699 97.2602 41.5569 96.6327 42.3171 96.1829C43.0773 95.7286 43.9814 95.5014 45.0294 95.5014C45.9335 95.5014 46.7252 95.6656 47.4044 95.994C48.0836 96.3223 48.6212 96.7834 49.017 97.3771C49.4128 97.9709 49.631 98.6681 49.6715 99.4688H46.9591C46.8826 98.9515 46.6802 98.5354 46.3519 98.2205C46.028 97.9012 45.6029 97.7415 45.0767 97.7415C44.6313 97.7415 44.2423 97.8629 43.9094 98.1058C43.581 98.3442 43.3246 98.6928 43.1402 99.1516C42.9558 99.6104 42.8636 100.166 42.8636 100.818C42.8636 101.479 42.9536 102.042 43.1335 102.505C43.3179 102.968 43.5765 103.321 43.9094 103.564C44.2423 103.807 44.6313 103.929 45.0767 103.929C45.405 103.929 45.6996 103.861 45.9605 103.726C46.2259 103.591 46.4441 103.396 46.615 103.139C46.7904 102.878 46.9051 102.566 46.9591 102.201H49.6715C49.6265 102.993 49.4106 103.69 49.0237 104.293C48.6414 104.891 48.1129 105.359 47.4382 105.696C46.7635 106.034 45.965 106.202 45.0429 106.202ZM54.3861 100.009V106H51.5118V92.1818H54.3051V97.4648H54.4265C54.6604 96.8531 55.0383 96.3741 55.5601 96.0277C56.0818 95.6768 56.7363 95.5014 57.5235 95.5014C58.2432 95.5014 58.8707 95.6589 59.4059 95.9737C59.9457 96.2841 60.364 96.7317 60.6609 97.3164C60.9623 97.8967 61.1107 98.5916 61.1062 99.4013V106H58.2319V99.9141C58.2364 99.2753 58.0745 98.7783 57.7461 98.4229C57.4223 98.0676 56.968 97.8899 56.3832 97.8899C55.9919 97.8899 55.6455 97.9731 55.3441 98.1396C55.0473 98.306 54.8134 98.5489 54.6424 98.8683C54.476 99.1831 54.3906 99.5632 54.3861 100.009ZM66.2425 100.009V106H63.3682V95.6364H66.1076V97.4648H66.229C66.4584 96.8621 66.843 96.3853 67.3828 96.0344C67.9225 95.6791 68.577 95.5014 69.3462 95.5014C70.0659 95.5014 70.6934 95.6589 71.2286 95.9737C71.7639 96.2886 72.18 96.7384 72.4769 97.3232C72.7737 97.9034 72.9222 98.5961 72.9222 99.4013V106H70.0479V99.9141C70.0524 99.2798 69.8905 98.785 69.5621 98.4297C69.2337 98.0698 68.7817 97.8899 68.2059 97.8899C67.8191 97.8899 67.4772 97.9731 67.1804 98.1396C66.888 98.306 66.6586 98.5489 66.4921 98.8683C66.3302 99.1831 66.247 99.5632 66.2425 100.009ZM75.1875 106V95.6364H78.0618V106H75.1875ZM76.6314 94.3004C76.2041 94.3004 75.8375 94.1587 75.5316 93.8754C75.2303 93.5875 75.0796 93.2434 75.0796 92.843C75.0796 92.4472 75.2303 92.1076 75.5316 91.8242C75.8375 91.5363 76.2041 91.3924 76.6314 91.3924C77.0588 91.3924 77.4231 91.5363 77.7245 91.8242C78.0303 92.1076 78.1833 92.4472 78.1833 92.843C78.1833 93.2434 78.0303 93.5875 77.7245 93.8754C77.4231 94.1587 77.0588 94.3004 76.6314 94.3004ZM87.2127 109.886V104.34H87.125C86.99 104.628 86.7988 104.914 86.5514 105.197C86.3085 105.476 85.9914 105.708 85.6001 105.892C85.2133 106.076 84.741 106.169 84.1832 106.169C83.396 106.169 82.6831 105.966 82.0443 105.561C81.4101 105.152 80.9063 104.552 80.533 103.76C80.1641 102.964 79.9797 101.988 79.9797 100.832C79.9797 99.6442 80.1709 98.6568 80.5532 97.8697C80.9356 97.078 81.4438 96.4865 82.0781 96.0952C82.7168 95.6993 83.4163 95.5014 84.1764 95.5014C84.7567 95.5014 85.2402 95.6004 85.6271 95.7983C86.0184 95.9917 86.3333 96.2346 86.5717 96.527C86.8146 96.8149 86.999 97.0982 87.125 97.3771H87.2464V95.6364H90.0802V109.886H87.2127ZM85.0941 103.881C85.5574 103.881 85.9487 103.755 86.2681 103.504C86.5919 103.247 86.8393 102.89 87.0103 102.431C87.1857 101.972 87.2734 101.434 87.2734 100.818C87.2734 100.202 87.1879 99.6667 87.017 99.2124C86.8461 98.758 86.5987 98.4072 86.2748 98.1598C85.951 97.9124 85.5574 97.7887 85.0941 97.7887C84.6218 97.7887 84.2237 97.9169 83.8998 98.1733C83.576 98.4297 83.3308 98.785 83.1644 99.2393C82.9979 99.6937 82.9147 100.22 82.9147 100.818C82.9147 101.421 82.9979 101.954 83.1644 102.417C83.3353 102.876 83.5804 103.236 83.8998 103.497C84.2237 103.753 84.6218 103.881 85.0941 103.881ZM99.0337 101.587V95.6364H101.908V106H99.1484V104.118H99.0404C98.8065 104.725 98.4175 105.213 97.8732 105.582C97.3334 105.951 96.6744 106.135 95.8963 106.135C95.2036 106.135 94.5941 105.978 94.0678 105.663C93.5415 105.348 93.1299 104.9 92.8331 104.32C92.5407 103.74 92.3922 103.045 92.3877 102.235V95.6364H95.262V101.722C95.2665 102.334 95.4307 102.818 95.7546 103.173C96.0784 103.528 96.5125 103.706 97.0568 103.706C97.4031 103.706 97.727 103.627 98.0284 103.47C98.3297 103.308 98.5726 103.069 98.7571 102.755C98.946 102.44 99.0382 102.051 99.0337 101.587ZM108.93 106.202C107.864 106.202 106.946 105.987 106.177 105.555C105.413 105.118 104.823 104.502 104.409 103.706C103.996 102.905 103.789 101.958 103.789 100.865C103.789 99.7994 103.996 98.8638 104.409 98.0586C104.823 97.2534 105.406 96.6259 106.157 96.1761C106.913 95.7263 107.799 95.5014 108.815 95.5014C109.499 95.5014 110.136 95.6116 110.725 95.832C111.319 96.0479 111.836 96.3741 112.277 96.8104C112.722 97.2467 113.068 97.7955 113.316 98.4567C113.563 99.1134 113.687 99.8826 113.687 100.764V101.554H104.936V99.7724H110.981C110.981 99.3585 110.891 98.992 110.711 98.6726C110.531 98.3532 110.282 98.1036 109.962 97.9237C109.648 97.7392 109.281 97.647 108.863 97.647C108.426 97.647 108.039 97.7482 107.702 97.9506C107.369 98.1486 107.108 98.4162 106.919 98.7536C106.731 99.0864 106.634 99.4575 106.629 99.8668V101.56C106.629 102.073 106.724 102.516 106.913 102.89C107.106 103.263 107.378 103.551 107.729 103.753C108.08 103.956 108.496 104.057 108.977 104.057C109.297 104.057 109.589 104.012 109.854 103.922C110.12 103.832 110.347 103.697 110.536 103.517C110.725 103.337 110.869 103.117 110.968 102.856L113.626 103.031C113.491 103.67 113.215 104.228 112.796 104.705C112.382 105.177 111.847 105.546 111.19 105.811C110.538 106.072 109.785 106.202 108.93 106.202Z" fill="#00CACC"/>
<defs>
<linearGradient id="paint0_linear_271_69" x1="101.765" y1="20.8974" x2="32.054" y2="133.33" gradientUnits="userSpaceOnUse">
<stop stop-color="#00CACC" stop-opacity="0.2"/>
<stop offset="0.48" stop-color="#0089CC" stop-opacity="0.1"/>
<stop offset="1" stop-color="#1F26BD" stop-opacity="0.1"/>
</linearGradient>
<linearGradient id="paint1_linear_271_69" x1="102.571" y1="19.5971" x2="31.253" y2="134.622" gradientUnits="userSpaceOnUse">
<stop stop-color="#00CACC"/>
<stop offset="0.48" stop-color="#0089CC"/>
<stop offset="0.58" stop-color="#047BCA"/>
<stop offset="0.77" stop-color="#0E59C4"/>
<stop offset="1" stop-color="#1F26BD"/>
</linearGradient>
</defs>
</svg>
