<svg width="134" height="154" viewBox="0 0 134 154" fill="none" xmlns="http://www.w3.org/2000/svg">
<path d="M2 39.53L67 2L132 39.53V114.58L67 152.11L2 114.58V39.53Z" fill="url(#paint0_linear_237_110)" stroke="url(#paint1_linear_237_110)" stroke-width="3" stroke-miterlimit="10"/>
<path d="M28.7045 85H22.517V67.5455H28.7557C30.5114 67.5455 32.0227 67.8949 33.2898 68.5938C34.5568 69.2869 35.5313 70.2841 36.2131 71.5852C36.9006 72.8864 37.2443 74.4432 37.2443 76.2557C37.2443 78.0739 36.9006 79.6364 36.2131 80.9432C35.5313 82.25 34.5511 83.2528 33.2727 83.9517C32 84.6506 30.4773 85 28.7045 85ZM26.2074 81.8381H28.5511C29.642 81.8381 30.5597 81.6449 31.304 81.2585C32.054 80.8665 32.6165 80.2614 32.9915 79.4432C33.3722 78.6193 33.5625 77.5568 33.5625 76.2557C33.5625 74.9659 33.3722 73.9119 32.9915 73.0938C32.6165 72.2756 32.0568 71.6733 31.3125 71.2869C30.5682 70.9006 29.6506 70.7074 28.5597 70.7074H26.2074V81.8381ZM45.8757 85.2557C44.5291 85.2557 43.37 84.983 42.3984 84.4375C41.4325 83.8864 40.6882 83.108 40.1655 82.1023C39.6428 81.0909 39.3814 79.8949 39.3814 78.5142C39.3814 77.1676 39.6428 75.9858 40.1655 74.9688C40.6882 73.9517 41.424 73.1591 42.3729 72.5909C43.3274 72.0227 44.4467 71.7386 45.7308 71.7386C46.5945 71.7386 47.3984 71.8778 48.1428 72.1562C48.8928 72.429 49.5462 72.8409 50.103 73.392C50.6655 73.9432 51.103 74.6364 51.4155 75.4716C51.728 76.3011 51.8842 77.2727 51.8842 78.3864V79.3835H40.8303V77.1335H48.4666C48.4666 76.6108 48.353 76.1477 48.1257 75.7443C47.8984 75.3409 47.5831 75.0256 47.1797 74.7983C46.782 74.5653 46.3189 74.4489 45.7905 74.4489C45.2393 74.4489 44.7507 74.5767 44.3246 74.8324C43.9041 75.0824 43.5746 75.4205 43.3359 75.8466C43.0973 76.267 42.9751 76.7358 42.9695 77.2528V79.392C42.9695 80.0398 43.0888 80.5994 43.3274 81.071C43.5717 81.5426 43.9155 81.9062 44.3587 82.1619C44.8018 82.4176 45.3274 82.5455 45.9354 82.5455C46.3388 82.5455 46.7081 82.4886 47.0433 82.375C47.3786 82.2614 47.6655 82.0909 47.9041 81.8636C48.1428 81.6364 48.3246 81.358 48.4496 81.0284L51.8075 81.25C51.6371 82.0568 51.2876 82.7614 50.7592 83.3636C50.2365 83.9602 49.5604 84.4261 48.7308 84.7614C47.907 85.0909 46.9553 85.2557 45.8757 85.2557ZM66.1065 71.9091L61.5298 85H57.4389L52.8622 71.9091H56.6974L59.4162 81.2756H59.5526L62.2628 71.9091H66.1065ZM84.0724 76.2727C84.0724 78.1761 83.7116 79.7955 82.9901 81.1307C82.2741 82.4659 81.2969 83.4858 80.0582 84.1903C78.8253 84.8892 77.4389 85.2386 75.8991 85.2386C74.348 85.2386 72.956 84.8864 71.723 84.1818C70.4901 83.4773 69.5156 82.4574 68.7997 81.1222C68.0838 79.7869 67.7259 78.1705 67.7259 76.2727C67.7259 74.3693 68.0838 72.75 68.7997 71.4148C69.5156 70.0795 70.4901 69.0625 71.723 68.3636C72.956 67.6591 74.348 67.3068 75.8991 67.3068C77.4389 67.3068 78.8253 67.6591 80.0582 68.3636C81.2969 69.0625 82.2741 70.0795 82.9901 71.4148C83.7116 72.75 84.0724 74.3693 84.0724 76.2727ZM80.331 76.2727C80.331 75.0398 80.1463 74 79.777 73.1534C79.4134 72.3068 78.8991 71.6648 78.2344 71.2273C77.5696 70.7898 76.7912 70.571 75.8991 70.571C75.0071 70.571 74.2287 70.7898 73.5639 71.2273C72.8991 71.6648 72.3821 72.3068 72.0128 73.1534C71.6491 74 71.4673 75.0398 71.4673 76.2727C71.4673 77.5057 71.6491 78.5455 72.0128 79.392C72.3821 80.2386 72.8991 80.8807 73.5639 81.3182C74.2287 81.7557 75.0071 81.9744 75.8991 81.9744C76.7912 81.9744 77.5696 81.7557 78.2344 81.3182C78.8991 80.8807 79.4134 80.2386 79.777 79.392C80.1463 78.5455 80.331 77.5057 80.331 76.2727ZM86.7379 89.9091V71.9091H90.3175V74.108H90.4794C90.6385 73.7557 90.8686 73.3977 91.1697 73.0341C91.4766 72.6648 91.8743 72.358 92.3629 72.1136C92.8572 71.8636 93.4709 71.7386 94.2038 71.7386C95.1584 71.7386 96.0391 71.9886 96.8459 72.4886C97.6527 72.983 98.2976 73.7301 98.7805 74.7301C99.2635 75.7244 99.505 76.9716 99.505 78.4716C99.505 79.9318 99.2692 81.1648 98.7976 82.1705C98.3317 83.1705 97.6953 83.929 96.8885 84.446C96.0874 84.9574 95.1896 85.2131 94.1953 85.2131C93.4908 85.2131 92.8913 85.0966 92.397 84.8636C91.9084 84.6307 91.5078 84.3381 91.1953 83.9858C90.8828 83.6278 90.6442 83.267 90.4794 82.9034H90.3686V89.9091H86.7379ZM90.2919 78.4545C90.2919 79.233 90.3999 79.9119 90.6158 80.4915C90.8317 81.071 91.1442 81.5227 91.5533 81.8466C91.9624 82.1648 92.4595 82.3239 93.0447 82.3239C93.6357 82.3239 94.1357 82.1619 94.5447 81.8381C94.9538 81.5085 95.2635 81.054 95.4737 80.4744C95.6896 79.8892 95.7976 79.2159 95.7976 78.4545C95.7976 77.6989 95.6925 77.0341 95.4822 76.4602C95.272 75.8864 94.9624 75.4375 94.5533 75.1136C94.1442 74.7898 93.6413 74.6278 93.0447 74.6278C92.4538 74.6278 91.9538 74.7841 91.5447 75.0966C91.1413 75.4091 90.8317 75.8523 90.6158 76.4261C90.3999 77 90.2919 77.6761 90.2919 78.4545ZM112.817 75.642L109.494 75.8466C109.437 75.5625 109.315 75.3068 109.127 75.0795C108.94 74.8466 108.692 74.6619 108.386 74.5256C108.085 74.3835 107.724 74.3125 107.303 74.3125C106.741 74.3125 106.266 74.4318 105.88 74.6705C105.494 74.9034 105.3 75.2159 105.3 75.608C105.3 75.9205 105.425 76.1847 105.675 76.4006C105.925 76.6165 106.354 76.7898 106.962 76.9205L109.332 77.3977C110.604 77.6591 111.553 78.0795 112.178 78.6591C112.803 79.2386 113.116 80 113.116 80.9432C113.116 81.8011 112.863 82.554 112.357 83.2017C111.857 83.8494 111.17 84.3551 110.295 84.7188C109.425 85.0767 108.423 85.2557 107.286 85.2557C105.553 85.2557 104.173 84.8949 103.144 84.1733C102.121 83.446 101.522 82.4574 101.346 81.2074L104.917 81.0199C105.025 81.5483 105.286 81.9517 105.701 82.2301C106.116 82.5028 106.647 82.6392 107.295 82.6392C107.931 82.6392 108.442 82.517 108.829 82.2727C109.221 82.0227 109.42 81.7017 109.425 81.3097C109.42 80.9801 109.281 80.7102 109.008 80.5C108.735 80.2841 108.315 80.1193 107.746 80.0057L105.479 79.554C104.201 79.2983 103.249 78.8551 102.624 78.2244C102.005 77.5937 101.695 76.7898 101.695 75.8125C101.695 74.9716 101.923 74.2472 102.377 73.6392C102.837 73.0312 103.482 72.5625 104.312 72.233C105.147 71.9034 106.124 71.7386 107.244 71.7386C108.897 71.7386 110.198 72.0881 111.147 72.7869C112.102 73.4858 112.658 74.4375 112.817 75.642Z" fill="#00CACC"/>
<defs>
<linearGradient id="paint0_linear_237_110" x1="101.765" y1="20.8974" x2="32.054" y2="133.33" gradientUnits="userSpaceOnUse">
<stop stop-color="#00CACC" stop-opacity="0.2"/>
<stop offset="0.48" stop-color="#0089CC" stop-opacity="0.1"/>
<stop offset="1" stop-color="#1F26BD" stop-opacity="0.1"/>
</linearGradient>
<linearGradient id="paint1_linear_237_110" x1="102.571" y1="19.5971" x2="31.253" y2="134.622" gradientUnits="userSpaceOnUse">
<stop stop-color="#00CACC"/>
<stop offset="0.48" stop-color="#0089CC"/>
<stop offset="0.58" stop-color="#047BCA"/>
<stop offset="0.77" stop-color="#0E59C4"/>
<stop offset="1" stop-color="#1F26BD"/>
</linearGradient>
</defs>
</svg>
