<svg width="141" height="154" viewBox="0 0 141 154" fill="none" xmlns="http://www.w3.org/2000/svg">
<path d="M2 39.53L67 2L132 39.53V114.58L67 152.11L2 114.58V39.53Z" fill="url(#paint0_linear_237_109)" stroke="url(#paint1_linear_237_109)" stroke-width="3" stroke-miterlimit="10"/>
<path d="M13.517 86V68.5455H25.2784V71.5881H17.2074V75.7472H24.6733V78.7898H17.2074V82.9574H25.3125V86H13.517ZM31.1783 72.9091L33.5817 77.4858L36.0447 72.9091H39.7692L35.9766 79.4545L39.8714 86H36.1641L33.5817 81.4744L31.0419 86H27.2919L31.1783 79.4545L27.4283 72.9091H31.1783ZM41.9254 90.9091V72.9091H45.505V75.108H45.6669C45.826 74.7557 46.0561 74.3977 46.3572 74.0341C46.6641 73.6648 47.0618 73.358 47.5504 73.1136C48.0447 72.8636 48.6584 72.7386 49.3913 72.7386C50.3459 72.7386 51.2266 72.9886 52.0334 73.4886C52.8402 73.983 53.4851 74.7301 53.968 75.7301C54.451 76.7244 54.6925 77.9716 54.6925 79.4716C54.6925 80.9318 54.4567 82.1648 53.9851 83.1705C53.5192 84.1705 52.8828 84.929 52.076 85.446C51.2749 85.9574 50.3771 86.2131 49.3828 86.2131C48.6783 86.2131 48.0788 86.0966 47.5845 85.8636C47.0959 85.6307 46.6953 85.3381 46.3828 84.9858C46.0703 84.6278 45.8317 84.267 45.6669 83.9034H45.5561V90.9091H41.9254ZM45.4794 79.4545C45.4794 80.233 45.5874 80.9119 45.8033 81.4915C46.0192 82.071 46.3317 82.5227 46.7408 82.8466C47.1499 83.1648 47.647 83.3239 48.2322 83.3239C48.8232 83.3239 49.3232 83.1619 49.7322 82.8381C50.1413 82.5085 50.451 82.054 50.6612 81.4744C50.8771 80.8892 50.9851 80.2159 50.9851 79.4545C50.9851 78.6989 50.88 78.0341 50.6697 77.4602C50.4595 76.8864 50.1499 76.4375 49.7408 76.1136C49.3317 75.7898 48.8288 75.6278 48.2322 75.6278C47.6413 75.6278 47.1413 75.7841 46.7322 76.0966C46.3288 76.4091 46.0192 76.8523 45.8033 77.4261C45.5874 78 45.4794 78.6761 45.4794 79.4545ZM63.0788 86.2557C61.7322 86.2557 60.5732 85.983 59.6016 85.4375C58.6357 84.8864 57.8913 84.108 57.3686 83.1023C56.8459 82.0909 56.5845 80.8949 56.5845 79.5142C56.5845 78.1676 56.8459 76.9858 57.3686 75.9688C57.8913 74.9517 58.6271 74.1591 59.576 73.5909C60.5305 73.0227 61.6499 72.7386 62.9339 72.7386C63.7976 72.7386 64.6016 72.8778 65.3459 73.1562C66.0959 73.429 66.7493 73.8409 67.3061 74.392C67.8686 74.9432 68.3061 75.6364 68.6186 76.4716C68.9311 77.3011 69.0874 78.2727 69.0874 79.3864V80.3835H58.0334V78.1335H65.6697C65.6697 77.6108 65.5561 77.1477 65.3288 76.7443C65.1016 76.3409 64.7862 76.0256 64.3828 75.7983C63.9851 75.5653 63.522 75.4489 62.9936 75.4489C62.4425 75.4489 61.9538 75.5767 61.5277 75.8324C61.1072 76.0824 60.7777 76.4205 60.5391 76.8466C60.3004 77.267 60.1783 77.7358 60.1726 78.2528V80.392C60.1726 81.0398 60.2919 81.5994 60.5305 82.071C60.7749 82.5426 61.1186 82.9062 61.5618 83.1619C62.005 83.4176 62.5305 83.5455 63.1385 83.5455C63.5419 83.5455 63.9112 83.4886 64.2464 83.375C64.5817 83.2614 64.8686 83.0909 65.1072 82.8636C65.3459 82.6364 65.5277 82.358 65.6527 82.0284L69.0107 82.25C68.8402 83.0568 68.4908 83.7614 67.9624 84.3636C67.4396 84.9602 66.7635 85.4261 65.9339 85.7614C65.1101 86.0909 64.1584 86.2557 63.0788 86.2557ZM71.4567 86V72.9091H74.9766V75.1932H75.1129C75.3516 74.3807 75.7521 73.767 76.3146 73.3523C76.8771 72.9318 77.5249 72.7216 78.2578 72.7216C78.4396 72.7216 78.6357 72.733 78.8459 72.7557C79.0561 72.7784 79.2408 72.8097 79.3999 72.8494V76.071C79.2294 76.0199 78.9936 75.9744 78.6925 75.9347C78.3913 75.8949 78.1158 75.875 77.8658 75.875C77.3317 75.875 76.8544 75.9915 76.4339 76.2244C76.0192 76.4517 75.6896 76.7699 75.4453 77.179C75.2067 77.5881 75.0874 78.0597 75.0874 78.5938V86H71.4567ZM88.8963 72.9091V75.6364H81.0128V72.9091H88.8963ZM82.8026 69.7727H86.4332V81.9773C86.4332 82.3125 86.4844 82.5739 86.5866 82.7614C86.6889 82.9432 86.831 83.071 87.0128 83.1449C87.2003 83.2187 87.4162 83.2557 87.6605 83.2557C87.831 83.2557 88.0014 83.2415 88.1719 83.2131C88.3423 83.179 88.473 83.1534 88.5639 83.1364L89.1349 85.8381C88.9531 85.8949 88.6974 85.9602 88.3679 86.0341C88.0384 86.1136 87.6378 86.1619 87.1662 86.179C86.2912 86.2131 85.5241 86.0966 84.8651 85.8295C84.2116 85.5625 83.7031 85.1477 83.3395 84.5852C82.9759 84.0227 82.7969 83.3125 82.8026 82.4545V69.7727ZM91.2614 86V72.9091H94.892V86H91.2614ZM93.0852 71.2216C92.5455 71.2216 92.0824 71.0426 91.696 70.6847C91.3153 70.321 91.125 69.8864 91.125 69.3807C91.125 68.8807 91.3153 68.4517 91.696 68.0938C92.0824 67.7301 92.5455 67.5483 93.0852 67.5483C93.625 67.5483 94.0852 67.7301 94.4659 68.0938C94.8523 68.4517 95.0455 68.8807 95.0455 69.3807C95.0455 69.8864 94.8523 70.321 94.4659 70.6847C94.0852 71.0426 93.625 71.2216 93.0852 71.2216ZM108.692 76.642L105.369 76.8466C105.312 76.5625 105.19 76.3068 105.002 76.0795C104.815 75.8466 104.567 75.6619 104.261 75.5256C103.96 75.3835 103.599 75.3125 103.178 75.3125C102.616 75.3125 102.141 75.4318 101.755 75.6705C101.369 75.9034 101.175 76.2159 101.175 76.608C101.175 76.9205 101.3 77.1847 101.55 77.4006C101.8 77.6165 102.229 77.7898 102.837 77.9205L105.207 78.3977C106.479 78.6591 107.428 79.0795 108.053 79.6591C108.678 80.2386 108.991 81 108.991 81.9432C108.991 82.8011 108.738 83.554 108.232 84.2017C107.732 84.8494 107.045 85.3551 106.17 85.7188C105.3 86.0767 104.298 86.2557 103.161 86.2557C101.428 86.2557 100.048 85.8949 99.0192 85.1733C97.9964 84.446 97.397 83.4574 97.2209 82.2074L100.792 82.0199C100.9 82.5483 101.161 82.9517 101.576 83.2301C101.991 83.5028 102.522 83.6392 103.17 83.6392C103.806 83.6392 104.317 83.517 104.704 83.2727C105.096 83.0227 105.295 82.7017 105.3 82.3097C105.295 81.9801 105.156 81.7102 104.883 81.5C104.61 81.2841 104.19 81.1193 103.621 81.0057L101.354 80.554C100.076 80.2983 99.1243 79.8551 98.4993 79.2244C97.88 78.5937 97.5703 77.7898 97.5703 76.8125C97.5703 75.9716 97.7976 75.2472 98.2521 74.6392C98.7124 74.0312 99.3572 73.5625 100.187 73.233C101.022 72.9034 101.999 72.7386 103.119 72.7386C104.772 72.7386 106.073 73.0881 107.022 73.7869C107.977 74.4858 108.533 75.4375 108.692 76.642ZM117.243 86.2557C115.896 86.2557 114.737 85.983 113.766 85.4375C112.8 84.8864 112.055 84.108 111.533 83.1023C111.01 82.0909 110.749 80.8949 110.749 79.5142C110.749 78.1676 111.01 76.9858 111.533 75.9688C112.055 74.9517 112.791 74.1591 113.74 73.5909C114.695 73.0227 115.814 72.7386 117.098 72.7386C117.962 72.7386 118.766 72.8778 119.51 73.1562C120.26 73.429 120.913 73.8409 121.47 74.392C122.033 74.9432 122.47 75.6364 122.783 76.4716C123.095 77.3011 123.251 78.2727 123.251 79.3864V80.3835H112.197V78.1335H119.834C119.834 77.6108 119.72 77.1477 119.493 76.7443C119.266 76.3409 118.95 76.0256 118.547 75.7983C118.149 75.5653 117.686 75.4489 117.158 75.4489C116.607 75.4489 116.118 75.5767 115.692 75.8324C115.271 76.0824 114.942 76.4205 114.703 76.8466C114.464 77.267 114.342 77.7358 114.337 78.2528V80.392C114.337 81.0398 114.456 81.5994 114.695 82.071C114.939 82.5426 115.283 82.9062 115.726 83.1619C116.169 83.4176 116.695 83.5455 117.303 83.5455C117.706 83.5455 118.075 83.4886 118.411 83.375C118.746 83.2614 119.033 83.0909 119.271 82.8636C119.51 82.6364 119.692 82.358 119.817 82.0284L123.175 82.25C123.004 83.0568 122.655 83.7614 122.126 84.3636C121.604 84.9602 120.928 85.4261 120.098 85.7614C119.274 86.0909 118.322 86.2557 117.243 86.2557Z" fill="#00CACC"/>
<defs>
<linearGradient id="paint0_linear_237_109" x1="101.765" y1="20.8974" x2="32.054" y2="133.33" gradientUnits="userSpaceOnUse">
<stop stop-color="#00CACC" stop-opacity="0.2"/>
<stop offset="0.48" stop-color="#0089CC" stop-opacity="0.1"/>
<stop offset="1" stop-color="#1F26BD" stop-opacity="0.1"/>
</linearGradient>
<linearGradient id="paint1_linear_237_109" x1="102.571" y1="19.5971" x2="31.253" y2="134.622" gradientUnits="userSpaceOnUse">
<stop stop-color="#00CACC"/>
<stop offset="0.48" stop-color="#0089CC"/>
<stop offset="0.58" stop-color="#047BCA"/>
<stop offset="0.77" stop-color="#0E59C4"/>
<stop offset="1" stop-color="#1F26BD"/>
</linearGradient>
</defs>
</svg>
