<svg width="134" height="154" viewBox="0 0 134 154" fill="none" xmlns="http://www.w3.org/2000/svg">
<path d="M2 39.53L67 2L132 39.53V114.58L67 152.11L2 114.58V39.53Z" fill="url(#paint0_linear_271_71)" stroke="url(#paint1_linear_271_71)" stroke-width="3" stroke-miterlimit="10"/>
<path d="M29.0329 60.8926H25.3778C25.311 60.4197 25.1747 59.9996 24.9688 59.6325C24.763 59.2597 24.4987 58.9426 24.176 58.6811C23.8534 58.4196 23.4806 58.2193 23.0578 58.0803C22.6405 57.9412 22.1871 57.8716 21.6975 57.8716C20.8129 57.8716 20.0424 58.0914 19.3859 58.5309C18.7294 58.9648 18.2204 59.5991 17.8588 60.4336C17.4971 61.2625 17.3163 62.2695 17.3163 63.4545C17.3163 64.6729 17.4971 65.6966 17.8588 66.5256C18.2259 67.3545 18.7378 67.9804 19.3943 68.4032C20.0508 68.8261 20.8102 69.0375 21.6725 69.0375C22.1565 69.0375 22.6044 68.9735 23.0161 68.8455C23.4333 68.7176 23.8033 68.5312 24.126 68.2864C24.4487 68.036 24.7157 67.7328 24.9271 67.3768C25.1441 67.0207 25.2943 66.6146 25.3778 66.1584L29.0329 66.1751C28.9384 66.9595 28.7019 67.7161 28.3236 68.445C27.9508 69.1682 27.4474 69.8163 26.8131 70.3894C26.1845 70.9569 25.4334 71.4075 24.5599 71.7413C23.692 72.0695 22.7101 72.2337 21.6141 72.2337C20.0897 72.2337 18.7267 71.8887 17.5249 71.1989C16.3288 70.509 15.383 69.5104 14.6876 68.2029C13.9977 66.8955 13.6528 65.3127 13.6528 63.4545C13.6528 61.5908 14.0033 60.0052 14.7043 58.6978C15.4053 57.3904 16.3566 56.3945 17.5583 55.7102C18.76 55.0204 20.1119 54.6754 21.6141 54.6754C22.6044 54.6754 23.5223 54.8145 24.368 55.0927C25.2192 55.3709 25.973 55.777 26.6295 56.3111C27.286 56.8396 27.8201 57.4877 28.2318 58.2555C28.6491 59.0233 28.9161 59.9023 29.0329 60.8926ZM37.3489 72.2504C36.0526 72.2504 34.9316 71.975 33.9858 71.4242C33.0456 70.8678 32.3195 70.0945 31.8077 69.1042C31.2959 68.1084 31.04 66.954 31.04 65.641C31.04 64.3169 31.2959 63.1597 31.8077 62.1694C32.3195 61.1735 33.0456 60.4002 33.9858 59.8494C34.9316 59.2931 36.0526 59.0149 37.3489 59.0149C38.6452 59.0149 39.7634 59.2931 40.7037 59.8494C41.6494 60.4002 42.3783 61.1735 42.8901 62.1694C43.4019 63.1597 43.6578 64.3169 43.6578 65.641C43.6578 66.954 43.4019 68.1084 42.8901 69.1042C42.3783 70.0945 41.6494 70.8678 40.7037 71.4242C39.7634 71.975 38.6452 72.2504 37.3489 72.2504ZM37.3656 69.4964C37.9553 69.4964 38.4477 69.3295 38.8427 68.9957C39.2377 68.6564 39.5353 68.1946 39.7356 67.6104C39.9415 67.0263 40.0444 66.3614 40.0444 65.6159C40.0444 64.8704 39.9415 64.2056 39.7356 63.6214C39.5353 63.0373 39.2377 62.5755 38.8427 62.2362C38.4477 61.8968 37.9553 61.7271 37.3656 61.7271C36.7703 61.7271 36.2696 61.8968 35.8635 62.2362C35.4629 62.5755 35.1597 63.0373 34.9538 63.6214C34.7536 64.2056 34.6534 64.8704 34.6534 65.6159C34.6534 66.3614 34.7536 67.0263 34.9538 67.6104C35.1597 68.1946 35.4629 68.6564 35.8635 68.9957C36.2696 69.3295 36.7703 69.4964 37.3656 69.4964ZM49.6246 72.242C48.8068 72.242 48.078 72.1001 47.4382 71.8164C46.7984 71.5271 46.2921 71.1015 45.9194 70.5396C45.5522 69.9721 45.3686 69.2656 45.3686 68.4199C45.3686 67.7078 45.4993 67.1097 45.7608 66.6257C46.0223 66.1417 46.3784 65.7522 46.829 65.4574C47.2797 65.1625 47.7915 64.94 48.3645 64.7898C48.9431 64.6396 49.5495 64.5339 50.1838 64.4727C50.9293 64.3948 51.5301 64.3224 51.9863 64.2557C52.4425 64.1834 52.7736 64.0777 52.9794 63.9386C53.1853 63.7995 53.2882 63.5936 53.2882 63.321V63.271C53.2882 62.7424 53.1213 62.3335 52.7875 62.0442C52.4592 61.7549 51.9919 61.6103 51.3855 61.6103C50.7457 61.6103 50.2366 61.7521 49.8583 62.0359C49.48 62.314 49.2296 62.6645 49.1072 63.0874L45.8192 62.8203C45.9862 62.0414 46.3144 61.3683 46.804 60.8008C47.2936 60.2277 47.925 59.7882 48.6983 59.4822C49.4772 59.1707 50.3785 59.0149 51.4022 59.0149C52.1143 59.0149 52.7958 59.0984 53.4467 59.2653C54.1032 59.4322 54.6846 59.6909 55.1909 60.0414C55.7027 60.3919 56.1061 60.8425 56.4009 61.3933C56.6958 61.9385 56.8432 62.5922 56.8432 63.3544V72H53.4718V70.2225H53.3716C53.1658 70.623 52.8904 70.9763 52.5455 71.2823C52.2005 71.5827 51.786 71.8192 51.302 71.9917C50.818 72.1586 50.2589 72.242 49.6246 72.242ZM50.6428 69.7885C51.1657 69.7885 51.6275 69.6856 52.0281 69.4798C52.4286 69.2683 52.743 68.9846 52.9711 68.6286C53.1992 68.2725 53.3132 67.8691 53.3132 67.4185V66.0582C53.2019 66.1306 53.0489 66.1973 52.8542 66.2585C52.6651 66.3142 52.4509 66.367 52.2116 66.4171C51.9724 66.4616 51.7332 66.5033 51.494 66.5423C51.2547 66.5756 51.0378 66.6062 50.843 66.6341C50.4258 66.6953 50.0614 66.7926 49.7498 66.9261C49.4383 67.0597 49.1963 67.2405 49.0238 67.4686C48.8513 67.6911 48.7651 67.9693 48.7651 68.3031C48.7651 68.7871 48.9403 69.1571 49.2908 69.413C49.6469 69.6634 50.0975 69.7885 50.6428 69.7885ZM65.3928 72.2504C64.0799 72.2504 62.9505 71.9722 62.0047 71.4158C61.0645 70.8539 60.3412 70.075 59.835 69.0792C59.3343 68.0833 59.0839 66.9373 59.0839 65.641C59.0839 64.328 59.337 63.1764 59.8433 62.1861C60.3551 61.1902 61.0812 60.4141 62.0214 59.8578C62.9616 59.2959 64.0799 59.0149 65.3762 59.0149C66.4944 59.0149 67.4736 59.218 68.3137 59.6241C69.1537 60.0302 69.8186 60.6005 70.3082 61.3349C70.7977 62.0692 71.0676 62.9316 71.1176 63.9219H67.7629C67.6683 63.2821 67.4179 62.7675 67.0118 62.378C66.6112 61.983 66.0855 61.7855 65.4346 61.7855C64.8838 61.7855 64.4026 61.9357 63.9909 62.2362C63.5847 62.531 63.2676 62.9622 63.0395 63.5297C62.8114 64.0971 62.6974 64.7842 62.6974 65.5909C62.6974 66.4087 62.8086 67.1042 63.0312 67.6772C63.2593 68.2502 63.5792 68.687 63.9909 68.9874C64.4026 69.2878 64.8838 69.438 65.4346 69.438C65.8407 69.438 66.2051 69.3546 66.5278 69.1877C66.856 69.0208 67.1259 68.7788 67.3373 68.4616C67.5542 68.139 67.6961 67.7523 67.7629 67.3017H71.1176C71.062 68.2808 70.795 69.1432 70.3165 69.8887C69.8436 70.6286 69.1899 71.2072 68.3554 71.6245C67.5209 72.0417 66.5334 72.2504 65.3928 72.2504ZM76.9488 64.5895V72H73.3938V54.9091H76.8487V61.4434H76.9989C77.2882 60.6867 77.7555 60.0942 78.4009 59.6658C79.0462 59.2319 79.8557 59.0149 80.8293 59.0149C81.7195 59.0149 82.4956 59.2096 83.1576 59.5991C83.8252 59.983 84.3426 60.5365 84.7098 61.2598C85.0826 61.9775 85.2662 62.837 85.2606 63.8384V72H81.7056V64.4727C81.7111 63.6826 81.5108 63.0679 81.1047 62.6284C80.7041 62.1889 80.1422 61.9691 79.419 61.9691C78.935 61.9691 78.5066 62.072 78.1338 62.2779C77.7666 62.4837 77.4773 62.7841 77.2659 63.1792C77.0601 63.5686 76.9544 64.0387 76.9488 64.5895ZM88.0583 72V59.1818H91.6134V72H88.0583ZM89.8442 57.5295C89.3157 57.5295 88.8622 57.3542 88.4839 57.0037C88.1112 56.6477 87.9248 56.2221 87.9248 55.7269C87.9248 55.2373 88.1112 54.8173 88.4839 54.4668C88.8622 54.1107 89.3157 53.9327 89.8442 53.9327C90.3727 53.9327 90.8234 54.1107 91.1961 54.4668C91.5744 54.8173 91.7636 55.2373 91.7636 55.7269C91.7636 56.2221 91.5744 56.6477 91.1961 57.0037C90.8234 57.3542 90.3727 57.5295 89.8442 57.5295ZM98.0162 64.5895V72H94.4612V59.1818H97.8493V61.4434H97.9995C98.2832 60.6979 98.7589 60.1081 99.4265 59.6742C100.094 59.2347 100.904 59.0149 101.855 59.0149C102.745 59.0149 103.521 59.2096 104.183 59.5991C104.845 59.9885 105.36 60.5449 105.727 61.2681C106.094 61.9858 106.278 62.8426 106.278 63.8384V72H102.723V64.4727C102.728 63.6882 102.528 63.0762 102.122 62.6367C101.716 62.1916 101.157 61.9691 100.445 61.9691C99.9662 61.9691 99.5434 62.072 99.1762 62.2779C98.8146 62.4837 98.5308 62.7841 98.325 63.1792C98.1247 63.5686 98.0218 64.0387 98.0162 64.5895ZM114.855 77.0739C113.703 77.0739 112.716 76.9153 111.892 76.5982C111.074 76.2866 110.423 75.861 109.939 75.3214C109.455 74.7817 109.141 74.1753 108.996 73.5021L112.284 73.0598C112.384 73.3158 112.543 73.555 112.76 73.7775C112.977 74.0001 113.264 74.1781 113.62 74.3116C113.981 74.4507 114.421 74.5202 114.938 74.5202C115.711 74.5202 116.348 74.3311 116.849 73.9528C117.355 73.58 117.609 72.9541 117.609 72.0751V69.7301H117.458C117.303 70.0862 117.069 70.4228 116.757 70.7399C116.446 71.057 116.045 71.3157 115.556 71.516C115.066 71.7163 114.482 71.8164 113.803 71.8164C112.841 71.8164 111.964 71.5939 111.174 71.1488C110.39 70.6982 109.764 70.0111 109.297 69.0875C108.835 68.1584 108.604 66.9846 108.604 65.5659C108.604 64.1138 108.841 62.901 109.313 61.9274C109.786 60.9538 110.415 60.225 111.199 59.7409C111.989 59.2569 112.855 59.0149 113.795 59.0149C114.513 59.0149 115.113 59.1373 115.597 59.3821C116.081 59.6213 116.471 59.9218 116.766 60.2834C117.066 60.6394 117.297 60.9899 117.458 61.3349H117.592V59.1818H121.122V72.1252C121.122 73.2156 120.855 74.128 120.321 74.8624C119.787 75.5968 119.047 76.1475 118.101 76.5147C117.161 76.8875 116.079 77.0739 114.855 77.0739ZM114.93 69.146C115.503 69.146 115.987 69.0041 116.382 68.7203C116.782 68.431 117.088 68.0194 117.3 67.4853C117.517 66.9456 117.625 66.3002 117.625 65.5492C117.625 64.7981 117.52 64.1472 117.308 63.5964C117.097 63.0401 116.791 62.6089 116.39 62.3029C115.99 61.9969 115.503 61.8439 114.93 61.8439C114.346 61.8439 113.853 62.0025 113.453 62.3196C113.052 62.6312 112.749 63.0651 112.543 63.6214C112.337 64.1778 112.234 64.8204 112.234 65.5492C112.234 66.2891 112.337 66.9289 112.543 67.4686C112.754 68.0027 113.058 68.4171 113.453 68.712C113.853 69.0013 114.346 69.146 114.93 69.146ZM18.2823 100.25C16.9637 100.25 15.8288 99.9833 14.8774 99.4492C13.9317 98.9096 13.2028 98.1474 12.691 97.1626C12.1792 96.1723 11.9233 95.0012 11.9233 93.6493C11.9233 92.3308 12.1792 91.1736 12.691 90.1777C13.2028 89.1819 13.9233 88.4058 14.8524 87.8494C15.7871 87.2931 16.8831 87.0149 18.1404 87.0149C18.986 87.0149 19.7733 87.1512 20.5021 87.4238C21.2365 87.6909 21.8763 88.0942 22.4215 88.6339C22.9723 89.1735 23.4006 89.8523 23.7066 90.6701C24.0126 91.4824 24.1656 92.4337 24.1656 93.5241V94.5005H13.3419V92.2974H20.8192C20.8192 91.7856 20.7079 91.3321 20.4854 90.9371C20.2629 90.5421 19.9541 90.2334 19.5591 90.0108C19.1696 89.7827 18.7162 89.6687 18.1988 89.6687C17.6592 89.6687 17.1807 89.7939 16.7635 90.0442C16.3518 90.289 16.0291 90.62 15.7954 91.0373C15.5617 91.449 15.4421 91.908 15.4366 92.4142V94.5089C15.4366 95.1431 15.5534 95.6911 15.7871 96.1529C16.0263 96.6146 16.3629 96.9707 16.7968 97.2211C17.2308 97.4714 17.7454 97.5966 18.3407 97.5966C18.7357 97.5966 19.0973 97.541 19.4256 97.4297C19.7538 97.3184 20.0348 97.1515 20.2684 96.929C20.5021 96.7064 20.6801 96.4338 20.8025 96.1112L24.0905 96.3281C23.9236 97.1181 23.5815 97.808 23.0641 98.3977C22.5522 98.9819 21.8902 99.4381 21.0779 99.7663C20.2712 100.089 19.3393 100.25 18.2823 100.25ZM30.0406 92.5895V100H26.4856V87.1818H29.8737V89.4434H30.0239C30.3077 88.6979 30.7833 88.1081 31.451 87.6742C32.1186 87.2347 32.928 87.0149 33.8794 87.0149C34.7695 87.0149 35.5456 87.2096 36.2077 87.5991C36.8697 87.9885 37.3844 88.5449 37.7516 89.2681C38.1187 89.9858 38.3023 90.8426 38.3023 91.8384V100H34.7473V92.4727C34.7529 91.6882 34.5526 91.0762 34.1464 90.6367C33.7403 90.1916 33.1812 89.9691 32.4691 89.9691C31.9906 89.9691 31.5678 90.072 31.2006 90.2779C30.839 90.4837 30.5552 90.7841 30.3494 91.1792C30.1491 91.5686 30.0462 92.0387 30.0406 92.5895ZM52.3848 100.25C51.0663 100.25 49.9313 99.9833 48.98 99.4492C48.0342 98.9096 47.3054 98.1474 46.7935 97.1626C46.2817 96.1723 46.0258 95.0012 46.0258 93.6493C46.0258 92.3308 46.2817 91.1736 46.7935 90.1777C47.3054 89.1819 48.0258 88.4058 48.9549 87.8494C49.8896 87.2931 50.9856 87.0149 52.2429 87.0149C53.0886 87.0149 53.8758 87.1512 54.6046 87.4238C55.339 87.6909 55.9788 88.0942 56.524 88.6339C57.0748 89.1735 57.5032 89.8523 57.8092 90.6701C58.1152 91.4824 58.2682 92.4337 58.2682 93.5241V94.5005H47.4445V92.2974H54.9217C54.9217 91.7856 54.8105 91.3321 54.5879 90.9371C54.3654 90.5421 54.0566 90.2334 53.6616 90.0108C53.2722 89.7827 52.8188 89.6687 52.3014 89.6687C51.7617 89.6687 51.2832 89.7939 50.866 90.0442C50.4543 90.289 50.1316 90.62 49.8979 91.0373C49.6643 91.449 49.5447 91.908 49.5391 92.4142V94.5089C49.5391 95.1431 49.6559 95.6911 49.8896 96.1529C50.1288 96.6146 50.4654 96.9707 50.8994 97.2211C51.3333 97.4714 51.8479 97.5966 52.4432 97.5966C52.8382 97.5966 53.1999 97.541 53.5281 97.4297C53.8563 97.3184 54.1373 97.1515 54.371 96.929C54.6046 96.7064 54.7827 96.4338 54.9051 96.1112L58.193 96.3281C58.0261 97.1181 57.684 97.808 57.1666 98.3977C56.6548 98.9819 55.9927 99.4381 55.1804 99.7663C54.3737 100.089 53.4419 100.25 52.3848 100.25ZM50.8827 85.5295L52.6519 81.7324H55.9399L53.3946 85.5295H50.8827ZM69.0585 104.807V97.9471H68.95C68.7831 98.3031 68.5466 98.6564 68.2406 99.0069C67.9402 99.3519 67.548 99.6384 67.064 99.8665C66.5855 100.095 66.0013 100.209 65.3115 100.209C64.3379 100.209 63.4561 99.9583 62.6661 99.4576C61.8816 98.9513 61.2585 98.2086 60.7967 97.2294C60.3405 96.2447 60.1124 95.0374 60.1124 93.6076C60.1124 92.1388 60.3489 90.9177 60.8218 89.9441C61.2947 88.9649 61.9233 88.2333 62.7078 87.7493C63.4978 87.2597 64.3629 87.0149 65.3031 87.0149C66.0208 87.0149 66.6189 87.1373 67.0973 87.3821C67.5814 87.6213 67.9708 87.9218 68.2657 88.2834C68.5661 88.6394 68.7942 88.9899 68.95 89.3349H69.1002V87.1818H72.6052V104.807H69.0585ZM66.4381 97.3796C67.0111 97.3796 67.4951 97.2238 67.8901 96.9123C68.2907 96.5952 68.5967 96.1529 68.8081 95.5854C69.0251 95.0179 69.1336 94.3531 69.1336 93.5909C69.1336 92.8287 69.0279 92.1667 68.8165 91.6048C68.605 91.0428 68.2991 90.6089 67.8985 90.3029C67.4979 89.9969 67.0111 89.8439 66.4381 89.8439C65.8539 89.8439 65.3616 90.0025 64.961 90.3196C64.5604 90.6367 64.2572 91.0762 64.0514 91.6381C63.8455 92.2 63.7426 92.851 63.7426 93.5909C63.7426 94.3364 63.8455 94.9957 64.0514 95.5687C64.2628 96.1362 64.566 96.5813 64.961 96.9039C65.3616 97.2211 65.8539 97.3796 66.4381 97.3796ZM83.6792 94.5423V87.1818H87.2342V100H83.8211V97.6717H83.6875C83.3982 98.4228 82.917 99.0264 82.2438 99.4826C81.5762 99.9388 80.7612 100.167 79.7987 100.167C78.9419 100.167 78.1881 99.9722 77.5372 99.5827C76.8862 99.1933 76.3772 98.6397 76.01 97.9221C75.6484 97.2044 75.4648 96.3448 75.4592 95.3434V87.1818H79.0142V94.7092C79.0198 95.4658 79.2229 96.0639 79.6234 96.5034C80.024 96.9429 80.5609 97.1626 81.2341 97.1626C81.6625 97.1626 82.063 97.0653 82.4358 96.8706C82.8085 96.6703 83.1089 96.3754 83.337 95.986C83.5707 95.5965 83.6848 95.1153 83.6792 94.5423ZM90.0779 100V87.1818H93.6329V100H90.0779ZM91.8637 85.5295C91.3352 85.5295 90.8818 85.3542 90.5035 85.0037C90.1307 84.6477 89.9443 84.2221 89.9443 83.7269C89.9443 83.2373 90.1307 82.8173 90.5035 82.4668C90.8818 82.1107 91.3352 81.9327 91.8637 81.9327C92.3923 81.9327 92.8429 82.1107 93.2156 82.4668C93.594 82.8173 93.7831 83.2373 93.7831 83.7269C93.7831 84.2221 93.594 84.6477 93.2156 85.0037C92.8429 85.3542 92.3923 85.5295 91.8637 85.5295ZM96.4807 104.807V87.1818H99.9857V89.3349H100.144C100.3 88.9899 100.525 88.6394 100.82 88.2834C101.121 87.9218 101.51 87.6213 101.989 87.3821C102.473 87.1373 103.073 87.0149 103.791 87.0149C104.726 87.0149 105.588 87.2597 106.378 87.7493C107.168 88.2333 107.8 88.9649 108.272 89.9441C108.745 90.9177 108.982 92.1388 108.982 93.6076C108.982 95.0374 108.751 96.2447 108.289 97.2294C107.833 98.2086 107.21 98.9513 106.42 99.4576C105.635 99.9583 104.756 100.209 103.783 100.209C103.093 100.209 102.506 100.095 102.022 99.8665C101.543 99.6384 101.151 99.3519 100.845 99.0069C100.539 98.6564 100.306 98.3031 100.144 97.9471H100.036V104.807H96.4807ZM99.9606 93.5909C99.9606 94.3531 100.066 95.0179 100.278 95.5854C100.489 96.1529 100.795 96.5952 101.196 96.9123C101.596 97.2238 102.083 97.3796 102.656 97.3796C103.235 97.3796 103.724 97.2211 104.125 96.9039C104.525 96.5813 104.829 96.1362 105.034 95.5687C105.246 94.9957 105.352 94.3364 105.352 93.5909C105.352 92.851 105.249 92.2 105.043 91.6381C104.837 91.0762 104.534 90.6367 104.133 90.3196C103.733 90.0025 103.24 89.8439 102.656 89.8439C102.078 89.8439 101.588 89.9969 101.187 90.3029C100.792 90.6089 100.489 91.0428 100.278 91.6048C100.066 92.1667 99.9606 92.8287 99.9606 93.5909ZM117.193 100.25C115.875 100.25 114.74 99.9833 113.789 99.4492C112.843 98.9096 112.114 98.1474 111.602 97.1626C111.09 96.1723 110.834 95.0012 110.834 93.6493C110.834 92.3308 111.09 91.1736 111.602 90.1777C112.114 89.1819 112.834 88.4058 113.764 87.8494C114.698 87.2931 115.794 87.0149 117.052 87.0149C117.897 87.0149 118.684 87.1512 119.413 87.4238C120.148 87.6909 120.787 88.0942 121.333 88.6339C121.883 89.1735 122.312 89.8523 122.618 90.6701C122.924 91.4824 123.077 92.4337 123.077 93.5241V94.5005H112.253V92.2974H119.73C119.73 91.7856 119.619 91.3321 119.397 90.9371C119.174 90.5421 118.865 90.2334 118.47 90.0108C118.081 89.7827 117.627 89.6687 117.11 89.6687C116.57 89.6687 116.092 89.7939 115.675 90.0442C115.263 90.289 114.94 90.62 114.707 91.0373C114.473 91.449 114.353 91.908 114.348 92.4142V94.5089C114.348 95.1431 114.465 95.6911 114.698 96.1529C114.937 96.6146 115.274 96.9707 115.708 97.2211C116.142 97.4714 116.657 97.5966 117.252 97.5966C117.647 97.5966 118.008 97.541 118.337 97.4297C118.665 97.3184 118.946 97.1515 119.18 96.929C119.413 96.7064 119.591 96.4338 119.714 96.1112L123.002 96.3281C122.835 97.1181 122.493 97.808 121.975 98.3977C121.463 98.9819 120.801 99.4381 119.989 99.7663C119.182 100.089 118.25 100.25 117.193 100.25Z" fill="#00CACC"/>
<defs>
<linearGradient id="paint0_linear_271_71" x1="101.765" y1="20.8974" x2="32.054" y2="133.33" gradientUnits="userSpaceOnUse">
<stop stop-color="#00CACC" stop-opacity="0.2"/>
<stop offset="0.48" stop-color="#0089CC" stop-opacity="0.1"/>
<stop offset="1" stop-color="#1F26BD" stop-opacity="0.1"/>
</linearGradient>
<linearGradient id="paint1_linear_271_71" x1="102.571" y1="19.5971" x2="31.253" y2="134.622" gradientUnits="userSpaceOnUse">
<stop stop-color="#00CACC"/>
<stop offset="0.48" stop-color="#0089CC"/>
<stop offset="0.58" stop-color="#047BCA"/>
<stop offset="0.77" stop-color="#0E59C4"/>
<stop offset="1" stop-color="#1F26BD"/>
</linearGradient>
</defs>
</svg>
