<svg width="144" height="154" viewBox="0 0 144 154" fill="none" xmlns="http://www.w3.org/2000/svg">
<path d="M2 39.53L67 2L132 39.53V114.58L67 152.11L2 114.58V39.53Z" fill="url(#paint0_linear_271_66)" stroke="url(#paint1_linear_271_66)" stroke-width="3" stroke-miterlimit="10"/>
<path d="M23.098 75.5469H19.9872C19.9304 75.1444 19.8144 74.7869 19.6392 74.4744C19.464 74.1572 19.2391 73.8873 18.9645 73.6648C18.6899 73.4422 18.3726 73.2718 18.0128 73.1534C17.6577 73.035 17.2718 72.9759 16.8551 72.9759C16.1023 72.9759 15.4465 73.1629 14.8878 73.5369C14.3291 73.9062 13.8958 74.446 13.5881 75.1562C13.2803 75.8617 13.1264 76.7187 13.1264 77.7273C13.1264 78.7642 13.2803 79.6354 13.5881 80.3409C13.9006 81.0464 14.3362 81.5791 14.8949 81.9389C15.4536 82.2988 16.0999 82.4787 16.8338 82.4787C17.2457 82.4787 17.6269 82.4242 17.9773 82.3153C18.3324 82.2064 18.6473 82.0478 18.9219 81.8395C19.1965 81.6264 19.4238 81.3684 19.6037 81.0653C19.7884 80.7623 19.9162 80.4167 19.9872 80.0284L23.098 80.0426C23.0175 80.7102 22.8163 81.3542 22.4943 81.9744C22.1771 82.59 21.7486 83.1416 21.2088 83.6293C20.6738 84.1122 20.0346 84.4957 19.2912 84.7798C18.5526 85.0592 17.7169 85.1989 16.7841 85.1989C15.4867 85.1989 14.3267 84.9053 13.304 84.3182C12.286 83.7311 11.4811 82.8812 10.8892 81.7685C10.3021 80.6558 10.0085 79.3087 10.0085 77.7273C10.0085 76.1411 10.3068 74.7917 10.9034 73.679C11.5 72.5663 12.3097 71.7187 13.3324 71.1364C14.3551 70.5492 15.5057 70.2557 16.7841 70.2557C17.6269 70.2557 18.4081 70.3741 19.1278 70.6108C19.8523 70.8475 20.4938 71.1932 21.0526 71.6477C21.6113 72.0975 22.0658 72.6491 22.4162 73.3026C22.7713 73.956 22.9986 74.7041 23.098 75.5469ZM30.1754 85.2131C29.0722 85.2131 28.1181 84.9787 27.3132 84.5099C26.513 84.0365 25.8951 83.3783 25.4595 82.5355C25.0239 81.688 24.8061 80.7055 24.8061 79.5881C24.8061 78.4612 25.0239 77.4763 25.4595 76.6335C25.8951 75.786 26.513 75.1278 27.3132 74.6591C28.1181 74.1856 29.0722 73.9489 30.1754 73.9489C31.2786 73.9489 32.2304 74.1856 33.0305 74.6591C33.8355 75.1278 34.4557 75.786 34.8913 76.6335C35.3269 77.4763 35.5447 78.4612 35.5447 79.5881C35.5447 80.7055 35.3269 81.688 34.8913 82.5355C34.4557 83.3783 33.8355 84.0365 33.0305 84.5099C32.2304 84.9787 31.2786 85.2131 30.1754 85.2131ZM30.1896 82.8693C30.6915 82.8693 31.1106 82.7273 31.4467 82.4432C31.7829 82.1544 32.0362 81.7614 32.2067 81.2642C32.3819 80.767 32.4695 80.2012 32.4695 79.5668C32.4695 78.9323 32.3819 78.3665 32.2067 77.8693C32.0362 77.3722 31.7829 76.9792 31.4467 76.6903C31.1106 76.4015 30.6915 76.2571 30.1896 76.2571C29.683 76.2571 29.2569 76.4015 28.9112 76.6903C28.5703 76.9792 28.3123 77.3722 28.1371 77.8693C27.9666 78.3665 27.8814 78.9323 27.8814 79.5668C27.8814 80.2012 27.9666 80.767 28.1371 81.2642C28.3123 81.7614 28.5703 82.1544 28.9112 82.4432C29.2569 82.7273 29.683 82.8693 30.1896 82.8693ZM40.5376 78.6932V85H37.5121V74.0909H40.3956V76.0156H40.5234C40.7649 75.3812 41.1697 74.8793 41.7379 74.5099C42.3061 74.1359 42.995 73.9489 43.8047 73.9489C44.5623 73.9489 45.2228 74.1146 45.7862 74.446C46.3497 74.7775 46.7876 75.2509 47.1001 75.8665C47.4126 76.4773 47.5689 77.2064 47.5689 78.054V85H44.5433V78.5938C44.5481 77.9261 44.3776 77.4053 44.032 77.0312C43.6863 76.6525 43.2105 76.4631 42.6044 76.4631C42.1972 76.4631 41.8374 76.5507 41.5249 76.7259C41.2171 76.901 40.9756 77.1567 40.8004 77.4929C40.63 77.8243 40.5424 78.2244 40.5376 78.6932ZM54.8825 85.2131C53.765 85.2131 52.8039 84.9763 51.9989 84.5028C51.1987 84.0246 50.5832 83.3617 50.1523 82.5142C49.7262 81.6667 49.5131 80.6913 49.5131 79.5881C49.5131 78.4706 49.7286 77.4905 50.1594 76.6477C50.5951 75.8002 51.2129 75.1397 52.0131 74.6662C52.8133 74.188 53.765 73.9489 54.8683 73.9489C55.82 73.9489 56.6533 74.1217 57.3683 74.4673C58.0832 74.813 58.649 75.2983 59.0657 75.9233C59.4824 76.5483 59.712 77.2822 59.7546 78.125H56.8995C56.819 77.5805 56.6059 77.1425 56.2603 76.8111C55.9194 76.4749 55.4719 76.3068 54.918 76.3068C54.4492 76.3068 54.0397 76.4347 53.6893 76.6903C53.3436 76.9413 53.0737 77.3082 52.8796 77.7912C52.6855 78.2741 52.5884 78.8589 52.5884 79.5455C52.5884 80.2415 52.6831 80.8333 52.8725 81.321C53.0666 81.8087 53.3389 82.1804 53.6893 82.4361C54.0397 82.6918 54.4492 82.8196 54.918 82.8196C55.2636 82.8196 55.5737 82.7486 55.8484 82.6065C56.1277 82.4645 56.3574 82.2585 56.5373 81.9886C56.7219 81.714 56.8427 81.3849 56.8995 81.0014H59.7546C59.7073 81.8348 59.48 82.5687 59.0728 83.2031C58.6703 83.8329 58.114 84.3253 57.4038 84.6804C56.6935 85.0355 55.8531 85.2131 54.8825 85.2131ZM66.6634 85.2131C65.5412 85.2131 64.5753 84.9858 63.7656 84.5312C62.9607 84.072 62.3404 83.4233 61.9048 82.5852C61.4692 81.7424 61.2514 80.7457 61.2514 79.5952C61.2514 78.473 61.4692 77.4882 61.9048 76.6406C62.3404 75.7931 62.9536 75.1326 63.7443 74.6591C64.5398 74.1856 65.4725 73.9489 66.5426 73.9489C67.2623 73.9489 67.9323 74.0649 68.5526 74.2969C69.1776 74.5241 69.7221 74.8674 70.1861 75.3267C70.6548 75.786 71.0194 76.3636 71.2798 77.0597C71.5402 77.7509 71.6705 78.5606 71.6705 79.4886V80.3196H62.4588V78.4446H68.8224C68.8224 78.009 68.7277 77.6231 68.5384 77.2869C68.349 76.9508 68.0862 76.688 67.75 76.4986C67.4186 76.3045 67.0327 76.2074 66.5923 76.2074C66.133 76.2074 65.7259 76.3139 65.3707 76.527C65.0204 76.7353 64.7457 77.017 64.5469 77.3722C64.348 77.7225 64.2462 78.1132 64.2415 78.544V80.3267C64.2415 80.8665 64.3409 81.3329 64.5398 81.7259C64.7434 82.1188 65.0298 82.4219 65.3991 82.6349C65.7685 82.848 66.2064 82.9545 66.7131 82.9545C67.0492 82.9545 67.357 82.9072 67.6364 82.8125C67.9157 82.7178 68.1548 82.5758 68.3537 82.3864C68.5526 82.197 68.7041 81.965 68.8082 81.6903L71.6065 81.875C71.4645 82.5473 71.1733 83.1345 70.733 83.6364C70.2973 84.1335 69.7339 84.5218 69.0426 84.8011C68.3561 85.0758 67.563 85.2131 66.6634 85.2131ZM73.6449 89.0909V74.0909H76.6278V75.9233H76.7628C76.8954 75.6297 77.0871 75.3314 77.3381 75.0284C77.5938 74.7206 77.9252 74.465 78.3324 74.2614C78.7443 74.053 79.2557 73.9489 79.8665 73.9489C80.6619 73.9489 81.3958 74.1572 82.0682 74.5739C82.7405 74.9858 83.2779 75.6084 83.6804 76.4418C84.0829 77.2704 84.2841 78.3097 84.2841 79.5597C84.2841 80.7765 84.0876 81.804 83.6946 82.642C83.3063 83.4754 82.776 84.1075 82.1037 84.5384C81.4361 84.9645 80.688 85.1776 79.8594 85.1776C79.2723 85.1776 78.7727 85.0805 78.3608 84.8864C77.9536 84.6922 77.6198 84.4484 77.3594 84.1548C77.099 83.8565 76.9001 83.5559 76.7628 83.2528H76.6705V89.0909H73.6449ZM76.6065 79.5455C76.6065 80.1941 76.6965 80.7599 76.8764 81.2429C77.0563 81.7259 77.3168 82.1023 77.6577 82.3722C77.9986 82.6373 78.4129 82.7699 78.9006 82.7699C79.393 82.7699 79.8097 82.6349 80.1506 82.3651C80.4915 82.0904 80.7495 81.7116 80.9247 81.2287C81.1046 80.741 81.1946 80.1799 81.1946 79.5455C81.1946 78.9157 81.107 78.3617 80.9318 77.8835C80.7566 77.4053 80.4986 77.0312 80.1577 76.7614C79.8168 76.4915 79.3977 76.3565 78.9006 76.3565C78.4081 76.3565 77.9915 76.4867 77.6506 76.7472C77.3144 77.0076 77.0563 77.3769 76.8764 77.8551C76.6965 78.3333 76.6065 78.8968 76.6065 79.5455ZM92.1037 74.0909V76.3636H85.5341V74.0909H92.1037ZM87.0256 71.4773H90.0511V81.6477C90.0511 81.9271 90.0938 82.1449 90.179 82.3011C90.2642 82.4527 90.3826 82.5592 90.5341 82.6207C90.6903 82.6823 90.8703 82.7131 91.0739 82.7131C91.2159 82.7131 91.358 82.7012 91.5 82.6776C91.642 82.6491 91.7509 82.6278 91.8267 82.6136L92.3026 84.8651C92.151 84.9124 91.938 84.9669 91.6634 85.0284C91.3887 85.0947 91.0549 85.1349 90.6619 85.1491C89.9328 85.1776 89.2936 85.0805 88.7443 84.858C88.1998 84.6354 87.776 84.2898 87.473 83.821C87.17 83.3523 87.0208 82.7604 87.0256 82.0455V71.4773ZM94.0746 85V74.0909H97.1001V85H94.0746ZM95.5945 72.6847C95.1446 72.6847 94.7588 72.5355 94.4368 72.2372C94.1196 71.9342 93.9609 71.572 93.9609 71.1506C93.9609 70.7339 94.1196 70.3764 94.4368 70.0781C94.7588 69.7751 95.1446 69.6236 95.5945 69.6236C96.0443 69.6236 96.4278 69.7751 96.745 70.0781C97.067 70.3764 97.228 70.7339 97.228 71.1506C97.228 71.572 97.067 71.9342 96.745 72.2372C96.4278 72.5355 96.0443 72.6847 95.5945 72.6847ZM104.453 85.2131C103.35 85.2131 102.395 84.9787 101.591 84.5099C100.79 84.0365 100.172 83.3783 99.7369 82.5355C99.3013 81.688 99.0835 80.7055 99.0835 79.5881C99.0835 78.4612 99.3013 77.4763 99.7369 76.6335C100.172 75.786 100.79 75.1278 101.591 74.6591C102.395 74.1856 103.35 73.9489 104.453 73.9489C105.556 73.9489 106.508 74.1856 107.308 74.6591C108.113 75.1278 108.733 75.786 109.169 76.6335C109.604 77.4763 109.822 78.4612 109.822 79.5881C109.822 80.7055 109.604 81.688 109.169 82.5355C108.733 83.3783 108.113 84.0365 107.308 84.5099C106.508 84.9787 105.556 85.2131 104.453 85.2131ZM104.467 82.8693C104.969 82.8693 105.388 82.7273 105.724 82.4432C106.06 82.1544 106.314 81.7614 106.484 81.2642C106.659 80.767 106.747 80.2012 106.747 79.5668C106.747 78.9323 106.659 78.3665 106.484 77.8693C106.314 77.3722 106.06 76.9792 105.724 76.6903C105.388 76.4015 104.969 76.2571 104.467 76.2571C103.96 76.2571 103.534 76.4015 103.189 76.6903C102.848 76.9792 102.59 77.3722 102.414 77.8693C102.244 78.3665 102.159 78.9323 102.159 79.5668C102.159 80.2012 102.244 80.767 102.414 81.2642C102.59 81.7614 102.848 82.1544 103.189 82.4432C103.534 82.7273 103.96 82.8693 104.467 82.8693ZM114.815 78.6932V85H111.789V74.0909H114.673V76.0156H114.801C115.042 75.3812 115.447 74.8793 116.015 74.5099C116.583 74.1359 117.272 73.9489 118.082 73.9489C118.84 73.9489 119.5 74.1146 120.064 74.446C120.627 74.7775 121.065 75.2509 121.377 75.8665C121.69 76.4773 121.846 77.2064 121.846 78.054V85H118.821V78.5938C118.825 77.9261 118.655 77.4053 118.309 77.0312C117.964 76.6525 117.488 76.4631 116.882 76.4631C116.475 76.4631 116.115 76.5507 115.802 76.7259C115.494 76.901 115.253 77.1567 115.078 77.4929C114.907 77.8243 114.82 78.2244 114.815 78.6932Z" fill="#00CACC"/>
<defs>
<linearGradient id="paint0_linear_271_66" x1="101.765" y1="20.8974" x2="32.054" y2="133.33" gradientUnits="userSpaceOnUse">
<stop stop-color="#00CACC" stop-opacity="0.2"/>
<stop offset="0.48" stop-color="#0089CC" stop-opacity="0.1"/>
<stop offset="1" stop-color="#1F26BD" stop-opacity="0.1"/>
</linearGradient>
<linearGradient id="paint1_linear_271_66" x1="102.571" y1="19.5971" x2="31.253" y2="134.622" gradientUnits="userSpaceOnUse">
<stop stop-color="#00CACC"/>
<stop offset="0.48" stop-color="#0089CC"/>
<stop offset="0.58" stop-color="#047BCA"/>
<stop offset="0.77" stop-color="#0E59C4"/>
<stop offset="1" stop-color="#1F26BD"/>
</linearGradient>
</defs>
</svg>
