<?xml version="1.0" encoding="UTF-8"?>
<svg id="Layer_1" data-name="Layer 1" xmlns="http://www.w3.org/2000/svg" xmlns:xlink="http://www.w3.org/1999/xlink" viewBox="0 0 863 559">
  <defs>
    <style>
      .cls-1 {
        fill: url(#linear-gradient);
      }

      .cls-1, .cls-2, .cls-3, .cls-4, .cls-5, .cls-6, .cls-7, .cls-8, .cls-9, .cls-10, .cls-11, .cls-12, .cls-13, .cls-14, .cls-15 {
        stroke-width: 0px;
      }

      .cls-2 {
        fill: url(#radial-gradient-2);
      }

      .cls-2, .cls-3, .cls-14 {
        opacity: .18;
      }

      .cls-3 {
        fill: url(#radial-gradient-3);
      }

      .cls-4 {
        fill: url(#linear-gradient-3);
      }

      .cls-4, .cls-5 {
        opacity: .24;
      }

      .cls-5 {
        fill: url(#linear-gradient-2);
      }

      .cls-6 {
        fill: url(#radial-gradient-4);
      }

      .cls-6, .cls-7 {
        opacity: .38;
      }

      .cls-7 {
        fill: url(#radial-gradient-5);
      }

      .cls-8 {
        opacity: .52;
      }

      .cls-8, .cls-12, .cls-15 {
        fill: #fff;
      }

      .cls-9 {
        opacity: .62;
      }

      .cls-9, .cls-13 {
        fill: #f1dab2;
      }

      .cls-10 {
        fill: #533f63;
      }

      .cls-11 {
        fill: #f2dbb3;
      }

      .cls-14 {
        fill: url(#radial-gradient);
      }

      .cls-15 {
        opacity: .29;
      }
    </style>
    <radialGradient id="radial-gradient" cx="520.13174" cy="313.24939" fx="520.13174" fy="313.24939" r="60.30064" gradientUnits="userSpaceOnUse">
      <stop offset="0" stop-color="#8d0dac" stop-opacity=".97998"/>
      <stop offset=".08016" stop-color="#8d0dac" stop-opacity=".91875"/>
      <stop offset=".22581" stop-color="#8d0dac" stop-opacity=".85035"/>
      <stop offset=".43079" stop-color="#8d0dac" stop-opacity=".81089"/>
      <stop offset="1" stop-color="#8d0dac" stop-opacity=".8"/>
    </radialGradient>
    <radialGradient id="radial-gradient-2" cx="608.03818" cy="200.7596" fx="608.03818" fy="200.7596" xlink:href="#radial-gradient"/>
    <radialGradient id="radial-gradient-3" cx="311.00713" cy="368.65877" fx="311.00713" fy="368.65877" r="120.97529" xlink:href="#radial-gradient"/>
    <linearGradient id="linear-gradient" x1="346.67815" y1="226.4217" x2="485.75892" y2="226.4217" gradientUnits="userSpaceOnUse">
      <stop offset="0" stop-color="#d5336a"/>
      <stop offset=".14406" stop-color="#d53b68"/>
      <stop offset=".37599" stop-color="#d65363"/>
      <stop offset=".66679" stop-color="#d7795b"/>
      <stop offset=".99667" stop-color="#daae51"/>
    </linearGradient>
    <radialGradient id="radial-gradient-4" cx="481.50137" cy="303.2097" fx="481.50137" fy="303.2097" r="161.30035" gradientUnits="userSpaceOnUse">
      <stop offset="0" stop-color="#fff" stop-opacity="0"/>
      <stop offset=".1349" stop-color="#fff" stop-opacity=".15889"/>
      <stop offset=".45395" stop-color="#fff" stop-opacity=".51479"/>
      <stop offset=".71358" stop-color="#fff" stop-opacity=".77631"/>
      <stop offset=".90065" stop-color="#fff" stop-opacity=".9382"/>
      <stop offset=".99667" stop-color="#fff"/>
    </radialGradient>
    <linearGradient id="linear-gradient-2" x1="3762.17422" y1="958.74745" x2="3739.84981" y2="805.13076" gradientTransform="translate(-1203.97477 3727.10843) rotate(-78.25175)" gradientUnits="userSpaceOnUse">
      <stop offset="0" stop-color="#cc6c2e" stop-opacity="0"/>
      <stop offset="1" stop-color="#fff"/>
    </linearGradient>
    <linearGradient id="linear-gradient-3" x1="3754.6503" y1="868.87846" x2="3803.61854" y2="868.87846" gradientTransform="translate(-1203.97477 3727.10843) rotate(-78.25175)" gradientUnits="userSpaceOnUse">
      <stop offset="0" stop-color="#fff"/>
      <stop offset=".0885" stop-color="#fff" stop-opacity=".95076"/>
      <stop offset=".25094" stop-color="#fff" stop-opacity=".82006"/>
      <stop offset=".4691" stop-color="#fff" stop-opacity=".60826"/>
      <stop offset=".7329" stop-color="#fff" stop-opacity=".3177"/>
      <stop offset=".99667" stop-color="#fff" stop-opacity="0"/>
    </linearGradient>
    <radialGradient id="radial-gradient-5" cx="424.82117" cy="222.83691" fx="424.82117" fy="222.83691" r="153.03081" gradientUnits="userSpaceOnUse">
      <stop offset="0" stop-color="#fff" stop-opacity=".6"/>
      <stop offset=".12331" stop-color="#fffbf3" stop-opacity=".57042"/>
      <stop offset=".30969" stop-color="#fff3d2" stop-opacity=".4888"/>
      <stop offset=".53605" stop-color="#ffe69d" stop-opacity=".35524"/>
      <stop offset=".79132" stop-color="#ffd355" stop-opacity=".17148"/>
      <stop offset="1" stop-color="#ffc211" stop-opacity="0"/>
    </radialGradient>
  </defs>
  <polygon class="cls-14" points="520.10299 377.70637 464.29599 345.45298 464.32474 280.99601 520.16049 248.79242 575.9675 281.0458 575.93875 345.50278 520.10299 377.70637"/>
  <polygon class="cls-2" points="608.00943 265.21658 552.20242 232.96319 552.23117 168.50621 608.06693 136.30262 663.87393 168.55601 663.84518 233.01299 608.00943 265.21658"/>
  <polygon class="cls-3" points="310.94945 497.97252 198.98929 433.26569 199.04697 303.95194 311.0648 239.34501 423.02496 304.05184 422.96728 433.36559 310.94945 497.97252"/>
  <circle class="cls-1" cx="416.21854" cy="226.4217" r="69.54039"/>
  <circle class="cls-6" cx="416.79445" cy="225.74432" r="69.54039"/>
  <path class="cls-5" d="m475.42103,216.83251c-9.31527,12.65196-21.96419,20.51327-35.60344,21.60813-15.80901,1.26888-27.95305-9.66149-41.94379-15.35051-14.56537-5.92276-33.76203-9.3267-50.38628-3.80577-.65059,5.34581-.95862,10.73297-.77385,16.1667.00502.1478-.00432.2876-.00774.43068.50737,1.74632.97729,3.49654,1.30738,5.27542,7.86375-3.68445,16.95595-3.7189,25.02026-2.64612,16.59237,2.20726,29.3668,12.2905,44.73585,18.06851,23.56999,8.86105,50.87301-1.20063,68.73711-23.86355-.1693-.79528-.1891-1.6644-.00217-2.6073,1.06321-5.36352.55861-10.77976-.82447-16.09687-3.08982-1.84442-7.06976-1.51064-10.25886,2.82067Z"/>
  <path class="cls-4" d="m472.59421,193.84389c-6.27197,4.50123-28.69014,17.74488-41.89964,19.42565-15.3109,1.94823-39.7732-11.22202-54.8966-11.41676-10.4395-.13439-18.64173.54206-25.5329,2.08366-.83378,3.63858-1.56515,7.29525-2.13709,10.97363,7.14363-2.78234,18.34691-4.03256,28.41419-4.65725,16.88717-1.04779,36.62119,16.33957,53.12555,16.42068,22.48699.11046,40.86748-16.02706,53.19234-26.00053-1.1003-2.22286-2.25633-4.40015-3.40987-6.51771-.38746-.71127-.63543-1.41816-.76477-2.10935-2.38216.18823-4.63112.75015-6.0912,1.79798Z"/>
  <path class="cls-10" d="m330.20837,259.81885c-5.74384,2.83637-11.73878,5.86235-16.50698,10.07232-1.10557,1.02082-2.14917,2.26826-2.36299,3.29304-.08588.50012-.00668.78149.2489,1.13062.77392.88541,1.97636,1.38748,3.28234,1.73907,8.51412,2.2455,17.41338,2.56773,26.2123,2.80742,6.4556.1017,12.91835-.11827,19.35307-.63267,51.45488-3.70217,101.45297-25.73943,137.07878-63.41389,6.70238-7.00201,12.92408-14.49933,18.71813-22.28359,3.29894-4.97237,8.97997-9.60614-1.29377-10.83712-9.6425-.82146-19.38711,1.17228-28.89424,3.01419,9.40966-2.94633,19.08252-5.81099,29.10338-5.65094,7.53191.11829,11.77841,4.48174,6.97707,11.54304-2.64993,4.09332-5.39563,8.45164-8.27385,12.33785-26.97864,38.02529-68.3143,65.13754-113.68921,75.59362-12.92471,3.02251-26.12986,4.86651-39.38582,5.43359-13.24517.47809-26.54871.00397-39.64387-2.61957-4.27651-1.13119-11.89275-1.84503-12.7724-7.15703-.42711-7.16364,16.22879-12.52338,21.84915-14.36995h0Z"/>
  <circle class="cls-11" cx="446.75075" cy="151.30039" r="5.13797"/>
  <circle class="cls-9" cx="339.81402" cy="178.44772" r="2.96959"/>
  <circle class="cls-13" cx="334.12624" cy="173.99335" r="1.48479"/>
  <circle class="cls-9" cx="338.71779" cy="192.32931" r="2.96959"/>
  <circle class="cls-13" cx="342.3952" cy="186.11087" r="1.48479"/>
  <circle class="cls-13" cx="361.24947" cy="154.16465" r="1.48479"/>
  <circle class="cls-13" cx="359.76467" cy="160.8658" r="1.48479"/>
  <polygon class="cls-12" points="499.21465 278.41434 500.7289 281.18306 503.49762 282.69731 500.7289 284.21156 499.21465 286.98028 497.70041 284.21156 494.93168 282.69731 497.70041 281.18306 499.21465 278.41434"/>
  <polygon class="cls-15" points="303.00243 208.39804 303.96843 210.16434 305.73463 211.13024 303.96843 212.09624 303.00243 213.86244 302.03653 212.09624 300.27033 211.13024 302.03653 210.16434 303.00243 208.39804"/>
  <polygon class="cls-8" points="431.66732 199.86239 433.18156 202.63111 435.95029 204.14536 433.18156 205.6596 431.66732 208.42833 430.15307 205.6596 427.38435 204.14536 430.15307 202.63111 431.66732 199.86239"/>
  <circle class="cls-7" cx="424.82117" cy="218.96209" r="177"/>
</svg>