<?xml version="1.0" encoding="UTF-8"?>
<svg id="Layer_1" data-name="Layer 1" xmlns="http://www.w3.org/2000/svg" xmlns:xlink="http://www.w3.org/1999/xlink" viewBox="0 0 816 576">
  <defs>
    <style>
      .cls-1 {
        fill: url(#radial-gradient-3);
      }

      .cls-1, .cls-2 {
        opacity: .18;
      }

      .cls-1, .cls-2, .cls-3, .cls-4, .cls-5, .cls-6, .cls-7, .cls-8, .cls-9, .cls-10, .cls-11, .cls-12 {
        stroke-width: 0px;
      }

      .cls-2 {
        fill: url(#radial-gradient-4);
      }

      .cls-3 {
        fill: url(#linear-gradient-2);
      }

      .cls-3, .cls-6 {
        opacity: .24;
      }

      .cls-4 {
        fill: url(#radial-gradient-2);
      }

      .cls-4, .cls-8 {
        opacity: .38;
      }

      .cls-5 {
        fill: url(#New_Gradient_Swatch_copy_2);
      }

      .cls-6 {
        fill: url(#linear-gradient);
      }

      .cls-7 {
        fill: #fff;
        opacity: .52;
      }

      .cls-8 {
        fill: url(#radial-gradient);
      }

      .cls-9 {
        opacity: .62;
      }

      .cls-9, .cls-12 {
        fill: #f1dab2;
      }

      .cls-10 {
        fill: #534063;
      }

      .cls-11 {
        fill: #f2dbb3;
      }
    </style>
    <linearGradient id="New_Gradient_Swatch_copy_2" data-name="New Gradient Swatch copy 2" x1="-2166.83837" y1="-183.23622" x2="-1984.34531" y2="-183.23622" gradientTransform="translate(1530.93155 1937.99232) rotate(47.21708)" gradientUnits="userSpaceOnUse">
      <stop offset="0" stop-color="#0089cc"/>
      <stop offset=".03406" stop-color="#0a82c7"/>
      <stop offset=".19314" stop-color="#3566b6"/>
      <stop offset=".35426" stop-color="#5a4fa7"/>
      <stop offset=".5154" stop-color="#763d9c"/>
      <stop offset=".67654" stop-color="#8a3094"/>
      <stop offset=".8379" stop-color="#96288f"/>
      <stop offset="1" stop-color="#9a268e"/>
    </linearGradient>
    <radialGradient id="radial-gradient" cx="-1991.29024" cy="-81.01197" fx="-1991.29024" fy="-81.01197" r="211.6482" gradientTransform="translate(1530.93155 1937.99232) rotate(47.21708)" gradientUnits="userSpaceOnUse">
      <stop offset="0" stop-color="#fff" stop-opacity="0"/>
      <stop offset=".1349" stop-color="#fff" stop-opacity=".15889"/>
      <stop offset=".45395" stop-color="#fff" stop-opacity=".51479"/>
      <stop offset=".71358" stop-color="#fff" stop-opacity=".77631"/>
      <stop offset=".90065" stop-color="#fff" stop-opacity=".9382"/>
      <stop offset=".99667" stop-color="#fff"/>
    </radialGradient>
    <linearGradient id="linear-gradient" x1="1227.57441" y1="1579.51892" x2="1198.28173" y2="1377.95273" gradientTransform="translate(-1547.32866 -337.80395) rotate(-31.03466)" gradientUnits="userSpaceOnUse">
      <stop offset="0" stop-color="#cc6c2e" stop-opacity="0"/>
      <stop offset="1" stop-color="#fff"/>
    </linearGradient>
    <linearGradient id="linear-gradient-2" x1="1217.702" y1="1461.59847" x2="1281.95505" y2="1461.59847" gradientTransform="translate(-1547.32866 -337.80395) rotate(-31.03466)" gradientUnits="userSpaceOnUse">
      <stop offset="0" stop-color="#fff"/>
      <stop offset=".0885" stop-color="#fff" stop-opacity=".95076"/>
      <stop offset=".25094" stop-color="#fff" stop-opacity=".82006"/>
      <stop offset=".4691" stop-color="#fff" stop-opacity=".60826"/>
      <stop offset=".7329" stop-color="#fff" stop-opacity=".3177"/>
      <stop offset=".99667" stop-color="#fff" stop-opacity="0"/>
    </linearGradient>
    <radialGradient id="radial-gradient-2" cx="-2071.72915" cy="-191.83167" fx="-2071.72915" fy="-191.83167" r="200.79742" gradientTransform="translate(1530.93155 1937.99232) rotate(47.21708)" gradientUnits="userSpaceOnUse">
      <stop offset="0" stop-color="#fff" stop-opacity=".6"/>
      <stop offset=".12331" stop-color="#fffbf3" stop-opacity=".57042"/>
      <stop offset=".30969" stop-color="#fff3d2" stop-opacity=".4888"/>
      <stop offset=".53605" stop-color="#ffe69d" stop-opacity=".35524"/>
      <stop offset=".79132" stop-color="#ffd355" stop-opacity=".17148"/>
      <stop offset="1" stop-color="#ffc211" stop-opacity="0"/>
    </radialGradient>
    <radialGradient id="radial-gradient-3" cx="549.42296" cy="190.74593" fx="549.42296" fy="190.74593" r="60.30064" gradientUnits="userSpaceOnUse">
      <stop offset="0" stop-color="#8d0dac" stop-opacity=".97998"/>
      <stop offset=".08016" stop-color="#8d0dac" stop-opacity=".91875"/>
      <stop offset=".22581" stop-color="#8d0dac" stop-opacity=".85035"/>
      <stop offset=".43079" stop-color="#8d0dac" stop-opacity=".81089"/>
      <stop offset="1" stop-color="#8d0dac" stop-opacity=".8"/>
    </radialGradient>
    <radialGradient id="radial-gradient-4" cx="668.17195" cy="217.51281" fx="668.17195" fy="217.51281" r="60.30064" xlink:href="#radial-gradient-3"/>
  </defs>
  <circle class="cls-5" cx="255.62584" cy="290.19004" r="91.24653"/>
  <circle class="cls-8" cx="254.79144" cy="290.14096" r="91.24653"/>
  <path class="cls-6" d="m317.62364,338.65703c-20.48617,2.30505-39.3299-2.86985-52.54003-15.02894-15.31147-14.09353-15.60848-35.52999-22.59885-54.0736-7.2774-19.30529-21.10804-40.82577-41.24089-51.91482-5.72795,4.13783-11.19042,8.64241-16.25853,13.66306-.13786.13656-.28082.25215-.42166.37638-1.22955,2.04499-2.49625,4.05739-3.91516,5.96066,10.55663,4.28924,18.69308,13.01451,24.84715,21.73671,12.66203,17.94597,14.33667,39.23452,22.46974,59.18477,12.47299,30.59564,46.49594,47.92168,84.24187,44.92723.61499-.87182,1.43432-1.66547,2.50895-2.3258,6.11275-3.75625,10.87898-9.06932,14.76681-15.14004-.97753-4.61937-4.84602-8.15465-11.8594-7.36561Z"/>
  <path class="cls-3" d="m337.24279,315.44652c-9.92456-2.02839-42.65828-11.81435-56.04965-23.03741-15.52177-13.00838-24.64017-48.30383-37.9311-63.04153-9.1746-10.17322-17.13614-17.46925-24.76237-22.73167-4.24712,2.43987-8.42039,4.9945-12.47247,7.722,9.0461,4.39975,20.23482,14.07449,29.80869,23.21274,16.05944,15.32886,16.90269,49.82931,31.53381,65.79562,19.93478,21.75387,51.85683,25.07236,72.4458,28.05276,1.16004-3.04069,2.22652-6.09445,3.2377-9.09258.33965-1.00704.7994-1.87584,1.34976-2.6164-2.30433-2.12631-4.84982-3.79131-7.16017-4.26353Z"/>
  <path class="cls-10" d="m146.80859,237.12512c-7.02727-2.78806-23.26518-9.48516-29.89111-6.66281-4.04882,2.36068,3.27345,11.87314,4.89379,14.6521,19.50331,27.76372,45.38748,50.93801,73.60939,69.57723,49.55303,32.93105,109.9963,48.40995,169.33844,43.43336,6.21328-.37662,12.8809-1.24166,19.06991-2.04071,2.45443-.34082,5.54316-.76341,6.2872-3.32937.31053-2.7355-1.47647-5.31523-3.11033-7.61423-2.48637-3.31574-5.54301-6.30329-8.67582-9.17255-6.36416-5.70575-13.2678-10.83743-20.30271-15.71109,10.81851,6.45635,29.61217,17.53324,34.69313,29.09744,2.41235,6.28886-2.86133,9.66578-8.30294,10.33675.00017.00017-6.38435,1.10857-6.38435,1.10857-12.81853,2.07069-25.75996,3.32984-38.7605,3.5317-52.20807,1.16978-104.33818-14.86216-147.56168-44.03696-21.59741-14.52557-41.22666-31.99829-57.89827-51.99255-5.55444-6.65967-10.71802-13.64893-15.30835-21.06385-1.71613-2.80885-3.3675-5.68576-4.70313-8.7268-.94347-2.20333-1.78265-4.74763-1.02654-7.34789,3.63392-10.54824,27.753,2.618,34.03387,5.96165h0Z"/>
  <circle class="cls-11" cx="355.18049" cy="252.64258" r="6.74172"/>
  <circle class="cls-12" cx="342.84727" cy="217.47011" r="3.37086"/>
  <circle class="cls-9" cx="233.7315" cy="173.85496" r="3.8965"/>
  <circle class="cls-9" cx="219.38626" cy="185.171" r="3.8965"/>
  <circle class="cls-12" cx="228.65217" cy="183.17034" r="1.94825"/>
  <circle class="cls-12" cx="276.22057" cy="172.85584" r="1.94825"/>
  <circle class="cls-12" cx="268.44393" cy="177.39825" r="1.94825"/>
  <polygon class="cls-7" points="294.97146 281.39699 293.65467 285.32281 294.66399 289.3387 290.73817 288.02191 286.72228 289.03124 288.03908 285.10541 287.02975 281.08953 290.95557 282.40632 294.97146 281.39699"/>
  <circle class="cls-4" cx="268.28947" cy="283.73341" r="232.24829"/>
  <polygon class="cls-1" points="549.39421 255.20291 493.5872 222.94952 493.61595 158.49254 549.45171 126.28895 605.25871 158.54234 605.22996 222.99931 549.39421 255.20291"/>
  <polygon class="cls-2" points="668.1432 281.96978 612.33619 249.7164 612.36494 185.25942 668.2007 153.05583 724.0077 185.30921 723.97895 249.76619 668.1432 281.96978"/>
</svg>