<?xml version="1.0" encoding="UTF-8"?>
<svg id="uuid-38e67ffa-457d-41b1-be0b-539eaaad7d5b" data-name="Layer 1" xmlns="http://www.w3.org/2000/svg" xmlns:xlink="http://www.w3.org/1999/xlink" viewBox="0 0 2891 2830">
  <defs>
    <style>
      .uuid-02b5286e-ed96-4c1c-8328-040be8bedfe1 {
        stroke-width: 3px;
      }

      .uuid-02b5286e-ed96-4c1c-8328-040be8bedfe1, .uuid-ccf82e41-5c36-4a22-a333-12243fbb3d39, .uuid-8569fd93-5eda-4142-baa3-de9327addd33 {
        fill: none;
        stroke: #ffbf31;
        stroke-miterlimit: 10;
      }

      .uuid-f36d35d7-8c4d-419a-8d1a-2b158dc8b37c {
        fill: url(#uuid-b88d7432-454a-4f33-a50e-8f0cd7c2305a);
      }

      .uuid-f36d35d7-8c4d-419a-8d1a-2b158dc8b37c, .uuid-9b38a87a-0ad6-413c-9563-fd07b66164c6, .uuid-eb0865d6-a2db-41c9-88ea-f4ac9b31bfb0, .uuid-39cf1407-72da-4c98-b9f1-c10a62d9c2fa, .uuid-b3851725-6100-4cf7-9d1e-8e2ae3281018, .uuid-25ac9dbe-530a-4ad4-88f7-713e280212f1, .uuid-0852394c-66b6-46e1-8e37-77ad10723658, .uuid-45d44414-d48b-43fc-8ec8-206b4f431296, .uuid-56ca7861-4a6a-4342-80fa-76921a75cd22, .uuid-63714c6a-4d83-4469-8d2e-ab9a868351b0, .uuid-5e4d6327-dfb6-4e1e-82d5-58044daa3143, .uuid-9c5713ec-9f90-428e-9fa2-e7fce8f04972, .uuid-b65ec013-4b44-4688-8c81-904f506c8219, .uuid-400ef723-8abc-47ba-998d-3ff0d929494c, .uuid-ad39ba54-617e-4383-b9ec-2c8443b57b70, .uuid-2a955587-9dd4-4d8d-b4eb-411b3a517426, .uuid-1ba637f9-d347-459c-9f7d-401606798fd5, .uuid-6c56d86b-ca7c-4b9a-bc9b-c16634b6b835, .uuid-59762c47-4072-42a2-86cf-1ca9ec6515ed, .uuid-da81f7f7-dcd7-4f7a-b649-55a3cafe9d3b, .uuid-b66d0a64-40bc-471c-914c-93d0cfd5e0d4, .uuid-fe1c4ed6-46c6-4974-a926-9e69607a229e, .uuid-bf90e744-1f63-4f85-8601-bf4bfabec25b, .uuid-55c87db0-aad6-48f5-8c63-ca9d9f8e9ac8, .uuid-a2bce079-7902-42df-97f9-88b0f030a3f3, .uuid-8286861a-aa02-42f7-bfaa-7cbf156ad93c, .uuid-a3e5d8b6-911c-46fd-9af2-858d230116eb, .uuid-28f6a019-80c1-41b8-bc32-36de8662a710, .uuid-b891a0e4-2a46-409a-a81b-e60343adf7e6, .uuid-6469079d-4593-4f11-a0d0-117699342420, .uuid-839a5b38-35bc-4763-9395-2add7af3d0c7, .uuid-f5b6c678-1f10-44d6-8c84-0844cbe67c53, .uuid-74642ca0-1719-4500-a0cc-de67ce950329, .uuid-8a1dfc3b-f262-4179-b182-42683924d96e, .uuid-3b6071b9-dd72-463b-8821-86a1cac52d58, .uuid-0739f622-ce31-4652-a590-9982fb75825d {
        stroke-width: 0px;
      }

      .uuid-f36d35d7-8c4d-419a-8d1a-2b158dc8b37c, .uuid-eb0865d6-a2db-41c9-88ea-f4ac9b31bfb0, .uuid-b3851725-6100-4cf7-9d1e-8e2ae3281018, .uuid-5e4d6327-dfb6-4e1e-82d5-58044daa3143 {
        opacity: .24;
      }

      .uuid-9b38a87a-0ad6-413c-9563-fd07b66164c6 {
        fill: url(#uuid-dca881ab-d979-4104-89bc-4bac8325a994);
      }

      .uuid-9b38a87a-0ad6-413c-9563-fd07b66164c6, .uuid-39cf1407-72da-4c98-b9f1-c10a62d9c2fa, .uuid-25ac9dbe-530a-4ad4-88f7-713e280212f1, .uuid-da81f7f7-dcd7-4f7a-b649-55a3cafe9d3b {
        opacity: .38;
      }

      .uuid-eb0865d6-a2db-41c9-88ea-f4ac9b31bfb0 {
        fill: url(#uuid-89463624-9b9f-4254-93fa-18f946511987);
      }

      .uuid-39cf1407-72da-4c98-b9f1-c10a62d9c2fa {
        fill: url(#uuid-a05a8431-20e1-4975-b435-72acbd21406c);
      }

      .uuid-b3851725-6100-4cf7-9d1e-8e2ae3281018 {
        fill: url(#uuid-4ab9507f-cc10-4510-ab71-2fab32515379);
      }

      .uuid-25ac9dbe-530a-4ad4-88f7-713e280212f1 {
        fill: url(#uuid-459a8215-b1ad-41b0-863f-718f9e978ccb);
      }

      .uuid-0852394c-66b6-46e1-8e37-77ad10723658 {
        fill: url(#uuid-cacd94e8-a7cd-459a-8621-c09b06da2971);
      }

      .uuid-45d44414-d48b-43fc-8ec8-206b4f431296 {
        fill: url(#uuid-f0e3f107-813d-4feb-9a20-9fb4eb4c647f);
      }

      .uuid-56ca7861-4a6a-4342-80fa-76921a75cd22 {
        opacity: .17;
      }

      .uuid-56ca7861-4a6a-4342-80fa-76921a75cd22, .uuid-9c5713ec-9f90-428e-9fa2-e7fce8f04972 {
        fill: #845a07;
      }

      .uuid-63714c6a-4d83-4469-8d2e-ab9a868351b0 {
        fill: #00388d;
        opacity: .47;
      }

      .uuid-5e4d6327-dfb6-4e1e-82d5-58044daa3143 {
        fill: url(#uuid-4c8d4b8f-dbaf-4aa4-8bed-6fd402431b96);
      }

      .uuid-9c5713ec-9f90-428e-9fa2-e7fce8f04972 {
        opacity: .32;
      }

      .uuid-b65ec013-4b44-4688-8c81-904f506c8219 {
        opacity: .4;
      }

      .uuid-b65ec013-4b44-4688-8c81-904f506c8219, .uuid-400ef723-8abc-47ba-998d-3ff0d929494c, .uuid-2a955587-9dd4-4d8d-b4eb-411b3a517426, .uuid-1ba637f9-d347-459c-9f7d-401606798fd5, .uuid-6c56d86b-ca7c-4b9a-bc9b-c16634b6b835, .uuid-6469079d-4593-4f11-a0d0-117699342420, .uuid-3b6071b9-dd72-463b-8821-86a1cac52d58 {
        fill: #fff;
      }

      .uuid-400ef723-8abc-47ba-998d-3ff0d929494c {
        opacity: .16;
      }

      .uuid-ad39ba54-617e-4383-b9ec-2c8443b57b70 {
        fill: url(#uuid-bcb293b7-2211-43f0-987a-378d97291023);
      }

      .uuid-2a955587-9dd4-4d8d-b4eb-411b3a517426 {
        opacity: .43;
      }

      .uuid-ccf82e41-5c36-4a22-a333-12243fbb3d39 {
        stroke-width: 4px;
      }

      .uuid-1ba637f9-d347-459c-9f7d-401606798fd5 {
        opacity: .52;
      }

      .uuid-6c56d86b-ca7c-4b9a-bc9b-c16634b6b835 {
        opacity: .55;
      }

      .uuid-8569fd93-5eda-4142-baa3-de9327addd33 {
        stroke-width: 8px;
      }

      .uuid-59762c47-4072-42a2-86cf-1ca9ec6515ed {
        opacity: .26;
      }

      .uuid-59762c47-4072-42a2-86cf-1ca9ec6515ed, .uuid-55c87db0-aad6-48f5-8c63-ca9d9f8e9ac8 {
        fill: #2bc9ff;
      }

      .uuid-da81f7f7-dcd7-4f7a-b649-55a3cafe9d3b {
        fill: url(#uuid-b5fd44f4-b10f-483e-8a50-6eb9ffaa9418);
      }

      .uuid-b66d0a64-40bc-471c-914c-93d0cfd5e0d4 {
        opacity: .62;
      }

      .uuid-b66d0a64-40bc-471c-914c-93d0cfd5e0d4, .uuid-f5b6c678-1f10-44d6-8c84-0844cbe67c53 {
        fill: #f1dab2;
      }

      .uuid-fe1c4ed6-46c6-4974-a926-9e69607a229e {
        fill: #4c370f;
      }

      .uuid-bf90e744-1f63-4f85-8601-bf4bfabec25b {
        fill: #534063;
      }

      .uuid-a2bce079-7902-42df-97f9-88b0f030a3f3 {
        fill: #533f63;
      }

      .uuid-8286861a-aa02-42f7-bfaa-7cbf156ad93c {
        fill: #352f33;
      }

      .uuid-a3e5d8b6-911c-46fd-9af2-858d230116eb {
        fill: #39ecff;
      }

      .uuid-28f6a019-80c1-41b8-bc32-36de8662a710 {
        fill: #d5fdff;
      }

      .uuid-b891a0e4-2a46-409a-a81b-e60343adf7e6 {
        fill: #f2dbb3;
      }

      .uuid-839a5b38-35bc-4763-9395-2add7af3d0c7 {
        fill: #ffbf31;
      }

      .uuid-74642ca0-1719-4500-a0cc-de67ce950329 {
        fill: #f76031;
      }

      .uuid-8a1dfc3b-f262-4179-b182-42683924d96e {
        fill: #0089cd;
      }

      .uuid-3b6071b9-dd72-463b-8821-86a1cac52d58 {
        opacity: .29;
      }

      .uuid-0739f622-ce31-4652-a590-9982fb75825d {
        fill: #056d91;
        opacity: .66;
      }
    </style>
    <linearGradient id="uuid-cacd94e8-a7cd-459a-8621-c09b06da2971" data-name="New Gradient Swatch copy 2" x1="198.35732" y1="7696.70993" x2="451.20968" y2="7696.70993" gradientTransform="translate(7817.5105 -3667.57336) rotate(47.21708)" gradientUnits="userSpaceOnUse">
      <stop offset="0" stop-color="#0089cc"/>
      <stop offset=".03406" stop-color="#0a82c7"/>
      <stop offset=".19314" stop-color="#3566b6"/>
      <stop offset=".35426" stop-color="#5a4fa7"/>
      <stop offset=".5154" stop-color="#763d9c"/>
      <stop offset=".67654" stop-color="#8a3094"/>
      <stop offset=".8379" stop-color="#96288f"/>
      <stop offset="1" stop-color="#9a268e"/>
    </linearGradient>
    <radialGradient id="uuid-459a8215-b1ad-41b0-863f-718f9e978ccb" cx="441.58716" cy="7838.34624" fx="441.58716" fy="7838.34624" r="293.24812" gradientTransform="translate(7817.5105 -3667.57336) rotate(47.21708)" gradientUnits="userSpaceOnUse">
      <stop offset="0" stop-color="#fff" stop-opacity="0"/>
      <stop offset=".1349" stop-color="#fff" stop-opacity=".15889"/>
      <stop offset=".45395" stop-color="#fff" stop-opacity=".51479"/>
      <stop offset=".71358" stop-color="#fff" stop-opacity=".77631"/>
      <stop offset=".90065" stop-color="#fff" stop-opacity=".9382"/>
      <stop offset=".99667" stop-color="#fff"/>
    </radialGradient>
    <linearGradient id="uuid-4c8d4b8f-dbaf-4aa4-8bed-6fd402431b96" x1="5911.28159" y1="-283.26918" x2="5870.69526" y2="-562.54822" gradientTransform="translate(-2442.21801 5217.11574) rotate(-31.03466)" gradientUnits="userSpaceOnUse">
      <stop offset="0" stop-color="#cc6c2e" stop-opacity="0"/>
      <stop offset="1" stop-color="#fff"/>
    </linearGradient>
    <linearGradient id="uuid-b88d7432-454a-4f33-a50e-8f0cd7c2305a" x1="5897.60292" y1="-446.65328" x2="5986.62841" y2="-446.65328" gradientTransform="translate(-2442.21801 5217.11574) rotate(-31.03466)" gradientUnits="userSpaceOnUse">
      <stop offset="0" stop-color="#fff"/>
      <stop offset=".0885" stop-color="#fff" stop-opacity=".95076"/>
      <stop offset=".25094" stop-color="#fff" stop-opacity=".82006"/>
      <stop offset=".4691" stop-color="#fff" stop-opacity=".60826"/>
      <stop offset=".7329" stop-color="#fff" stop-opacity=".3177"/>
      <stop offset=".99667" stop-color="#fff" stop-opacity="0"/>
    </linearGradient>
    <radialGradient id="uuid-dca881ab-d979-4104-89bc-4bac8325a994" cx="330.13543" cy="7684.80056" fx="330.13543" fy="7684.80056" r="278.21388" gradientTransform="translate(7817.5105 -3667.57336) rotate(47.21708)" gradientUnits="userSpaceOnUse">
      <stop offset="0" stop-color="#fff" stop-opacity=".6"/>
      <stop offset=".12331" stop-color="#fffbf3" stop-opacity=".57042"/>
      <stop offset=".30969" stop-color="#fff3d2" stop-opacity=".4888"/>
      <stop offset=".53605" stop-color="#ffe69d" stop-opacity=".35524"/>
      <stop offset=".79132" stop-color="#ffd355" stop-opacity=".17148"/>
      <stop offset="1" stop-color="#ffc211" stop-opacity="0"/>
    </radialGradient>
    <linearGradient id="uuid-bcb293b7-2211-43f0-987a-378d97291023" x1="150.39" y1="2945.83344" x2="289.47077" y2="2945.83344" gradientTransform="translate(2115.88823 -1280.52444) rotate(40.14618)" gradientUnits="userSpaceOnUse">
      <stop offset="0" stop-color="#d5336a"/>
      <stop offset=".14406" stop-color="#d53b68"/>
      <stop offset=".37599" stop-color="#d65363"/>
      <stop offset=".66679" stop-color="#d7795b"/>
      <stop offset=".99667" stop-color="#daae51"/>
    </linearGradient>
    <radialGradient id="uuid-b5fd44f4-b10f-483e-8a50-6eb9ffaa9418" cx="285.21322" cy="3022.62144" fx="285.21322" fy="3022.62144" r="161.30035" gradientTransform="translate(2115.88823 -1280.52444) rotate(40.14618)" xlink:href="#uuid-459a8215-b1ad-41b0-863f-718f9e978ccb"/>
    <linearGradient id="uuid-4ab9507f-cc10-4510-ab71-2fab32515379" x1="10537.25272" y1="-1423.01866" x2="10514.92831" y2="-1576.63535" gradientTransform="translate(-6972.12715 8799.54033) rotate(-38.10557)" xlink:href="#uuid-4c8d4b8f-dbaf-4aa4-8bed-6fd402431b96"/>
    <linearGradient id="uuid-89463624-9b9f-4254-93fa-18f946511987" x1="10529.7288" y1="-1512.88765" x2="10578.69703" y2="-1512.88765" gradientTransform="translate(-6972.12715 8799.54033) rotate(-38.10557)" xlink:href="#uuid-b88d7432-454a-4f33-a50e-8f0cd7c2305a"/>
    <radialGradient id="uuid-a05a8431-20e1-4975-b435-72acbd21406c" cx="228.53301" cy="2942.24865" fx="228.53301" fy="2942.24865" r="153.03081" gradientTransform="translate(2115.88823 -1280.52444) rotate(40.14618)" xlink:href="#uuid-dca881ab-d979-4104-89bc-4bac8325a994"/>
    <radialGradient id="uuid-f0e3f107-813d-4feb-9a20-9fb4eb4c647f" cx="2115.02334" cy="784.03942" fx="2115.02334" fy="784.03942" r="14.49987" gradientUnits="userSpaceOnUse">
      <stop offset="0" stop-color="#fff"/>
      <stop offset=".00738" stop-color="#fff" stop-opacity=".96381"/>
      <stop offset=".04768" stop-color="#fff" stop-opacity=".78417"/>
      <stop offset=".09309" stop-color="#fff" stop-opacity=".61488"/>
      <stop offset=".1419" stop-color="#fff" stop-opacity=".46688"/>
      <stop offset=".19502" stop-color="#fff" stop-opacity=".33967"/>
      <stop offset=".25374" stop-color="#fff" stop-opacity=".23299"/>
      <stop offset=".32001" stop-color="#fff" stop-opacity=".14667"/>
      <stop offset=".39742" stop-color="#fff" stop-opacity=".08036"/>
      <stop offset=".49311" stop-color="#fff" stop-opacity=".03399"/>
      <stop offset=".62736" stop-color="#fff" stop-opacity=".00735"/>
      <stop offset="1" stop-color="#fff" stop-opacity="0"/>
    </radialGradient>
  </defs>
  <g>
    <polyline class="uuid-02b5286e-ed96-4c1c-8328-040be8bedfe1" points="1661.70056 1058.6587 1722.25492 1058.6587 1722.25492 1386.01249"/>
    <polyline class="uuid-ccf82e41-5c36-4a22-a333-12243fbb3d39" points="1487.74925 1643.07776 1661.70056 1519.48015 1490.74925 1421.29123 1652.5416 1267.5 1491 1154 1575.5 1083.5 1661.70056 1150.5 1485 1270 1652.5416 1415.79996 1490.74925 1559.43461 1652.5416 1665.35826"/>
    <g>
      <path class="uuid-55c87db0-aad6-48f5-8c63-ca9d9f8e9ac8" d="m2285.8698,2396.6825c49.91815-19.75001,161.91372-141.04619,161.91372-141.04619l-148.51634,45.804c-2.1131,4.93848-4.42352,9.79224-6.93383,14.54102-2.40173,4.54321-5.07898,9.10791-9.11322,12.29151-3.23389,2.552-7.14722,4.06226-11.00201,5.51514-43.92785,16.55641-89.0913,30.52395-135.59594,36.93363-34.20776,4.71485-69.24536,5.23-103.27087-.22043l-64.34826,15.39772c-10.24084,2.45044-9.40161,17.28052,1.05018,18.56103,85.06531,10.42087,248.48597,18.8615,315.81659-7.77744Z"/>
      <path class="uuid-63714c6a-4d83-4469-8d2e-ab9a868351b0" d="m2136.62217,2370.72161c46.50464-6.40968,91.66808-20.37722,135.59594-36.93363,3.8548-1.45288,7.76813-2.96314,11.00201-5.51514,4.03424-3.18359,6.71148-7.74829,9.11322-12.29151,2.51031-4.74878,4.82074-9.60254,6.93383-14.54102l-78.56567,24.23074-187.35021,44.83013c34.02551,5.45043,69.06311,4.93528,103.27087.22043Z"/>
    </g>
    <line class="uuid-ccf82e41-5c36-4a22-a333-12243fbb3d39" x1="682.5" y1="2527" x2="2147" y2="2527"/>
    <rect class="uuid-839a5b38-35bc-4763-9395-2add7af3d0c7" x="610" y="2304" width="446" height="223"/>
    <rect class="uuid-02b5286e-ed96-4c1c-8328-040be8bedfe1" x="748.5" y="1284.5" width="168" height="1051"/>
    <line class="uuid-ccf82e41-5c36-4a22-a333-12243fbb3d39" x1="697.5" y1="1411.5" x2="966.5" y2="1543.5"/>
    <line class="uuid-ccf82e41-5c36-4a22-a333-12243fbb3d39" x1="689.83288" y1="1577.07776" x2="958.83288" y2="1709.07776"/>
    <line class="uuid-ccf82e41-5c36-4a22-a333-12243fbb3d39" x1="697.83288" y1="1739.07776" x2="966.83288" y2="1871.07776"/>
    <line class="uuid-ccf82e41-5c36-4a22-a333-12243fbb3d39" x1="701.5" y1="1867.28888" x2="970.5" y2="1999.28888"/>
    <line class="uuid-ccf82e41-5c36-4a22-a333-12243fbb3d39" x1="693.83288" y1="2011.86665" x2="962.83288" y2="2143.86665"/>
    <line class="uuid-ccf82e41-5c36-4a22-a333-12243fbb3d39" x1="701.83288" y1="2157.86665" x2="970.83288" y2="2289.86665"/>
    <line class="uuid-ccf82e41-5c36-4a22-a333-12243fbb3d39" x1="745.83288" y1="1606.07776" x2="913" y2="1606.07776"/>
    <line class="uuid-ccf82e41-5c36-4a22-a333-12243fbb3d39" x1="746.15615" y1="1884.77674" x2="913.32326" y2="1884.77674"/>
    <line class="uuid-ccf82e41-5c36-4a22-a333-12243fbb3d39" x1="750.15615" y1="2039.77674" x2="917.32326" y2="2039.77674"/>
    <line class="uuid-ccf82e41-5c36-4a22-a333-12243fbb3d39" x1="751.15615" y1="2179.77674" x2="918.32326" y2="2179.77674"/>
    <line class="uuid-ccf82e41-5c36-4a22-a333-12243fbb3d39" x1="748.15615" y1="1435.77674" x2="915.32326" y2="1435.77674"/>
    <line class="uuid-ccf82e41-5c36-4a22-a333-12243fbb3d39" x1="749.15615" y1="1760.77674" x2="916.32326" y2="1760.77674"/>
    <rect class="uuid-8569fd93-5eda-4142-baa3-de9327addd33" x="666" y="1197" width="334" height="88"/>
    <path class="uuid-839a5b38-35bc-4763-9395-2add7af3d0c7" d="m1125,1227h-543v-193.01509c0-61.84756,39.40089-111.98491,88.00435-111.98491h112.31548l195.75075,10,142.36639,143,4.56303,152Z"/>
    <polygon class="uuid-ccf82e41-5c36-4a22-a333-12243fbb3d39" points="796 367.1211 812 364 975 931 640 931 796 367.1211"/>
    <circle class="uuid-839a5b38-35bc-4763-9395-2add7af3d0c7" cx="802" cy="337" r="49"/>
    <line class="uuid-ccf82e41-5c36-4a22-a333-12243fbb3d39" x1="396" y1="847" x2="1653" y2="847"/>
    <path class="uuid-28f6a019-80c1-41b8-bc32-36de8662a710" d="m859.81868,925s-62.53052,256,263.18132,211l-.9608-62-147.88509-143-114.33542-6Z"/>
    <line class="uuid-ccf82e41-5c36-4a22-a333-12243fbb3d39" x1="768" y1="344" x2="396" y2="588.27644"/>
    <line class="uuid-ccf82e41-5c36-4a22-a333-12243fbb3d39" x1="851" y1="344" x2="1760" y2="630"/>
    <polygon class="uuid-02b5286e-ed96-4c1c-8328-040be8bedfe1" points="1490.5 997 1490.0931 1869 1658.0931 1869 1658.5 996.5 1575.5 1083.5 1490.5 997"/>
    <path class="uuid-fe1c4ed6-46c6-4974-a926-9e69607a229e" d="m768,1074.5c8.64929,16.96423,13.50759,39.67432,10.28745,58.62665-1.27342,6.52365-4.05957,14.14124-10.2874,17.37342,2.05463-2.69001,3.12641-5.65778,3.79047-8.69855,1.87337-9.32648.92019-18.83004.15834-28.32837-1.19341-12.99865-3.15197-25.79744-3.94886-38.97315h0Z"/>
    <g>
      <path class="uuid-55c87db0-aad6-48f5-8c63-ca9d9f8e9ac8" d="m1422.7346,1872.13594c19.75-49.91815,141.04614-161.91376,141.04614-161.91376l-45.80396,148.51636c-4.93848,2.1131-9.79224,4.42352-14.54102,6.93384-4.54321,2.40173-9.10791,5.07898-12.2915,9.11322-2.552,3.23389-4.06226,7.14722-5.51514,11.00201-16.5564,43.92786-30.52393,89.09131-36.93359,135.59595-4.71484,34.20776-5.22998,69.24536.22046,103.27087l-15.39771,64.34827c-2.45044,10.24084-17.28052,9.40161-18.56104-1.05017-10.4209-85.06531-18.86157-248.48596,7.77734-315.81659Z"/>
      <path class="uuid-63714c6a-4d83-4469-8d2e-ab9a868351b0" d="m1448.69554,2021.38356c6.40967-46.50464,20.3772-91.66809,36.93359-135.59595,1.45288-3.8548,2.96313-7.76813,5.51514-11.00201,3.18359-4.03424,7.74829-6.71149,12.2915-9.11322,4.74878-2.51031,9.60254-4.82074,14.54102-6.93384l-24.23071,78.56567-44.83008,187.35022c-5.45044-34.02551-4.9353-69.06311-.22046-103.27087Z"/>
    </g>
    <path class="uuid-839a5b38-35bc-4763-9395-2add7af3d0c7" d="m1914.70471,2221.43461c58.98633-155.23621,43.03223-523.77307-4.74976-711-13.20312-51.73444-62.08862-167.26208-123.91431-217.22235-14.72607,87.93463,7.32153,272.90137,7.32153,319.55371,0,163.27625,21.34204,439.5899-105.0105,629.93524-5.02734,7.57349,5.76855,17.35132,17.77197,25.20142,57.33911-.9104,118.22363-8.44824,158.23413-15.46802,5.69971-1,46.54712-21,50.34692-31Z"/>
    <path class="uuid-839a5b38-35bc-4763-9395-2add7af3d0c7" d="m1688.35168,2242.70122c126.35254-190.34534,105.0105-466.659,105.0105-629.93524,0-46.65234-22.04761-231.61908-7.32153-319.55371-18.24316-14.742-37.61255-23.77765-57.52515-23.77765-90.24463,0-165.29028,183-184.28906,241-50.53662,154.27838-44.64746,540-6.64966,711,3.58154,16.11792,58.52856,35.33765,64.59619,37,27.98413,7.66736,65.15649,10.08398,103.95068,9.46802-12.00342-7.8501-22.79932-17.62793-17.77197-25.20142Z"/>
    <path class="uuid-3b6071b9-dd72-463b-8821-86a1cac52d58" d="m1914.70471,2221.43461c58.98633-155.23621,43.03223-523.77307-4.74976-711-13.20312-51.73444-62.08862-167.26208-123.91431-217.22235-14.72607,87.93463,7.32153,272.90137,7.32153,319.55371,0,163.27625,21.34204,439.5899-105.0105,629.93524-5.02734,7.57349,5.76855,17.35132,17.77197,25.20142,57.33911-.9104,118.22363-8.44824,158.23413-15.46802,5.69971-1,46.54712-21,50.34692-31Z"/>
    <path class="uuid-a3e5d8b6-911c-46fd-9af2-858d230116eb" d="m1734.29431,1435.40336c-75.97373,0-137.5625,61.58877-137.5625,137.5625s61.58877,137.5625,137.5625,137.5625,137.5625-61.58885,137.5625-137.5625-61.58877-137.5625-137.5625-137.5625Zm0,246.08403c-59.93462,0-108.52153-48.58676-108.52153-108.52153s48.58691-108.52153,108.52153-108.52153,108.52153,48.58676,108.52153,108.52153-48.58691,108.52153-108.52153,108.52153Z"/>
    <g>
      <circle class="uuid-28f6a019-80c1-41b8-bc32-36de8662a710" cx="1734.29431" cy="1572.96586" r="112.5"/>
      <path class="uuid-6469079d-4593-4f11-a0d0-117699342420" d="m1846.79443,1572.96582c.61878,61.63667-50.77593,114.41862-112.50047,115.48399-64.39385,2.11942-118.85236-50.98481-118.4962-115.48435-.54752-64.29287,54.30991-117.80836,118.49715-115.51474,61.72614,1.07947,113.12315,53.87329,112.49952,115.5151h0Zm0,0c.42994-44.53841-28.49184-86.68269-70.13864-102.2736-71.34876-27.56046-149.05918,25.91591-148.86397,102.27407-.22261,76.38508,77.50334,129.88816,148.87205,102.29114,41.64419-15.60198,70.56257-57.75036,70.13056-102.29162h0Z"/>
    </g>
    <path class="uuid-59762c47-4072-42a2-86cf-1ca9ec6515ed" d="m1737.12333,1464.43461c-59.328,0-107.42277,45.04842-107.42277,100.61855,0,3.19515.16645,6.35351.47743,9.47251,21.5088-12.22391,44.73361-21.72934,69.15994-28.44379,45.03597-12.37965,92.37076-15.64915,139.36263-13.8356-14.52445-39.46107-54.51379-67.81167-101.57723-67.81167Z"/>
    <path class="uuid-55c87db0-aad6-48f5-8c63-ca9d9f8e9ac8" d="m1604.5541,2106.10539l-25.92986,44.91768,39.13455,231.9707c1.53952,7.75933,12.67545,7.00429,13.18856-.89422l34.75321-234.97526-34.85561-44.20689c-7.34279-8.85707-21.20151-7.17658-26.29085,3.18799Z"/>
    <path class="uuid-55c87db0-aad6-48f5-8c63-ca9d9f8e9ac8" d="m1782.63546,2116.31119l-25.92986,44.91768,39.13455,231.9707c1.53952,7.75933,12.67545,7.00429,13.18856-.89422l34.75321-234.97526-34.85561-44.20689c-7.34279-8.85707-21.20151-7.17658-26.29085,3.18799Z"/>
    <circle class="uuid-6469079d-4593-4f11-a0d0-117699342420" cx="1794.70056" cy="1587.43461" r="28"/>
    <circle class="uuid-6469079d-4593-4f11-a0d0-117699342420" cx="1756.70056" cy="1629.43461" r="14"/>
    <circle class="uuid-6469079d-4593-4f11-a0d0-117699342420" cx="1552.70056" cy="1919.43461" r="19"/>
    <circle class="uuid-6469079d-4593-4f11-a0d0-117699342420" cx="1543.20056" cy="1962.93461" r="9.5"/>
    <g>
      <path class="uuid-74642ca0-1719-4500-a0cc-de67ce950329" d="m1722.64526,1885.29174c11.62613-3.10505,22.95959-.0207,28.16855,6.95646.06217-2.47561-.21731-5.00047-.88872-7.5144-3.77642-14.13989-18.3005-22.54122-32.44045-18.76479-14.13995,3.77643-22.54121,18.30056-18.76479,32.44045.67141,2.51394,1.688,4.84193,2.9762,6.95689,1.03661-8.6452,9.32308-16.96955,20.94921-20.07461Z"/>
      <path class="uuid-74642ca0-1719-4500-a0cc-de67ce950329" d="m1731.16029,1917.17425c11.62613-3.10505,19.36573-13.47703,19.65351-24.92605-5.20896-6.97716-16.54242-10.06151-28.16855-6.95646-11.62613,3.10505-19.9126,11.42941-20.94921,20.07461,5.95779,9.78098,17.83812,14.91295,29.46425,11.8079Z"/>
      <path class="uuid-400ef723-8abc-47ba-998d-3ff0d929494c" d="m1731.16029,1917.17425c11.62613-3.10505,19.36573-13.47703,19.65351-24.92605-5.20896-6.97716-16.54242-10.06151-28.16855-6.95646-11.62613,3.10505-19.9126,11.42941-20.94921,20.07461,5.95779,9.78098,17.83812,14.91295,29.46425,11.8079Z"/>
    </g>
    <g>
      <path class="uuid-74642ca0-1719-4500-a0cc-de67ce950329" d="m1630.07271,1849.01142c9.43844,7.46486,13.73983,18.39457,11.25963,26.74098,2.02188-1.42986,3.87904-3.16306,5.49317-5.20395,9.07889-11.47918,7.13309-28.14487-4.34614-37.2238s-28.14491-7.13305-37.2238,4.34614c-1.61414,2.04089-2.87289,4.24737-3.7985,6.54427,7.55054-4.33628,19.17719-2.6685,28.61563,4.79636Z"/>
      <path class="uuid-74642ca0-1719-4500-a0cc-de67ce950329" d="m1609.60171,1874.89459c9.43844,7.46486,22.37982,7.47032,31.73062.85782,2.4802-8.34641-1.82119-19.27612-11.25963-26.74098-9.43844-7.46486-21.06509-9.13264-28.61563-4.79636-4.28047,10.62264-1.2938,23.21466,8.14463,30.67953Z"/>
      <path class="uuid-400ef723-8abc-47ba-998d-3ff0d929494c" d="m1609.60171,1874.89459c9.43844,7.46486,22.37982,7.47032,31.73062.85782,2.4802-8.34641-1.82119-19.27612-11.25963-26.74098-9.43844-7.46486-21.06509-9.13264-28.61563-4.79636-4.28047,10.62264-1.2938,23.21466,8.14463,30.67953Z"/>
    </g>
    <g>
      <path class="uuid-74642ca0-1719-4500-a0cc-de67ce950329" d="m1560.37329,1796.90787c10.31632,6.1953,15.98137,16.48451,14.58993,25.07974,1.82222-1.6769,3.44224-3.63357,4.78186-5.86429,7.53483-12.54688,3.47178-28.82641-9.07515-36.36127-12.54693-7.53486-28.82644-3.47173-36.36127,9.07515-1.33962,2.23071-2.30558,4.58017-2.92956,6.97666,6.93337-5.2671,18.67786-5.10129,28.99418,1.09401Z"/>
      <path class="uuid-74642ca0-1719-4500-a0cc-de67ce950329" d="m1543.38382,1825.19847c10.31632,6.1953,23.15194,4.54418,31.5794-3.21086,1.39143-8.59522-4.27361-18.88443-14.58993-25.07974-10.31632-6.1953-22.06081-6.36111-28.99418-1.09401-2.88553,11.08317,1.68839,23.18931,12.00471,29.38461Z"/>
      <path class="uuid-400ef723-8abc-47ba-998d-3ff0d929494c" d="m1543.38382,1825.19847c10.31632,6.1953,23.15194,4.54418,31.5794-3.21086,1.39143-8.59522-4.27361-18.88443-14.58993-25.07974-10.31632-6.1953-22.06081-6.36111-28.99418-1.09401-2.88553,11.08317,1.68839,23.18931,12.00471,29.38461Z"/>
    </g>
    <path class="uuid-8a1dfc3b-f262-4179-b182-42683924d96e" d="m1511.07565,1992.24939l2.6249,47.18522s169.83014,108.09589,434,1c148-60,0,0,0,0l5.039-55.12311s-187.039,97.12311-441.6639,6.93789c-328.85175-116.47552,0,0,0,0l5.06118,74.50371"/>
    <path class="uuid-8286861a-aa02-42f7-bfaa-7cbf156ad93c" d="m1937.56416,1665.35826s-28.56416,25.64174-75.99149,45.1701c0,0,13.57267,247.34086,0,261.90625,0,0,88.33767-9.56539,94.3825-19,0,0-2.95517-213.43461-18.39101-288.07635Z"/>
    <path class="uuid-8286861a-aa02-42f7-bfaa-7cbf156ad93c" d="m1600.66406,1421.2913s-29.66406-.2913-36.66406,36.7087c0,0-56,115-56,270,0,0,57.95517,9.43461,64,0,0,0-8-176,28.66406-306.7087Z"/>
    <circle class="uuid-6469079d-4593-4f11-a0d0-117699342420" cx="939.5" cy="968.5" r="26.5"/>
    <circle class="uuid-6469079d-4593-4f11-a0d0-117699342420" cx="987.5" cy="997.5" r="13.5"/>
    <polygon class="uuid-9c5713ec-9f90-428e-9fa2-e7fce8f04972" points="808 2527 609 2527 609 2304 966 2305 808 2527"/>
    <polygon class="uuid-56ca7861-4a6a-4342-80fa-76921a75cd22" points="2129.97759 1271 2004 1271 2004 1154 2230 1154.52466 2129.97759 1271"/>
    <polygon class="uuid-9c5713ec-9f90-428e-9fa2-e7fce8f04972" points="2106 2528 1907 2528 1907 2413 2264 2413.5157 2106 2528"/>
    <rect class="uuid-839a5b38-35bc-4763-9395-2add7af3d0c7" x="1904" y="2413" width="540" height="117"/>
    <rect class="uuid-839a5b38-35bc-4763-9395-2add7af3d0c7" x="2004.5" y="1153.5" width="697" height="117"/>
    <rect class="uuid-55c87db0-aad6-48f5-8c63-ca9d9f8e9ac8" x="2443.5" y="1153.5" width="258" height="117"/>
    <polygon class="uuid-ccf82e41-5c36-4a22-a333-12243fbb3d39" points="2541.5 841 1340.5 841.5 1519.5 652.5 2380.5 658.5 2541.5 841"/>
    <polyline class="uuid-ccf82e41-5c36-4a22-a333-12243fbb3d39" points="2402.49776 841 2380.5 658.5 2253.65023 841 2231.3231 658.5 2105.18455 841 2092.3902 656.61282 1946.35119 841 1946.35119 652.5 1804.70056 841 1804.70056 654.72839 1658.26011 841 1658.26011 653.76917 1509.41257 841 1519.35179 652.85929"/>
    <polyline class="uuid-ccf82e41-5c36-4a22-a333-12243fbb3d39" points="2337.99717 841 2337.5 1007.5 2620.5 1151.5 2084.95636 1151.5 2337.5 1007.5"/>
    <rect class="uuid-839a5b38-35bc-4763-9395-2add7af3d0c7" x="235" y="715" width="322" height="131"/>
    <rect class="uuid-8a1dfc3b-f262-4179-b182-42683924d96e" x="255" y="623" width="202" height="91"/>
    <polygon class="uuid-0739f622-ce31-4652-a590-9982fb75825d" points="255 623 366 623 302 714 255 714 255 623"/>
    <polygon class="uuid-9c5713ec-9f90-428e-9fa2-e7fce8f04972" points="235 715 346 715 282 846 235 846 235 715"/>
  </g>
  <circle class="uuid-0852394c-66b6-46e1-8e37-77ad10723658" cx="2389.24595" cy="1798.57447" r="126.42618"/>
  <circle class="uuid-25ac9dbe-530a-4ad4-88f7-713e280212f1" cx="2388.08985" cy="1798.50646" r="126.42618"/>
  <path class="uuid-5e4d6327-dfb6-4e1e-82d5-58044daa3143" d="m2475.14669,1865.72766c-28.38451,3.19375-54.49335-3.9763-72.79658-20.82327-21.21473-19.52722-21.62625-49.2284-31.31172-74.92141-10.08317-26.74836-29.24614-56.56595-57.14111-71.93033-7.93634,5.73316-15.50483,11.97445-22.52693,18.93079-.19102.18921-.38908.34937-.58423.52149-1.7036,2.83342-3.45866,5.62169-5.42463,8.25876,14.62668,5.94294,25.90011,18.03219,34.42684,30.11718,17.54382,24.86495,19.86411,54.36119,31.13284,82.00317,17.28189,42.39164,64.42222,66.39765,116.7209,62.2487.8521-1.20795,1.98731-2.30759,3.47627-3.2225,8.46949-5.20446,15.07331-12.56595,20.46008-20.97721-1.35441-6.40034-6.71438-11.29864-16.43174-10.20538Z"/>
  <path class="uuid-f36d35d7-8c4d-419a-8d1a-2b158dc8b37c" d="m2502.3299,1833.56846c-13.75093-2.81043-59.10497-16.36931-77.65931-31.91937-21.50611-18.0237-34.14007-66.92713-52.55525-87.34688-12.71182-14.09546-23.7429-24.20444-34.30938-31.49575-5.88458,3.38056-11.66683,6.9201-17.28117,10.69917,12.53377,6.09605,28.03625,19.50084,41.30129,32.1623,22.25108,21.23882,23.41943,69.04075,43.69151,91.16279,27.62053,30.14096,71.84998,34.73888,100.37693,38.86836,1.60728-4.21302,3.08494-8.44414,4.48597-12.59818.4706-1.3953,1.1076-2.59906,1.87015-3.62515-3.19276-2.9461-6.71964-5.25303-9.92073-5.90731Z"/>
  <path class="uuid-bf90e744-1f63-4f85-8601-bf4bfabec25b" d="m2238.47461,1725.05078c-9.52294-4.00898-32.6315-13.73667-41.66601-9.72788-6.3509,3.50274,3.95302,17.02475,6.3884,21.20938,26.87442,38.77287,62.73294,71.08048,101.91011,97.08131,68.83093,45.88265,152.97719,67.32555,235.43281,59.98348,5.89368-.48136,11.77918-1.0922,17.65222-1.82266,2.93701-.36523,5.86914-.76904,8.79834-1.19873,2.7299-.34856,5.39467-.90637,7.49625-2.4794,7.34645-6.32019-10.21789-22.01018-14.99311-26.37117-8.89687-7.8377-18.53641-14.84644-28.36567-21.49175,15.23805,9.27132,30.77356,18.88759,42.6291,32.52517,3.94871,4.56436,8.75222,12.82798,2.88771,17.89593-2.77953,2.32552-6.10717,3.01351-9.06542,3.52864-2.94043.52441-5.8855,1.02344-8.83789,1.48291-41.41313,6.5796-83.92565,6.29553-125.15796-1.66363-59.00011-11.26439-114.60987-38.29505-161.11229-76.14891-23.23218-18.8859-44.49983-40.31745-62.41856-64.33289-3.56388-4.82136-6.98039-9.75691-10.16154-14.86384-3.13012-5.30267-6.52448-10.45029-8.0988-16.53116-3.14735-22.75629,37.86528-1.78625,46.6823,2.9252h0Z"/>
  <circle class="uuid-b891a0e4-2a46-409a-a81b-e60343adf7e6" cx="2527.1834" cy="1746.55077" r="9.34095"/>
  <circle class="uuid-f5b6c678-1f10-44d6-8c84-0844cbe67c53" cx="2510.09516" cy="1697.81773" r="4.67048"/>
  <circle class="uuid-b66d0a64-40bc-471c-914c-93d0cfd5e0d4" cx="2358.91035" cy="1637.38697" r="5.39878"/>
  <circle class="uuid-b66d0a64-40bc-471c-914c-93d0cfd5e0d4" cx="2339.03437" cy="1653.06586" r="5.39878"/>
  <circle class="uuid-f5b6c678-1f10-44d6-8c84-0844cbe67c53" cx="2351.87271" cy="1650.29386" r="2.69939"/>
  <circle class="uuid-f5b6c678-1f10-44d6-8c84-0844cbe67c53" cx="2417.78087" cy="1636.00265" r="2.69939"/>
  <circle class="uuid-f5b6c678-1f10-44d6-8c84-0844cbe67c53" cx="2407.00599" cy="1642.29636" r="2.69939"/>
  <polygon class="uuid-1ba637f9-d347-459c-9f7d-401606798fd5" points="2443.76107 1786.3913 2441.9366 1791.83071 2443.33507 1797.3949 2437.89566 1795.57042 2432.33147 1796.96889 2434.15594 1791.52948 2432.75747 1785.9653 2438.19688 1787.78977 2443.76107 1786.3913"/>
  <circle class="uuid-9b38a87a-0ad6-413c-9563-fd07b66164c6" cx="2406.79198" cy="1789.62851" r="321.79048"/>
  <circle class="uuid-ad39ba54-617e-4383-b9ec-2c8443b57b70" cx="384.7071" cy="1113.07451" r="69.54039"/>
  <circle class="uuid-da81f7f7-dcd7-4f7a-b649-55a3cafe9d3b" cx="385.58406" cy="1112.92803" r="69.54039"/>
  <path class="uuid-b3851725-6100-4cf7-9d1e-8e2ae3281018" d="m436.14413,1143.91472c-15.27783,3.66525-30.01519,1.5192-41.14696-6.43765-12.90254-9.22277-15.13822-25.40771-22.16483-38.7768-7.31516-13.91824-19.79447-28.89707-36.06164-35.39518-3.94397,3.66689-7.65274,7.58625-11.01485,11.85892-.09146.11622-.18873.21705-.2836.32422-.73809,1.66201-1.50732,3.30286-2.40191,4.87546,8.38657,2.25367,15.35889,8.08944,20.83159,14.10886,11.26013,12.385,14.52387,28.32883,22.54669,42.65459,12.30388,21.96992,39.66152,31.88209,67.92857,26.07621.38334-.71707.92855-1.39419,1.67938-1.99442,4.2708-3.41439,7.37715-7.87991,9.74806-12.83605-1.17269-3.40201-4.43017-5.71289-9.66049-4.45817Z"/>
  <path class="uuid-eb0865d6-a2db-41c9-88ea-f4ac9b31bfb0" d="m448.80498,1124.51961c-7.69643-.60304-33.37163-4.93345-44.55267-12.16536-12.95979-8.38232-23.16743-34.2215-34.60223-44.12103-7.89332-6.83349-14.59926-11.60471-20.86081-14.86932-2.98329,2.24377-5.89994,4.56739-8.70874,7.01039,7.2545,2.47896,16.62437,8.74649,24.72258,14.75975,13.58414,10.0869,17.45854,36.10114,30.02221,46.80416,17.11788,14.58269,41.57247,14.09778,57.42391,14.42037.5921-2.40856,1.11221-4.81823,1.59571-7.18064.16241-.79351.42862-1.49373.77539-2.10546-1.94229-1.39199-4.02369-2.41245-5.81535-2.55286Z"/>
  <path class="uuid-a2bce079-7902-42df-97f9-88b0f030a3f3" d="m297.42822,1083.14893c-6.21953-1.53424-12.75255-3.08765-19.11182-2.94297-1.50342.06748-3.10547.34775-3.92969.99375-.38818.32666-.50879.59277-.53857,1.02441.0211,1.176.61601,2.33481,1.38784,3.44584,5.06061,7.20552,11.65562,13.18981,18.22683,19.04594,4.86873,4.24016,9.95076,8.2387,15.20125,11.99407,41.71902,30.34497,94.14618,45.73582,145.66902,39.90638,9.63741-1.03095,19.2276-2.75054,28.67523-4.96542,5.72748-1.67397,13.0577-1.5527,5.99797-9.11769-6.84091-6.84523-15.57525-11.60373-24.03012-16.32535,9.09245,3.81438,18.33302,7.86155,25.89016,14.44429,5.68088,4.94751,6.11416,11.01992-2.10919,13.32193-4.6647,1.42083-9.57324,2.98183-14.27929,4.09664-45.13897,11.67254-94.21634,5.74643-135.64234-15.51591-11.82868-6.02303-23.11148-13.12661-33.60995-21.24032-10.43258-8.17388-20.29635-17.11382-28.61471-27.56206-2.5399-3.62204-7.9008-9.07746-5.14918-13.70601,4.29456-5.75107,20.47858.89045,25.96656,3.10249h0Z"/>
  <circle class="uuid-b891a0e4-2a46-409a-a81b-e60343adf7e6" cx="456.47969" cy="1075.33696" r="5.13797"/>
  <circle class="uuid-b66d0a64-40bc-471c-914c-93d0cfd5e0d4" cx="357.23406" cy="1027.14206" r="2.96959"/>
  <circle class="uuid-f5b6c678-1f10-44d6-8c84-0844cbe67c53" cx="355.75823" cy="1020.06998" r="1.48479"/>
  <circle class="uuid-b66d0a64-40bc-471c-914c-93d0cfd5e0d4" cx="347.44609" cy="1037.04639" r="2.96959"/>
  <circle class="uuid-f5b6c678-1f10-44d6-8c84-0844cbe67c53" cx="354.26639" cy="1034.66398" r="1.48479"/>
  <circle class="uuid-f5b6c678-1f10-44d6-8c84-0844cbe67c53" cx="389.27563" cy="1022.40031" r="1.48479"/>
  <circle class="uuid-f5b6c678-1f10-44d6-8c84-0844cbe67c53" cx="383.82016" cy="1026.56538" r="1.48479"/>
  <polygon class="uuid-6469079d-4593-4f11-a0d0-117699342420" points="414.62777 1206.32869 414.00015 1209.4214 415.14028 1212.364 412.04756 1211.73639 409.10496 1212.87651 409.73258 1209.7838 408.59245 1206.8412 411.68517 1207.46882 414.62777 1206.32869"/>
  <polygon class="uuid-3b6071b9-dd72-463b-8821-86a1cac52d58" points="309.78505 1026.30224 309.38465 1028.27522 310.11199 1030.1523 308.13908 1029.75197 306.26193 1030.47924 306.66233 1028.5064 305.93506 1026.62924 307.90791 1027.02965 309.78505 1026.30224"/>
  <polygon class="uuid-1ba637f9-d347-459c-9f7d-401606798fd5" points="413.64002 1102.73296 413.01241 1105.82567 414.15253 1108.76827 411.05982 1108.14065 408.11722 1109.28078 408.74484 1106.18807 407.60471 1103.24547 410.69743 1103.87308 413.64002 1102.73296"/>
  <circle class="uuid-39cf1407-72da-4c98-b9f1-c10a62d9c2fa" cx="396.09248" cy="1112.91882" r="177"/>
  <g>
    <polygon class="uuid-b65ec013-4b44-4688-8c81-904f506c8219" points="1966.93303 1048.37357 1965.61624 1052.2994 1966.62557 1056.31528 1962.69974 1054.99849 1958.68386 1056.00782 1960.00065 1052.082 1958.99132 1048.06611 1962.91715 1049.3829 1966.93303 1048.37357"/>
    <g>
      <polygon class="uuid-3b6071b9-dd72-463b-8821-86a1cac52d58" points="1909.18369 701.20489 1910.14969 702.97119 1911.91589 703.93709 1910.14969 704.90309 1909.18369 706.66929 1908.21779 704.90309 1906.45159 703.93709 1908.21779 702.97119 1909.18369 701.20489"/>
      <polygon class="uuid-6469079d-4593-4f11-a0d0-117699342420" points="1900.39591 864.22119 1901.91016 866.98992 1904.67888 868.50416 1901.91016 870.01841 1900.39591 872.78713 1898.88167 870.01841 1896.11294 868.50416 1898.88167 866.98992 1900.39591 864.22119"/>
      <polygon class="uuid-1ba637f9-d347-459c-9f7d-401606798fd5" points="1994.84858 710.66924 1996.36282 713.43796 1999.13155 714.95221 1996.36282 716.46646 1994.84858 719.23518 1993.33433 716.46646 1990.56561 714.95221 1993.33433 713.43796 1994.84858 710.66924"/>
      <polygon class="uuid-3b6071b9-dd72-463b-8821-86a1cac52d58" points="2091.84853 764.22001 2092.81453 765.98631 2094.58073 766.95221 2092.81453 767.91821 2091.84853 769.68441 2090.88263 767.91821 2089.11643 766.95221 2090.88263 765.98631 2091.84853 764.22001"/>
      <polygon class="uuid-6c56d86b-ca7c-4b9a-bc9b-c16634b6b835" points="1749.71806 883.3696 1751.23231 886.13832 1754.00103 887.65257 1751.23231 889.16682 1749.71806 891.93554 1748.20382 889.16682 1745.43509 887.65257 1748.20382 886.13832 1749.71806 883.3696"/>
      <polygon class="uuid-3b6071b9-dd72-463b-8821-86a1cac52d58" points="2248.44342 810.22309 2249.40942 811.98939 2251.17562 812.95529 2249.40942 813.92129 2248.44342 815.68749 2247.47752 813.92129 2245.71132 812.95529 2247.47752 811.98939 2248.44342 810.22309"/>
      <polygon class="uuid-6469079d-4593-4f11-a0d0-117699342420" points="2212.65564 966.23939 2214.16989 969.00811 2216.93861 970.52236 2214.16989 972.0366 2212.65564 974.80533 2211.1414 972.0366 2208.37267 970.52236 2211.1414 969.00811 2212.65564 966.23939"/>
      <polygon class="uuid-1ba637f9-d347-459c-9f7d-401606798fd5" points="2350.10831 794.68743 2351.62255 797.45616 2354.39128 798.9704 2351.62255 800.48465 2350.10831 803.25337 2348.59406 800.48465 2345.82534 798.9704 2348.59406 797.45616 2350.10831 794.68743"/>
      <polygon class="uuid-3b6071b9-dd72-463b-8821-86a1cac52d58" points="2016.44342 896.22309 2017.40942 897.98939 2019.17562 898.95529 2017.40942 899.92129 2016.44342 901.68749 2015.47752 899.92129 2013.71132 898.95529 2015.47752 897.98939 2016.44342 896.22309"/>
      <polygon class="uuid-6469079d-4593-4f11-a0d0-117699342420" points="2128.65564 1089.23939 2130.16989 1092.00811 2132.93861 1093.52236 2130.16989 1095.0366 2128.65564 1097.80533 2127.1414 1095.0366 2124.37267 1093.52236 2127.1414 1092.00811 2128.65564 1089.23939"/>
      <polygon class="uuid-1ba637f9-d347-459c-9f7d-401606798fd5" points="2145.10831 887.68743 2146.62255 890.45616 2149.39128 891.9704 2146.62255 893.48465 2145.10831 896.25337 2143.59406 893.48465 2140.82534 891.9704 2143.59406 890.45616 2145.10831 887.68743"/>
      <polygon class="uuid-2a955587-9dd4-4d8d-b4eb-411b3a517426" points="1921.97779 935.38779 1923.49204 938.15652 1926.26076 939.67076 1923.49204 941.18501 1921.97779 943.95373 1920.46355 941.18501 1917.69482 939.67076 1920.46355 938.15652 1921.97779 935.38779"/>
      <polygon class="uuid-3b6071b9-dd72-463b-8821-86a1cac52d58" points="1509.44342 653.22309 1510.40942 654.98939 1512.17562 655.95529 1510.40942 656.92129 1509.44342 658.68749 1508.47752 656.92129 1506.71132 655.95529 1508.47752 654.98939 1509.44342 653.22309"/>
      <polygon class="uuid-6469079d-4593-4f11-a0d0-117699342420" points="1602.65564 920.23939 1604.16989 923.00811 1606.93861 924.52236 1604.16989 926.0366 1602.65564 928.80533 1601.1414 926.0366 1598.37267 924.52236 1601.1414 923.00811 1602.65564 920.23939"/>
      <polygon class="uuid-1ba637f9-d347-459c-9f7d-401606798fd5" points="1526.10831 729.68743 1527.62255 732.45616 1530.39128 733.9704 1527.62255 735.48465 1526.10831 738.25337 1524.59406 735.48465 1521.82534 733.9704 1524.59406 732.45616 1526.10831 729.68743"/>
      <polygon class="uuid-2a955587-9dd4-4d8d-b4eb-411b3a517426" points="1420.97779 840.38779 1422.49204 843.15652 1425.26076 844.67076 1422.49204 846.18501 1420.97779 848.95373 1419.46355 846.18501 1416.69482 844.67076 1419.46355 843.15652 1420.97779 840.38779"/>
      <polygon class="uuid-3b6071b9-dd72-463b-8821-86a1cac52d58" points="2261.92037 689.68152 2262.88637 691.44782 2264.65257 692.41372 2262.88637 693.37972 2261.92037 695.14592 2260.95447 693.37972 2259.18827 692.41372 2260.95447 691.44782 2261.92037 689.68152"/>
      <polygon class="uuid-3b6071b9-dd72-463b-8821-86a1cac52d58" points="1960.51526 940.6846 1961.48126 942.4509 1963.24746 943.4168 1961.48126 944.3828 1960.51526 946.149 1959.54936 944.3828 1957.78316 943.4168 1959.54936 942.4509 1960.51526 940.6846"/>
      <polygon class="uuid-3b6071b9-dd72-463b-8821-86a1cac52d58" points="1896.51526 822.6846 1897.48126 824.4509 1899.24746 825.4168 1897.48126 826.3828 1896.51526 828.149 1895.54936 826.3828 1893.78316 825.4168 1895.54936 824.4509 1896.51526 822.6846"/>
      <polygon class="uuid-3b6071b9-dd72-463b-8821-86a1cac52d58" points="1460.21121 785.9938 1461.17721 787.7601 1462.94341 788.726 1461.17721 789.692 1460.21121 791.4582 1459.24531 789.692 1457.47911 788.726 1459.24531 787.7601 1460.21121 785.9938"/>
      <polygon class="uuid-3b6071b9-dd72-463b-8821-86a1cac52d58" points="1874.82731 796.60844 1875.79331 798.37474 1877.55951 799.34064 1875.79331 800.30664 1874.82731 802.07284 1873.86141 800.30664 1872.09521 799.34064 1873.86141 798.37474 1874.82731 796.60844"/>
      <polygon class="uuid-3b6071b9-dd72-463b-8821-86a1cac52d58" points="1617.5951 614.37916 1618.5611 616.14546 1620.3273 617.11136 1618.5611 618.07736 1617.5951 619.84356 1616.6292 618.07736 1614.863 617.11136 1616.6292 616.14546 1617.5951 614.37916"/>
      <polygon class="uuid-45d44414-d48b-43fc-8ec8-206b4f431296" points="2115.02334 767.78713 2119.44421 778.29342 2127.52755 784.03942 2119.44421 789.78542 2115.02334 800.29171 2110.60247 789.78542 2102.51912 784.03942 2110.60247 778.29342 2115.02334 767.78713"/>
      <polygon class="uuid-3b6071b9-dd72-463b-8821-86a1cac52d58" points="2370.39016 1317.06302 2369.5501 1319.56748 2370.19402 1322.12921 2367.68965 1321.28926 2365.12783 1321.93307 2365.96787 1319.4288 2365.32405 1316.86698 2367.82833 1317.70702 2370.39016 1317.06302"/>
      <polygon class="uuid-1ba637f9-d347-459c-9f7d-401606798fd5" points="2203.69476 1286.58803 2202.37797 1290.51386 2203.3873 1294.52974 2199.46147 1293.21295 2195.44559 1294.22228 2196.76238 1290.29646 2195.75305 1286.28057 2199.67888 1287.59736 2203.69476 1286.58803"/>
    </g>
  </g>
</svg>