<?xml version="1.0" encoding="UTF-8"?>
<svg id="uuid-698d5f96-8e3d-4bb0-b920-adfbfa7db8ac" data-name="Layer 2" xmlns="http://www.w3.org/2000/svg" xmlns:xlink="http://www.w3.org/1999/xlink" viewBox="0 0 1567.13401 544.20548">
  <defs>
    <style>
      .uuid-e1008bc0-bff7-40ca-b390-936d1e39a1d4 {
        fill: url(#uuid-21e6901a-8f04-4ad3-894b-262528d8978b);
      }

      .uuid-e1008bc0-bff7-40ca-b390-936d1e39a1d4, .uuid-9452a161-7aa3-4b3a-bcd0-288cba811efc, .uuid-44915938-33ca-49e9-94c1-0b4a34ca495a, .uuid-37f44b85-17d9-41b0-b27d-fbadb4dbc96b {
        opacity: .24;
      }

      .uuid-e1008bc0-bff7-40ca-b390-936d1e39a1d4, .uuid-9452a161-7aa3-4b3a-bcd0-288cba811efc, .uuid-44915938-33ca-49e9-94c1-0b4a34ca495a, .uuid-37f44b85-17d9-41b0-b27d-fbadb4dbc96b, .uuid-2c808369-6140-4ff5-b0db-9c5c6afe1956, .uuid-b7020090-df53-4a25-b736-9180c990c5b4, .uuid-ef301e32-13c7-4108-a72d-15c49188399a, .uuid-75c50a4e-abe4-4ef2-af7a-b43ffc06779f, .uuid-05b962c4-2b7d-4664-9167-f7dc4f5a3161, .uuid-b06ceb3e-f148-4394-8678-56a9baffd653 {
        stroke-width: 0px;
      }

      .uuid-9452a161-7aa3-4b3a-bcd0-288cba811efc {
        fill: url(#uuid-ece61151-dffc-4be3-86b4-b7bfad09354e);
      }

      .uuid-44915938-33ca-49e9-94c1-0b4a34ca495a {
        fill: url(#uuid-001af424-67b6-4256-a663-26508b3ad95a);
      }

      .uuid-37f44b85-17d9-41b0-b27d-fbadb4dbc96b {
        fill: url(#uuid-4652a94a-98d0-4e41-a0a9-86563fccdfb9);
      }

      .uuid-2c808369-6140-4ff5-b0db-9c5c6afe1956 {
        fill: url(#uuid-001bce2b-cf9e-4cbf-b3dd-b33146709ba9);
      }

      .uuid-b7020090-df53-4a25-b736-9180c990c5b4 {
        fill: #daa7cb;
      }

      .uuid-ef301e32-13c7-4108-a72d-15c49188399a {
        fill: #9a70b1;
      }

      .uuid-75c50a4e-abe4-4ef2-af7a-b43ffc06779f {
        fill: #a075b3;
      }

      .uuid-05b962c4-2b7d-4664-9167-f7dc4f5a3161 {
        fill: #fff;
      }

      .uuid-b06ceb3e-f148-4394-8678-56a9baffd653 {
        fill: #f0d9b2;
      }
    </style>
    <linearGradient id="uuid-001bce2b-cf9e-4cbf-b3dd-b33146709ba9" x1="169.23124" y1="267.07151" x2="425.53049" y2="267.07151" gradientUnits="userSpaceOnUse">
      <stop offset="0" stop-color="#ef496c"/>
      <stop offset="1" stop-color="#4e65ad"/>
    </linearGradient>
    <linearGradient id="uuid-21e6901a-8f04-4ad3-894b-262528d8978b" x1="-276.20828" y1="1418.96125" x2="-317.34789" y2="1135.87507" gradientTransform="translate(-222.85664 -918.66405) rotate(-36.44803)" gradientUnits="userSpaceOnUse">
      <stop offset="0" stop-color="#cc6d2e" stop-opacity="0"/>
      <stop offset="1" stop-color="#fff"/>
    </linearGradient>
    <linearGradient id="uuid-ece61151-dffc-4be3-86b4-b7bfad09354e" x1="-290.07342" y1="1253.34989" x2="-199.83433" y2="1253.34989" gradientTransform="translate(-222.85664 -918.66405) rotate(-36.44803)" gradientUnits="userSpaceOnUse">
      <stop offset="0" stop-color="#fff"/>
      <stop offset=".0885" stop-color="#fff" stop-opacity=".95076"/>
      <stop offset=".25094" stop-color="#fff" stop-opacity=".82006"/>
      <stop offset=".4691" stop-color="#fff" stop-opacity=".60826"/>
      <stop offset=".7329" stop-color="#fff" stop-opacity=".3177"/>
      <stop offset=".99667" stop-color="#fff" stop-opacity="0"/>
    </linearGradient>
    <linearGradient id="uuid-001af424-67b6-4256-a663-26508b3ad95a" x1="-212.04594" y1="1097.93051" x2="-149.17982" y2="1097.93051" gradientTransform="translate(-126.87326 -742.75242) rotate(-28.74076)" gradientUnits="userSpaceOnUse">
      <stop offset="0" stop-color="#fff"/>
      <stop offset=".34771" stop-color="#fff" stop-opacity=".61155"/>
      <stop offset=".66556" stop-color="#fff" stop-opacity=".28279"/>
      <stop offset=".88814" stop-color="#fff" stop-opacity=".07875"/>
      <stop offset=".99667" stop-color="#fff" stop-opacity="0"/>
    </linearGradient>
    <linearGradient id="uuid-4652a94a-98d0-4e41-a0a9-86563fccdfb9" x1="-202.71713" y1="1249.34507" x2="-112.47804" y2="1249.34507" xlink:href="#uuid-ece61151-dffc-4be3-86b4-b7bfad09354e"/>
  </defs>
  <circle class="uuid-2c808369-6140-4ff5-b0db-9c5c6afe1956" cx="297.38086" cy="267.07151" r="128.14962"/>
  <path class="uuid-e1008bc0-bff7-40ca-b390-936d1e39a1d4" d="m390.39453,325.37602c-28.33772,5.93716-55.37009,1.19849-75.4511-14.0517-23.27535-17.67644-26.53084-47.60888-38.76149-72.6098-12.7329-26.02784-34.92183-54.28462-64.54019-67.12149-7.4604,6.54432-14.50102,13.56623-20.92189,21.25745-.17466.2092-.35922.38976-.53968.58211-1.44817,3.02215-2.95259,6.00365-4.68429,8.85275,15.32826,4.59838,37.03368,14.56707,46.79375,25.94679,20.08142,23.41385,16.07024,54.10962,30.08495,80.92586,21.49312,41.12527,71.35858,60.84213,123.73701,51.65423.74435-1.30043,1.78475-2.51865,3.19978-3.58429,8.04898-6.06179,14.00901-14.12186,18.64051-23.12487-1.9788-6.32914-7.85601-10.75951-17.55735-8.72705Z"/>
  <path class="uuid-75c50a4e-abe4-4ef2-af7a-b43ffc06779f" d="m286.45705,476.23052c-127.30777-10.53765-222.68004-113.68444-213.02038-230.38498,9.65966-116.70053,120.6933-202.76249,248.00107-192.22484,51.29818,4.24611,97.39453,23.5457,133.53994,52.69305-37.90573-40.99536-90.66024-68.48117-150.68987-73.45C176.98049,22.32614,65.23467,116.98663,54.69702,244.29441c-10.53761,127.30733,84.12333,239.05318,211.43066,249.5908,60.02963,4.96883,116.58538-13.46903,160.71567-47.67403-40.44589,22.80765-89.08812,34.26545-140.3863,30.01934Z"/>
  <path class="uuid-9452a161-7aa3-4b3a-bcd0-288cba811efc" d="m414.75014,290.32437c-14.14497-1.52108-61.20883-10.86644-81.41922-24.78389-23.4256-16.13136-40.85114-64.27221-61.38678-83.11703-14.17555-13.00829-26.27382-22.15452-37.63381-28.50182-5.61492,3.97408-11.11138,8.09881-16.4155,12.4492,13.23092,4.95302,30.15649,16.99751,44.75317,28.50583,24.48482,19.30454,30.23495,67.43027,52.80719,87.81532,30.75447,27.77432,75.82658,28.18462,105.00833,29.62378,1.21905-4.4051,2.30556-8.81608,3.32212-13.14194.34146-1.45301.86915-2.72866,1.54053-3.83701-3.50357-2.66763-7.28319-4.65831-10.57602-5.01244Z"/>
  <path class="uuid-44915938-33ca-49e9-94c1-0b4a34ca495a" d="m307.05446,364.05614c-7.85812-6.1471-48.35029-27.28029-63.10662-44.92439-17.10381-20.45091-16.95873-51.48958-33.36571-72.9664-10.46971-13.70488-34.60607-18.20178-34.60607-18.20178-.87367-.9948-.07166-1.32204,0,0,.08721,1.60887-4.31871,12.35462-5.13487,13.13718,7.9873-3.20131,21.47109-1.31507,32.5663,12.5272,18.61144,23.21949,11.13791,47.55879,29.07327,70.91755,24.43673,31.82602,68.46938,46.72287,84.17061,58.12279-.6857-2.89284-1.44251-5.83696-2.21036-8.74159-.25791-.97563-.36508-1.75161-.34681-2.35059-2.63469-3.25107-5.21043-6.08894-7.03974-7.51997Z"/>
  <circle class="uuid-b06ceb3e-f148-4394-8678-56a9baffd653" cx="374.48026" cy="147.93216" r="18.79184"/>
  <circle class="uuid-b06ceb3e-f148-4394-8678-56a9baffd653" cx="346.29249" cy="120.51569" r="9.39592"/>
  <circle class="uuid-b06ceb3e-f148-4394-8678-56a9baffd653" cx="147.64825" cy="215.94862" r="11.54906"/>
  <circle class="uuid-b06ceb3e-f148-4394-8678-56a9baffd653" cx="125.52782" cy="198.62502" r="5.77453"/>
  <circle class="uuid-b06ceb3e-f148-4394-8678-56a9baffd653" cx="143.38491" cy="269.93574" r="11.54906"/>
  <circle class="uuid-b06ceb3e-f148-4394-8678-56a9baffd653" cx="157.68678" cy="245.75151" r="5.77453"/>
  <circle class="uuid-b06ceb3e-f148-4394-8678-56a9baffd653" cx="207.29329" cy="146.54674" r="7.62486"/>
  <circle class="uuid-b06ceb3e-f148-4394-8678-56a9baffd653" cx="199.66843" cy="180.95918" r="7.62486"/>
  <circle class="uuid-b06ceb3e-f148-4394-8678-56a9baffd653" cx="427.556" cy="320.04135" r="9.49541"/>
  <circle class="uuid-b06ceb3e-f148-4394-8678-56a9baffd653" cx="427.556" cy="353.73836" r="9.49541"/>
  <circle class="uuid-b06ceb3e-f148-4394-8678-56a9baffd653" cx="395.71448" cy="336.47028" r="16.42893"/>
  <path class="uuid-37f44b85-17d9-41b0-b27d-fbadb4dbc96b" d="m420.88167,230.29726c-.16447-.81226-1.35701-1.81229-1.35701-1.81229-.93372-5.62489-4.85534-12.66961-7.14386-19.02578-7.27599-2.808-13.82592-5.93448-18.76598-9.33631-13.76822-9.48109-24.54824-27.05228-36.02079-46.20124-.40181.05273.40578.18276,0,0-15.50068-6.98145-17.09147-6.98145-19.14796-6.98145,11.79157,18.15262,17.69441,39.95461,34.35535,55.00115,13.76064,12.42715,30.9761,22.43827,48.41365,29.84448-.12081-.4915-.23194-.98763-.33339-1.48855Z"/>
  <path class="uuid-b7020090-df53-4a25-b736-9180c990c5b4" d="m165.56519,309.46988c-8.42814,4.54449-17.55279,9.41447-24.53687,15.76492-.80505.77466-1.52795,1.58133-2.08203,2.36136-.552.76624-.86658,1.55591-.85425,1.88388.00671.16391.08154.15668.11951.10831.04248-.04959.07104-.07242.18542.0108,2.09907,1.45421,5.11286,1.83137,7.74751,2.38826,11.83891,2.00686,23.94004,2.38926,36.02458,2.41714,68.87761-.59711,138.01082-19.38539,195.21311-57.97095,4.79906-3.31039,10.05584-7.00949,14.67479-10.56097,23.20161-17.58981,43.80953-38.56179,61.73436-61.51775.40923-.51607.6895-.8658.96391-1.26036.28406-.38892.50916-.76367.7229-1.12509.40454-.70915.62158-1.33681.66956-1.59082.03503-.25963.16895-.18138-.01624-.52019-1.81956-1.77615-4.8839-2.26181-7.77659-2.7107-14.4754-1.49787-29.27697.86437-43.79095,2.92071,12.84221-4.45187,46.45141-15.60987,57.36457-5.99846,4.03175,3.5595,3.20608,9.86207.70167,13.84452-.44522.81945-4.53206,7.18412-5.184,8.18787-2.78859,4.1972-5.64088,8.36447-8.66054,12.41403-15.70877,21.49743-34.5719,40.7559-55.66141,57.04662-43.45109,33.46041-96.41245,53.67302-150.7217,60.12868-20.14004,2.36863-40.46833,3.00328-60.69257,1.51898-14.02566-1.13021-28.13037-2.80131-41.58171-7.23776-7.9653-2.35654-13.59069-9.90545-6.3638-16.95588,2.99403-2.8827,6.68053-4.80023,10.28286-6.47204,6.91597-3.12807,14.15035-5.3642,21.51787-7.07509h0Z"/>
  <circle class="uuid-ef301e32-13c7-4108-a72d-15c49188399a" cx="197.55746" cy="341.26283" r="21.77087"/>
  <g>
    <path class="uuid-75c50a4e-abe4-4ef2-af7a-b43ffc06779f" d="m451.07427,435.14903c-4.8183,7.88756-15.45667,7.85799-19.20907,3.70711-3.7524-4.15088-2.18577-12.91007,5.71607-17.70493,8.39721-5.09546,18.30062-3.78397,18.30062-3.78397,0,0,3.61321,3.99691-4.80761,17.7818Z"/>
    <path class="uuid-75c50a4e-abe4-4ef2-af7a-b43ffc06779f" d="m448.29387,438.41428s-2.44667,6.61139-10.4125,17.30412c-2.03395,2.73022-6.01617-16.86226-6.01617-16.86226,0,0-17.53754-3.23476-15.89832-5.89098,1.97765-3.20461,11.90938-6.45477,18.59421-9.74199l13.73277,15.19112Z"/>
  </g>
  <g>
    <path class="uuid-05b962c4-2b7d-4664-9167-f7dc4f5a3161" d="m566.45875,332.41988c-8.10352-3.86816-14.39746-9.26953-18.87793-16.20801-4.4834-6.93457-6.72168-14.8252-6.72168-23.66602v-41.25439c0-8.84082,2.23828-16.69629,6.72168-23.57422,4.48047-6.875,10.71094-12.21582,18.69434-16.02344,7.97949-3.80371,17.12793-5.70898,27.44141-5.70898s19.45898,1.62891,27.44238,4.88086c7.97949,3.25391,14.20996,7.7666,18.69336,13.53613,4.48047,5.77246,6.72266,12.40332,6.72266,19.89062,0,3.68359-1.22949,6.57031-3.68359,8.65625-2.45801,2.08984-5.70996,3.13086-9.76172,3.13086-.86035,0-2.14941-.12012-3.86719-.36816.24414-1.47363.36816-3.80371.36816-6.99805,0-5.27832-1.50488-10.00586-4.5127-14.18164-3.00977-4.17285-7.24609-7.42773-12.70801-9.76172-5.46387-2.33105-11.69434-3.49902-18.69336-3.49902-6.87793,0-13.01562,1.26074-18.41699,3.77539-5.4043,2.51855-9.60938,6.07812-12.61621,10.68262-3.00977,4.60449-4.5127,9.79297-4.5127,15.5625v41.25439c0,5.89355,1.50293,11.14258,4.5127,15.74707,3.00684,4.60449,7.24316,8.19531,12.70801,10.77441,5.46191,2.57812,11.69531,3.86719,18.69336,3.86719,7.12012,0,13.44531-1.16504,18.9707-3.49902,5.52441-2.33105,9.82129-5.55469,12.8916-9.66895,3.06738-4.1123,4.60449-8.86914,4.60449-14.27344,0-1.96289-.12402-4.29688-.36816-6.99902,1.71777-.24512,2.94629-.36816,3.68359-.36816,4.05176,0,7.33496,1.16797,9.85254,3.49902,2.51562,2.33398,3.77637,5.46484,3.77637,9.39258,0,7.24609-2.27344,13.69238-6.81445,19.33887-4.54395,5.64844-10.83789,10.03711-18.87793,13.16797-8.04297,3.13086-17.28418,4.69629-27.71875,4.69629-10.31348,0-19.52246-1.93359-27.62598-5.80078Z"/>
    <path class="uuid-05b962c4-2b7d-4664-9167-f7dc4f5a3161" d="m703.2068,332.23531c-8.04395-3.98828-14.33691-9.51367-18.87793-16.5752-4.54395-7.05957-6.81445-14.88672-6.81445-23.48242v-40.51807c0-8.59277,2.27051-16.35938,6.81445-23.29785,4.54102-6.93555,10.83398-12.40039,18.87793-16.3916,8.04004-3.98828,17.15625-5.98535,27.34912-5.98535,10.31348,0,19.49023,1.99707,27.53418,5.98535,8.04004,3.99121,14.33398,9.45605,18.87793,16.3916,4.54102,6.93848,6.81445,14.70508,6.81445,23.29785v40.51807c0,8.5957-2.27344,16.42285-6.81445,23.48242-4.54395,7.06152-10.86621,12.58691-18.9707,16.5752-8.10352,3.99121-17.25195,5.98535-27.44141,5.98535-10.19287,0-19.30908-1.99414-27.34912-5.98535Zm54.0542-17.58887c6.38281-5.64551,9.57715-13.19727,9.57715-22.65332v-39.96533c0-9.45312-3.19434-16.97266-9.57715-22.56055-6.38574-5.58594-15.28613-8.38086-26.70508-8.38086-11.29736,0-20.13818,2.79492-26.521,8.38086-6.38574,5.58789-9.57715,13.10742-9.57715,22.56055v39.96533c0,9.45605,3.19141,17.00781,9.57715,22.65332,6.38281,5.64941,15.22363,8.47266,26.521,8.47266,11.41895,0,20.31934-2.82324,26.70508-8.47266Z"/>
    <path class="uuid-05b962c4-2b7d-4664-9167-f7dc4f5a3161" d="m818.4065,215.74556c0-2.33105.82812-4.26465,2.48633-5.80078,1.65723-1.53418,3.77539-2.30273,6.35352-2.30273h50.83203c11.9082,0,21.39258,3.4707,28.45508,10.40625,7.05859,6.9375,10.58984,16.17773,10.58984,27.71777,0,14.48926-6.3252,24.74316-18.96973,30.75635v.55273c5.52539,2.33398,9.76074,5.86523,12.70801,10.58984,2.94629,4.72852,4.41992,10.46973,4.41992,17.2207v18.96973c0,4.66797-1.47363,8.22754-4.41992,10.68164-2.94727,2.45508-7.24609,3.68359-12.89258,3.68359v-32.23047c0-7.24316-1.62891-12.73633-4.87988-16.4834-3.25488-3.74414-8.0752-5.61719-14.45801-5.61719h-43.09668v39.96582c0,4.66797-1.44434,8.22754-4.32812,10.68164-2.88672,2.45508-7.1543,3.68359-12.7998,3.68359v-122.4751Zm59.11914,53.22656c6.75098,0,12.12402-2.08594,16.11523-6.26172,3.98926-4.17285,5.98633-9.88281,5.98633-17.12891,0-7.36621-1.90527-13.0127-5.70996-16.94336-3.80664-3.92871-9.27148-5.89355-16.3916-5.89355h-41.99121v46.22754h41.99121Z"/>
    <path class="uuid-05b962c4-2b7d-4664-9167-f7dc4f5a3161" d="m954.50806,215.74556c0-2.33105.85742-4.26465,2.57812-5.80078,1.71777-1.53418,3.80469-2.30273,6.26172-2.30273h81.58887c0,5.15723-1.04395,8.96387-3.13086,11.41895-2.08887,2.45801-5.34082,3.68359-9.76074,3.68359h-60.22559v41.25488h51.56934c0,5.15723-1.04492,8.96338-3.13086,11.41846-2.08984,2.45703-5.28125,3.68359-9.57715,3.68359h-38.86133v42.35938h64.09277c4.29688,0,7.48828,1.22949,9.57715,3.68359,2.08691,2.45801,3.13086,6.26172,3.13086,11.41895h-85.27246c-2.45703,0-4.54395-.76562-6.26172-2.30176-1.7207-1.53418-2.57812-3.46777-2.57812-5.80176v-112.71436Z"/>
    <path class="uuid-05b962c4-2b7d-4664-9167-f7dc4f5a3161" d="m1085.91334,333.89253c-1.78125-1.77832-2.66992-3.89648-2.66992-6.35352v-107.18896c0-9.57715,5.76953-14.36523,17.31152-14.36523v115.29248h56.54199c4.2959,0,7.61133,1.32031,9.94531,3.95898,2.33105,2.64258,3.49902,6.41797,3.49902,11.32715h-78.27344c-2.45801,0-4.57617-.88965-6.35449-2.6709Z"/>
    <path class="uuid-05b962c4-2b7d-4664-9167-f7dc4f5a3161" d="m1205.99439,333.89253c-1.78125-1.77832-2.66992-3.89648-2.66992-6.35352v-107.18896c0-9.57715,5.76953-14.36523,17.31152-14.36523v115.29248h56.54199c4.2959,0,7.61133,1.32031,9.94531,3.95898,2.33105,2.64258,3.49902,6.41797,3.49902,11.32715h-78.27344c-2.45801,0-4.57617-.88965-6.35449-2.6709Z"/>
    <path class="uuid-05b962c4-2b7d-4664-9167-f7dc4f5a3161" d="m1327.08717,220.35005c0-4.54102,1.50293-8.07227,4.5127-10.58984,3.00684-2.51562,7.27441-3.77539,12.7998-3.77539v117.87061c0,4.54395-1.50488,8.0752-4.51172,10.58984-3.01074,2.51562-7.27539,3.77539-12.80078,3.77539v-117.87061Z"/>
    <path class="uuid-05b962c4-2b7d-4664-9167-f7dc4f5a3161" d="m1385.83717,333.52437c-2.08984-2.39453-3.13086-5.30957-3.13086-8.74805,0-2.33105.55273-4.78809,1.65723-7.36719l44.01758-105.89893c1.47363-3.68359,4.29688-5.52539,8.47168-5.52539,3.92871,0,6.69141,1.8418,8.28809,5.52539l44.01758,105.89893c1.10547,2.5791,1.65723,5.03613,1.65723,7.36719,0,3.31543-1.04395,6.20117-3.13086,8.65625-2.08887,2.45703-4.97266,4.05176-8.65625,4.78809l-15.83887-38.49219h-52.85742l-15.83887,38.49219c-3.68359-.73633-6.57031-2.30176-8.65625-4.69629Zm72.01172-48.71387l-23.75879-60.22412-1.47266.55273,3.31445,8.47168-20.25879,51.19971h42.17578Z"/>
  </g>
</svg>