<?xml version="1.0" encoding="UTF-8"?>
<svg id="uuid-80354a49-edbc-4992-bbd6-8ad05a8f560e" data-name="uuid-698d5f96-8e3d-4bb0-b920-adfbfa7db8ac" xmlns="http://www.w3.org/2000/svg" xmlns:xlink="http://www.w3.org/1999/xlink" viewBox="0 0 1436.91967 462.62292">
  <defs>
    <style>
      .uuid-0ac99d4b-b2f3-4214-a450-bb5ac9f2e1f7 {
        fill: url(#uuid-ea8e9d3d-f61a-44b9-8d21-9e941fad05f5);
      }

      .uuid-0ac99d4b-b2f3-4214-a450-bb5ac9f2e1f7, .uuid-4e1fb605-a81b-4394-b0ec-04100cc91c5f, .uuid-48e25518-9700-42c2-b67c-f9429864fcad, .uuid-a5aba240-5a5c-4bfe-85a9-eeaa755dde15, .uuid-13e20bea-34ef-453b-8fba-1d28d18315be, .uuid-a0a93600-dbab-4306-97bc-9fd650833e61, .uuid-57b4e4f5-4f6c-4958-b845-342c2584f6f5, .uuid-2d82a549-88fa-407d-aa81-f07d3dd67deb, .uuid-97fc6a25-4b7b-4dad-97d5-94efc76f28f5 {
        stroke-width: 0px;
      }

      .uuid-0ac99d4b-b2f3-4214-a450-bb5ac9f2e1f7, .uuid-4e1fb605-a81b-4394-b0ec-04100cc91c5f, .uuid-a5aba240-5a5c-4bfe-85a9-eeaa755dde15, .uuid-13e20bea-34ef-453b-8fba-1d28d18315be {
        isolation: isolate;
        opacity: .24;
      }

      .uuid-4e1fb605-a81b-4394-b0ec-04100cc91c5f {
        fill: url(#uuid-3f8f9039-5264-4a24-812a-fa97458f9718);
      }

      .uuid-48e25518-9700-42c2-b67c-f9429864fcad {
        fill: url(#uuid-86eb1d0b-8d46-4b64-98f7-acf80b685ba4);
      }

      .uuid-a5aba240-5a5c-4bfe-85a9-eeaa755dde15 {
        fill: url(#uuid-dc340b6c-8436-4e8c-ae93-eaea88f6bfcf);
      }

      .uuid-13e20bea-34ef-453b-8fba-1d28d18315be {
        fill: url(#uuid-7e0c3481-f395-422b-addd-e8fe76b621c9);
      }

      .uuid-a0a93600-dbab-4306-97bc-9fd650833e61 {
        fill: #daa7cb;
      }

      .uuid-57b4e4f5-4f6c-4958-b845-342c2584f6f5 {
        fill: #9a70b1;
      }

      .uuid-2d82a549-88fa-407d-aa81-f07d3dd67deb {
        fill: #a075b3;
      }

      .uuid-97fc6a25-4b7b-4dad-97d5-94efc76f28f5 {
        fill: #f0d9b2;
      }
    </style>
    <linearGradient id="uuid-86eb1d0b-8d46-4b64-98f7-acf80b685ba4" x1="115.33524" y1="246.86574" x2="371.63445" y2="246.86574" gradientTransform="translate(0 481.8745) scale(1 -1)" gradientUnits="userSpaceOnUse">
      <stop offset="0" stop-color="#ef496c"/>
      <stop offset="1" stop-color="#4e65ad"/>
    </linearGradient>
    <linearGradient id="uuid-3f8f9039-5264-4a24-812a-fa97458f9718" x1="-522.95771" y1="-956.76412" x2="-564.09732" y2="-673.67794" gradientTransform="translate(196.32006 -725.52954) rotate(-36.44803) scale(1 -1)" gradientUnits="userSpaceOnUse">
      <stop offset="0" stop-color="#cc6d2e" stop-opacity="0"/>
      <stop offset="1" stop-color="#fff"/>
    </linearGradient>
    <linearGradient id="uuid-dc340b6c-8436-4e8c-ae93-eaea88f6bfcf" x1="-536.82288" y1="-791.15275" x2="-446.58377" y2="-791.15275" gradientTransform="translate(196.32006 -725.52954) rotate(-36.44803) scale(1 -1)" gradientUnits="userSpaceOnUse">
      <stop offset="0" stop-color="#fff"/>
      <stop offset=".0885" stop-color="#fff" stop-opacity=".95076"/>
      <stop offset=".25094" stop-color="#fff" stop-opacity=".82006"/>
      <stop offset=".4691" stop-color="#fff" stop-opacity=".60826"/>
      <stop offset=".7329" stop-color="#fff" stop-opacity=".3177"/>
      <stop offset=".99667" stop-color="#fff" stop-opacity="0"/>
    </linearGradient>
    <linearGradient id="uuid-7e0c3481-f395-422b-addd-e8fe76b621c9" x1="-415.88744" y1="-635.24838" x2="-353.02135" y2="-635.24838" gradientTransform="translate(220.43937 -467.1501) rotate(-28.74076) scale(1 -1)" gradientUnits="userSpaceOnUse">
      <stop offset="0" stop-color="#fff"/>
      <stop offset=".34771" stop-color="#fff" stop-opacity=".61155"/>
      <stop offset=".66556" stop-color="#fff" stop-opacity=".28279"/>
      <stop offset=".88814" stop-color="#fff" stop-opacity=".07875"/>
      <stop offset=".99667" stop-color="#fff" stop-opacity="0"/>
    </linearGradient>
    <linearGradient id="uuid-ea8e9d3d-f61a-44b9-8d21-9e941fad05f5" x1="-449.46676" y1="-787.14797" x2="-359.22767" y2="-787.14797" gradientTransform="translate(196.32006 -725.52954) rotate(-36.44803) scale(1 -1)" gradientUnits="userSpaceOnUse">
      <stop offset="0" stop-color="#fff"/>
      <stop offset=".0885" stop-color="#fff" stop-opacity=".95076"/>
      <stop offset=".25094" stop-color="#fff" stop-opacity=".82006"/>
      <stop offset=".4691" stop-color="#fff" stop-opacity=".60826"/>
      <stop offset=".7329" stop-color="#fff" stop-opacity=".3177"/>
      <stop offset=".99667" stop-color="#fff" stop-opacity="0"/>
    </linearGradient>
  </defs>
  <circle class="uuid-48e25518-9700-42c2-b67c-f9429864fcad" cx="243.48485" cy="235.00876" r="128.14961"/>
  <path class="uuid-4e1fb605-a81b-4394-b0ec-04100cc91c5f" d="m336.49852,293.31326c-28.33771,5.93716-55.37009,1.19849-75.45111-14.0517-23.27536-17.67645-26.53085-47.60889-38.76147-72.6098-12.73291-26.02783-34.92183-54.28462-64.54019-67.12149-7.4604,6.54433-14.50102,13.56622-20.92189,21.25745-.17467.2092-.35922.38976-.53967.58211-1.44817,3.02216-2.95259,6.00365-4.6843,8.85275,15.32826,4.59837,37.03368,14.56706,46.79375,25.94679,20.08142,23.41385,16.07024,54.10962,30.08496,80.92584,21.49313,41.12527,71.35858,60.84213,123.737,51.65424.74435-1.30042,1.78476-2.51865,3.19977-3.58429,8.04898-6.0618,14.009-14.12186,18.6405-23.12488-1.97879-6.32913-7.85602-10.75952-17.55734-8.72705v.00003Z"/>
  <path class="uuid-2d82a549-88fa-407d-aa81-f07d3dd67deb" d="m232.56105,444.16778c-127.30777-10.53766-222.68004-113.68445-213.02039-230.38498C29.20033,97.08227,140.23397,11.0203,267.54174,21.55796c51.29819,4.24611,97.39453,23.5457,133.53995,52.69305C363.17595,33.25566,310.42144,5.76985,250.39183.80102,123.08448-9.73661,11.33867,84.92388.80101,212.23165c-10.53761,127.30734,84.12332,239.05319,211.43066,249.59079,60.02963,4.96884,116.58539-13.46902,160.71567-47.67404-40.44589,22.80765-89.0881,34.26544-140.38632,30.01935l.00003.00003Z"/>
  <path class="uuid-a5aba240-5a5c-4bfe-85a9-eeaa755dde15" d="m360.85415,258.26162c-14.14496-1.52109-61.20883-10.86642-81.41922-24.78391-23.4256-16.13136-40.85114-64.27222-61.38678-83.11703-14.17554-13.00829-26.27382-22.15453-37.6338-28.50182-5.61491,3.97408-11.11137,8.09882-16.4155,12.4492,13.23093,4.95302,30.15649,16.99751,44.75316,28.50583,24.48483,19.30453,30.23495,67.43027,52.80719,87.81531,30.75446,27.77432,75.82657,28.18463,105.00833,29.62378,1.21906-4.40509,2.30557-8.81607,3.32211-13.14194.34146-1.453.86914-2.72867,1.54053-3.83701-3.50357-2.66763-7.2832-4.65833-10.57602-5.01245v.00003Z"/>
  <path class="uuid-13e20bea-34ef-453b-8fba-1d28d18315be" d="m253.15847,331.9934c-7.85812-6.14709-48.35028-27.2803-63.10663-44.92438-17.10381-20.4509-16.95872-51.48956-33.36571-72.9664-10.46971-13.70488-34.60606-18.20178-34.60606-18.20178-.87367-.9948-.07166-1.32204,0,0,.0872,1.60887-4.31871,12.35461-5.13487,13.13718,7.9873-3.20131,21.47108-1.31506,32.5663,12.52721,18.61143,23.2195,11.13791,47.55879,29.07327,70.91756,24.43674,31.82602,68.46939,46.72287,84.17059,58.1228-.6857-2.89285-1.4425-5.83698-2.21036-8.74158-.2579-.97562-.36508-1.75162-.3468-2.35059-2.6347-3.25107-5.21042-6.08893-7.03973-7.51996v-.00006Z"/>
  <circle class="uuid-97fc6a25-4b7b-4dad-97d5-94efc76f28f5" cx="320.58425" cy="115.86941" r="18.79184"/>
  <circle class="uuid-97fc6a25-4b7b-4dad-97d5-94efc76f28f5" cx="292.39647" cy="88.45295" r="9.39593"/>
  <circle class="uuid-97fc6a25-4b7b-4dad-97d5-94efc76f28f5" cx="93.75225" cy="183.88587" r="11.54906"/>
  <circle class="uuid-97fc6a25-4b7b-4dad-97d5-94efc76f28f5" cx="71.63181" cy="166.56227" r="5.77454"/>
  <circle class="uuid-97fc6a25-4b7b-4dad-97d5-94efc76f28f5" cx="89.4889" cy="237.87298" r="11.54906"/>
  <circle class="uuid-97fc6a25-4b7b-4dad-97d5-94efc76f28f5" cx="103.79078" cy="213.68876" r="5.77454"/>
  <circle class="uuid-97fc6a25-4b7b-4dad-97d5-94efc76f28f5" cx="153.39728" cy="114.48399" r="7.62486"/>
  <circle class="uuid-97fc6a25-4b7b-4dad-97d5-94efc76f28f5" cx="145.77242" cy="148.89643" r="7.62486"/>
  <circle class="uuid-97fc6a25-4b7b-4dad-97d5-94efc76f28f5" cx="373.65999" cy="287.9786" r="9.49542"/>
  <circle class="uuid-97fc6a25-4b7b-4dad-97d5-94efc76f28f5" cx="373.65999" cy="321.67562" r="9.49542"/>
  <circle class="uuid-97fc6a25-4b7b-4dad-97d5-94efc76f28f5" cx="341.81847" cy="304.40753" r="16.42892"/>
  <path class="uuid-0ac99d4b-b2f3-4214-a450-bb5ac9f2e1f7" d="m366.98568,198.23451c-.16446-.81226-1.35703-1.81229-1.35703-1.81229-.93372-5.62489-4.85535-12.66962-7.14386-19.02577-7.276-2.808-13.82593-5.93448-18.76599-9.3363-13.76822-9.48109-24.54825-27.05228-36.02078-46.20123-.40182.05273.40579.18275,0,0-15.50067-6.98145-17.09146-6.98145-19.14795-6.98145,11.79156,18.15262,17.6944,39.95461,34.35535,55.00114,13.76065,12.42715,30.9761,22.43828,48.41367,29.84448-.12082-.4915-.23193-.98763-.3334-1.48856v-.00003Z"/>
  <path class="uuid-a0a93600-dbab-4306-97bc-9fd650833e61" d="m111.66918,277.40713c-8.42815,4.54449-17.5528,9.41446-24.53687,15.76492-.80505.77466-1.52795,1.58133-2.08203,2.36136-.552.76624-.86658,1.55591-.85425,1.88388.00671.16391.08154.15668.11951.10831.04248-.04959.07104-.07242.18542.0108,2.09908,1.45422,5.11285,1.83136,7.74751,2.38828,11.83891,2.00687,23.94005,2.38925,36.02458,2.41714,68.87761-.59711,138.0108-19.38538,195.2131-57.97095,4.79907-3.31039,10.05585-7.00949,14.6748-10.56097,23.2016-17.58981,43.80954-38.5618,61.73434-61.51775.40924-.51607.68951-.8658.9639-1.26036.28406-.38892.50916-.76367.7229-1.12509.40454-.70915.62158-1.33681.66956-1.59082.03503-.25963.16895-.18138-.01624-.52019-1.81955-1.77615-4.88391-2.26181-7.77658-2.71069-14.4754-1.49786-29.27698.86436-43.79095,2.92072,12.84222-4.45187,46.45142-15.60986,57.36456-5.99846,4.03174,3.55949,3.20609,9.86208.70166,13.84451-.44522.81944-4.53207,7.18411-5.18399,8.18787-2.7886,4.1972-5.64087,8.36447-8.66055,12.41403-15.70877,21.49744-34.5719,40.75589-55.66141,57.04663-43.45108,33.46042-96.41245,53.67303-150.72169,60.12869-20.14005,2.36862-40.46834,3.00327-60.69257,1.51898-14.02567-1.13022-28.13037-2.8013-41.58171-7.23776-7.9653-2.35654-13.59069-9.90546-6.3638-16.95587,2.99403-2.88269,6.68053-4.80023,10.28287-6.47205,6.91597-3.12808,14.15034-5.3642,21.51787-7.0751h0l.00005-.00006Z"/>
  <circle class="uuid-57b4e4f5-4f6c-4958-b845-342c2584f6f5" cx="143.66146" cy="309.20007" r="21.77087"/>
  <g>
    <path class="uuid-2d82a549-88fa-407d-aa81-f07d3dd67deb" d="m397.17827,403.08627c-4.8183,7.88757-15.45667,7.858-19.20908,3.70712s-2.18576-12.91006,5.71606-17.70493c8.39722-5.09546,18.30063-3.78397,18.30063-3.78397,0,0,3.61322,3.99692-4.80762,17.7818v-.00003Z"/>
    <path class="uuid-2d82a549-88fa-407d-aa81-f07d3dd67deb" d="m394.39788,406.35153s-2.44666,6.61139-10.41251,17.30411c-2.03394,2.73022-6.01617-16.86227-6.01617-16.86227,0,0-17.53754-3.23477-15.89832-5.89099,1.97766-3.20462,11.90939-6.45477,18.59421-9.742l13.73276,15.19113.00003.00003Z"/>
  </g>
  <g>
    <path class="uuid-2d82a549-88fa-407d-aa81-f07d3dd67deb" d="m512.56273,300.35714c-8.10352-3.86816-14.39746-9.26953-18.87793-16.20801-4.4834-6.93457-6.72168-14.8252-6.72168-23.66602v-41.25439c0-8.84082,2.23828-16.69629,6.72168-23.57422,4.48047-6.875,10.71094-12.21582,18.69434-16.02344,7.97949-3.80371,17.12793-5.70898,27.44141-5.70898s19.45898,1.62891,27.44238,4.88086c7.97949,3.25391,14.20996,7.7666,18.69336,13.53613,4.48047,5.77246,6.72266,12.40332,6.72266,19.89062,0,3.68359-1.22949,6.57031-3.68359,8.65625-2.45801,2.08984-5.70996,3.13086-9.76172,3.13086-.86035,0-2.14941-.12012-3.86719-.36816.24414-1.47363.36816-3.80371.36816-6.99805,0-5.27832-1.50488-10.00586-4.5127-14.18164-3.00977-4.17285-7.24609-7.42773-12.70801-9.76172-5.46387-2.33105-11.69434-3.49902-18.69336-3.49902-6.87793,0-13.01562,1.26074-18.41699,3.77539-5.4043,2.51855-9.60938,6.07812-12.61621,10.68262-3.00977,4.60449-4.5127,9.79297-4.5127,15.5625v41.25439c0,5.89355,1.50293,11.14258,4.5127,15.74707,3.00684,4.60449,7.24316,8.19531,12.70801,10.77441,5.46191,2.57812,11.69531,3.86719,18.69336,3.86719,7.12012,0,13.44531-1.16504,18.9707-3.49902,5.52441-2.33105,9.82129-5.55469,12.8916-9.66895,3.06738-4.1123,4.60449-8.86914,4.60449-14.27344,0-1.96289-.12402-4.29688-.36816-6.99902,1.71777-.24512,2.94629-.36816,3.68359-.36816,4.05176,0,7.33496,1.16797,9.85254,3.49902,2.51562,2.33398,3.77637,5.46484,3.77637,9.39258,0,7.24609-2.27344,13.69238-6.81445,19.33887-4.54395,5.64844-10.83789,10.03711-18.87793,13.16797-8.04297,3.13086-17.28418,4.69629-27.71875,4.69629-10.31348,0-19.52246-1.93359-27.62598-5.80078Z"/>
    <path class="uuid-2d82a549-88fa-407d-aa81-f07d3dd67deb" d="m649.31078,300.17257c-8.04395-3.98828-14.33691-9.51367-18.87793-16.5752-4.54395-7.05957-6.81445-14.88672-6.81445-23.48242v-40.51807c0-8.59277,2.27051-16.35938,6.81445-23.29785,4.54102-6.93555,10.83398-12.40039,18.87793-16.3916,8.04004-3.98828,17.15625-5.98535,27.34912-5.98535,10.31348,0,19.49023,1.99707,27.53418,5.98535,8.04004,3.99121,14.33398,9.45605,18.87793,16.3916,4.54102,6.93848,6.81445,14.70508,6.81445,23.29785v40.51807c0,8.5957-2.27344,16.42285-6.81445,23.48242-4.54395,7.06152-10.86621,12.58691-18.9707,16.5752-8.10352,3.99121-17.25195,5.98535-27.44141,5.98535-10.19287,0-19.30908-1.99414-27.34912-5.98535Zm54.0542-17.58887c6.38281-5.64551,9.57715-13.19727,9.57715-22.65332v-39.96533c0-9.45312-3.19434-16.97266-9.57715-22.56055-6.38574-5.58594-15.28613-8.38086-26.70508-8.38086-11.29736,0-20.13818,2.79492-26.521,8.38086-6.38574,5.58789-9.57715,13.10742-9.57715,22.56055v39.96533c0,9.45605,3.19141,17.00781,9.57715,22.65332,6.38281,5.64941,15.22363,8.47266,26.521,8.47266,11.41895,0,20.31934-2.82324,26.70508-8.47266Z"/>
    <path class="uuid-2d82a549-88fa-407d-aa81-f07d3dd67deb" d="m764.51049,183.68281c0-2.33105.82812-4.26465,2.48633-5.80078,1.65723-1.53418,3.77539-2.30273,6.35352-2.30273h50.83203c11.9082,0,21.39258,3.4707,28.45508,10.40625,7.05859,6.9375,10.58984,16.17773,10.58984,27.71777,0,14.48927-6.3252,24.74315-18.96973,30.75636v.55273c5.52539,2.33398,9.76074,5.86523,12.70801,10.58984,2.94629,4.72852,4.41992,10.46973,4.41992,17.2207v18.96973c0,4.66797-1.47363,8.22754-4.41992,10.68164-2.94727,2.45508-7.24609,3.68359-12.89258,3.68359v-32.23047c0-7.24316-1.62891-12.73633-4.87988-16.4834-3.25488-3.74414-8.0752-5.61719-14.45801-5.61719h-43.09668v39.96582c0,4.66797-1.44434,8.22754-4.32812,10.68164-2.88672,2.45508-7.1543,3.68359-12.7998,3.68359v-122.47511Zm59.11914,53.22655c6.75098,0,12.12402-2.08594,16.11523-6.26172,3.98926-4.17285,5.98633-9.88281,5.98633-17.12891,0-7.36621-1.90527-13.0127-5.70996-16.94336-3.80664-3.92871-9.27148-5.89355-16.3916-5.89355h-41.99121v46.22754h41.99121Z"/>
    <path class="uuid-2d82a549-88fa-407d-aa81-f07d3dd67deb" d="m900.61205,183.68281c0-2.33105.85742-4.26465,2.57812-5.80078,1.71777-1.53418,3.80469-2.30273,6.26172-2.30273h81.58887c0,5.15723-1.04395,8.96387-3.13086,11.41895-2.08887,2.45801-5.34082,3.68359-9.76074,3.68359h-60.22559v41.25487h51.56934c0,5.15723-1.04492,8.96338-3.13086,11.41846-2.08984,2.45703-5.28125,3.68359-9.57715,3.68359h-38.86133v42.35938h64.09277c4.29688,0,7.48828,1.22949,9.57715,3.68359,2.08691,2.45801,3.13086,6.26172,3.13086,11.41895h-85.27246c-2.45703,0-4.54395-.76562-6.26172-2.30176-1.7207-1.53418-2.57812-3.46777-2.57812-5.80176v-112.71436.00002Z"/>
    <path class="uuid-2d82a549-88fa-407d-aa81-f07d3dd67deb" d="m1032.01732,301.82977c-1.78125-1.77832-2.66992-3.89648-2.66992-6.35352v-107.18896c0-9.57715,5.76953-14.36523,17.31152-14.36523v115.29248h56.54199c4.2959,0,7.61133,1.32031,9.94531,3.95898,2.33105,2.64258,3.49902,6.41797,3.49902,11.32715h-78.27344c-2.45801,0-4.57617-.88965-6.35449-2.6709Z"/>
    <path class="uuid-2d82a549-88fa-407d-aa81-f07d3dd67deb" d="m1152.09838,301.82977c-1.78125-1.77832-2.66992-3.89648-2.66992-6.35352v-107.18896c0-9.57715,5.76953-14.36523,17.31152-14.36523v115.29248h56.54199c4.2959,0,7.61133,1.32031,9.94531,3.95898,2.33105,2.64258,3.49902,6.41797,3.49902,11.32715h-78.27344c-2.45801,0-4.57617-.88965-6.35449-2.6709Z"/>
    <path class="uuid-2d82a549-88fa-407d-aa81-f07d3dd67deb" d="m1273.19115,188.2873c0-4.54102,1.50293-8.07227,4.5127-10.58984,3.00684-2.51562,7.27441-3.77539,12.7998-3.77539v117.87062c0,4.54395-1.50488,8.0752-4.51172,10.58984-3.01074,2.51562-7.27539,3.77539-12.80078,3.77539v-117.87062Z"/>
    <path class="uuid-2d82a549-88fa-407d-aa81-f07d3dd67deb" d="m1331.94115,301.46163c-2.08984-2.39453-3.13086-5.30957-3.13086-8.74805,0-2.33105.55273-4.78809,1.65723-7.36719l44.01758-105.89893c1.47363-3.68359,4.29688-5.52539,8.47168-5.52539,3.92871,0,6.69141,1.8418,8.28809,5.52539l44.01758,105.89893c1.10547,2.5791,1.65723,5.03613,1.65723,7.36719,0,3.31543-1.04395,6.20117-3.13086,8.65625-2.08887,2.45703-4.97266,4.05176-8.65625,4.78809l-15.83887-38.49219h-52.85742l-15.83887,38.49219c-3.68359-.73633-6.57031-2.30176-8.65625-4.69629Zm72.01172-48.71387l-23.75879-60.22412-1.47266.55273,3.31445,8.47168-20.25879,51.19971h42.17578Z"/>
  </g>
</svg>