<?xml version="1.0" encoding="UTF-8"?>
<svg id="uuid-209e49cd-120c-4ea3-8118-3878b794fb9a" data-name="Layer 2" xmlns="http://www.w3.org/2000/svg" xmlns:xlink="http://www.w3.org/1999/xlink" viewBox="0 0 1451.1154 544.20548">
  <defs>
    <style>
      .uuid-3e4f0ef8-6ef2-4ed9-b857-c09caf659589 {
        fill: url(#uuid-e5b39d11-065d-4737-976b-6caa91ca4f9f);
      }

      .uuid-3e4f0ef8-6ef2-4ed9-b857-c09caf659589, .uuid-52347ec8-e0a3-4557-81ad-75212b0098b1, .uuid-8546aa8b-c37f-46ac-9d78-bfdc0f304408, .uuid-8bd3c147-a93b-4f7d-8d0b-ea312257296f, .uuid-1ade98f0-ab93-4e16-b9d2-be2c482a8a06, .uuid-c8c24434-b4a4-493c-9e6c-e8db96d83a6d, .uuid-918ff6a2-5333-49d4-8a5f-654b0ac440ff, .uuid-56b1d22b-73f8-49e6-b7f1-184a410f4783, .uuid-4511bef6-fb6b-4086-9c55-53a51a1a55ea, .uuid-136572fc-68f0-40f1-9b5f-66c051aad669 {
        stroke-width: 0px;
      }

      .uuid-3e4f0ef8-6ef2-4ed9-b857-c09caf659589, .uuid-8546aa8b-c37f-46ac-9d78-bfdc0f304408, .uuid-8bd3c147-a93b-4f7d-8d0b-ea312257296f, .uuid-1ade98f0-ab93-4e16-b9d2-be2c482a8a06 {
        opacity: .24;
      }

      .uuid-52347ec8-e0a3-4557-81ad-75212b0098b1 {
        fill: url(#uuid-49f1e510-25f3-43ee-b5a4-f71809581035);
      }

      .uuid-8546aa8b-c37f-46ac-9d78-bfdc0f304408 {
        fill: url(#uuid-b5179056-b0e4-434a-b8e3-66eefea40585);
      }

      .uuid-8bd3c147-a93b-4f7d-8d0b-ea312257296f {
        fill: url(#uuid-9b961253-6aae-4067-b9d3-f9aaacc573ed);
      }

      .uuid-1ade98f0-ab93-4e16-b9d2-be2c482a8a06 {
        fill: url(#uuid-93454bdd-e856-4561-a781-e5828935e436);
      }

      .uuid-c8c24434-b4a4-493c-9e6c-e8db96d83a6d {
        fill: #daa7cb;
      }

      .uuid-918ff6a2-5333-49d4-8a5f-654b0ac440ff {
        fill: #9a70b1;
      }

      .uuid-56b1d22b-73f8-49e6-b7f1-184a410f4783 {
        fill: #a075b3;
      }

      .uuid-4511bef6-fb6b-4086-9c55-53a51a1a55ea {
        fill: #fff;
      }

      .uuid-136572fc-68f0-40f1-9b5f-66c051aad669 {
        fill: #f0d9b2;
      }
    </style>
    <linearGradient id="uuid-49f1e510-25f3-43ee-b5a4-f71809581035" x1="132.9519" y1="263.95424" x2="312.42618" y2="263.95424" gradientUnits="userSpaceOnUse">
      <stop offset="0" stop-color="#ef496c"/>
      <stop offset="1" stop-color="#4e65ad"/>
    </linearGradient>
    <linearGradient id="uuid-9b961253-6aae-4067-b9d3-f9aaacc573ed" x1="-337.36142" y1="1325.2921" x2="-366.16955" y2="1127.06019" gradientTransform="translate(-222.85664 -918.66405) rotate(-36.44803)" gradientUnits="userSpaceOnUse">
      <stop offset="0" stop-color="#cc6d2e" stop-opacity="0"/>
      <stop offset="1" stop-color="#fff"/>
    </linearGradient>
    <linearGradient id="uuid-e5b39d11-065d-4737-976b-6caa91ca4f9f" x1="-347.07052" y1="1209.32227" x2="-283.88034" y2="1209.32227" gradientTransform="translate(-222.85664 -918.66405) rotate(-36.44803)" gradientUnits="userSpaceOnUse">
      <stop offset="0" stop-color="#fff"/>
      <stop offset=".0885" stop-color="#fff" stop-opacity=".95076"/>
      <stop offset=".25094" stop-color="#fff" stop-opacity=".82006"/>
      <stop offset=".4691" stop-color="#fff" stop-opacity=".60826"/>
      <stop offset=".7329" stop-color="#fff" stop-opacity=".3177"/>
      <stop offset=".99667" stop-color="#fff" stop-opacity="0"/>
    </linearGradient>
    <linearGradient id="uuid-93454bdd-e856-4561-a781-e5828935e436" x1="-246.52325" y1="1056.73074" x2="-202.50106" y2="1056.73074" gradientTransform="translate(-126.87326 -742.75242) rotate(-28.74076)" gradientUnits="userSpaceOnUse">
      <stop offset="0" stop-color="#fff"/>
      <stop offset=".34771" stop-color="#fff" stop-opacity=".61155"/>
      <stop offset=".66556" stop-color="#fff" stop-opacity=".28279"/>
      <stop offset=".88814" stop-color="#fff" stop-opacity=".07875"/>
      <stop offset=".99667" stop-color="#fff" stop-opacity="0"/>
    </linearGradient>
    <linearGradient id="uuid-b5179056-b0e4-434a-b8e3-66eefea40585" x1="-285.89903" y1="1206.51788" x2="-222.70885" y2="1206.51788" xlink:href="#uuid-e5b39d11-065d-4737-976b-6caa91ca4f9f"/>
  </defs>
  <circle class="uuid-52347ec8-e0a3-4557-81ad-75212b0098b1" cx="222.68904" cy="263.95424" r="89.73714"/>
  <path class="uuid-8bd3c147-a93b-4f7d-8d0b-ea312257296f" d="m287.82213,304.78214c-19.84357,4.15752-38.77306.83924-52.83485-9.83974-16.29863-12.37798-18.57829-33.33826-27.14285-50.84522-8.91625-18.22607-24.45411-38.01296-45.19445-47.00201-5.22417,4.58268-10.15438,9.49979-14.65061,14.88559-.12231.1465-.25154.27293-.37791.40762-1.01409,2.11627-2.06756,4.20408-3.28019,6.19916,10.73365,3.22003,25.93294,10.20063,32.76746,18.16931,14.06207,16.39561,11.25323,37.89042,21.06707,56.66856,15.05062,28.79809,49.96905,42.60488,86.64719,36.17102.52123-.91063,1.24978-1.7637,2.24066-2.50991,5.63632-4.24478,9.80985-9.88887,13.05307-16.19326-1.38566-4.432-5.50119-7.53438-12.29459-6.11114Z"/>
  <path class="uuid-56b1d22b-73f8-49e6-b7f1-184a410f4783" d="m215.03961,410.41843c-89.14763-7.37902-155.93233-79.60786-149.16813-161.32774,6.7642-81.71988,84.51583-141.98501,173.66346-134.60599,35.9217,2.97335,68.2008,16.48795,93.51173,36.89846-26.5436-28.70712-63.48509-47.95414-105.52101-51.43358-89.14732-7.37899-167.39765,58.90729-174.77667,148.05492-7.37899,89.14732,58.9076,167.39768,148.05492,174.77667,42.03592,3.47944,81.63925-9.43173,112.54161-33.38387-28.32235,15.97112-62.38421,23.99448-98.30591,21.02113Z"/>
  <path class="uuid-3e4f0ef8-6ef2-4ed9-b857-c09caf659589" d="m304.87721,280.23712c-9.90506-1.06514-42.86166-7.60926-57.01404-17.35499-16.40385-11.29603-28.60613-45.0068-42.98627-58.20294-9.92647-9.1091-18.39832-15.51376-26.35318-19.95848-3.93187,2.78286-7.78078,5.67122-11.495,8.71759,9.26499,3.46837,21.11717,11.90255,31.33853,19.96129,17.14556,13.51806,21.17211,47.21824,36.97838,61.49293,21.53591,19.44905,53.09778,19.73636,73.53239,20.74414.85364-3.08468,1.61448-6.17348,2.32633-9.20268.23911-1.01748.60863-1.91075,1.07876-2.68688-2.45339-1.86802-5.10008-3.262-7.40589-3.50998Z"/>
  <path class="uuid-1ade98f0-ab93-4e16-b9d2-be2c482a8a06" d="m229.46301,331.86801c-5.50267-4.30452-33.85743-19.1031-44.19059-31.45843-11.97699-14.32081-11.8754-36.05573-23.36443-51.09493-7.33144-9.59688-24.233-12.74585-24.233-12.74585-.61179-.69661-.05018-.92576,0,0,.06107,1.12661-3.02419,8.65136-3.59571,9.19935,5.59313-2.24173,15.03519-.92088,22.80465,8.7722,13.03271,16.25952,7.79935,33.30318,20.35864,49.66022,17.11189,22.28626,47.94588,32.71782,58.94071,40.70065-.48016-2.02572-1.01012-4.08735-1.54781-6.12133-.1806-.68319-.25565-1.22657-.24285-1.64601-1.84495-2.27657-3.64862-4.2638-4.9296-5.26588Z"/>
  <circle class="uuid-136572fc-68f0-40f1-9b5f-66c051aad669" cx="277.22862" cy="184.72071" r="10.14453"/>
  <circle class="uuid-136572fc-68f0-40f1-9b5f-66c051aad669" cx="262.01182" cy="169.92028" r="5.07227"/>
  <circle class="uuid-136572fc-68f0-40f1-9b5f-66c051aad669" cx="112.46654" cy="240.77603" r="5.86323"/>
  <circle class="uuid-136572fc-68f0-40f1-9b5f-66c051aad669" cx="101.23644" cy="231.98119" r="2.93161"/>
  <circle class="uuid-136572fc-68f0-40f1-9b5f-66c051aad669" cx="110.30212" cy="268.18421" r="5.86323"/>
  <circle class="uuid-136572fc-68f0-40f1-9b5f-66c051aad669" cx="117.5629" cy="255.90636" r="2.93161"/>
  <circle class="uuid-136572fc-68f0-40f1-9b5f-66c051aad669" cx="154.78926" cy="192.83089" r="2.93161"/>
  <circle class="uuid-136572fc-68f0-40f1-9b5f-66c051aad669" cx="151.85765" cy="206.06182" r="2.93161"/>
  <circle class="uuid-136572fc-68f0-40f1-9b5f-66c051aad669" cx="294.94605" cy="310.43709" r="2.93161"/>
  <circle class="uuid-136572fc-68f0-40f1-9b5f-66c051aad669" cx="294.94605" cy="320.84071" r="2.93161"/>
  <circle class="uuid-136572fc-68f0-40f1-9b5f-66c051aad669" cx="285.1153" cy="315.50936" r="5.07227"/>
  <path class="uuid-8546aa8b-c37f-46ac-9d78-bfdc0f304408" d="m309.17084,238.20296c-.11517-.56879-.95025-1.26906-.95025-1.26906-.65384-3.93885-3.39997-8.87193-5.00251-13.32286-5.09503-1.96631-9.68164-4.15564-13.14093-6.53778-9.64124-6.63916-17.18997-18.94343-25.22366-32.35255-.28137.03693.28415.12798,0,0-10.85439-4.88878-11.96835-4.88878-13.40842-4.88878,8.25708,12.71143,12.39056,27.97833,24.05743,38.51471,9.63593,8.70215,21.6911,15.71246,33.90179,20.89868-.08459-.34418-.16241-.69159-.23346-1.04236Z"/>
  <path class="uuid-c8c24434-b4a4-493c-9e6c-e8db96d83a6d" d="m130.38472,293.64382c-5.87309,3.27481-12.20293,6.74298-17.03062,11.22977-.551.54275-1.04159,1.10568-1.40839,1.64071-.36632.52411-.55448,1.0575-.51778,1.21991.0183.08124.07984.02643.1003-.05841.02415-.08588.02498-.14783.08578-.12189,1.45491.85758,3.47323,1.15268,5.25615,1.50102,8.26995,1.34782,16.71904,1.57001,25.15932,1.55304,67.63401-.50769,135.28821-27.42745,180.01661-79.00883,3.35234-3.685,6.72859-7.88219,9.87031-11.77118.29005-.36237.48063-.59492.66929-.86066.19534-.26178.34814-.51062.49344-.74847.27493-.46454.41351-.85883.45282-.95978.02744-.10553.173.0498.09796-.14661-.07529-.17389-.4805-.49542-1.02032-.75037-4.29234-1.72634-9.43043-1.52193-14.21345-1.43338-6.83111.28628-13.74553,1.12363-20.65181,2.1066,6.55383-2.40851,13.24622-4.49481,20.20609-5.87518,5.45876-.95016,11.08227-2.02651,16.77515-.45359,4.67854,1.3118,6.80661,5.95561,4.734,10.47193-.7439,1.8229-3.2974,5.58688-4.36559,7.3173-5.81382,8.92569-12.31454,17.36247-19.45041,25.30394-38.36201,42.77269-95.63944,66.18819-152.6557,67.32695-10.67114.22377-21.35462-.2253-31.93579-1.69283-7.32931-1.1771-14.73891-2.11821-21.5518-5.41876-2.6759-1.42291-4.84489-4.76666-3.71743-7.84981,2.72923-7.18553,17.67073-10.87895,24.60188-12.52142h0Z"/>
  <g>
    <circle class="uuid-918ff6a2-5333-49d4-8a5f-654b0ac440ff" cx="152.78742" cy="315.90692" r="15.24511"/>
    <path class="uuid-4511bef6-fb6b-4086-9c55-53a51a1a55ea" d="m168.03253,315.90694c.16221,10.92117-11.19347,19.13916-21.61282,15.37092-14.42891-5.16623-14.43401-25.5879-.00389-30.75208,10.42088-3.77212,21.78211,4.46022,21.61671,15.38116h0Zm0,0c-.03879-13.07706-16.11808-19.17404-24.80524-9.55988-7.92979,8.67042-2.24794,22.98421,9.56029,23.81004,7.92755.7856,15.42838-6.18971,15.24495-14.25016h0Z"/>
  </g>
  <g>
    <path class="uuid-56b1d22b-73f8-49e6-b7f1-184a410f4783" d="m330.31329,381.651c-3.37403,5.52329-10.82358,5.50258-13.45121,2.59591-2.62763-2.90667-1.53059-9.04031,4.00269-12.39793,5.88017-3.56811,12.81506-2.64974,12.81506-2.64974,0,0,2.53016,2.79885-3.36654,12.45176Z"/>
    <path class="uuid-56b1d22b-73f8-49e6-b7f1-184a410f4783" d="m328.36631,383.9375s-1.71329,4.62965-7.29138,12.11726c-1.42428,1.91185-4.21284-11.80785-4.21284-11.80785,0,0-12.28071-2.26515-11.13284-4.12518,1.38485-2.24404,8.33958-4.51997,13.02065-6.82186l9.61641,10.63762Z"/>
  </g>
  <g>
    <path class="uuid-4511bef6-fb6b-4086-9c55-53a51a1a55ea" d="m444.80322,324.28774c-8.10352-3.86816-14.39746-9.26953-18.87793-16.20801-4.4834-6.93457-6.72168-14.8252-6.72168-23.66602v-41.25439c0-8.84082,2.23828-16.69629,6.72168-23.57422,4.48047-6.875,10.71094-12.21582,18.69434-16.02344,7.97949-3.80371,17.12793-5.70898,27.44141-5.70898s19.45898,1.62891,27.44238,4.88086c7.97949,3.25391,14.20996,7.7666,18.69336,13.53613,4.48047,5.77246,6.72266,12.40332,6.72266,19.89062,0,3.68359-1.22949,6.57031-3.68359,8.65625-2.45801,2.08984-5.70996,3.13086-9.76172,3.13086-.86035,0-2.14941-.12012-3.86719-.36816.24414-1.47363.36816-3.80371.36816-6.99805,0-5.27832-1.50488-10.00586-4.5127-14.18164-3.00977-4.17285-7.24609-7.42773-12.70801-9.76172-5.46387-2.33105-11.69434-3.49902-18.69336-3.49902-6.87793,0-13.01562,1.26074-18.41699,3.77539-5.4043,2.51855-9.60938,6.07812-12.61621,10.68262-3.00977,4.60449-4.5127,9.79297-4.5127,15.5625v41.25439c0,5.89355,1.50293,11.14258,4.5127,15.74707,3.00684,4.60449,7.24316,8.19531,12.70801,10.77441,5.46191,2.57812,11.69531,3.86719,18.69336,3.86719,7.12012,0,13.44531-1.16504,18.9707-3.49902,5.52441-2.33105,9.82129-5.55469,12.8916-9.66895,3.06738-4.1123,4.60449-8.86914,4.60449-14.27344,0-1.96289-.12402-4.29688-.36816-6.99902,1.71777-.24512,2.94629-.36816,3.68359-.36816,4.05176,0,7.33496,1.16797,9.85254,3.49902,2.51562,2.33398,3.77637,5.46484,3.77637,9.39258,0,7.24609-2.27344,13.69238-6.81445,19.33887-4.54395,5.64844-10.83789,10.03711-18.87793,13.16797-8.04297,3.13086-17.28418,4.69629-27.71875,4.69629-10.31348,0-19.52246-1.93359-27.62598-5.80078Z"/>
    <path class="uuid-4511bef6-fb6b-4086-9c55-53a51a1a55ea" d="m581.55127,324.10317c-8.04395-3.98828-14.33691-9.51367-18.87793-16.5752-4.54395-7.05957-6.81445-14.88672-6.81445-23.48242v-40.51807c0-8.59277,2.27051-16.35938,6.81445-23.29785,4.54102-6.93555,10.83398-12.40039,18.87793-16.3916,8.04004-3.98828,17.15625-5.98535,27.34912-5.98535,10.31348,0,19.49023,1.99707,27.53418,5.98535,8.04004,3.99121,14.33398,9.45605,18.87793,16.3916,4.54102,6.93848,6.81445,14.70508,6.81445,23.29785v40.51807c0,8.5957-2.27344,16.42285-6.81445,23.48242-4.54395,7.06152-10.86621,12.58691-18.9707,16.5752-8.10352,3.99121-17.25195,5.98535-27.44141,5.98535-10.19287,0-19.30908-1.99414-27.34912-5.98535Zm54.0542-17.58887c6.38281-5.64551,9.57715-13.19727,9.57715-22.65332v-39.96533c0-9.45312-3.19434-16.97266-9.57715-22.56055-6.38574-5.58594-15.28613-8.38086-26.70508-8.38086-11.29736,0-20.13818,2.79492-26.521,8.38086-6.38574,5.58789-9.57715,13.10742-9.57715,22.56055v39.96533c0,9.45605,3.19141,17.00781,9.57715,22.65332,6.38281,5.64941,15.22363,8.47266,26.521,8.47266,11.41895,0,20.31934-2.82324,26.70508-8.47266Z"/>
    <path class="uuid-4511bef6-fb6b-4086-9c55-53a51a1a55ea" d="m696.75098,207.61342c0-2.33105.82812-4.26465,2.48633-5.80078,1.65723-1.53418,3.77539-2.30273,6.35352-2.30273h50.83203c11.9082,0,21.39258,3.4707,28.45508,10.40625,7.05859,6.9375,10.58984,16.17773,10.58984,27.71777,0,14.48926-6.3252,24.74316-18.96973,30.75635v.55273c5.52539,2.33398,9.76074,5.86523,12.70801,10.58984,2.94629,4.72852,4.41992,10.46973,4.41992,17.2207v18.96973c0,4.66797-1.47363,8.22754-4.41992,10.68164-2.94727,2.45508-7.24609,3.68359-12.89258,3.68359v-32.23047c0-7.24316-1.62891-12.73633-4.87988-16.4834-3.25488-3.74414-8.0752-5.61719-14.45801-5.61719h-43.09668v39.96582c0,4.66797-1.44434,8.22754-4.32812,10.68164-2.88672,2.45508-7.1543,3.68359-12.7998,3.68359v-122.4751Zm59.11914,53.22656c6.75098,0,12.12402-2.08594,16.11523-6.26172,3.98926-4.17285,5.98633-9.88281,5.98633-17.12891,0-7.36621-1.90527-13.0127-5.70996-16.94336-3.80664-3.92871-9.27148-5.89355-16.3916-5.89355h-41.99121v46.22754h41.99121Z"/>
    <path class="uuid-4511bef6-fb6b-4086-9c55-53a51a1a55ea" d="m832.85254,207.61342c0-2.33105.85742-4.26465,2.57812-5.80078,1.71777-1.53418,3.80469-2.30273,6.26172-2.30273h81.58887c0,5.15723-1.04395,8.96387-3.13086,11.41895-2.08887,2.45801-5.34082,3.68359-9.76074,3.68359h-60.22559v41.25488h51.56934c0,5.15723-1.04492,8.96338-3.13086,11.41846-2.08984,2.45703-5.28125,3.68359-9.57715,3.68359h-38.86133v42.35938h64.09277c4.29688,0,7.48828,1.22949,9.57715,3.68359,2.08691,2.45801,3.13086,6.26172,3.13086,11.41895h-85.27246c-2.45703,0-4.54395-.76562-6.26172-2.30176-1.7207-1.53418-2.57812-3.46777-2.57812-5.80176v-112.71436Z"/>
    <path class="uuid-4511bef6-fb6b-4086-9c55-53a51a1a55ea" d="m964.25781,325.7604c-1.78125-1.77832-2.66992-3.89648-2.66992-6.35352v-107.18896c0-9.57715,5.76953-14.36523,17.31152-14.36523v115.29248h56.54199c4.2959,0,7.61133,1.32031,9.94531,3.95898,2.33105,2.64258,3.49902,6.41797,3.49902,11.32715h-78.27344c-2.45801,0-4.57617-.88965-6.35449-2.6709Z"/>
    <path class="uuid-4511bef6-fb6b-4086-9c55-53a51a1a55ea" d="m1084.33887,325.7604c-1.78125-1.77832-2.66992-3.89648-2.66992-6.35352v-107.18896c0-9.57715,5.76953-14.36523,17.31152-14.36523v115.29248h56.54199c4.2959,0,7.61133,1.32031,9.94531,3.95898,2.33105,2.64258,3.49902,6.41797,3.49902,11.32715h-78.27344c-2.45801,0-4.57617-.88965-6.35449-2.6709Z"/>
    <path class="uuid-4511bef6-fb6b-4086-9c55-53a51a1a55ea" d="m1205.43164,212.21792c0-4.54102,1.50293-8.07227,4.5127-10.58984,3.00684-2.51562,7.27441-3.77539,12.7998-3.77539v117.87061c0,4.54395-1.50488,8.0752-4.51172,10.58984-3.01074,2.51562-7.27539,3.77539-12.80078,3.77539v-117.87061Z"/>
    <path class="uuid-4511bef6-fb6b-4086-9c55-53a51a1a55ea" d="m1264.18164,325.39223c-2.08984-2.39453-3.13086-5.30957-3.13086-8.74805,0-2.33105.55273-4.78809,1.65723-7.36719l44.01758-105.89893c1.47363-3.68359,4.29688-5.52539,8.47168-5.52539,3.92871,0,6.69141,1.8418,8.28809,5.52539l44.01758,105.89893c1.10547,2.5791,1.65723,5.03613,1.65723,7.36719,0,3.31543-1.04395,6.20117-3.13086,8.65625-2.08887,2.45703-4.97266,4.05176-8.65625,4.78809l-15.83887-38.49219h-52.85742l-15.83887,38.49219c-3.68359-.73633-6.57031-2.30176-8.65625-4.69629Zm72.01172-48.71387l-23.75879-60.22412-1.47266.55273,3.31445,8.47168-20.25879,51.19971h42.17578Z"/>
  </g>
</svg>