<?xml version="1.0" encoding="UTF-8"?>
<svg id="Layer_1" data-name="Layer 1" xmlns="http://www.w3.org/2000/svg" viewBox="0 0 1284.49 367.13">
  <defs>
    <style>
      .cls-1 {
        fill: #dbf1f7;
        isolation: isolate;
        opacity: .45;
      }

      .cls-1, .cls-2, .cls-3, .cls-4, .cls-5, .cls-6, .cls-7, .cls-8 {
        stroke-width: 0px;
      }

      .cls-9 {
        fill: none;
        stroke: #45aee3;
        stroke-miterlimit: 10;
        stroke-width: 8px;
      }

      .cls-2 {
        fill: #603913;
      }

      .cls-3 {
        fill: #21b24b;
      }

      .cls-4 {
        fill: #231f20;
      }

      .cls-5 {
        fill: #c0dd92;
      }

      .cls-6 {
        fill: #fff;
      }

      .cls-7 {
        fill: #f16777;
      }

      .cls-8 {
        fill: #66b7e6;
      }
    </style>
  </defs>
  <g>
    <path class="cls-8" d="m528.97,173.44h-26.51v-5.98c0-6.06-1.43-11.31-4.29-15.72-2.86-4.42-7.67-6.63-14.42-6.63-3.64,0-6.59.69-8.84,2.08-2.25,1.39-4.07,3.12-5.46,5.2-1.39,2.25-2.34,4.81-2.86,7.67-.52,2.86-.78,5.85-.78,8.97,0,3.64.13,6.67.39,9.1s.91,4.59,1.95,6.5c1.04,1.91,2.55,3.55,4.55,4.94,1.99,1.39,4.72,2.77,8.19,4.16l20.27,8.06c5.89,2.25,10.66,4.9,14.29,7.93,3.64,3.03,6.5,6.54,8.58,10.53,1.9,4.16,3.2,8.88,3.9,14.17.69,5.29,1.04,11.31,1.04,18.06,0,7.8-.78,15.03-2.34,21.7s-4.07,12.35-7.54,17.02c-3.64,4.85-8.41,8.67-14.29,11.44-5.89,2.77-13.08,4.16-21.57,4.16-6.41,0-12.39-1.13-17.93-3.38-5.55-2.25-10.31-5.37-14.29-9.36-3.99-3.98-7.15-8.62-9.49-13.9s-3.51-11.05-3.51-17.28v-9.88h26.51v8.32c0,4.85,1.43,9.23,4.29,13.12,2.86,3.9,7.67,5.85,14.42,5.85,4.5,0,8.01-.65,10.53-1.95,2.51-1.3,4.46-3.16,5.85-5.59,1.38-2.42,2.21-5.33,2.47-8.71.26-3.38.39-7.15.39-11.31,0-4.85-.17-8.84-.52-11.96-.35-3.12-1.04-5.63-2.08-7.54-1.21-1.9-2.82-3.46-4.81-4.68-1.99-1.21-4.64-2.51-7.93-3.9l-18.97-7.8c-11.44-4.68-19.1-10.87-23-18.58s-5.85-17.37-5.85-28.98c0-6.93.95-13.51,2.86-19.75,1.9-6.24,4.76-11.61,8.58-16.11,3.64-4.5,8.27-8.1,13.9-10.79,5.63-2.68,12.35-4.03,20.14-4.03,6.58,0,12.61,1.21,18.06,3.64,5.46,2.43,10.18,5.63,14.16,9.62,7.97,8.32,11.96,17.85,11.96,28.59v13-.02Z"/>
    <path class="cls-8" d="m548.72,305.21V120.16h26.51v79.27h32.75v-79.27h26.51v185.05h-26.51v-82.39h-32.75v82.39h-26.51Z"/>
    <path class="cls-8" d="m657.88,163.82c0-7.45,1.3-14.04,3.9-19.75s6.06-10.48,10.4-14.29c4.16-3.64,8.88-6.41,14.16-8.32,5.28-1.9,10.61-2.86,15.98-2.86s10.7.95,15.98,2.86c5.28,1.91,10.09,4.68,14.42,8.32,4.16,3.81,7.54,8.58,10.14,14.29,2.6,5.71,3.9,12.3,3.9,19.75v97.72c0,7.8-1.3,14.47-3.9,20.01-2.6,5.55-5.98,10.14-10.14,13.78-4.33,3.81-9.14,6.67-14.42,8.58-5.29,1.91-10.62,2.86-15.98,2.86s-10.7-.95-15.98-2.86c-5.29-1.9-10.01-4.76-14.16-8.58-4.33-3.64-7.8-8.23-10.4-13.78-2.6-5.54-3.9-12.21-3.9-20.01v-97.72Zm26.51,97.72c0,6.41,1.77,11.13,5.33,14.16,3.55,3.03,7.75,4.55,12.61,4.55s9.05-1.52,12.6-4.55,5.33-7.75,5.33-14.16v-97.72c0-6.41-1.78-11.13-5.33-14.17-3.55-3.03-7.76-4.55-12.6-4.55s-9.06,1.52-12.61,4.55-5.33,7.76-5.33,14.17v97.72Z"/>
    <path class="cls-8" d="m770.16,305.21V120.16h39.77c7.28,0,13.69.96,19.23,2.86,5.54,1.91,10.57,5.29,15.07,10.14s7.62,10.53,9.36,17.02c1.73,6.5,2.6,15.29,2.6,26.38,0,8.32-.48,15.33-1.43,21.05s-2.99,11.09-6.11,16.11c-3.64,6.07-8.49,10.79-14.55,14.16-6.07,3.38-14.03,5.07-23.91,5.07h-13.51v72.25h-26.52Zm26.51-160.1v62.9h12.74c5.37,0,9.53-.78,12.48-2.34,2.94-1.56,5.11-3.72,6.5-6.5,1.38-2.6,2.21-5.8,2.47-9.62.26-3.81.39-8.06.39-12.74,0-4.33-.09-8.45-.26-12.35s-.95-7.32-2.34-10.27c-1.39-2.94-3.47-5.2-6.24-6.76s-6.76-2.34-11.96-2.34h-13.77v.02Z"/>
    <path class="cls-4" d="m961.7,173.44h-26.51v-5.98c0-6.06-1.43-11.31-4.29-15.72-2.86-4.42-7.67-6.63-14.42-6.63-3.64,0-6.59.69-8.84,2.08-2.25,1.39-4.07,3.12-5.46,5.2-1.39,2.25-2.34,4.81-2.86,7.67-.52,2.86-.78,5.85-.78,8.97,0,3.64.13,6.67.39,9.1s.91,4.59,1.95,6.5c1.04,1.91,2.55,3.55,4.55,4.94,1.99,1.39,4.72,2.77,8.19,4.16l20.27,8.06c5.89,2.25,10.66,4.9,14.29,7.93,3.64,3.03,6.5,6.54,8.58,10.53,1.91,4.16,3.2,8.88,3.9,14.17.69,5.29,1.04,11.31,1.04,18.06,0,7.8-.78,15.03-2.34,21.7s-4.07,12.35-7.54,17.02c-3.64,4.85-8.41,8.67-14.29,11.44-5.89,2.77-13.08,4.16-21.57,4.16-6.41,0-12.39-1.13-17.93-3.38-5.55-2.25-10.31-5.37-14.29-9.36-3.99-3.98-7.15-8.62-9.49-13.9-2.34-5.28-3.51-11.05-3.51-17.28v-9.88h26.51v8.32c0,4.85,1.43,9.23,4.29,13.12,2.86,3.9,7.67,5.85,14.42,5.85,4.5,0,8.01-.65,10.53-1.95,2.51-1.3,4.46-3.16,5.85-5.59,1.38-2.42,2.21-5.33,2.47-8.71.26-3.38.39-7.15.39-11.31,0-4.85-.17-8.84-.52-11.96-.35-3.12-1.04-5.63-2.08-7.54-1.21-1.9-2.82-3.46-4.81-4.68-1.99-1.21-4.64-2.51-7.93-3.9l-18.97-7.8c-11.44-4.68-19.1-10.87-23-18.58s-5.85-17.37-5.85-28.98c0-6.93.95-13.51,2.86-19.75,1.9-6.24,4.76-11.61,8.58-16.11,3.64-4.5,8.27-8.1,13.9-10.79,5.63-2.68,12.35-4.03,20.14-4.03,6.58,0,12.61,1.21,18.06,3.64,5.46,2.43,10.18,5.63,14.17,9.62,7.97,8.32,11.96,17.85,11.96,28.59v13-.02Z"/>
    <path class="cls-4" d="m1065.66,252.45v11.44c0,5.72-1.08,11.13-3.25,16.24s-5.16,9.66-8.97,13.64c-3.81,3.99-8.28,7.15-13.38,9.49-5.11,2.34-10.62,3.51-16.5,3.51-5.03,0-10.14-.69-15.33-2.08s-9.88-3.81-14.03-7.28c-4.16-3.46-7.58-7.93-10.27-13.38-2.69-5.46-4.03-12.43-4.03-20.92v-101.88c0-6.06,1.04-11.7,3.12-16.89,2.08-5.2,5.02-9.7,8.84-13.51,3.81-3.81,8.36-6.8,13.65-8.97,5.28-2.16,11.13-3.25,17.54-3.25,12.48,0,22.61,4.07,30.41,12.21,3.81,3.99,6.8,8.71,8.97,14.17,2.17,5.46,3.25,11.39,3.25,17.8v10.4h-26.51v-8.84c0-5.2-1.47-9.7-4.42-13.51-2.95-3.81-6.93-5.72-11.96-5.72-6.59,0-10.96,2.04-13.12,6.11-2.17,4.07-3.25,9.23-3.25,15.46v94.6c0,5.37,1.17,9.88,3.51,13.52s6.54,5.46,12.61,5.46c1.73,0,3.59-.3,5.59-.91,1.99-.61,3.85-1.6,5.59-2.99,1.56-1.38,2.86-3.29,3.9-5.72,1.04-2.42,1.56-5.46,1.56-9.1v-9.1h26.51-.03Z"/>
    <path class="cls-4" d="m1075.28,305.21l41.33-185.05h22.09l41.33,185.05h-26.51l-7.8-39.76h-36.13l-7.8,39.76h-26.51,0Zm65.5-64.72l-13-67.05h-.52l-13,67.05h26.52Z"/>
    <path class="cls-4" d="m1191.97,305.21V120.16h25.47l40.02,111.5h.52v-111.5h26.51v185.05h-24.95l-40.54-111.24h-.52v111.24h-26.51Z"/>
  </g>
  <g>
    <path class="cls-7" d="m315.39,175.85c0,66.21-53.67,119.88-119.88,119.88s-119.88-53.67-119.88-119.88,54.3-78.37,117.98-50.89c6.02,2.6,18.16.44,24.49-4.24,47.02-34.77,97.28-3.25,97.28,55.13h.01Z"/>
    <path class="cls-2" d="m193.61,154.55c-14.51,19.32-18.5-120.74,0-96.64,28.73,37.42,14.46,77.39,0,96.64Z"/>
    <ellipse class="cls-6" cx="257.08" cy="136.25" rx="15.7" ry="8.56"/>
    <ellipse class="cls-6" cx="282.79" cy="205.14" rx="30.4" ry="11.37" transform="translate(-13.58 390.13) rotate(-67.93)"/>
  </g>
  <g>
    <path class="cls-3" d="m200.84,104.38s46.9,4.65,69.04-34.41c0,0-60.12-28.2-69.04,34.41h0Z"/>
    <path class="cls-5" d="m262.14,72.74c-12.75,1.94-24.73,7.33-34.88,15.18-2.36,1.75-4.69,3.86-7,5.69.55-.85,1.14-1.67,1.74-2.5,9.05-12.19,24.83-20.29,40.14-18.38h0Z"/>
  </g>
  <rect class="cls-9" x="30.89" y="32.75" width="329.31" height="301.31" rx="1.87" ry="1.87"/>
  <rect class="cls-1" x="35.02" y="200.91" width="321.43" height="129.84" rx=".5" ry=".5"/>
  <line class="cls-9" x1="391.48" y1="200.98" x2=".15" y2="200.98"/>
  <polyline class="cls-9" points="350.82 4 387.72 4 387.72 39.31"/>
  <polyline class="cls-9" points="40.9 362.52 4 362.52 4 327.2"/>
  <polyline class="cls-9" points="351.26 363.13 388.16 363.13 388.16 327.82"/>
  <polyline class="cls-9" points="40.9 4 4 4 4 39.31"/>
</svg>