<?xml version="1.0" encoding="UTF-8"?>
<svg id="Layer_1" data-name="Layer 1" xmlns="http://www.w3.org/2000/svg" xmlns:xlink="http://www.w3.org/1999/xlink" viewBox="0 0 272 90">
  <defs>
    <style>
      .cls-1 {
        font-family: K2D-Regular, K2D;
        font-size: 36px;
        letter-spacing: .07em;
      }

      .cls-1, .cls-2 {
        fill: #fff;
      }

      .cls-3 {
        fill: url(#linear-gradient);
      }

      .cls-3, .cls-4, .cls-5, .cls-6, .cls-7, .cls-8, .cls-9, .cls-2, .cls-10 {
        stroke-width: 0px;
      }

      .cls-4 {
        fill: url(#linear-gradient-5);
      }

      .cls-4, .cls-5, .cls-6, .cls-7 {
        opacity: .24;
      }

      .cls-5 {
        fill: url(#linear-gradient-3);
      }

      .cls-6 {
        fill: url(#linear-gradient-4);
      }

      .cls-7 {
        fill: url(#linear-gradient-2);
      }

      .cls-8 {
        fill: #9b70b1;
      }

      .cls-9 {
        fill: #daa6cb;
      }

      .cls-10 {
        fill: #f1dab2;
      }
    </style>
    <linearGradient id="linear-gradient" x1="22.96" y1="45.82" x2="58.04" y2="45.82" gradientUnits="userSpaceOnUse">
      <stop offset="0" stop-color="#ee486c"/>
      <stop offset="1" stop-color="#4d64ad"/>
    </linearGradient>
    <linearGradient id="linear-gradient-2" x1="-771.11" y1="1090.84" x2="-776.74" y2="1052.1" gradientTransform="translate(26.48 -1273.37) rotate(-36.45)" gradientUnits="userSpaceOnUse">
      <stop offset="0" stop-color="#cc6c2e" stop-opacity="0"/>
      <stop offset="1" stop-color="#fff"/>
    </linearGradient>
    <linearGradient id="linear-gradient-3" x1="-773.01" y1="1068.18" x2="-760.66" y2="1068.18" gradientTransform="translate(26.48 -1273.37) rotate(-36.45)" gradientUnits="userSpaceOnUse">
      <stop offset="0" stop-color="#fff"/>
      <stop offset=".09" stop-color="#fff" stop-opacity=".95"/>
      <stop offset=".25" stop-color="#fff" stop-opacity=".82"/>
      <stop offset=".47" stop-color="#fff" stop-opacity=".61"/>
      <stop offset=".73" stop-color="#fff" stop-opacity=".32"/>
      <stop offset="1" stop-color="#fff" stop-opacity="0"/>
    </linearGradient>
    <linearGradient id="linear-gradient-4" x1="-564.26" y1="903.64" x2="-555.66" y2="903.64" gradientTransform="translate(89.47 -1010.32) rotate(-28.74)" gradientUnits="userSpaceOnUse">
      <stop offset="0" stop-color="#fff"/>
      <stop offset=".35" stop-color="#fff" stop-opacity=".61"/>
      <stop offset=".67" stop-color="#fff" stop-opacity=".28"/>
      <stop offset=".89" stop-color="#fff" stop-opacity=".08"/>
      <stop offset="1" stop-color="#fff" stop-opacity="0"/>
    </linearGradient>
    <linearGradient id="linear-gradient-5" x1="-761.05" y1="1065.9" x2="-748.7" y2="1065.9" xlink:href="#linear-gradient-3"/>
  </defs>
  <circle class="cls-3" cx="40.5" cy="45.82" r="17.54"/>
  <path class="cls-7" d="m53.23,53.8c-3.88.81-7.58.16-10.33-1.92-3.19-2.42-3.63-6.52-5.31-9.94-1.74-3.56-4.78-7.43-8.83-9.19-1.02.9-1.98,1.86-2.86,2.91-.02.03-.05.05-.07.08-.2.41-.4.82-.64,1.21,2.1.63,5.07,1.99,6.4,3.55,2.75,3.2,2.2,7.41,4.12,11.08,2.94,5.63,9.77,8.33,16.94,7.07.1-.18.24-.34.44-.49,1.1-.83,1.92-1.93,2.55-3.17-.27-.87-1.08-1.47-2.4-1.19Z"/>
  <path class="cls-8" d="m39,74.44c-17.43-1.44-30.48-15.56-29.16-31.53S26.37,15.16,43.79,16.6c7.02.58,13.33,3.22,18.28,7.21-5.19-5.61-12.41-9.37-20.63-10.05-17.43-1.44-32.72,11.51-34.16,28.94-1.44,17.43,11.51,32.72,28.94,34.16,8.22.68,15.96-1.84,22-6.53-5.54,3.12-12.19,4.69-19.22,4.11Z"/>
  <path class="cls-5" d="m56.56,49c-1.94-.21-8.38-1.49-11.14-3.39-3.21-2.21-5.59-8.8-8.4-11.38-1.94-1.78-3.6-3.03-5.15-3.9-.77.54-1.52,1.11-2.25,1.7,1.81.68,4.13,2.33,6.13,3.9,3.35,2.64,4.14,9.23,7.23,12.02,4.21,3.8,10.38,3.86,14.37,4.05.17-.6.32-1.21.45-1.8.05-.2.12-.37.21-.53-.48-.37-1-.64-1.45-.69Z"/>
  <path class="cls-6" d="m41.82,59.09c-1.08-.84-6.62-3.73-8.64-6.15-2.34-2.8-2.32-7.05-4.57-9.99-1.43-1.88-4.74-2.49-4.74-2.49-.12-.14,0-.18,0,0,.01.22-.59,1.69-.7,1.8,1.09-.44,2.94-.18,4.46,1.71,2.55,3.18,1.52,6.51,3.98,9.71,3.34,4.36,9.37,6.4,11.52,7.96-.09-.4-.2-.8-.3-1.2-.04-.13-.05-.24-.05-.32-.36-.44-.71-.83-.96-1.03Z"/>
  <circle class="cls-10" cx="51.16" cy="30.33" r="1.98"/>
  <circle class="cls-10" cx="48.18" cy="27.43" r=".99"/>
  <circle class="cls-10" cx="18.95" cy="41.28" r="1.15"/>
  <circle class="cls-10" cx="16.76" cy="39.57" r=".57"/>
  <circle class="cls-10" cx="18.53" cy="46.64" r="1.15"/>
  <circle class="cls-10" cx="19.95" cy="44.24" r=".57"/>
  <circle class="cls-10" cx="27.23" cy="31.91" r=".57"/>
  <circle class="cls-10" cx="26.65" cy="34.5" r=".57"/>
  <circle class="cls-10" cx="54.62" cy="54.9" r=".57"/>
  <circle class="cls-10" cx="54.62" cy="56.93" r=".57"/>
  <circle class="cls-10" cx="52.7" cy="55.89" r=".99"/>
  <path class="cls-4" d="m64.81,40.04c-1.94-.21-8.38-1.49-11.14-3.39-3.21-2.21-5.59-8.8-8.4-11.38-1.94-1.78-.58-.25-2.13-1.12-.77.54-4.54-1.68-5.27-1.08,1.81.68,4.13,2.33,6.13,3.9,3.35,2.64,3.74,7.13,6.83,9.92,4.21,3.8,10.78,5.96,14.78,6.15.17-.6.32-1.21.45-1.8.05-.2.12-.37.21-.53-.48-.37-1-.64-1.45-.69Z"/>
  <path class="cls-9" d="m22.46,51.62c-1.15.74-2.36,1.49-3.19,2.36-.2.19-.34.48-.27.46.05-.03.04-.23.02-.27-.02-.05.05-.02.13,0l.32.06c13.39,1.31,27.37-3.15,37.35-12.21,1.73-1.6,3.56-3.61,5.05-5.33,0,.05.08.17.12.16-.66-.51-1.85-.4-2.76-.46-1.33,0-2.69.12-4.06.25,1.94-.79,3.93-1.52,6.07-1.62.65,0,1.42.03,2.02.56,1.16,1.09.07,2.59-.53,3.5-8.59,14.35-27.27,21.41-43.33,17.27-1.03-.24-2.42-1.07-2-2.35.29-.68.67-.87,1-1.1,1.35-.76,2.68-1.05,4.06-1.28h0Z"/>
  <g>
    <circle class="cls-8" cx="26.83" cy="55.97" r="2.98"/>
    <path class="cls-2" d="m29.81,55.97c-.1,4.14-6.18,4.24-6.33,0,.15-4.25,6.24-4.14,6.33,0h0Zm0,0c-.14-3.75-5.5-3.64-5.59,0,.08,3.65,5.45,3.75,5.59,0h0Z"/>
  </g>
  <g>
    <path class="cls-8" d="m61.54,68.82c-.66,1.08-2.12,1.08-2.63.51s-.3-1.77.78-2.42c1.15-.7,2.5-.52,2.5-.52,0,0,.49.55-.66,2.43Z"/>
    <path class="cls-8" d="m61.15,69.27s-.33.9-1.43,2.37c-.28.37-.82-2.31-.82-2.31,0,0-2.4-.44-2.18-.81.27-.44,1.63-.88,2.55-1.33l1.88,2.08Z"/>
  </g>
  <text class="cls-1" transform="translate(76.75 58.42)"><tspan x="0" y="0">CORELLIA</tspan></text>
</svg>