<?xml version="1.0" encoding="UTF-8"?>
<svg id="uuid-f38b165f-ebe6-470f-814f-68e4e29063a3" data-name="Layer 1" xmlns="http://www.w3.org/2000/svg" viewBox="0 0 255.93478 255.93478">
  <defs>
    <style>
      .uuid-ec7d0ba1-2652-497e-a556-a02bc644283e {
        fill: #672a7a;
      }

      .uuid-ec7d0ba1-2652-497e-a556-a02bc644283e, .uuid-2f212334-1313-4e63-b1a6-dfefaeb4e71b {
        stroke-width: 0px;
      }

      .uuid-2f212334-1313-4e63-b1a6-dfefaeb4e71b {
        fill: #fff;
      }
    </style>
  </defs>
  <rect class="uuid-ec7d0ba1-2652-497e-a556-a02bc644283e" width="255.93478" height="255.93478"/>
  <g>
    <path class="uuid-2f212334-1313-4e63-b1a6-dfefaeb4e71b" d="m164.70463,97.79836c1.31344-1.15829,1.96804-2.60669,1.96804-4.36007,0-1.59334-.52729-2.90232-1.57294-3.92842-.8023-.81442-2.12233-1.60843-3.95095-2.37057-1.62692-.69349-2.70722-1.29027-3.21559-1.77931-.56895-.52623-.85884-1.26435-.85884-2.21075,0-.87945.34473-1.59504,1.02992-2.15846.67861-.55216,1.59249-.83121,2.72656-.83121,1.83223,0,3.4481.50582,4.85739,1.52661v-3.45278c-1.35191-.66905-2.87363-1.00187-4.57749-1.00187-2.21988,0-4.0281.58722-5.4393,1.77357-1.40185,1.177-2.11107,2.65685-2.11107,4.43042,0,1.58782.45354,2.87831,1.35999,3.86934.75108.83652,2.03009,1.64159,3.82343,2.42817,1.73935.76405,2.91252,1.41864,3.51292,1.96506.60444.53919.90198,1.23098.90198,2.0675,0,1.9912-1.35913,2.99158-4.07464,2.99158-2.03307,0-3.88485-.68605-5.56555-2.05071v3.68486c1.50982.86266,3.28424,1.28857,5.31455,1.28857,2.4711,0,4.43892-.62654,5.87159-1.88154Z"/>
    <path class="uuid-2f212334-1313-4e63-b1a6-dfefaeb4e71b" d="m196.94281,99.16663h3.42855v-18.50846h5.01998v-2.90423h-5.01998v-3.30018c0-3.02495,1.19251-4.53647,3.59113-4.53647.85161,0,1.60355.18958,2.27748.56321v-3.09551c-.6004-.24547-1.42587-.37193-2.483-.37193-1.82862,0-3.36628.57638-4.62488,1.73468-1.4688,1.33299-2.18928,3.18116-2.18928,5.53494v3.47127h-3.64129v2.90423h3.64129v18.50846Z"/>
    <path class="uuid-2f212334-1313-4e63-b1a6-dfefaeb4e71b" d="m87.67707,72.3193c.6276,0,1.16212-.21572,1.59632-.65077.43696-.42952.65906-.95766.65906-1.58782,0-.6191-.22209-1.14703-.65906-1.57655-.4342-.42591-.96872-.63589-1.59632-.63589-.61251,0-1.14235.20998-1.58038.63589-.43314.42952-.65056.95745-.65056,1.57655,0,.65821.21742,1.19187.65056,1.61013.43803.41826.96787.62845,1.58038.62845Z"/>
    <path class="uuid-2f212334-1313-4e63-b1a6-dfefaeb4e71b" d="m104.84446,99.67989c2.26282,0,4.22235-.49838,5.86415-1.50599v-3.25746c-1.6418,1.22907-3.39242,1.84073-5.26737,1.84073-2.21627,0-3.97496-.72324-5.29521-2.17355-1.31727-1.45562-1.97994-3.42281-1.97994-5.91792,0-2.59181.72877-4.67228,2.15868-6.2246,1.3738-1.51917,3.14864-2.28152,5.32857-2.28152,1.81353,0,3.50633.55428,5.10265,1.67708v-3.5176c-1.44096-.71963-3.09105-1.08752-4.95494-1.08752-3.40049,0-6.10856,1.08008-8.11932,3.24046-2.02117,2.15868-3.02495,4.99766-3.02495,8.5023,0,3.12739.92217,5.6801,2.75801,7.65451,1.88706,2.03413,4.35816,3.05109,7.42965,3.05109Z"/>
    <path class="uuid-2f212334-1313-4e63-b1a6-dfefaeb4e71b" d="m226.71944,79.46629h.66565c.46863,0,.89816.43314,1.29793,1.30877l.78913,1.7385h1.23629l-.95256-1.93191c-.39531-.79742-.79869-1.24373-1.20122-1.34043v-.02784c.58106-.12284,1.03843-.35875,1.35637-.71219.32538-.3477.48712-.76979.48712-1.26966,0-.56342-.20084-1.01547-.59594-1.36849-.46842-.40891-1.15085-.60805-2.06112-.60805h-2.04136v7.25857h1.01972v-3.04727Zm0-3.33929h.90198c.62718,0,1.07264.10775,1.33576.31795.23336.19702.34855.49095.34855.90921,0,.8293-.49541,1.24373-1.49941,1.24373h-1.08688v-2.47088Z"/>
    <path class="uuid-2f212334-1313-4e63-b1a6-dfefaeb4e71b" d="m210.942,93.32501c0,4.20917,1.86666,6.31769,5.60571,6.31769,1.33214,0,2.40755-.22868,3.21835-.69349v-2.92464c-.6276.46098-1.36381.69349-2.21627.69349-1.14257,0-1.95231-.30307-2.44772-.91835-.4918-.59509-.72771-1.62331-.72771-3.06023v-12.08132h5.3917v-2.90423h-5.3917v-6.3364c-1.20122.39042-2.34018.76596-3.43237,1.10984v5.22656h-3.67551v2.90423h3.67551v12.66684Z"/>
    <path class="uuid-2f212334-1313-4e63-b1a6-dfefaeb4e71b" d="m227.91514,84.59381c1.61927,0,2.97841-.54642,4.08272-1.63415,1.10814-1.08391,1.65859-2.42817,1.65859-4.03256,0-1.63436-.55407-2.98606-1.66964-4.05509-1.08497-1.04119-2.4254-1.56912-4.02512-1.56912-1.63075,0-2.99456.55024-4.09058,1.64159-1.09517,1.1007-1.64265,2.43752-1.64265,4.02895,0,1.62692.53558,2.96736,1.61587,4.03277,1.07732,1.05415,2.43645,1.58761,4.07082,1.58761Zm-3.58285-9.2181c.95745-.96489,2.16229-1.44436,3.61069-1.44436,1.40185,0,2.59543.47947,3.56776,1.43522.97148.95745,1.45945,2.16229,1.45945,3.5922,0,1.43713-.48797,2.64558-1.46774,3.60134-.97977.97594-2.16867,1.45754-3.55947,1.45754-1.40292,0-2.59181-.47607-3.56436-1.43735-.98253-.96468-1.47985-2.17695-1.47985-3.62153,0-1.41864.47692-2.61434,1.43352-3.58306Z"/>
    <rect class="uuid-2f212334-1313-4e63-b1a6-dfefaeb4e71b" x="85.92305" y="77.75393" width="3.41898" height="21.4127"/>
    <path class="uuid-2f212334-1313-4e63-b1a6-dfefaeb4e71b" d="m139.01178,99.67989c3.25725,0,5.85289-1.03184,7.78288-3.09381,1.91682-2.05624,2.88064-4.79491,2.88064-8.20858,0-3.46935-.89794-6.19676-2.68001-8.18053-1.7978-1.97101-4.29206-2.96544-7.48342-2.96544-3.2462,0-5.83333.95193-7.77077,2.84069-2.09449,2.03966-3.13738,4.91414-3.13738,8.6364,0,3.26469.92217,5.88987,2.75823,7.87746,1.87856,2.06197,4.43509,3.09381,7.64984,3.09381Zm-4.86483-17.43029c1.27837-1.39271,2.98691-2.09003,5.11774-2.09003,2.16123,0,3.84107.68988,5.04315,2.06771,1.23438,1.43713,1.85454,3.52865,1.85454,6.27115,0,2.61774-.57638,4.637-1.7385,6.06648-1.18146,1.45966-2.90593,2.19226-5.15919,2.19226-2.17738,0-3.91291-.72133-5.20318-2.16611-1.29793-1.43713-1.94104-3.44683-1.94104-6.0108,0-2.73123.67479-4.83784,2.02648-6.33066Z"/>
    <path class="uuid-2f212334-1313-4e63-b1a6-dfefaeb4e71b" d="m188.24349,96.58608c1.92149-2.05624,2.89403-4.79491,2.89403-8.20858,0-3.46935-.90644-6.19676-2.69234-8.18053-1.79419-1.97101-4.28377-2.96544-7.47514-2.96544-3.25087,0-5.8463.95193-7.77799,2.84069-2.08429,2.03966-3.13483,4.91414-3.13483,8.6364,0,3.26469.92238,5.88987,2.75908,7.87746,1.87814,2.06197,4.43446,3.09381,7.65366,3.09381,3.26107,0,5.8531-1.03184,7.77353-3.09381Zm-14.66846-8.00583c0-2.73123.66926-4.83784,2.01713-6.33066,1.28666-1.39271,2.99541-2.09003,5.12497-2.09003,2.15783,0,3.84235.68988,5.03953,2.06771,1.23927,1.43713,1.85943,3.52865,1.85943,6.27115,0,2.61774-.57745,4.637-1.7385,6.06648-1.18146,1.45966-2.90211,2.19226-5.16046,2.19226-2.17249,0-3.90802-.72133-5.21317-2.16611-1.28645-1.43713-1.92893-3.44683-1.92893-6.0108Z"/>
    <polygon class="uuid-2f212334-1313-4e63-b1a6-dfefaeb4e71b" points="137.85072 151.85941 166.24591 151.85941 166.24591 143.5282 137.85072 143.5282 137.85072 117.37797 168.49746 117.37797 168.49746 109.04676 128.64282 109.04676 128.64282 187.65917 170.30567 187.65917 170.30567 179.32775 137.85072 179.32775 137.85072 151.85941"/>
    <polygon class="uuid-2f212334-1313-4e63-b1a6-dfefaeb4e71b" points="178.95844 117.37797 201.6459 117.37797 201.6459 187.65917 210.85656 187.65917 210.85656 117.37797 233.50003 117.37797 233.50003 109.04676 178.95844 109.04676 178.95844 117.37797"/>
    <path class="uuid-2f212334-1313-4e63-b1a6-dfefaeb4e71b" d="m28.30508,176.5336c-1.67708,0-3.10316.59657-4.27251,1.80885-1.17402,1.20484-1.75423,2.66259-1.75423,4.386,0,1.67708.58021,3.12909,1.75423,4.35433,1.16934,1.22333,2.59543,1.83882,4.27251,1.83882,1.7198,0,3.18392-.61549,4.38876-1.83882,1.20845-1.22524,1.80906-2.67725,1.80906-4.35433,0-1.68091-.60061-3.13844-1.80906-4.36177-1.20484-1.22907-2.66896-1.83308-4.38876-1.83308Z"/>
    <path class="uuid-2f212334-1313-4e63-b1a6-dfefaeb4e71b" d="m121.72813,78.55135c-1.04098.85161-1.8165,2.05262-2.31935,3.61813h-.08544v-4.41554h-3.42387v21.4127h3.42387v-10.9192c0-2.48406.53452-4.42489,1.61098-5.83057.94916-1.25308,2.11851-1.87771,3.51016-1.87771,1.14554,0,2.01352.22486,2.61796.68775v-3.55479c-.46481-.1934-1.14257-.2901-2.05262-.2901-1.21313,0-2.30915.39042-3.28169,1.16934Z"/>
    <polygon class="uuid-2f212334-1313-4e63-b1a6-dfefaeb4e71b" points="51.16618 73.22107 51.24057 73.22107 62.37931 99.16663 64.0955 99.16663 75.2166 73.22107 75.29821 73.22107 75.00364 99.16663 78.52039 99.16663 78.52039 69.18469 74.11675 69.18469 63.28575 93.68206 63.13889 93.68206 52.58015 69.18469 47.93954 69.18469 47.93954 99.16663 51.32898 99.16663 51.16618 73.22107"/>
    <polygon class="uuid-2f212334-1313-4e63-b1a6-dfefaeb4e71b" points="102.0788 175.44098 59.87421 109.04676 47.91637 109.04676 47.91637 187.65917 57.13086 187.65917 57.13086 120.23014 100.05678 187.65917 111.23548 187.65917 111.23548 109.04676 102.0788 109.04676 102.0788 175.44098"/>
  </g>
</svg>